<?xml version="1.0" encoding="UTF-8"?>
<svg xmlns="http://www.w3.org/2000/svg" xmlns:xlink="http://www.w3.org/1999/xlink" version="1.1" id="Capa_1" x="0px" y="0px" viewBox="0 0 512 512" style="enable-background:new 0 0 512 512;" xml:space="preserve" width="512" height="512">
<g>
	<g>
		<path style="fill-rule:evenodd;clip-rule:evenodd;fill:none;stroke:#000000;stroke-width:15;stroke-miterlimit:22.9256;" d="&#10;&#9;&#9;&#9;M336.348,504.5h37.5v-33.58c0-28.871-0.063-66.148,40.902-105.185c40.128-38.239,65.638-91.867,65.638-151.676&#10;&#9;&#9;&#9;C480.388,90.712,380.096,7.5,260.755,7.5c-54.565,0-101.428,21.768-135.69,56.232 M114.576,75.14&#10;&#9;&#9;&#9;C82.719,112.583,64.25,161.998,64.25,214.059L32.539,329.791c-3.921,14.311,5.243,22.271,15.275,22.271h38.317v85.605h90.594&#10;&#9;&#9;&#9;V504.5h144.623"/>
		<path style="fill-rule:evenodd;clip-rule:evenodd;fill:none;stroke:#000000;stroke-width:15;stroke-miterlimit:22.9256;" d="&#10;&#9;&#9;&#9;M406.057,269.118c26.906-13.118,41.588-51.069,25.688-82.422c6-48.187-13.426-63.772-33.968-73.959&#10;&#9;&#9;&#9;c-13.134-30.714-37.454-41.211-63.876-47.015C313.934,51.326,287.552,47.4,262.555,54.6c-31.317-9.6-58.592,2.793-82.485,25.723&#10;&#9;&#9;&#9;c-25.49,5.391-56.083,39.915-57.077,76.374c-16.009,19.905-12.305,59.121,29.786,65.555&#10;&#9;&#9;&#9;c22.452,14.641,49.528,16.946,64.354,12.032c10.461,21.717,26.395,29.93,47.04,32.13c15.395,22.177,43.165,26.418,67.023,22.07&#10;&#9;&#9;&#9;C356.854,310.082,403.175,293.565,406.057,269.118z"/>
		<path style="fill-rule:evenodd;clip-rule:evenodd;fill:none;stroke:#000000;stroke-width:15;stroke-miterlimit:22.9256;" d="&#10;&#9;&#9;&#9;M264.173,266.413c18.741,32.461,32.381,73.538,32.381,109.238h30l4.642-87.168"/>
		<path style="fill-rule:evenodd;clip-rule:evenodd;fill:none;stroke:#000000;stroke-width:15;stroke-miterlimit:22.9256;" d="&#10;&#9;&#9;&#9;M387.225,292.025c8.851,22.409-20.626,63.88-58.02,33.83"/>
		
			<polyline style="fill-rule:evenodd;clip-rule:evenodd;fill:none;stroke:#000000;stroke-width:15;stroke-linecap:square;stroke-miterlimit:10;" points="&#10;&#9;&#9;&#9;158.253,188.078 177.632,137.195 179.797,137.192 199,188.078 &#9;&#9;"/>
		
			<line style="fill-rule:evenodd;clip-rule:evenodd;fill:none;stroke:#000000;stroke-width:15;stroke-linecap:round;stroke-linejoin:bevel;stroke-miterlimit:10;" x1="164.297" y1="175.406" x2="193.054" y2="175.406"/>
		
			<path style="fill-rule:evenodd;clip-rule:evenodd;fill:none;stroke:#000000;stroke-width:15;stroke-linecap:square;stroke-miterlimit:10;" d="&#10;&#9;&#9;&#9;M294.163,135.704v51.61 M329.878,135.704v51.61"/>
		
			<line style="fill-rule:evenodd;clip-rule:evenodd;fill:none;stroke:#000000;stroke-width:15;stroke-linecap:square;stroke-miterlimit:10;" x1="298.081" y1="160.625" x2="327.92" y2="160.625"/>
		
			<path style="fill-rule:evenodd;clip-rule:evenodd;fill:none;stroke:#000000;stroke-width:15;stroke-linecap:square;stroke-miterlimit:10;" d="&#10;&#9;&#9;&#9;M264.163,162.273c0,13.8-7.659,24.829-19.811,25.042h-14.6v-50.084h14.185C257.266,137.231,264.163,148.473,264.163,162.273z"/>
		
			<path style="fill-rule:evenodd;clip-rule:evenodd;fill:none;stroke:#000000;stroke-width:15;stroke-linecap:square;stroke-miterlimit:10;" d="&#10;&#9;&#9;&#9;M394.288,162.273c0,13.8-7.659,24.829-19.811,25.042h-14.6v-50.084h14.185C387.391,137.231,394.288,148.473,394.288,162.273z"/>
		<path style="fill-rule:evenodd;clip-rule:evenodd;fill:none;stroke:#000000;stroke-width:15;stroke-miterlimit:22.9256;" d="&#10;&#9;&#9;&#9;M308.696,95.055v-15 M338.696,110.055v-15"/>
	</g>
</g>















</svg>
