<?xml version="1.0" encoding="UTF-8" standalone="no"?>
<!-- Created with Inkscape (http://www.inkscape.org/) -->

<svg
   version="1.1"
   id="svg3273"
   xml:space="preserve"
   width="682.66669"
   height="682.66669"
   viewBox="0 0 682.66669 682.66669"
   xmlns="http://www.w3.org/2000/svg"
   xmlns:svg="http://www.w3.org/2000/svg"><defs
     id="defs3277"><clipPath
       clipPathUnits="userSpaceOnUse"
       id="clipPath3287"><path
         d="M 0,512 H 512 V 0 H 0 Z"
         id="path3285" /></clipPath></defs><g
     id="g3279"
     transform="matrix(1.3333333,0,0,-1.3333333,0,682.66667)"><g
       id="g3281"><g
         id="g3283"
         clip-path="url(#clipPath3287)"><g
           id="g3289"
           transform="translate(471.0518,192.5225)"><path
             d="m 0,0 c 13.245,13.137 21.448,31.349 21.448,51.478 0,40.041 -32.459,72.5 -72.5,72.5 -19.15,0 -36.566,-7.425 -49.526,-19.553"
             style="fill:none;stroke:#000000;stroke-width:15;stroke-linecap:round;stroke-linejoin:round;stroke-miterlimit:10;stroke-dasharray:none;stroke-opacity:1"
             id="path3291" /></g><g
           id="g3293"
           transform="translate(361.1025,201.7139)"><path
             d="M 0,0 C 5.379,-7.479 12.147,-13.892 19.928,-18.86"
             style="fill:none;stroke:#000000;stroke-width:15;stroke-linecap:round;stroke-linejoin:round;stroke-miterlimit:10;stroke-dasharray:none;stroke-opacity:1"
             id="path3295" /></g><g
           id="g3297"
           transform="translate(402.668,268.7793)"><path
             d="M 0,0 C 0,0.834 0.058,1.654 0.17,2.457 1.382,11.143 8.925,17.8 17.984,17.617 27.15,17.433 34.743,10.092 35.219,0.937 35.745,-9.208 27.664,-17.622 17.621,-17.622 v -18.427"
             style="fill:none;stroke:#000000;stroke-width:15;stroke-linecap:round;stroke-linejoin:round;stroke-miterlimit:10;stroke-dasharray:none;stroke-opacity:1"
             id="path3299" /></g><g
           id="g3301"
           transform="translate(135.5449,385.1426)"><path
             d="M 0,0 C 3.813,-12.714 11.021,-23.96 20.571,-32.685"
             style="fill:none;stroke:#000000;stroke-width:15;stroke-linecap:round;stroke-linejoin:round;stroke-miterlimit:10;stroke-dasharray:none;stroke-opacity:1"
             id="path3303" /></g><g
           id="g3305"
           transform="translate(275.7998,390.3184)"><path
             d="m 0,0 c 1.113,5.05 1.7,10.297 1.7,15.682 0,40.041 -32.459,72.5 -72.5,72.5 -22.181,0 -42.037,-9.962 -55.336,-25.657"
             style="fill:none;stroke:#000000;stroke-width:15;stroke-linecap:round;stroke-linejoin:round;stroke-miterlimit:10;stroke-dasharray:none;stroke-opacity:1"
             id="path3307" /></g><g
           id="g3309"
           transform="translate(205.5,394.5)"><path
             d="M 0,0 V 54"
             style="fill:none;stroke:#000000;stroke-width:15;stroke-linecap:round;stroke-linejoin:round;stroke-miterlimit:10;stroke-dasharray:none;stroke-opacity:1"
             id="path3311" /></g><g
           id="g3313"
           transform="translate(504.5,432)"><path
             d="M 0,0 C 0,40.041 -32.459,72.5 -72.5,72.5 -112.541,72.5 -145,40.041 -145,0 c 0,-40.041 32.459,-72.5 72.5,-72.5 C -32.459,-72.5 0,-40.041 0,0 Z"
             style="fill:none;stroke:#000000;stroke-width:15;stroke-linecap:round;stroke-linejoin:round;stroke-miterlimit:10;stroke-dasharray:none;stroke-opacity:1"
             id="path3315" /></g><g
           id="g3317"
           transform="translate(432.5,432.5)"><path
             d="M 0,0 V 0"
             style="fill:none;stroke:#000000;stroke-width:15;stroke-linecap:round;stroke-linejoin:round;stroke-miterlimit:10;stroke-dasharray:none;stroke-opacity:1"
             id="path3319" /></g><g
           id="g3321"
           transform="translate(462.5,432.5)"><path
             d="M 0,0 V 0"
             style="fill:none;stroke:#000000;stroke-width:15;stroke-linecap:round;stroke-linejoin:round;stroke-miterlimit:10;stroke-dasharray:none;stroke-opacity:1"
             id="path3323" /></g><g
           id="g3325"
           transform="translate(402.5,432.5)"><path
             d="M 0,0 V 0"
             style="fill:none;stroke:#000000;stroke-width:15;stroke-linecap:round;stroke-linejoin:round;stroke-miterlimit:10;stroke-dasharray:none;stroke-opacity:1"
             id="path3327" /></g><g
           id="g3329"
           transform="translate(53.8701,364.3516)"><path
             d="m 0,0 c 8.106,-3.134 16.918,-4.852 26.13,-4.852 40.041,0 72.5,32.459 72.5,72.5 0,40.041 -32.459,72.5 -72.5,72.5 -40.041,0 -72.5,-32.459 -72.5,-72.5 0,-18.132 6.656,-34.71 17.659,-47.422"
             style="fill:none;stroke:#000000;stroke-width:15;stroke-linecap:round;stroke-linejoin:round;stroke-miterlimit:10;stroke-dasharray:none;stroke-opacity:1"
             id="path3331" /></g><g
           id="g3333"
           transform="translate(62.668,456.7793)"><path
             d="M 0,0 C 0,0.834 0.058,1.654 0.17,2.457 1.382,11.143 8.925,17.8 17.984,17.617 27.15,17.433 34.743,10.092 35.219,0.937 35.745,-9.208 27.664,-17.622 17.621,-17.622 v -18.427"
             style="fill:none;stroke:#000000;stroke-width:15;stroke-linecap:round;stroke-linejoin:round;stroke-miterlimit:10;stroke-dasharray:none;stroke-opacity:1"
             id="path3335" /></g><g
           id="g3337"
           transform="translate(80.5039,389.708)"><path
             d="M 0,0 V 0.504"
             style="fill:none;stroke:#000000;stroke-width:15;stroke-linecap:round;stroke-linejoin:round;stroke-miterlimit:10;stroke-dasharray:none;stroke-opacity:1"
             id="path3339" /></g><g
           id="g3341"
           transform="translate(136.7266,231.7617)"><path
             d="m 0,0 c -13.219,14.001 -31.952,22.738 -52.727,22.738 -40.041,0 -72.5,-32.459 -72.5,-72.5 0,-40.041 32.459,-72.5 72.5,-72.5 40.041,0 72.5,32.459 72.5,72.5 0,6.316 -0.807,12.443 -2.325,18.283"
             style="fill:none;stroke:#000000;stroke-width:15;stroke-linecap:round;stroke-linejoin:round;stroke-miterlimit:10;stroke-dasharray:none;stroke-opacity:1"
             id="path3343" /></g><g
           id="g3345"
           transform="translate(84.5039,139.708)"><path
             d="M 0,0 V 0.504"
             style="fill:none;stroke:#000000;stroke-width:15;stroke-linecap:round;stroke-linejoin:round;stroke-miterlimit:10;stroke-dasharray:none;stroke-opacity:1"
             id="path3347" /></g><g
           id="g3349"
           transform="translate(84.5,170.5)"><path
             d="M 0,0 V 54"
             style="fill:none;stroke:#000000;stroke-width:15;stroke-linecap:round;stroke-linejoin:round;stroke-miterlimit:10;stroke-dasharray:none;stroke-opacity:1"
             id="path3351" /></g><g
           id="g3353"
           transform="translate(494.5332,167.709)"><path
             d="m 0,0 c -12.6,21.417 -35.888,35.791 -62.533,35.791 -40.041,0 -72.5,-32.459 -72.5,-72.5 0,-11.033 2.465,-21.491 6.874,-30.854"
             style="fill:none;stroke:#000000;stroke-width:15;stroke-linecap:round;stroke-linejoin:round;stroke-miterlimit:10;stroke-dasharray:none;stroke-opacity:1"
             id="path3355" /></g><g
           id="g3357"
           transform="translate(410.4404,61.7598)"><path
             d="m 0,0 c 6.811,-2.118 14.052,-3.26 21.56,-3.26 40.041,0 72.5,32.459 72.5,72.5 0,1.097 -0.025,2.189 -0.073,3.274"
             style="fill:none;stroke:#000000;stroke-width:15;stroke-linecap:round;stroke-linejoin:round;stroke-miterlimit:10;stroke-dasharray:none;stroke-opacity:1"
             id="path3359" /></g><g
           id="g3361"
           transform="translate(431.5,131.5)"><path
             d="M 0,0 V 0"
             style="fill:none;stroke:#000000;stroke-width:15;stroke-linecap:round;stroke-linejoin:round;stroke-miterlimit:10;stroke-dasharray:none;stroke-opacity:1"
             id="path3363" /></g><g
           id="g3365"
           transform="translate(461.5,131.5)"><path
             d="M 0,0 V 0"
             style="fill:none;stroke:#000000;stroke-width:15;stroke-linecap:round;stroke-linejoin:round;stroke-miterlimit:10;stroke-dasharray:none;stroke-opacity:1"
             id="path3367" /></g><g
           id="g3369"
           transform="translate(401.5,131.5)"><path
             d="M 0,0 V 0"
             style="fill:none;stroke:#000000;stroke-width:15;stroke-linecap:round;stroke-linejoin:round;stroke-miterlimit:10;stroke-dasharray:none;stroke-opacity:1"
             id="path3371" /></g><g
           id="g3373"
           transform="translate(167.5107,197.4785)"><path
             d="m 0,0 c -17.002,0 -30.784,13.83 -30.784,30.891 v 0.001 c 0,12.368 9.992,22.395 22.318,22.395 h 4.154"
             style="fill:none;stroke:#000000;stroke-width:15;stroke-linecap:round;stroke-linejoin:round;stroke-miterlimit:10;stroke-dasharray:none;stroke-opacity:1"
             id="path3375" /></g><g
           id="g3377"
           transform="translate(349.6055,250.7656)"><path
             d="m 0,0 h 4.153 c 12.326,0 22.319,-10.027 22.319,-22.396 v 0 c 0,-17.061 -13.783,-30.891 -30.784,-30.891"
             style="fill:none;stroke:#000000;stroke-width:15;stroke-linecap:round;stroke-linejoin:round;stroke-miterlimit:10;stroke-dasharray:none;stroke-opacity:1"
             id="path3379" /></g><g
           id="g3381"
           transform="translate(210.2246,107.123)"><path
             d="M 0,0 -26.653,-8.046"
             style="fill:none;stroke:#000000;stroke-width:15;stroke-linecap:round;stroke-linejoin:round;stroke-miterlimit:10;stroke-dasharray:none;stroke-opacity:1"
             id="path3383" /></g><g
           id="g3385"
           transform="translate(303.3486,107.123)"><path
             d="M 0,0 25.931,-7.892"
             style="fill:none;stroke:#000000;stroke-width:15;stroke-linecap:round;stroke-linejoin:round;stroke-miterlimit:10;stroke-dasharray:none;stroke-opacity:1"
             id="path3387" /></g><g
           id="g3389"
           transform="translate(298.4912,139.668)"><path
             d="m 0,0 3.9,-33.572 c 0.941,-8.096 -1.262,-16.301 -6.358,-22.648 -6.465,-8.052 -18.322,-16.483 -39.631,-16.483 -21.307,0 -33.164,8.429 -39.63,16.48 -5.098,6.349 -7.3,14.558 -6.356,22.657 l 3.971,34.092"
             style="fill:none;stroke:#000000;stroke-width:15;stroke-linecap:round;stroke-linejoin:round;stroke-miterlimit:10;stroke-dasharray:none;stroke-opacity:1"
             id="path3391" /></g><g
           id="g3393"
           transform="translate(348.6055,250.7656)"><path
             d="m 0,0 c 0,-39.182 -0.756,-52.052 -16.695,-74.199 -21.985,-30.547 -49.371,-51.295 -75.508,-51.295 -26.138,0 -53.525,20.747 -75.509,51.295 -15.938,22.147 -16.695,35.017 -16.695,74.199"
             style="fill:none;stroke:#000000;stroke-width:15;stroke-linecap:round;stroke-linejoin:round;stroke-miterlimit:10;stroke-dasharray:none;stroke-opacity:1"
             id="path3395" /></g><g
           id="g3397"
           transform="translate(340.3447,366.9893)"><path
             d="m 0,0 c 37.949,-36.016 38.215,-104.917 8.261,-116.224 0,19.078 -10.122,29.639 -22.465,37.706 -30.316,19.815 -62.265,-9.236 -112.642,40.705 -5.418,-17.056 -12.051,-31.368 -26.31,-39.782 -14.541,-8.579 -22.99,-19.716 -22.99,-38.629 -18.368,0 -27.472,28.395 -27.472,47.881 0,45.445 27.706,68.732 56.46,68.513 5.433,-0.041 11.087,-1.094 16.823,-3.927 23.545,24.953 59.894,32.104 95.764,22.939 1.582,-0.405 3.134,-0.852 4.656,-1.342"
             style="fill:none;stroke:#000000;stroke-width:15;stroke-linecap:round;stroke-linejoin:round;stroke-miterlimit:10;stroke-dasharray:none;stroke-opacity:1"
             id="path3399" /></g><g
           id="g3401"
           transform="translate(196.3115,36)"><path
             d="M 0,0 C 5.079,-16.864 9.681,-28.5 9.681,-28.5"
             style="fill:none;stroke:#000000;stroke-width:15;stroke-linecap:round;stroke-linejoin:round;stroke-miterlimit:10;stroke-dasharray:none;stroke-opacity:1"
             id="path3403" /></g><g
           id="g3405"
           transform="translate(91.3652,7.5)"><path
             d="m 0,0 7.127,40.143 c 2.13,12.306 7.557,23.4 15.43,32.321 2.618,2.861 6.077,6.173 10.49,9.396 4.148,3.031 8.099,5.224 11.453,6.812 1.252,0.567 2.6,1.131 4.041,1.673 1.372,0.515 2.768,0.988 4.186,1.417 l 27.521,8.302 c 5.659,1.708 11.445,-2.278 11.869,-8.192 0.698,-9.746 2.251,-19.831 4.232,-29.591"
             style="fill:none;stroke:#000000;stroke-width:15;stroke-linecap:round;stroke-linejoin:round;stroke-miterlimit:10;stroke-dasharray:none;stroke-opacity:1"
             id="path3407" /></g><g
           id="g3409"
           transform="translate(421.4395,7.5)"><path
             d="m 0,0 -7.127,40.143 c -4.264,24.635 -21.742,44.413 -45.601,51.619 l -27.521,8.302 c -5.658,1.708 -11.445,-2.278 -11.869,-8.192 -0.751,-10.474 -2.46,-26.934 -6.332,-44.732 l -7.24,-26.145 C -108.199,13.75 -111.152,6.65 -114.628,0"
             style="fill:none;stroke:#000000;stroke-width:15;stroke-linecap:round;stroke-linejoin:round;stroke-miterlimit:10;stroke-dasharray:none;stroke-opacity:1"
             id="path3411" /></g><g
           id="g3413"
           transform="translate(210.0098,363.2324)"><path
             d="M 0,0 3.489,-34.056"
             style="fill:none;stroke:#000000;stroke-width:15;stroke-linecap:round;stroke-linejoin:round;stroke-miterlimit:10;stroke-dasharray:none;stroke-opacity:1"
             id="path3415" /></g><g
           id="g3417"
           transform="translate(300.459,234.75)"><path
             d="M 0,0 -19.918,-11.5 0,-23"
             style="fill:none;stroke:#000000;stroke-width:15;stroke-linecap:round;stroke-linejoin:round;stroke-miterlimit:10;stroke-dasharray:none;stroke-opacity:1"
             id="path3419" /></g><g
           id="g3421"
           transform="translate(211.541,234.75)"><path
             d="M 0,0 19.918,-11.5 0,-23"
             style="fill:none;stroke:#000000;stroke-width:15;stroke-linecap:round;stroke-linejoin:round;stroke-miterlimit:10;stroke-dasharray:none;stroke-opacity:1"
             id="path3423" /></g><g
           id="g3425"
           transform="translate(248,164.5)"><path
             d="M 0,0 H 16"
             style="fill:none;stroke:#000000;stroke-width:15;stroke-linecap:round;stroke-linejoin:round;stroke-miterlimit:10;stroke-dasharray:none;stroke-opacity:1"
             id="path3427" /></g><g
           id="g3429"
           transform="translate(248.5,197.4668)"><path
             d="M 0,0 V 0 C 4.422,-2.947 10.578,-2.947 15,0"
             style="fill:none;stroke:#000000;stroke-width:15;stroke-linecap:round;stroke-linejoin:round;stroke-miterlimit:10;stroke-dasharray:none;stroke-opacity:1"
             id="path3431" /></g></g></g></g></svg>
