<?xml version="1.0" encoding="UTF-8"?>
<svg xmlns="http://www.w3.org/2000/svg" xmlns:xlink="http://www.w3.org/1999/xlink" version="1.1" id="Capa_1" x="0px" y="0px" viewBox="0 0 512 512" style="enable-background:new 0 0 512 512;" xml:space="preserve" width="512" height="512">
<g>
	<path style="fill:none;stroke:#000000;stroke-width:20;stroke-linecap:round;stroke-linejoin:round;stroke-miterlimit:10;" d="&#10;&#9;&#9;M327.952,192.26c-37.724-4.465-71.868-20.604-98.725-44.704c-13.586,3.348-26.189,9.187-37.3,17.003"/>
	<path style="fill:none;stroke:#000000;stroke-width:20;stroke-linecap:round;stroke-linejoin:round;stroke-miterlimit:10;" d="&#10;&#9;&#9;M176.85,299.573c16.495,26.343,45.777,43.861,79.15,43.861l0,0c33.341,0,62.598-17.485,79.102-43.785"/>
	<path style="fill:none;stroke:#000000;stroke-width:20;stroke-linecap:round;stroke-linejoin:round;stroke-miterlimit:10;" d="&#10;&#9;&#9;M364.46,151.326C354.33,100.685,309.621,62.53,256,62.53c-53.448,0-98.042,37.908-108.361,88.305"/>
	<path style="fill:none;stroke:#000000;stroke-width:20;stroke-linecap:round;stroke-linejoin:round;stroke-miterlimit:10;" d="&#10;&#9;&#9;M211.84,339.077L211.84,339.077c0,17.194-12.525,31.824-29.513,34.476l-34.636,5.405"/>
	<path style="fill:none;stroke:#000000;stroke-width:20;stroke-linecap:round;stroke-linejoin:round;stroke-miterlimit:10;" d="&#10;&#9;&#9;M300.16,339.077L300.16,339.077c0,17.194,12.525,31.824,29.513,34.476l34.573,5.395"/>
	<path style="fill:none;stroke:#000000;stroke-width:20;stroke-linecap:round;stroke-linejoin:round;stroke-miterlimit:10;" d="&#10;&#9;&#9;M316.444,368.597c-14.865,16.562-36.438,26.981-60.444,26.981c-24.006,0-45.579-10.418-60.444-26.98"/>
	<g>
		
			<line style="fill:none;stroke:#000000;stroke-width:20;stroke-linecap:round;stroke-linejoin:round;stroke-miterlimit:10;" x1="293.777" y1="241.482" x2="284.301" y2="237.238"/>
	</g>
	<g>
		
			<line style="fill:none;stroke:#000000;stroke-width:20;stroke-linecap:round;stroke-linejoin:round;stroke-miterlimit:10;" x1="218.223" y1="241.482" x2="227.699" y2="237.238"/>
	</g>
	<path style="fill:none;stroke:#000000;stroke-width:20;stroke-linecap:round;stroke-linejoin:round;stroke-miterlimit:10;" d="&#10;&#9;&#9;M478.53,392.37l16.266,28.366c15.803,27.558,4.654,62.736-24.137,76.162l0,0c-28.791,13.425-62.905-0.646-73.858-30.466&#10;&#9;&#9;l-68.736-187.133l67.561-31.504l38.133,66.501"/>
	<path style="fill:none;stroke:#000000;stroke-width:20;stroke-linecap:round;stroke-linejoin:round;stroke-miterlimit:10;" d="&#10;&#9;&#9;M382.758,253.795l4.814-55.023c1.278-14.607-4.128-29.007-14.702-39.164l-11.812-11.347c-11.862-11.395-31.39-7.899-38.563,6.903&#10;&#9;&#9;l0,0c-2.895,5.975-3.21,12.877-0.871,19.091l12.684,33.688l-2.029,23.192c-1.283,14.668,1.147,29.422,7.067,42.904v0&#10;&#9;&#9;L382.758,253.795z"/>
	<path style="fill:none;stroke:#000000;stroke-width:20;stroke-linecap:round;stroke-linejoin:round;stroke-miterlimit:10;" d="&#10;&#9;&#9;M41.341,496.898L41.341,496.898c28.791,13.425,62.905-0.646,73.858-30.466l68.736-187.133l-67.561-31.504l-99.17,172.942&#10;&#9;&#9;C1.401,448.294,12.55,483.473,41.341,496.898z"/>
	<path style="fill:none;stroke:#000000;stroke-width:20;stroke-linecap:round;stroke-linejoin:round;stroke-miterlimit:10;" d="&#10;&#9;&#9;M129.242,253.795l-4.814-55.023c-1.278-14.607,4.128-29.007,14.702-39.164l11.812-11.347c11.862-11.395,31.39-7.899,38.563,6.903&#10;&#9;&#9;l0,0c2.895,5.975,3.21,12.877,0.871,19.091l-12.684,33.688l2.029,23.192c1.283,14.668-1.147,29.422-7.067,42.904l0,0&#10;&#9;&#9;L129.242,253.795z"/>
	<path style="fill:none;stroke:#000000;stroke-width:20;stroke-linecap:round;stroke-linejoin:round;stroke-miterlimit:10;" d="&#10;&#9;&#9;M271.917,287.228c-8.793-8.793-23.05-8.793-31.843,0"/>
	
		<polyline style="fill:none;stroke:#000000;stroke-width:20;stroke-linecap:round;stroke-linejoin:round;stroke-miterlimit:10;" points="&#10;&#9;&#9;502,106.005 452.379,129.641 483.677,147.711 432.228,177.005 &#9;"/>
	
		<polyline style="fill:none;stroke:#000000;stroke-width:20;stroke-linecap:round;stroke-linejoin:round;stroke-miterlimit:10;" points="&#10;&#9;&#9;432.228,10 394.967,50.404 430.742,55.528 393.89,101.866 &#9;"/>
	
		<polyline style="fill:none;stroke:#000000;stroke-width:20;stroke-linecap:round;stroke-linejoin:round;stroke-miterlimit:10;" points="&#10;&#9;&#9;10,106.005 59.621,129.641 28.323,147.711 79.772,177.005 &#9;"/>
	
		<polyline style="fill:none;stroke:#000000;stroke-width:20;stroke-linecap:round;stroke-linejoin:round;stroke-miterlimit:10;" points="&#10;&#9;&#9;79.772,10 117.033,50.404 81.258,55.528 118.11,101.866 &#9;"/>
	
		<line style="fill:none;stroke:#000000;stroke-width:20;stroke-linecap:round;stroke-linejoin:round;stroke-miterlimit:10;" x1="456.252" y1="353.27" x2="456.252" y2="353.27"/>
	
		<line style="fill:none;stroke:#000000;stroke-width:20;stroke-linecap:round;stroke-linejoin:round;stroke-miterlimit:10;" x1="63.279" y1="501.991" x2="448.721" y2="501.991"/>
</g>















</svg>
