<?xml version="1.0" encoding="UTF-8"?>
<svg xmlns="http://www.w3.org/2000/svg" id="Layer_3" data-name="Layer 3" viewBox="0 0 64 64" width="512" height="512"><path d="M38,50.011V45.376A12.045,12.045,0,0,0,43.3,39H44a4,4,0,0,0,0-8V25a1,1,0,0,0-1-1H24V22h8a1,1,0,0,0,1-1V18h7v3a1,1,0,0,0,1.651.759l7-6a1,1,0,0,0,0-1.518l-7-6A1,1,0,0,0,40,9v3H38V9a1,1,0,0,0-1-1V6A5,5,0,0,0,27,6V8a1,1,0,0,0-1,1v7H24V13a1,1,0,0,0-1.651-.759l-7,6a1,1,0,0,0,0,1.518l5.138,4.4A.984.984,0,0,0,20,25v6a4,4,0,0,0,0,8h.7A12.045,12.045,0,0,0,26,45.376v4.635A34.681,34.681,0,0,0,1.26,61.327,1,1,0,0,0,2,63H62a1,1,0,0,0,.74-1.673A34.681,34.681,0,0,0,38,50.011Zm4,2.36V54H38a1,1,0,0,0-.832.445l-1.51,2.265L33,55.382v-.816L37.271,52A32.505,32.505,0,0,1,42,52.371ZM46,35a2,2,0,0,1-2,2h-.181A11.986,11.986,0,0,0,44,35V33A2,2,0,0,1,46,35ZM41,14a1,1,0,0,0,1-1V11.174L46.463,15,42,18.826V17a1,1,0,0,0-1-1H33V14ZM29,6a3,3,0,0,1,6,0V8H29Zm-1,4h8v2H32a1,1,0,0,0-1,1v3H28Zm-6,5.174V17a1,1,0,0,0,1,1h8v2H23a1,1,0,0,0-1,1v1.826L17.537,19ZM20,37a2,2,0,0,1,0-4v2a11.986,11.986,0,0,0,.181,2Zm2-2V26H42v9a10,10,0,0,1-20,0ZM32,47a11.922,11.922,0,0,0,4-.7v4.134l-4,2.4-4-2.4V46.3A11.922,11.922,0,0,0,32,47Zm-5.271,5L31,54.566v.816L28.342,56.71l-1.51-2.265A1,1,0,0,0,26,54H22V52.371A32.505,32.505,0,0,1,26.729,52ZM20,52.744V55a1,1,0,0,0,1,1h4.465l1.7,2.554a1,1,0,0,0,1.279.34L31,57.617V61H4.375A32.691,32.691,0,0,1,20,52.744ZM33,61V57.617l2.554,1.277a1,1,0,0,0,1.279-.34L38.535,56H43a1,1,0,0,0,1-1V52.744A32.691,32.691,0,0,1,59.625,61Z"/><rect x="26" y="32" width="2" height="2"/><rect x="36" y="32" width="2" height="2"/><rect x="29" y="39" width="6" height="2"/><path d="M10.684,22.948l2.121.708-.775,3.1a1,1,0,0,0,.415,1.074l3,2,1.11-1.664-2.414-1.609.829-3.317a1,1,0,0,0-.654-1.19l-3-1Z"/><path d="M51.684,20.052l-3,1a1,1,0,0,0-.654,1.19l.829,3.317-2.414,1.609,1.11,1.664,3-2a1,1,0,0,0,.415-1.074l-.775-3.1,2.121-.708Z"/><path d="M47.555,10.832l3-2a1,1,0,0,0,.415-1.074l-.775-3.1,2.121-.708-.632-1.9-3,1a1,1,0,0,0-.654,1.19l.829,3.317L46.445,9.168Z"/><path d="M16.316,4.052l-3-1-.632,1.9,2.121.708-.775,3.1a1,1,0,0,0,.415,1.074l3,2,1.11-1.664L16.141,8.559l.829-3.317A1,1,0,0,0,16.316,4.052Z"/></svg>
