<?xml version="1.0" encoding="UTF-8"?>
<svg xmlns="http://www.w3.org/2000/svg" xmlns:xlink="http://www.w3.org/1999/xlink" version="1.1" id="Capa_1" x="0px" y="0px" viewBox="0 0 512 512" style="enable-background:new 0 0 512 512;" xml:space="preserve" width="512" height="512">
<g>
	<path style="fill:none;stroke:#000000;stroke-width:15;stroke-linecap:round;stroke-linejoin:round;stroke-miterlimit:10;" d="&#10;&#9;&#9;M85.473,150.36c-1.95,10.48-2.97,21.28-2.97,32.3v16.55c0,13.26-3.41,26.29-9.9,37.86l-25.35,45.15c-0.64,1.13-1.14,2.35-1.39,3.63&#10;&#9;&#9;c-1.22,6.23,2.64,12.08,8.52,13.61l28.12,7.32l-4.64,14.31c-0.92,2.82,0.19,5.91,2.69,7.51l6.06,3.86&#10;&#9;&#9;c3.51,2.25,4.05,7.16,1.09,10.11c-2.17,2.17-2.52,5.57-0.85,8.15l5.5,8.48c0.68,1.06,1.05,2.29,1.05,3.54v27.37&#10;&#9;&#9;c0,19.16,15.53,34.69,34.7,34.69h44.38c43.7,0,84.93-20.26,111.62-54.87l9.42-12.21c4.36-5.65,10.35-9.77,17.12-12.02&#10;&#9;&#9;c55.01-18.24,97.82-63.27,112.94-119.62"/>
	<path style="fill:none;stroke:#000000;stroke-width:15;stroke-linecap:round;stroke-linejoin:round;stroke-miterlimit:10;" d="&#10;&#9;&#9;M153.383,41.51c28.68-21.33,64.11-33.99,102.53-34.01c65.66-0.03,122.82,36.41,152.31,90.19"/>
	
		<line style="fill:none;stroke:#000000;stroke-width:15;stroke-linecap:round;stroke-linejoin:round;stroke-miterlimit:10;" x1="169.139" y1="504.5" x2="183.625" y2="424.364"/>
	
		<line style="fill:none;stroke:#000000;stroke-width:15;stroke-linecap:round;stroke-linejoin:round;stroke-miterlimit:10;" x1="423.433" y1="504.5" x2="407.493" y2="412.38"/>
	
		<line style="fill:none;stroke:#000000;stroke-width:15;stroke-linecap:round;stroke-linejoin:round;stroke-miterlimit:10;" x1="401.523" y1="377.9" x2="387.113" y2="294.61"/>
	<path style="fill:none;stroke:#000000;stroke-width:15;stroke-linecap:round;stroke-linejoin:round;stroke-miterlimit:10;" d="&#10;&#9;&#9;M173.173,203.81v50.34c0,5.58,4.52,10.1,10.1,10.1h145.46c5.58,0,10.1-4.52,10.1-10.1V72.32c0-5.58-4.52-10.1-10.1-10.1h-145.46&#10;&#9;&#9;c-5.58,0-10.1,4.52-10.1,10.1v96.49"/>
	<path style="fill:none;stroke:#000000;stroke-width:15;stroke-linecap:round;stroke-linejoin:round;stroke-miterlimit:10;" d="&#10;&#9;&#9;M223.676,118.79h-14.142c-4.463,0-8.081-3.618-8.081-8.081V96.566c0-4.463,3.618-8.081,8.081-8.081h14.142&#10;&#9;&#9;c4.463,0,8.081,3.618,8.081,8.081v14.142C231.758,115.172,228.139,118.79,223.676,118.79z"/>
	
		<line style="fill:none;stroke:#000000;stroke-width:15;stroke-linecap:round;stroke-linejoin:round;stroke-miterlimit:10;" x1="258.022" y1="88.485" x2="310.55" y2="88.485"/>
	
		<line style="fill:none;stroke:#000000;stroke-width:15;stroke-linecap:round;stroke-linejoin:round;stroke-miterlimit:10;" x1="290.347" y1="118.79" x2="258.022" y2="118.79"/>
	<path style="fill:none;stroke:#000000;stroke-width:15;stroke-linecap:round;stroke-linejoin:round;stroke-miterlimit:10;" d="&#10;&#9;&#9;M223.676,178.39h-14.142c-4.463,0-8.081-3.618-8.081-8.081v-14.142c0-4.463,3.618-8.081,8.081-8.081h14.142&#10;&#9;&#9;c4.463,0,8.081,3.618,8.081,8.081v14.142C231.758,174.772,228.139,178.39,223.676,178.39z"/>
	
		<line style="fill:none;stroke:#000000;stroke-width:15;stroke-linecap:round;stroke-linejoin:round;stroke-miterlimit:10;" x1="258.022" y1="148.085" x2="310.55" y2="148.085"/>
	
		<line style="fill:none;stroke:#000000;stroke-width:15;stroke-linecap:round;stroke-linejoin:round;stroke-miterlimit:10;" x1="290.347" y1="178.39" x2="258.022" y2="178.39"/>
	<path style="fill:none;stroke:#000000;stroke-width:15;stroke-linecap:round;stroke-linejoin:round;stroke-miterlimit:10;" d="&#10;&#9;&#9;M223.676,237.989h-14.142c-4.463,0-8.081-3.618-8.081-8.081v-14.142c0-4.463,3.618-8.081,8.081-8.081h14.142&#10;&#9;&#9;c4.463,0,8.081,3.618,8.081,8.081v14.142C231.758,234.371,228.139,237.989,223.676,237.989z"/>
	
		<line style="fill:none;stroke:#000000;stroke-width:15;stroke-linecap:round;stroke-linejoin:round;stroke-miterlimit:10;" x1="258.022" y1="207.684" x2="310.55" y2="207.684"/>
	
		<line style="fill:none;stroke:#000000;stroke-width:15;stroke-linecap:round;stroke-linejoin:round;stroke-miterlimit:10;" x1="290.347" y1="237.989" x2="258.022" y2="237.989"/>
	<g>
		<g>
			<path style="fill:none;stroke:#000000;stroke-width:15;stroke-linecap:round;stroke-linejoin:round;stroke-miterlimit:10;" d="&#10;&#9;&#9;&#9;&#9;M386.585,140.745c0-0.848,0.059-1.682,0.173-2.498c1.232-8.827,8.898-15.594,18.107-15.408&#10;&#9;&#9;&#9;&#9;c9.316,0.188,17.033,7.649,17.516,16.954c0.535,10.312-7.678,18.863-17.885,18.863v18.728"/>
		</g>
		
			<line style="fill:none;stroke:#000000;stroke-width:15;stroke-linecap:round;stroke-linejoin:round;stroke-miterlimit:10;" x1="404.495" y1="203.64" x2="404.495" y2="203.64"/>
	</g>
	<path style="fill:none;stroke:#000000;stroke-width:15;stroke-linecap:round;stroke-linejoin:round;stroke-miterlimit:10;" d="&#10;&#9;&#9;M458.743,126.24c7.2,10.53,11.41,23.27,11.41,37c0,36.26-29.39,65.66-65.66,65.66c-36.26,0-65.66-29.4-65.66-65.66&#10;&#9;&#9;c0-36.27,29.4-65.66,65.66-65.66c9.95,0,19.38,2.21,27.83,6.17"/>
	<g>
		<g>
			<path style="fill:none;stroke:#000000;stroke-width:15;stroke-linecap:round;stroke-linejoin:round;stroke-miterlimit:10;" d="&#10;&#9;&#9;&#9;&#9;M89.597,65.993c0-0.848,0.059-1.682,0.173-2.498c1.232-8.827,8.898-15.594,18.107-15.408c9.316,0.188,17.033,7.649,17.516,16.954&#10;&#9;&#9;&#9;&#9;c0.535,10.312-7.678,18.863-17.886,18.863v18.728"/>
		</g>
		
			<line style="fill:none;stroke:#000000;stroke-width:15;stroke-linecap:round;stroke-linejoin:round;stroke-miterlimit:10;" x1="107.508" y1="128.888" x2="107.508" y2="128.888"/>
	</g>
	
		<circle style="fill:none;stroke:#000000;stroke-width:15;stroke-linecap:round;stroke-linejoin:round;stroke-miterlimit:10;" cx="107.508" cy="88.485" r="65.661"/>
</g>















</svg>
