<svg width="128" height="128" viewBox="0 0 128 128" fill="none" xmlns="http://www.w3.org/2000/svg">
<g clip-path="url(#clip0_1240_582)">
<path d="M127.011 113.754L125.186 111.927C124.453 111.195 123.266 111.195 122.534 111.927C121.801 112.659 121.802 113.846 122.534 114.578L124.094 116.14L116.14 124.094L102.617 110.571L110.571 102.616L116.88 108.925C117.613 109.657 118.8 109.657 119.532 108.925C120.264 108.193 120.264 107.006 119.532 106.273L111.9 98.6423C111.899 98.641 111.898 98.6397 111.897 98.6385L106.594 93.3353C106.592 93.3337 106.591 93.3328 106.59 93.3313L101.909 88.651C101.272 88.0133 100.424 87.662 99.5225 87.662C98.6208 87.662 97.7733 88.0132 97.136 88.6505L96.8708 88.916L90.1615 82.205C94.957 76.2135 98.4205 69.1133 100.102 61.3555H113.313C114.349 61.3555 115.188 60.5163 115.188 59.4805C115.188 58.4447 114.349 57.6055 113.313 57.6055H100.766C100.932 56.413 101.055 55.2075 101.135 53.9902H122.25C123.286 53.9902 124.125 53.151 124.125 52.1152C124.125 51.0795 123.286 50.2402 122.25 50.2402H101.246C101.237 49.027 101.187 47.8215 101.095 46.6247H113.313C114.349 46.6247 115.188 45.7855 115.188 44.7497C115.188 43.714 114.349 42.8747 113.313 42.8747H100.666C99.3565 34.255 95.8532 26.192 90.3405 19.2275C89.6977 18.4158 88.5187 18.2787 87.7065 18.921C86.8947 19.5637 86.7575 20.743 87.4 21.555C94.0075 29.9023 97.5 39.9545 97.5 50.625C97.5 76.472 76.472 97.5 50.625 97.5C24.778 97.5 3.75 76.472 3.75 50.625C3.75 24.778 24.778 3.75 50.625 3.75C62.3095 3.75 73.5027 8.0745 82.1423 15.9268C82.9082 16.6238 84.0947 16.5667 84.7907 15.8005C85.4873 15.0343 85.4308 13.8482 84.6643 13.1517C75.3333 4.67075 63.2445 0 50.625 0C22.7103 0 0 22.7103 0 50.625C0 75.2705 17.7035 95.8553 41.0607 100.34V112.99C41.0607 114.025 41.9 114.865 42.9357 114.865C43.9715 114.865 44.8107 114.025 44.8107 112.99V100.914C46.004 101.051 47.2095 101.147 48.4263 101.2V121.807C48.4263 122.843 49.2655 123.682 50.3013 123.682C51.337 123.682 52.1763 122.843 52.1763 121.807V101.224C53.3923 101.187 54.5983 101.11 55.7918 100.988V112.99C55.7918 114.025 56.631 114.865 57.6668 114.865C58.7025 114.865 59.5418 114.025 59.5418 112.99V100.464C68.0075 98.953 75.7493 95.329 82.2053 90.1615L88.9163 96.871L88.6513 97.136C88.0135 97.7735 87.6622 98.621 87.6622 99.5228C87.6622 100.424 88.0135 101.272 88.6507 101.909L93.3327 106.591C93.3337 106.592 93.3345 106.593 93.3355 106.594L98.6387 111.897C98.6397 111.898 98.6413 111.899 98.6423 111.9L113.753 127.011C114.39 127.649 115.238 128 116.14 128C117.041 128 117.889 127.649 118.526 127.011L127.011 118.526C127.649 117.889 128 117.041 128 116.14C128 115.238 127.649 114.391 127.011 113.754ZM87.7053 85.052L94.2188 91.567L91.5673 94.2185L85.0523 87.705C85.9688 86.8538 86.8538 85.9688 87.7053 85.052ZM99.9648 107.92L97.313 105.268L105.268 97.3132L107.919 99.965L99.9648 107.92ZM99.5228 91.5677L102.616 94.6612L94.6615 102.616L91.568 99.5225L99.5228 91.5677Z" fill="#EF6623"/>
<path d="M24.514 84.948C32.0237 90.5928 41.0452 93.6365 50.625 93.75C74.4042 93.75 93.75 74.4043 93.75 50.625C93.75 26.8458 74.4042 7.5 50.625 7.5C39.1492 7.5 28.3555 11.9918 20.2327 20.1478C12.1442 28.269 7.62245 39.0858 7.49995 50.605C7.38745 61.2097 11.2407 71.4028 18.3497 79.3063C19.0422 80.076 20.2277 80.139 20.9977 79.4465C21.7677 78.754 21.8305 77.5683 21.138 76.7985C14.659 69.5955 11.1472 60.3073 11.25 50.645C11.3617 40.1092 15.4955 30.2183 22.8897 22.7943C30.3037 15.3498 40.1535 11.25 50.625 11.25C72.3365 11.25 90 28.9135 90 50.625C90 72.3365 72.3365 90 50.6472 90.0003C41.8925 89.8963 33.635 87.1125 26.767 81.9505C25.9397 81.3278 24.7637 81.495 24.1417 82.3227C23.5192 83.1505 23.686 84.326 24.514 84.948Z" fill="#F8A51C"/>
<path d="M57.75 17.125H44.75C43.1647 17.125 41.875 18.4147 41.875 20V26.625H29.75C28.1647 26.625 26.875 27.9148 26.875 29.5V49.625H24.3655C23.3297 49.625 22.4905 50.4642 22.4905 51.5C22.4905 52.5358 23.3297 53.375 24.3655 53.375H78.1345C79.1702 53.375 80.0095 52.5358 80.0095 51.5C80.0095 50.4642 79.1702 49.625 78.1345 49.625H75.625V39C75.625 37.4147 74.3352 36.125 72.75 36.125H60.625V20C60.625 18.4147 59.3352 17.125 57.75 17.125ZM30.625 30.375H41.875V49.625H30.625V30.375ZM45.625 20.875H56.875V49.625H45.625V20.875ZM71.875 39.875V49.625H60.625V39.875H71.875Z" fill="#F8A51C"/>
<path d="M72.2501 69.2633H63.4228L59.4128 59.0125C59.1293 58.2882 58.4348 57.8195 57.6501 57.8205C56.8721 57.8275 56.1791 58.3142 55.9086 59.0437L50.4286 73.821L46.5986 62.9652C46.3536 62.2702 45.7241 61.7832 44.9896 61.7207C44.2561 61.6572 43.5526 62.0317 43.1931 62.6747L39.5151 69.263H30.7111C29.6753 69.263 28.8361 70.1022 28.8361 71.138C28.8361 72.1737 29.6753 73.013 30.7111 73.013H40.6156C41.2951 73.013 41.9216 72.6453 42.2528 72.052L44.4436 68.1282L48.6163 79.9557C48.8791 80.7005 49.5798 81.2005 50.3696 81.207H50.3848C51.1681 81.207 51.8698 80.7195 52.1426 79.9837L57.7133 64.9617L60.3966 71.8212C60.6778 72.54 61.3706 73.0133 62.1426 73.0133H72.2501C73.2858 73.0133 74.1251 72.174 74.1251 71.1383C74.1251 70.1025 73.2858 69.2633 72.2501 69.2633Z" fill="#EF6623"/>
</g>
<defs>
<clipPath id="clip0_1240_582">
<rect width="128" height="128" fill="white"/>
</clipPath>
</defs>
</svg>
