<svg width="111" height="110" viewBox="0 0 111 110" fill="none" xmlns="http://www.w3.org/2000/svg">
<g clip-path="url(#clip0_1112_1973)">
<path d="M86.0706 65.0403C86.053 65.0227 86.0362 65.0051 86.0187 64.9875C86.0111 64.98 86.0019 64.9708 85.9927 64.9624L79.8479 58.8176C78.1209 57.0897 75.8246 56.1387 73.3817 56.1387C70.954 56.1387 68.6693 57.0789 66.9456 58.7867C66.9331 58.7984 66.9213 58.8109 66.9088 58.8227L63.643 62.0893L48.6034 47.0488L51.8684 43.7831C51.8809 43.7713 51.8926 43.7588 51.9044 43.7471C55.4397 40.1791 55.4305 34.4002 51.8742 30.8439L45.7387 24.7075C45.7269 24.6958 45.7161 24.6849 45.7052 24.674C43.9781 22.9503 41.6835 22.001 39.244 22.001C36.812 22.001 34.5249 22.9445 32.8003 24.6565C32.7769 24.6799 32.7535 24.7033 32.7309 24.7276L29.913 27.5447C28.4304 29.0273 27.2927 30.165 27.2483 30.2102C22.8967 34.5609 21.8796 41.4968 24.3844 49.7403C26.6782 57.2907 31.7254 65.2328 38.5952 72.1034C48.1857 81.6939 59.9311 87.6511 69.2461 87.6511C73.853 87.6511 77.7417 86.1987 80.4758 83.4637C80.5327 83.4076 82.1058 81.8345 83.9735 79.9668L86.0187 77.9216C86.022 77.9183 86.0254 77.915 86.0295 77.9108C89.5431 74.3855 89.5766 68.6685 86.125 65.1005C86.1074 65.0796 86.0882 65.0587 86.0706 65.0403ZM81.4955 73.3516C81.4762 73.3708 81.457 73.3901 81.4377 73.4102L79.4277 75.4202C77.5918 77.2561 76.0414 78.8065 75.9418 78.9053C74.4047 80.4423 72.1519 81.2217 69.2461 81.2217C61.6891 81.2217 51.4431 75.858 43.1418 67.5576C37.0046 61.4204 32.5283 54.4292 30.5358 47.8709C28.7795 42.092 29.2382 37.3118 31.7966 34.7534L34.4588 32.0913L37.321 29.229C37.3319 29.2181 37.3419 29.2081 37.352 29.1972C37.8618 28.7024 38.5316 28.4304 39.244 28.4304C39.9597 28.4304 40.6337 28.7058 41.1452 29.2064C41.1519 29.214 41.1594 29.2215 41.1678 29.229L47.3276 35.3897C48.3866 36.4487 48.3866 38.1716 47.3276 39.2306C47.3259 39.2323 47.3243 39.2348 47.3217 39.2364V39.2373L41.7831 44.7759C40.5282 46.0317 40.5282 48.0668 41.7831 49.3226L61.3701 68.9088C61.9729 69.5124 62.7908 69.8506 63.643 69.8506C64.4961 69.8506 65.314 69.5115 65.9168 68.9088L71.4203 63.4036C71.4403 63.3852 71.4596 63.3651 71.4789 63.3458C71.9904 62.8444 72.6651 62.5681 73.3817 62.5681C74.1067 62.5681 74.7882 62.8511 75.3013 63.3634L81.4453 69.5065L81.4586 69.5207C81.4653 69.5274 81.472 69.5341 81.4779 69.5408C82.5227 70.5915 82.5277 72.2934 81.4955 73.3516Z" fill="white"/>
<path d="M94.4681 16.2304C84.1058 5.86806 70.3286 0.161133 55.6733 0.161133C41.0179 0.161133 27.2408 5.86806 16.8784 16.2304C6.51601 26.5937 0.809082 40.3708 0.809082 55.0253C0.809082 69.6798 6.51601 83.4578 16.8784 93.8202C27.2408 104.183 41.0188 109.889 55.6733 109.889C70.3278 109.889 84.1049 104.183 94.4681 93.8202C104.831 83.4578 110.537 69.6806 110.537 55.0253C110.537 40.3708 104.831 26.5937 94.4681 16.2304ZM55.6733 103.46C28.9662 103.46 7.23848 81.7316 7.23848 55.0253C7.23848 28.319 28.9662 6.59137 55.6733 6.59053C82.3804 6.59137 104.108 28.319 104.108 55.0253C104.107 81.7324 82.3795 103.46 55.6733 103.46Z" fill="white"/>
</g>
<defs>
<clipPath id="clip0_1112_1973">
<rect width="109.728" height="109.728" fill="white" transform="translate(0.809082 0.161133)"/>
</clipPath>
</defs>
</svg>
