<svg width="50" height="50" viewBox="0 0 50 50" fill="none" xmlns="http://www.w3.org/2000/svg">
<g clip-path="url(#clip0_620_1110)">
<path d="M21.7285 37.3196C21.4694 37.3196 21.2211 37.2166 21.038 37.0335L10.4194 26.4153C10.0379 26.0338 10.0379 25.4154 10.4194 25.0339L15.9435 19.5099C16.3249 19.1284 16.9433 19.1284 17.3248 19.5099L21.7285 23.9136L32.6751 12.9665C32.8582 12.7834 33.1069 12.6804 33.3659 12.6804C33.6246 12.6804 33.8733 12.7834 34.0564 12.9665L39.5805 18.491C39.9619 18.8721 39.9619 19.4904 39.5805 19.8719L22.4189 37.0338C22.2358 37.2169 21.9875 37.3196 21.7285 37.3196ZM12.4912 25.7248L21.7285 34.9621L37.5091 19.1814L33.3659 15.0379L22.4189 25.985C22.0374 26.3664 21.4191 26.3664 21.038 25.985L16.6343 21.5813L12.4912 25.7248Z" fill="#F8A51C"/>
<path d="M24.9939 50C24.3561 50 23.7175 49.9756 23.0778 49.9268C17.1368 49.4713 11.5414 46.8967 7.32231 42.6781C2.60048 37.9559 0 31.678 0 25C0 18.3224 2.60048 12.0441 7.32231 7.32231C12.0441 2.60048 18.3224 0 25 0C31.678 0 37.9559 2.60048 42.6781 7.32231C46.8967 11.5414 49.4713 17.1368 49.9268 23.0778C50.3773 28.9543 48.7408 34.8118 45.319 39.5718C45.0043 40.0097 44.3939 40.1092 43.956 39.7945C43.5181 39.4798 43.4185 38.8695 43.7332 38.4315C50.3471 29.2316 49.3225 16.7294 41.2968 8.70323C32.3109 -0.282669 17.6895 -0.282669 8.70361 8.70323C-0.282669 17.6895 -0.282669 32.3105 8.70361 41.2968C16.7294 49.3221 29.232 50.3471 38.4319 43.7328C38.8699 43.4181 39.4798 43.5181 39.7949 43.956C40.1096 44.3939 40.0097 45.0039 39.5718 45.319C35.3298 48.3685 30.2158 50 24.9939 50Z" fill="#EF6623"/>
<path d="M41.9878 42.9642C41.7307 42.9642 41.4789 42.8596 41.2973 42.6781C41.1158 42.4961 41.0112 42.2443 41.0112 41.9876C41.0112 41.7305 41.1158 41.4787 41.2973 41.2971C41.4789 41.1156 41.7307 41.011 41.9878 41.011C42.2445 41.011 42.4963 41.1156 42.6783 41.2971C42.8598 41.4787 42.9644 41.7305 42.9644 41.9876C42.9644 42.2443 42.8598 42.4961 42.6783 42.6781C42.4963 42.8596 42.2445 42.9642 41.9878 42.9642Z" fill="black"/>
</g>
<defs>
<clipPath id="clip0_620_1110">
<rect width="50" height="50" fill="white"/>
</clipPath>
</defs>
</svg>
