<svg width="30" height="30" viewBox="0 0 30 30" fill="none" xmlns="http://www.w3.org/2000/svg">
<g clip-path="url(#clip0_609_182)">
<path d="M25.6066 4.39336C22.7735 1.56029 19.0066 0 15 0C10.9934 0 7.22654 1.56029 4.39342 4.39336C1.56029 7.22654 0 10.9934 0 15C0 19.0066 1.56029 22.7735 4.39342 25.6066C7.22654 28.4397 10.9934 30 15 30C18.0243 30 20.9394 29.1038 23.4304 27.4084C23.9654 27.0442 24.1039 26.3153 23.7397 25.7803C23.3756 25.2452 22.6466 25.1067 22.1116 25.4709C20.0111 26.9006 17.5519 27.6562 15 27.6562C8.02131 27.6562 2.34375 21.9787 2.34375 15C2.34375 8.02131 8.02131 2.34375 15 2.34375C21.9787 2.34375 27.6562 8.02131 27.6562 15C27.6562 17.3297 27.0183 19.6062 25.8115 21.5834C25.4743 22.1359 25.6489 22.857 26.2013 23.1942C26.7537 23.5315 27.4749 23.3568 27.8121 22.8045C29.2434 20.4594 30 17.7606 30 15C30 10.9934 28.4397 7.22654 25.6066 4.39336Z" fill="#EF6623"/>
<path d="M19.8269 10.1727C19.3692 9.71502 18.6273 9.71502 18.1696 10.1727L14.9997 13.3427L11.8297 10.1727C11.372 9.71502 10.63 9.71502 10.1724 10.1727C9.7148 10.6304 9.71474 11.3724 10.1724 11.83L13.3423 15L10.1724 18.17C9.71468 18.6277 9.71468 19.3697 10.1724 19.8273C10.4012 20.0561 10.701 20.1705 11.001 20.1705C11.3009 20.1705 11.6008 20.0561 11.8296 19.8273L14.9997 16.6573L18.1696 19.8273C18.3985 20.0561 18.6983 20.1705 18.9983 20.1705C19.2982 20.1705 19.5981 20.0561 19.8269 19.8273C20.2846 19.3696 20.2846 18.6276 19.8269 18.17L16.657 15L19.827 11.83C20.2846 11.3724 20.2846 10.6304 19.8269 10.1727Z" fill="#F8A51C"/>
</g>
<defs>
<clipPath id="clip0_609_182">
<rect width="30" height="30" fill="white"/>
</clipPath>
</defs>
</svg>
