<?xml version="1.0" encoding="utf-8"?>
<!-- Generator: Adobe Illustrator 27.5.0, SVG Export Plug-In . SVG Version: 6.00 Build 0)  -->
<svg version="1.1" xmlns="http://www.w3.org/2000/svg" xmlns:xlink="http://www.w3.org/1999/xlink" x="0px" y="0px"
	 viewBox="0 0 500 500" style="enable-background:new 0 0 500 500;" xml:space="preserve">
<g id="Background">
	<rect style="fill:#FFFFFF;" width="500" height="500"/>
</g>
<g id="Objects">
	<g>
		<path style="fill:#060606;" d="M272.036,203.643c0,0-8.035-19.283-20.891-22.497c-12.856-3.214-29.392,0.831-34.381,9.655
			C211.775,199.626,272.036,203.643,272.036,203.643z"/>
		<path style="fill:#060606;" d="M233.469,328.182c0,0-9.49,33.324-11.173,46.391c-1.683,13.067-1.683,21.102-0.879,25.119
			c0.804,4.017,4.821,16.873-8.838,20.087c0,0-9.642-18.48-4.821-35.353C212.578,367.553,230.255,331.396,233.469,328.182z"/>
		<path style="fill:#060606;" d="M262.394,199.626c0,0-7.231-11.249-24.104-12.856c-16.873-1.607-23.301,4.821-28.122,9.642
			c-4.821,4.821-13.533,19.51-15.203,31.449c-1.67,11.939-4.884,36.846-9.705,77.02c-4.821,40.174-0.803,59.457-12.856,70.706
			c-12.052,11.249-19.284,13.659-36.96,18.48c-17.677,4.821-28.925,9.642-34.55,9.642c-5.624,0-7.284-3.214-8.864,0
			c-1.581,3.214-0.777,7.231,2.437,10.445c3.214,3.214,10.445,8.838,20.89,9.642c10.445,0.803,22.497,2.41,37.763,1.607
			s24.104,1.607,32.139,3.214c8.035,1.607,22.498,3.214,27.318-2.41c4.821-5.624,0-15.266-0.804-23.301
			c-0.803-8.035-0.803-23.301,7.231-41.781c8.035-18.48,21.694-43.388,21.694-43.388s-0.803,21.888,1.607,28.62l72.313-59.152
			L262.394,199.626z"/>
		<path style="fill:#060606;" d="M339.126,143.784c0,0-14.463-8.035-24.908-21.694c-10.445-13.659-17.677-36.96-40.174-41.781
			c-22.497-4.821-49.012,11.249-50.619,33.746c-1.607,22.497,9.642,34.55,12.052,38.567c2.41,4.017,5.624,22.497,8.035,22.497
			c2.41,0,8.838-4.821,9.642-4.017c0.803,0.803,5.624,8.035,7.231,8.035c1.607,0,3.615-1.137,3.615-1.137s-2.607,3-1,3s11,7,11,7
			l76.375-37.788L339.126,143.784z"/>
		<path style="fill:#060606;" d="M304.576,137.356c0,0-14.463-24.104-23.301-28.122c-8.838-4.017-16.873,0.804-16.873,7.231
			c0,6.428,8.035,22.497,8.035,22.497l-5.223,3.267c0,0-17.275-16.926-23.703-22.551c-6.428-5.624-20.618,9.953-16.737,17.832
			c3.881,7.879-2.547,13.504-8.171,11.093c-5.624-2.41-13.659-16.07-11.249-28.122c2.411-12.052,4.017-27.318,16.873-38.567
			c12.856-11.249,28.122-27.318,49.012-20.087c20.89,7.231,26.515,8.838,34.55,25.711c8.035,16.873,10.901,41.481,18.708,47.255
			C326.499,134.796,312.611,148.605,304.576,137.356z"/>
		<path style="fill:#060606;" d="M223.269,222.523l-20.641,12.456l-7.838-6.228l1.219-6.228c0,0-9.143,2.814-12.357,5.225
			c-3.214,2.41-11.249,8.838-12.856,15.266c-1.607,6.428-4.017,20.087-3.214,25.711c0.804,5.624,2.411,16.873,16.873,16.873
			s57.85-21.694,57.85-21.694S233.156,226.939,223.269,222.523z"/>
		<path style="fill:#060606;" d="M306.782,280.909c0,0-20.283,12.723-36.353,28.793c-16.07,16.069-31.336,34.55-31.336,34.55
			s18.324,72.368,47.729,81.179c29.405,8.811,43.064,16.846,71.99,8.007c28.925-8.838,42.584-35.353,44.995-49.012
			c2.41-13.659,2.775-25.335,2.775-25.335L306.782,280.909z"/>
		<path style="fill:#060606;" d="M179.287,283.404c0,0-5.686,4.408-7.293,9.228c-1.607,4.821-1.607,14.463-1.607,17.677
			s1.607,8.838,2.41,11.249c0.803,2.411-0.803,5.624,0.803,8.035c1.607,2.41,7.231,14.463,11.249,16.07
			c4.017,1.607,7.231,1.607,12.052,1.607c4.821,0,5.624-1.607,4.821-4.017c0,0,8.035,0,11.249-0.803s4.017-5.624,1.607-6.428
			c0,0,7.095-0.368,8.838-0.803c3.214-0.803,3.214-7.231-4.017-7.231c-5.624,0-12.534-1.395-12.534-1.395s9.32,0.592,12.534-1.819
			c3.214-2.41,1.607-7.231-5.624-6.428c-4.791,0.532-9.19-1.194-12.63-3.007c-3.44-1.814-9.867-6.634-11.474-9.045
			c-1.607-2.41-1.607-2.41-1.607-2.41s1.607,0.803,4.821-0.803c3.214-1.607,2.41-4.821,0-8.838c-2.41-4.017-4.017-8.838-6.428-9.642
			C184.046,283.794,179.287,283.404,179.287,283.404z"/>
		<path style="fill:#060606;" d="M237.407,266.29c0,0,4.9,11.883,4.9,25.639c0,13.756-1.607,25.808-1.607,25.808
			s1.777-38.127-6.343-49.997L237.407,266.29z"/>
		<path style="fill:#060606;" d="M368.453,157.041c0,0-16.873-17.676-23.301-15.266c-6.428,2.41-18.48,11.249-21.694,13.659
			c-3.214,2.41-32.139,17.676-40.174,20.89c-8.035,3.214-14.463,15.266-28.122,22.497c-10.272,5.438-24.635,15.421-31.125,20.037
			c-1.862,1.324-2.296,3.898-0.985,5.769c2.313,3.299,5.861,8.785,8.809,15.172c3.169,6.865,4.949,16.855,5.797,22.896
			c0.372,2.651,3.117,4.256,5.612,3.283c9.615-3.75,30.484-11.883,38.407-14.93c10.445-4.017,8.838-4.017,8.838-4.017
			s14.463,29.729,17.677,36.96c3.214,7.231,17.676,34.549,20.087,44.995c2.41,10.445,13.659,25.711,20.89,28.122
			c7.231,2.41,24.104,16.873,44.995,12.052c20.891-4.821,32.943-12.856,35.353-26.515c2.41-13.659,9.642-73.92,6.428-103.649
			c-3.214-29.729-21.694-53.03-39.37-64.278C378.898,163.469,368.453,157.041,368.453,157.041z"/>
	</g>
</g>
</svg>
