<svg width="185" height="129" viewBox="0 0 185 129" fill="none" xmlns="http://www.w3.org/2000/svg">
<path d="M50.776 75.5477C50.086 75.5477 49.5256 74.9907 49.5256 74.306V68.4051C49.5256 66.5262 47.9764 64.9985 46.0713 64.9985C44.1661 64.9985 42.6169 66.5262 42.6169 68.4051V74.306C42.6169 74.9907 42.0522 75.5477 41.36 75.5477C40.6678 75.5477 40.1118 74.9907 40.1118 74.306V68.4051C40.1118 66.5262 38.5604 64.9985 36.6531 64.9985C34.7457 64.9985 33.1943 66.5262 33.1943 68.4051V74.306C33.1943 74.9907 32.6317 75.5477 31.9396 75.5477C31.2474 75.5477 30.6826 74.9907 30.6826 74.306V68.4051C30.6826 65.1632 33.3613 62.5259 36.6531 62.5259C38.5055 62.5259 40.2349 63.371 41.36 64.8056C42.4872 63.371 44.2188 62.5259 46.0713 62.5259C49.363 62.5259 52.0395 65.1632 52.0395 68.4051V74.306C52.0395 74.9907 51.4726 75.5477 50.7738 75.5477H50.776Z" fill="url(#paint0_linear_607_380)"/>
<path d="M69.4654 75.5477C68.7688 75.5477 68.2041 74.9907 68.2041 74.306V68.4051C68.2041 66.5262 66.6549 64.9985 64.7497 64.9985C62.8446 64.9985 61.302 66.5262 61.302 68.4051V74.306C61.302 74.9907 60.7372 75.5477 60.045 75.5477C59.3528 75.5477 58.7881 74.9907 58.7881 74.306V68.4051C58.7881 65.1632 61.4624 62.5259 64.7519 62.5259C68.0415 62.5259 70.718 65.1632 70.718 68.4051V74.306C70.718 74.9907 70.1576 75.5477 69.4676 75.5477H69.4654Z" fill="url(#paint1_linear_607_380)"/>
<path d="M100.682 75.5477C97.3906 75.5477 94.7119 72.9082 94.7119 69.662V63.7633C94.7119 63.0806 95.2767 62.5259 95.9688 62.5259C96.661 62.5259 97.2258 63.0806 97.2258 63.7633V69.662C97.2258 71.5408 98.7772 73.0707 100.682 73.0707C102.588 73.0707 104.135 71.5408 104.135 69.662V63.7633C104.135 63.0806 104.697 62.5259 105.389 62.5259C106.081 62.5259 106.646 63.0806 106.646 63.7633V69.662C106.646 72.9082 103.972 75.5477 100.682 75.5477Z" fill="url(#paint2_linear_607_380)"/>
<path d="M110.049 75.5476C109.359 75.5476 108.799 74.9907 108.799 74.3059V59.0239C108.799 58.337 109.359 57.78 110.049 57.78C110.739 57.78 111.31 58.3391 111.31 59.0239V74.3059C111.31 74.9907 110.744 75.5476 110.049 75.5476Z" fill="url(#paint3_linear_607_380)"/>
<path d="M78.426 75.5477C75.1408 75.5477 72.4688 72.9083 72.4688 69.662V68.4051C72.4688 65.1632 75.1408 62.5259 78.426 62.5259C79.6741 62.5259 80.8805 62.9095 81.8848 63.6181V59.1063C81.8848 58.4259 82.4495 57.8733 83.1439 57.8733C83.8383 57.8733 84.3942 58.4259 84.3942 59.1063V69.6642C84.3942 72.9104 81.7156 75.5499 78.4238 75.5499L78.426 75.5477ZM78.426 64.9985C76.5252 64.9985 74.976 66.5263 74.976 68.4051V69.662C74.976 71.5409 76.523 73.0708 78.426 73.0708C80.329 73.0708 81.8848 71.5409 81.8848 69.662V68.4051C81.8848 66.5263 80.3334 64.9985 78.426 64.9985Z" fill="url(#paint4_linear_607_380)"/>
<path d="M55.4147 60.7338C54.5774 60.7338 53.8984 60.0663 53.8984 59.2472C53.8984 58.428 54.5796 57.7498 55.4147 57.7498C56.2497 57.7498 56.9309 58.4215 56.9309 59.2472C56.9309 60.0728 56.2497 60.7338 55.4147 60.7338Z" fill="url(#paint5_linear_607_380)"/>
<path d="M55.4151 75.5476C54.7229 75.5476 54.1582 74.9907 54.1582 74.3059V63.7567C54.1582 63.0763 54.7229 62.5237 55.4151 62.5237C56.1073 62.5237 56.6721 63.0763 56.6721 63.7567V74.3059C56.6721 74.9907 56.1073 75.5476 55.4151 75.5476Z" fill="url(#paint6_linear_607_380)"/>
<path d="M88.9851 75.5477C88.2885 75.5477 87.7215 74.9908 87.7215 74.306V65.0007H87.5501C86.8558 65.0007 86.291 64.4459 86.291 63.7633C86.291 63.0807 86.8558 62.5259 87.5501 62.5259H87.7215V61.3666C87.7215 59.0912 89.0049 57.7844 91.244 57.7844C91.4814 57.7844 91.7253 57.7996 91.9736 57.8299C92.679 57.9144 93.1932 58.4345 93.1932 59.0651C93.1932 59.6958 92.7822 60.3285 92.0944 60.3285C92.0219 60.3285 91.9494 60.322 91.8747 60.3069C91.7385 60.2765 91.5385 60.2419 91.3166 60.2419C91.066 60.2419 90.7188 60.2895 90.4969 60.5127C90.3167 60.6948 90.2288 60.9787 90.2376 61.3622V62.5259H91.9362C92.6284 62.5259 93.1932 63.0807 93.1932 63.7633C93.1932 64.4459 92.6284 65.0007 91.9362 65.0007H90.2376V74.306C90.2376 74.9908 89.6773 75.5477 88.9873 75.5477H88.9851Z" fill="url(#paint7_linear_607_380)"/>
<path d="M119.501 75.5282C119.174 75.5282 118.888 75.4069 118.649 75.1707C118.418 74.941 118.299 74.6593 118.299 74.3342V60.4001H114.676C114.333 60.4001 114.041 60.2766 113.805 60.0317C113.586 59.828 113.465 59.5398 113.465 59.2104C113.465 58.881 113.581 58.6014 113.81 58.3717C114.06 58.1333 114.35 58.0142 114.678 58.0142H124.342C124.665 58.0142 124.96 58.1377 125.199 58.3696C125.434 58.6079 125.551 58.8897 125.551 59.2104C125.551 59.5311 125.428 59.8215 125.195 60.0404C124.971 60.2744 124.681 60.3979 124.342 60.3979H120.708V74.332C120.708 74.6636 120.589 74.9453 120.352 75.1728C120.114 75.4069 119.829 75.5261 119.501 75.5261V75.5282Z" fill="url(#paint8_linear_607_380)"/>
<path d="M140.348 75.5282C140.024 75.5282 139.739 75.4091 139.497 75.1729C139.269 74.9431 139.161 74.6701 139.161 74.3342V65.0072L135.243 74.7351C135.025 75.2292 134.647 75.4741 134.12 75.4741C133.593 75.4741 133.206 75.2227 133.004 74.7286L129.088 65.0787V74.3364C129.088 74.6593 128.971 74.941 128.743 75.1707C128.503 75.4091 128.215 75.5304 127.89 75.5304C127.565 75.5304 127.271 75.4112 127.029 75.175C126.798 74.941 126.682 74.6593 126.682 74.3364V59.1519C126.682 58.8636 126.77 58.6166 126.95 58.3977L126.963 58.3847C127.163 58.168 127.4 58.0358 127.668 57.9882C127.741 57.973 127.818 57.9622 127.89 57.9622C128.086 57.9622 128.273 58.012 128.462 58.1139C128.712 58.2439 128.888 58.4389 129 58.7055C131.549 64.8989 133.228 69.1073 134.124 71.5452C135.045 69.0314 136.768 64.7168 139.249 58.712C139.339 58.4562 139.521 58.2482 139.783 58.1117C139.97 58.012 140.156 57.9622 140.35 57.9622C140.433 57.9622 140.506 57.9752 140.578 57.9882C140.838 58.0337 141.068 58.1615 141.281 58.3826L141.29 58.3912L141.299 58.4021C141.468 58.6079 141.558 58.868 141.558 59.154V74.3385C141.558 74.6701 141.44 74.9518 141.202 75.1794C140.972 75.4134 140.684 75.5326 140.35 75.5326L140.348 75.5282Z" fill="url(#paint9_linear_607_380)"/>
<path d="M148.9 75.5282C147.733 75.5282 146.626 75.188 145.609 74.5205C144.598 73.8552 143.866 72.9798 143.437 71.9157C143.317 71.6232 143.314 71.335 143.435 71.0402C143.561 70.752 143.774 70.5483 144.073 70.4248C144.233 70.3663 144.374 70.3403 144.501 70.3403C144.646 70.3403 144.795 70.3728 144.954 70.4378C145.246 70.5657 145.455 70.7715 145.582 71.0554C145.841 71.7099 146.281 72.2365 146.892 72.633C147.514 73.0383 148.188 73.242 148.902 73.242C149.738 73.242 150.463 72.9776 151.056 72.4575C151.64 71.9396 151.937 71.3068 151.937 70.5787C151.937 69.7855 151.691 69.2199 151.188 68.8429C150.773 68.5351 149.922 68.2057 148.588 67.8417C147.065 67.4321 145.958 66.9814 145.299 66.5003C144.127 65.6768 143.554 64.5196 143.554 62.9615C143.554 61.6158 144.079 60.4391 145.114 59.4617C146.171 58.4974 147.443 58.012 148.902 58.012C150.146 58.012 151.247 58.3695 152.177 59.0716C153.117 59.7629 153.772 60.7078 154.121 61.8736C154.211 62.1835 154.179 62.4761 154.025 62.7448C153.875 63.0243 153.64 63.2107 153.333 63.2887C153.216 63.3191 153.113 63.3342 153.005 63.3342C152.81 63.3342 152.627 63.2887 152.447 63.1912C152.179 63.0482 151.994 62.8206 151.9 62.5086C151.695 61.8173 151.324 61.2755 150.797 60.8941C150.269 60.4976 149.634 60.2982 148.905 60.2982C148.076 60.2982 147.353 60.5604 146.753 61.0783C146.164 61.6071 145.866 62.242 145.866 62.9593C145.866 63.7243 146.114 64.2769 146.624 64.6518C147.021 64.9443 147.861 65.2672 149.19 65.6378C150.72 66.0539 151.836 66.5046 152.511 66.9792C153.684 67.8178 154.255 68.9946 154.255 70.5765C154.255 71.9439 153.728 73.1184 152.686 74.0719C151.656 75.0363 150.384 75.526 148.907 75.526L148.9 75.5282Z" fill="url(#paint10_linear_607_380)"/>
<path d="M60.2781 90.5912C59.7354 90.5912 59.4365 90.3095 59.4365 89.7959C59.4365 89.2281 59.4387 87.9279 59.4475 85.893C59.4475 85.4401 59.4453 84.8702 59.4387 84.1724C59.4387 83.7953 59.4387 83.4529 59.4387 83.1452V82.4539V80.885C59.4387 80.6423 59.5332 80.4364 59.72 80.2782C59.9178 80.1309 60.1441 80.0615 60.4034 80.0615C60.5858 80.0615 60.7418 80.1114 60.8934 80.2154C61.0209 80.3021 61.1198 80.3844 61.1901 80.4646L61.1967 80.4733L61.245 80.5383C61.2999 80.6141 61.3813 80.7246 61.4779 80.8612L65.1279 86.0036L66.3167 87.6679C66.2991 86.9159 66.2925 85.9841 66.2925 84.8442L66.2618 81.1862C66.2618 80.8503 66.3079 80.6011 66.4002 80.4169C66.4881 80.2566 66.6771 80.0702 67.0924 80.0702C67.5077 80.0702 67.6637 80.2479 67.7406 80.3974C67.8329 80.5599 67.8769 80.8092 67.8769 81.1515V86.0751C67.8967 86.6428 67.9076 87.8044 67.9076 89.7244C67.9076 89.9823 67.8153 90.1925 67.6308 90.3528C67.4682 90.5024 67.233 90.5825 66.9562 90.5825C66.7276 90.5825 66.532 90.5132 66.3914 90.3832C66.2837 90.2856 66.1365 90.1058 65.9234 89.8197L61.0121 82.8483C61.0121 83.5071 61.0187 84.5625 61.0406 86.0231L61.0494 87.0611C61.0604 88.4437 61.067 89.291 61.067 89.6074C61.067 89.9238 61.0099 90.1491 60.8934 90.3203C60.8055 90.446 60.6297 90.5955 60.2759 90.5955L60.2781 90.5912Z" fill="#58595B"/>
<path d="M72.6343 90.5912C71.7004 90.5912 70.8917 90.2531 70.2281 89.5879C69.5667 88.9226 69.2195 88.1143 69.1953 87.1889C69.1953 86.1206 69.5403 85.1887 70.2193 84.4129C70.8983 83.6285 71.7487 83.2297 72.7442 83.2297C73.6034 83.2297 74.3505 83.5245 74.9592 84.1074C75.5591 84.699 75.8623 85.3664 75.8623 86.0946C75.8623 86.567 75.7854 86.879 75.6228 87.0762C75.436 87.2973 75.08 87.4056 74.5329 87.4121C74.2077 87.423 73.8539 87.4295 73.4869 87.4295C73.1243 87.4295 72.6607 87.4295 72.1223 87.436C71.6652 87.4403 71.2521 87.4425 70.8785 87.4425C70.9379 87.852 71.1181 88.2053 71.4257 88.5173C71.7751 88.8749 72.23 89.0569 72.7793 89.0569C73.3287 89.0569 73.8187 88.9096 74.2868 88.6062L74.2978 88.5997L74.3087 88.5953C74.6823 88.4133 74.8142 88.3895 74.8955 88.3895C75.0888 88.3895 75.2756 88.4783 75.425 88.643C75.5767 88.8055 75.6514 88.9789 75.6514 89.1718C75.6514 89.3733 75.5635 89.668 75.146 89.9216C74.5219 90.3637 73.6737 90.5912 72.6409 90.5912H72.6343ZM72.8057 84.6773C72.2849 84.6773 71.8608 84.8464 71.5048 85.1931C71.2126 85.4791 71.0192 85.8085 70.9291 86.1748C73.0057 86.1401 74.1066 86.1162 74.278 86.1119C74.278 86.1119 74.2824 86.1119 74.2846 86.1119C74.2736 85.698 74.1286 85.3534 73.8517 85.0934C73.5484 84.8138 73.2078 84.6773 72.8079 84.6773H72.8057Z" fill="#58595B"/>
<path d="M79.9516 90.5911C79.0089 90.5911 78.286 90.2769 77.8003 89.6593C77.3301 89.0525 77.0928 88.2377 77.0928 87.2344C77.0928 86.9592 77.095 86.4564 77.1016 85.7044C77.106 84.9546 77.106 84.4454 77.106 84.1918C77.106 83.6197 77.4334 83.2925 78.0025 83.2925C78.4728 83.2925 78.7431 83.5916 78.7431 84.1117C78.7431 84.4194 78.743 84.8831 78.7277 85.5116C78.7145 86.1487 78.7145 86.6579 78.7145 87.0675C78.7145 87.6699 78.8331 88.1727 79.0661 88.5584C79.2836 88.9225 79.6132 89.0937 80.1077 89.0937C80.8064 89.0937 81.2877 88.8662 81.5799 88.4002C81.8832 87.8997 82.037 87.1824 82.037 86.27L82.0458 84.1463C82.0458 83.8841 82.1315 83.6566 82.2831 83.5071C82.4457 83.3532 82.6479 83.2773 82.8874 83.2773C83.4082 83.2773 83.7071 83.5872 83.7071 84.1268V84.1897C83.7027 84.2807 83.6983 84.4801 83.6939 84.7878L83.6873 85.1128C83.6807 85.4292 83.6741 85.7478 83.6697 86.0707C83.6653 86.5734 83.6675 87.0675 83.6763 87.5811C83.6763 88.3266 83.7071 89.0547 83.7686 89.7525C83.7686 90.2379 83.4785 90.5066 82.9731 90.5066C82.549 90.5066 82.2699 90.2747 82.1864 89.8522V89.8413L82.1842 89.8305C82.1776 89.7503 82.1733 89.642 82.1667 89.5141C82.1667 89.5141 82.1667 89.5141 82.1667 89.5098C81.6437 90.2292 80.9009 90.5911 79.956 90.5911H79.9516Z" fill="#58595B"/>
<path d="M86.2079 90.5911C85.9156 90.5911 85.7003 90.5044 85.5684 90.3311C85.452 90.1772 85.3992 89.941 85.4014 89.5878C85.4014 89.4144 85.4102 89.0092 85.4212 88.3374L85.43 87.865C85.452 86.97 85.463 86.2635 85.463 85.8214C85.463 85.6546 85.4564 85.3923 85.4454 85.0196C85.4454 85.0196 85.4388 84.6967 85.4366 84.5689C85.4322 84.3933 85.43 84.2525 85.43 84.1441C85.4234 83.8949 85.4915 83.6934 85.6322 83.5504C85.775 83.4052 85.9838 83.3337 86.2518 83.3337C86.6628 83.3337 86.9199 83.5807 86.9572 84.0119V84.103C87.5725 83.4615 88.502 83.2751 88.9898 83.2751C89.7699 83.2751 89.8842 83.7649 89.8842 84.0575C89.8842 84.2525 89.8227 84.4323 89.7018 84.5949C89.5502 84.7704 89.359 84.8549 89.1195 84.8549H88.8404C88.2955 84.8549 87.0297 85.1258 87.0297 87.6309V89.824C87.0297 90.3115 86.7287 90.5911 86.2035 90.5911H86.2079Z" fill="#58595B"/>
<path d="M114.713 90.5912C114.418 90.5912 114.203 90.5023 114.073 90.3289C113.952 90.1751 113.897 89.9215 113.913 89.5813C113.913 89.3885 113.915 88.8142 113.943 87.865C113.963 86.8812 113.974 86.2311 113.974 85.8237C113.974 85.6611 113.968 85.4098 113.957 85.0565V85.0045C113.946 84.6209 113.943 84.3349 113.943 84.1485C113.935 83.8993 114.001 83.6978 114.141 83.5548C114.282 83.4096 114.491 83.3381 114.756 83.3381C115.174 83.3381 115.425 83.5786 115.464 84.0163V84.1117C116.082 83.4659 117.011 83.2795 117.497 83.2795C118.275 83.2795 118.391 83.7693 118.391 84.0618C118.391 84.2656 118.327 84.4476 118.204 84.6036C118.116 84.7185 117.945 84.8572 117.629 84.8572H117.352C117.051 84.8572 115.545 84.9915 115.545 87.6331V89.8262C115.545 90.3138 115.242 90.5933 114.715 90.5933L114.713 90.5912Z" fill="#58595B"/>
<path d="M93.4331 90.5912C92.4904 90.5912 91.662 90.2639 90.972 89.616C90.282 88.9724 89.9326 88.1294 89.9326 87.1087C89.9326 86.0014 90.2798 85.0739 90.994 84.2742C91.818 83.3944 92.875 83.2102 93.6177 83.2102C93.8419 83.2102 94.0704 83.2275 94.2791 83.26C95.2284 83.4182 95.958 83.8495 96.448 84.5386C96.9358 85.2472 97.182 86.0404 97.182 86.9007C97.182 87.9474 96.8216 88.8315 96.1074 89.5293C95.3867 90.2314 94.4879 90.589 93.4331 90.589V90.5912ZM93.5386 84.6795C92.9541 84.7141 92.4729 84.9438 92.1081 85.3664C91.7477 85.7977 91.5653 86.3936 91.5653 87.1347C91.5653 87.7025 91.7499 88.1597 92.1301 88.5281C92.508 88.8965 92.9233 89.0742 93.4024 89.0742C93.9935 89.0742 94.4857 88.8749 94.9076 88.4631C95.3317 88.0579 95.5383 87.5356 95.5383 86.8595C95.5383 86.2419 95.3603 85.7261 95.0109 85.3209C94.6681 84.9287 94.1737 84.7141 93.5408 84.6795H93.5386Z" fill="#58595B"/>
<path d="M101.555 90.5913C100.463 90.5913 99.5862 90.2229 98.949 89.497C98.3249 88.7775 98.0129 87.9692 98.0217 87.0937C98.0327 86.0947 98.3733 85.1889 99.0369 84.4022C99.7159 83.6069 100.601 83.2039 101.669 83.2039C102.373 83.2039 103.005 83.3686 103.553 83.6914C103.803 83.8648 103.924 84.0837 103.924 84.3524C103.924 84.5388 103.858 84.7186 103.735 84.8725C103.594 85.0437 103.419 85.1304 103.208 85.1304C103.142 85.1304 103.034 85.113 102.535 84.9093C102.236 84.7815 101.931 84.7186 101.595 84.7186C101.039 84.7186 100.59 84.9483 100.223 85.4186C99.8455 85.8997 99.6544 86.4176 99.6544 86.9593C99.6544 87.5488 99.8302 88.0494 100.173 88.4459C100.514 88.8425 100.946 89.0354 101.494 89.0354C101.97 89.0354 102.364 88.94 102.665 88.7493C103.109 88.5131 103.263 88.4806 103.357 88.4806C103.566 88.4806 103.755 88.5846 103.887 88.771C104.016 88.9314 104.084 89.1112 104.084 89.2954C104.084 89.5143 103.979 89.7115 103.779 89.8654C103.201 90.3464 102.452 90.5913 101.557 90.5913H101.555Z" fill="#58595B"/>
<path d="M108.327 90.5911C107.34 90.5911 106.518 90.2509 105.888 89.5791C105.264 88.9073 104.947 88.086 104.947 87.1325C104.947 86.0338 105.294 85.1128 105.98 84.3912C106.668 83.6522 107.534 83.2751 108.553 83.2751C109.384 83.2751 110.063 83.5482 110.579 84.0856C110.584 84.0509 110.59 84.0184 110.597 83.9881C110.689 83.4095 111.1 83.3228 111.335 83.3228C111.647 83.3228 111.863 83.4247 111.977 83.6262C112.074 83.7822 112.122 84.0163 112.122 84.3348L112.111 85.4964L112.076 87.7393C112.076 88.3417 112.1 89.0243 112.15 89.8261C112.15 90.0515 112.069 90.5499 111.304 90.5499C110.92 90.5499 110.757 90.3311 110.689 90.1469C110.647 90.0298 110.612 89.8695 110.584 89.6614C110.048 90.279 109.292 90.5911 108.327 90.5911ZM108.564 84.7487C108.004 84.7487 107.551 84.9633 107.178 85.4032C106.8 85.8453 106.606 86.4152 106.606 87.0935C106.606 87.6916 106.787 88.1683 107.16 88.5497C107.523 88.9333 107.953 89.1175 108.476 89.1175C109.078 89.1175 109.562 88.9225 109.955 88.5194C110.344 88.1207 110.533 87.6071 110.533 86.9505C110.533 86.2592 110.335 85.7174 109.949 85.336C109.562 84.9438 109.096 84.7466 108.566 84.7466L108.564 84.7487Z" fill="#58595B"/>
<path d="M122.272 90.5912C121.34 90.5912 120.529 90.2532 119.861 89.5901C119.2 88.9226 118.855 88.1143 118.833 87.1911C118.833 86.1184 119.176 85.1866 119.853 84.4151C120.534 83.6307 121.384 83.2319 122.377 83.2319C123.241 83.2319 123.986 83.5267 124.592 84.1118C125.195 84.7055 125.5 85.373 125.5 86.0989C125.5 86.567 125.423 86.8791 125.261 87.0784C125.074 87.2973 124.709 87.41 124.173 87.4165C123.848 87.4273 123.494 87.4338 123.125 87.4338C122.758 87.4338 122.301 87.4338 121.76 87.4403C121.307 87.4447 120.89 87.4468 120.514 87.4468C120.569 87.8456 120.749 88.1988 121.063 88.5239C121.419 88.8858 121.861 89.0613 122.413 89.0613C122.964 89.0613 123.467 88.9096 123.92 88.6127L123.931 88.6062L123.942 88.5997C124.296 88.4285 124.43 88.3938 124.524 88.3938C124.724 88.3938 124.907 88.4784 125.061 88.6452C125.21 88.8229 125.28 88.9941 125.28 89.1761C125.28 89.3799 125.195 89.6767 124.781 89.9259C124.153 90.368 123.307 90.5956 122.276 90.5956L122.272 90.5912ZM122.437 84.6774C121.92 84.6774 121.496 84.8464 121.143 85.1931C120.85 85.477 120.657 85.8086 120.567 86.177C122.604 86.1423 123.729 86.1184 123.913 86.1141H123.918C123.907 85.6915 123.762 85.3513 123.483 85.0978C123.182 84.816 122.841 84.6795 122.437 84.6795V84.6774Z" fill="#58595B"/>
<path d="M128.49 84.2C128.411 84.2 128.356 84.1697 128.297 84.1177C128.251 84.0657 128.222 84.0028 128.222 83.9313V80.8151H127.264C127.187 80.8151 127.119 80.7934 127.066 80.7349C127.018 80.6873 126.987 80.6201 126.987 80.5464C126.987 80.4727 127.018 80.4077 127.066 80.3514C127.119 80.2994 127.187 80.2668 127.264 80.2668H129.719C129.798 80.2668 129.859 80.2994 129.916 80.3514C129.969 80.4077 129.996 80.4727 129.996 80.5464C129.996 80.6201 129.969 80.6873 129.916 80.7349C129.859 80.7934 129.798 80.8151 129.719 80.8151H128.767V83.9313C128.767 84.0028 128.741 84.0635 128.686 84.1177C128.633 84.1697 128.565 84.2 128.493 84.2H128.49Z" fill="#58595B"/>
<path d="M133.788 84.2007C133.716 84.2007 133.646 84.1704 133.595 84.1184C133.547 84.0664 133.516 84.0035 133.516 83.932V81.8235L132.457 84.0209C132.415 84.1271 132.329 84.1834 132.208 84.1834C132.088 84.1834 131.997 84.1271 131.951 84.0209L130.894 81.8387V83.932C130.894 84.0035 130.868 84.0642 130.813 84.1184C130.765 84.1704 130.694 84.2007 130.626 84.2007C130.545 84.2007 130.481 84.1704 130.428 84.1184C130.374 84.0664 130.343 84.0035 130.343 83.932V80.5341C130.343 80.4626 130.369 80.4127 130.407 80.3607C130.455 80.3022 130.508 80.2784 130.571 80.2675C130.589 80.2654 130.604 80.2654 130.628 80.2654C130.675 80.2654 130.71 80.274 130.752 80.2957C130.837 80.3369 130.879 80.4344 130.879 80.4344L132.208 83.3448C132.444 82.842 133.518 80.4756 133.538 80.4344C133.56 80.3759 133.595 80.3282 133.657 80.2957C133.703 80.2719 133.744 80.2654 133.791 80.2654C133.806 80.2654 133.828 80.2654 133.843 80.2675C133.911 80.2784 133.96 80.3022 134.004 80.3607C134.041 80.4106 134.072 80.4734 134.072 80.5341V83.932C134.072 84.0035 134.039 84.0642 133.986 84.1184C133.931 84.1704 133.872 84.2007 133.793 84.2007H133.788Z" fill="#58595B"/>
<path d="M129.424 41.0547C129.207 42.1967 128.994 43.2954 128.796 44.3139C128.915 44.3876 129.712 44.8578 131.591 45.9739L132.252 42.7341L129.424 41.0525V41.0547Z" fill="#3878BC"/>
<path d="M129.424 41.0547C129.207 42.1967 128.994 43.2954 128.796 44.3139C128.915 44.3876 129.712 44.8578 131.591 45.9739L132.252 42.7341L129.424 41.0525V41.0547Z" fill="#3777BB"/>
<path d="M137.366 45.7505C137.366 45.7505 135.483 44.641 132.85 43.0829L124.234 37.9773C122.698 37.0476 121.384 36.2372 120.45 35.6607C119.679 35.1861 119.138 34.8502 118.874 34.6986C118.516 34.4927 117.967 34.2131 117.215 34.1958C116.686 34.2023 116.218 34.302 115.787 34.4927C115.337 34.6986 114.928 35.0171 114.552 35.47C113.634 36.6901 113.614 38.1463 114.005 39.3079C114.205 38.855 115.341 36.5752 118.086 37.9816V37.9903C118.086 37.9903 118.097 37.9903 118.107 37.9925C118.156 38.0185 118.195 38.0358 118.235 38.0661C118.244 38.0661 118.246 38.0748 118.257 38.077C118.323 38.116 118.402 38.1528 118.474 38.2027C119.342 38.7054 121.933 40.244 124.878 41.9907L124.911 42.0015C126.174 42.7621 127.508 43.5444 128.798 44.3137V44.2877H128.805C128.805 44.2877 128.798 44.2986 128.798 44.3051C129.796 44.9032 130.754 45.4276 131.635 45.9564L135.964 48.468L135.995 48.4831C136.034 48.5135 136.942 49.0661 138.256 48.715C139.398 48.4116 140.159 46.795 140.172 46.7387C140.172 46.7322 140.449 46.2533 140.543 45.7852C139.847 46.7668 137.572 45.8502 137.37 45.7505H137.366Z" fill="url(#paint11_linear_607_380)"/>
<path d="M137.601 37.5678C137.5 35.7713 136.749 33.082 136.142 31.1577C136.12 31.0732 136.087 30.9778 136.063 30.9041C135.922 30.4686 135.729 29.7664 135.402 29.0275C135.402 29.0275 135.395 29.0101 135.382 28.9798C136.415 27.6947 138.008 28.1238 138.377 28.2473C138.726 28.8476 140.366 31.4611 141.06 37.804C141.649 43.1263 140.568 45.7051 140.539 45.7874C140.001 46.5112 138.463 46.2988 137.366 45.7527C137.366 45.7527 137.34 45.7462 137.307 45.7224C137.386 45.3063 137.465 44.7971 137.524 44.199C137.713 42.5607 137.834 40.3004 137.601 37.5678Z" fill="url(#paint12_linear_607_380)"/>
<path d="M121.425 44.9185C120.151 43.6443 118.665 41.2908 117.644 39.555C117.595 39.4727 117.551 39.399 117.505 39.3188C117.281 38.9309 116.883 38.3112 116.554 37.5787C116.554 37.5787 116.551 37.5614 116.538 37.531C114.897 37.4638 114.169 38.9483 114.007 39.3037C114.224 39.9689 115.066 42.94 119.296 47.6815C122.847 51.658 125.477 52.5487 125.55 52.5855C126.458 52.6613 127.31 51.3568 127.644 50.1649C127.644 50.1649 127.644 50.1497 127.653 50.1064C127.293 49.8832 126.866 49.6058 126.383 49.2591C125.047 48.3142 123.282 46.897 121.428 44.9185H121.425Z" fill="url(#paint13_linear_607_380)"/>
<path d="M129.796 39.2841C130.497 35.7258 131.061 32.5749 131.389 30.6874C131.549 29.7989 131.67 29.1597 131.732 28.8606C131.806 28.4575 131.971 27.8529 132.455 27.27C132.815 26.8734 133.195 26.5831 133.617 26.3945C134.074 26.1843 134.58 26.0933 135.173 26.1041C136.674 26.2298 137.77 27.1768 138.374 28.2452C137.898 28.0826 135.458 27.439 134.685 30.4512C134.685 30.4512 134.678 30.4664 134.674 30.4707C134.663 30.5271 134.648 30.5683 134.641 30.6094C134.641 30.6159 134.634 30.6246 134.634 30.6354C134.619 30.7156 134.599 30.8023 134.582 30.8911C134.298 32.3084 133.215 37.817 132.257 42.7319C131.053 42.0168 130.095 41.4468 129.42 41.0503L129.791 39.2798L129.796 39.2841Z" fill="url(#paint14_linear_607_380)"/>
<path d="M127.642 50.1648C127.569 50.3837 126.741 52.7089 125.548 52.5854C125.961 52.8302 126.499 52.9299 126.508 52.9386C126.556 52.9711 128.253 53.4652 129.24 52.8042C130.369 52.0436 130.565 50.9926 130.569 50.9471L130.573 50.9167L131.591 45.9759C130.712 45.4601 129.774 44.8945 128.796 44.3159C128.121 47.6878 127.642 50.1669 127.642 50.1669V50.1648Z" fill="url(#paint15_linear_607_380)"/>
<defs>
<linearGradient id="paint0_linear_607_380" x1="31.1265" y1="69.0357" x2="112.759" y2="69.0357" gradientUnits="userSpaceOnUse">
<stop stop-color="#3677BB"/>
<stop offset="0.52" stop-color="#309696"/>
<stop offset="1" stop-color="#00B161"/>
</linearGradient>
<linearGradient id="paint1_linear_607_380" x1="29.6259" y1="6.8501" x2="113.172" y2="6.8501" gradientUnits="userSpaceOnUse">
<stop stop-color="#3677BB"/>
<stop offset="0.52" stop-color="#309696"/>
<stop offset="1" stop-color="#00B161"/>
</linearGradient>
<linearGradient id="paint2_linear_607_380" x1="27.6637" y1="6.8501" x2="111.239" y2="6.8501" gradientUnits="userSpaceOnUse">
<stop stop-color="#3677BB"/>
<stop offset="0.52" stop-color="#309696"/>
<stop offset="1" stop-color="#00B161"/>
</linearGradient>
<linearGradient id="paint3_linear_607_380" x1="6.11927" y1="66.6649" x2="110.908" y2="66.6649" gradientUnits="userSpaceOnUse">
<stop stop-color="#3677BB"/>
<stop offset="0.52" stop-color="#309696"/>
<stop offset="1" stop-color="#00B161"/>
</linearGradient>
<linearGradient id="paint4_linear_607_380" x1="28.9002" y1="66.7105" x2="112.431" y2="66.7105" gradientUnits="userSpaceOnUse">
<stop stop-color="#3677BB"/>
<stop offset="0.52" stop-color="#309696"/>
<stop offset="1" stop-color="#00B161"/>
</linearGradient>
<linearGradient id="paint5_linear_607_380" x1="25.2878" y1="59.2429" x2="124.843" y2="59.2429" gradientUnits="userSpaceOnUse">
<stop stop-color="#3677BB"/>
<stop offset="0.52" stop-color="#309696"/>
<stop offset="1" stop-color="#00B161"/>
</linearGradient>
<linearGradient id="paint6_linear_607_380" x1="23.6556" y1="6.85007" x2="128.603" y2="6.85007" gradientUnits="userSpaceOnUse">
<stop stop-color="#3677BB"/>
<stop offset="0.52" stop-color="#309696"/>
<stop offset="1" stop-color="#00B161"/>
</linearGradient>
<linearGradient id="paint7_linear_607_380" x1="25.7165" y1="66.665" x2="112.748" y2="66.665" gradientUnits="userSpaceOnUse">
<stop stop-color="#3677BB"/>
<stop offset="0.52" stop-color="#309696"/>
<stop offset="1" stop-color="#00B161"/>
</linearGradient>
<linearGradient id="paint8_linear_607_380" x1="113.181" y1="62.9052" x2="149.859" y2="79.5938" gradientUnits="userSpaceOnUse">
<stop stop-color="#F9A51C"/>
<stop offset="1" stop-color="#F26F21"/>
</linearGradient>
<linearGradient id="paint9_linear_607_380" x1="114.978" y1="58.2764" x2="151.421" y2="74.8585" gradientUnits="userSpaceOnUse">
<stop stop-color="#F9A51C"/>
<stop offset="1" stop-color="#F26F21"/>
</linearGradient>
<linearGradient id="paint10_linear_607_380" x1="117.079" y1="52.6962" x2="153.711" y2="69.3626" gradientUnits="userSpaceOnUse">
<stop stop-color="#F9A51C"/>
<stop offset="1" stop-color="#F26F21"/>
</linearGradient>
<linearGradient id="paint11_linear_607_380" x1="110.441" y1="34.5211" x2="145.865" y2="49.6453" gradientUnits="userSpaceOnUse">
<stop stop-color="#FFCE01"/>
<stop offset="0.24" stop-color="#F9A51D"/>
<stop offset="0.61" stop-color="#F26F21"/>
<stop offset="1" stop-color="#ED2526"/>
</linearGradient>
<linearGradient id="paint12_linear_607_380" x1="137.294" y1="28.2452" x2="139.74" y2="46.1239" gradientUnits="userSpaceOnUse">
<stop stop-color="#3677BB"/>
<stop offset="0.72" stop-color="#309696"/>
<stop offset="1" stop-color="#00B161"/>
</linearGradient>
<linearGradient id="paint13_linear_607_380" x1="114.424" y1="37.3338" x2="125.433" y2="51.8949" gradientUnits="userSpaceOnUse">
<stop stop-color="#FFD900"/>
<stop offset="0.08" stop-color="#E7D508"/>
<stop offset="0.25" stop-color="#ABCB1F"/>
<stop offset="0.49" stop-color="#4BBC44"/>
<stop offset="0.67" stop-color="#00B161"/>
<stop offset="0.83" stop-color="#1AA35D"/>
<stop offset="1" stop-color="#3C925A"/>
</linearGradient>
<linearGradient id="paint14_linear_607_380" x1="132.208" y1="42.1381" x2="136.087" y2="23.0987" gradientUnits="userSpaceOnUse">
<stop stop-color="#3677BB"/>
<stop offset="0.52" stop-color="#309696"/>
<stop offset="1" stop-color="#00B161"/>
</linearGradient>
<linearGradient id="paint15_linear_607_380" x1="129.466" y1="44.5955" x2="127.789" y2="53.6124" gradientUnits="userSpaceOnUse">
<stop stop-color="#3677BB"/>
<stop offset="0.38" stop-color="#309696"/>
<stop offset="0.55" stop-color="#1AA27E"/>
<stop offset="0.74" stop-color="#07AC68"/>
<stop offset="0.87" stop-color="#00B161"/>
</linearGradient>
</defs>
</svg>
