<svg width="64" height="64" viewBox="0 0 64 64" fill="none" xmlns="http://www.w3.org/2000/svg">
<g clip-path="url(#clip0_607_326)">
<path d="M59.0758 9.03288C58.9311 7.61487 57.7441 6.51487 56.3148 6.47412C44.2914 6.13137 36.3304 2.11563 33.4658 0.405C32.5613 -0.135125 31.4375 -0.134875 30.5334 0.405C28.8344 1.41962 25.1807 3.33375 19.7983 4.75425C19.2985 4.88625 19.0003 5.39838 19.1322 5.89813C19.264 6.39788 19.7764 6.69588 20.276 6.56425C25.8805 5.085 29.7097 3.07725 31.4933 2.01225C31.8057 1.8255 32.1937 1.8255 32.5062 2.01225C35.4968 3.798 43.7981 7.99013 56.2615 8.34538C56.7547 8.35938 57.1639 8.73662 57.2135 9.22275C57.628 13.2859 58.2783 23.9162 55.3724 34.8501C53.7423 40.9837 51.2304 46.2875 47.9066 50.614C43.907 55.8202 38.6732 59.6725 32.3504 62.0638C32.1242 62.1493 31.8752 62.1493 31.6487 62.0638C25.3262 59.6725 20.0923 55.8202 16.0927 50.614C12.7689 46.2875 10.257 40.9837 8.62678 34.8501C5.72078 23.9162 6.37115 13.2856 6.78565 9.22275C6.83528 8.73662 7.24453 8.35938 7.73778 8.34538C10.513 8.26625 13.2739 7.98712 15.9439 7.5155C16.4529 7.42562 16.7927 6.94 16.7028 6.43087C16.6129 5.92188 16.1274 5.58187 15.6183 5.672C13.038 6.12775 10.3687 6.39762 7.68453 6.47412C6.25515 6.51487 5.06815 7.61487 4.9234 9.03288C4.49853 13.1981 3.8324 24.0988 6.81778 35.331C8.5119 41.705 11.1329 47.2308 14.6083 51.7545C18.8232 57.2409 24.3337 61.2986 30.9863 63.8146C31.313 63.9384 31.6564 64.0001 31.9997 64.0001C32.3429 64.0001 32.6862 63.9384 33.0128 63.8146C39.6656 61.2986 45.1761 57.2409 49.391 51.7545C52.8663 47.2308 55.4874 41.705 57.1815 35.331C60.1666 24.0988 59.5006 13.1981 59.0758 9.03288Z" fill="#EF6623"/>
<path d="M10.2869 13.1603C10.0184 15.7931 9.33342 25.1268 11.7962 34.6899C13.1492 39.9434 15.2419 44.4879 18.0162 48.1974C21.391 52.7096 25.8017 56.0185 31.1259 58.0323C31.4074 58.1386 31.7032 58.1919 31.999 58.1919C32.2948 58.1919 32.5908 58.1386 32.8723 58.0321C38.1963 56.0185 42.607 52.7098 45.9819 48.1974C48.7562 44.4879 50.8489 39.9435 52.2019 34.6899C54.6647 25.1268 53.9797 15.7931 53.7112 13.1603C53.5864 11.9376 52.5632 10.9893 51.331 10.9541C41.8193 10.683 35.5268 7.50914 33.263 6.15739C32.4834 5.69164 31.5148 5.69176 30.7352 6.15726C28.4713 7.50914 22.1788 10.683 12.667 10.9541C11.4349 10.9893 10.4117 11.9376 10.2869 13.1603ZM31.695 7.76439C31.7888 7.70839 31.8939 7.68039 31.999 7.68039C32.1042 7.68039 32.2093 7.70839 32.3032 7.76451C34.6929 9.19164 41.3259 12.5416 51.2777 12.8254C51.5737 12.8338 51.8192 13.0594 51.8488 13.3501C52.1094 15.9049 52.7744 24.9605 50.389 34.2229C47.5145 45.3845 41.3983 52.806 32.2102 56.281C32.0742 56.3328 31.9242 56.3326 31.788 56.2811C22.5998 52.8059 16.4835 45.3845 13.609 34.2229C11.2237 24.9606 11.8887 15.905 12.1493 13.3501C12.1789 13.0595 12.4244 12.8338 12.7205 12.8254C22.6722 12.5416 29.3052 9.19164 31.695 7.76439Z" fill="#F8A51C"/>
<path d="M32 43.9263C36.2703 43.9263 40.294 41.8423 42.7632 38.3517C43.0617 37.9297 42.9616 37.3457 42.5396 37.0471C42.1177 36.7484 41.5335 36.8486 41.235 37.2707C39.1161 40.2661 35.6637 42.0544 32 42.0544C25.7671 42.0544 20.6963 36.9837 20.6963 30.7508C20.6963 24.5179 25.7671 19.4472 32 19.4472C38.2328 19.4472 43.3036 24.5179 43.3036 30.7508C43.3036 31.7256 43.1796 32.6929 42.9348 33.6262C42.8037 34.1262 43.1028 34.6378 43.6028 34.7689C44.1027 34.8996 44.6145 34.6009 44.7456 34.1009C45.0308 33.0127 45.1755 31.8857 45.1755 30.7508C45.1755 23.4858 39.265 17.5752 31.9998 17.5752C24.7347 17.5752 18.8242 23.4857 18.8242 30.7508C18.8242 38.0159 24.735 43.9263 32 43.9263Z" fill="#F8A51C"/>
<path d="M36.9087 24.1782C36.127 24.2095 35.4044 24.5432 34.8739 25.1179L30.173 30.2092L29.009 29.0844C27.848 27.9625 25.9904 27.994 24.8682 29.155C23.7462 30.316 23.7777 32.1735 24.9388 33.2959L28.2569 36.5027C28.8058 37.0334 29.5285 37.3256 30.292 37.3256C30.321 37.3256 30.35 37.3252 30.3754 37.3244C31.1587 37.3021 31.9125 36.9591 32.4437 36.3836L39.1769 29.0909C40.2724 27.9045 40.1984 26.0481 39.0119 24.9526C38.4373 24.4221 37.6894 24.1475 36.9087 24.1782ZM37.8015 27.8211C37.8015 27.8211 31.0683 35.1139 31.0682 35.114C30.6669 35.5486 29.9827 35.5675 29.5578 35.1569C29.5558 35.1549 26.2397 31.9499 26.2397 31.9499C25.8207 31.5449 25.8093 30.8747 26.214 30.456C26.421 30.2419 26.6973 30.1341 26.974 30.1341C27.2385 30.1341 27.5033 30.2326 27.7082 30.4304C27.7082 30.4304 29.558 32.2182 29.5605 32.2207C29.9282 32.576 30.5512 32.5591 30.8987 32.1827C30.8987 32.1827 36.2323 26.4061 36.2492 26.3879C37.1532 25.4089 38.7329 26.8126 37.8015 27.8211Z" fill="#EF6623"/>
</g>
<defs>
<clipPath id="clip0_607_326">
<rect width="64" height="64" fill="white"/>
</clipPath>
</defs>
</svg>
