<svg width="64" height="64" viewBox="0 0 64 64" fill="none" xmlns="http://www.w3.org/2000/svg">
<g clip-path="url(#clip0_607_366)">
<path d="M24.5084 32.9941C24.8371 32.9941 25.142 32.8219 25.3115 32.5401L27.0029 29.7307L29.2441 33.2922C29.4194 33.5709 29.7256 33.7362 30.0573 33.7302C30.3864 33.7234 30.6878 33.5444 30.8513 33.2586L34.4594 26.9541L39.3054 35.7854C39.4671 36.0801 39.7744 36.2657 40.1106 36.2717C40.1161 36.2717 40.1218 36.2719 40.1273 36.2719C40.4571 36.2719 40.7634 36.0982 40.9326 35.8141L43.9518 30.7459H51.232C51.7498 30.7459 52.1695 30.3261 52.1695 29.8084C52.1695 29.2906 51.7498 28.8709 51.232 28.8709H43.419C43.0886 28.8709 42.7826 29.0447 42.6136 29.3286L40.1606 33.4464L35.2985 24.5856C35.1353 24.2882 34.8243 24.1022 34.485 24.0991C34.4821 24.0991 34.4794 24.0991 34.4765 24.0991C34.1405 24.0991 33.83 24.279 33.6629 24.5709L29.9994 30.9721L27.7786 27.4432C27.6069 27.1704 27.3073 27.0051 26.9851 27.0051C26.9821 27.0051 26.979 27.0051 26.9759 27.0051C26.6504 27.0082 26.3499 27.1801 26.182 27.459L23.9785 31.1191H18.6504C18.1326 31.1191 17.7129 31.5389 17.7129 32.0566C17.7129 32.5744 18.1326 32.9941 18.6504 32.9941H24.5084Z" fill="#EF6623"/>
<path d="M52.8873 6.97437C52.3696 6.97437 51.9498 7.39412 51.9498 7.91187V10.6774H49.1846C48.6668 10.6774 48.2471 11.0971 48.2471 11.6149C48.2471 12.1326 48.6668 12.5524 49.1846 12.5524H51.9498V15.318C51.9498 15.8357 52.3696 16.2555 52.8873 16.2555C53.4051 16.2555 53.8248 15.8357 53.8248 15.318V12.5524H56.5901C57.1078 12.5524 57.5276 12.1326 57.5276 11.6149C57.5276 11.0971 57.1078 10.6774 56.5901 10.6774H53.8248V7.91187C53.8248 7.39412 53.4051 6.97437 52.8873 6.97437Z" fill="#EF6623"/>
<path d="M56.195 39.095C60.7624 34.2121 62.0714 26.8285 59.5607 20.4985C62.2549 18.468 64 15.2416 64 11.6148C64 5.48672 59.0148 0.501221 52.887 0.501221C50.3699 0.501221 47.905 1.3651 45.9463 2.93372C45.5421 3.25735 45.4769 3.84735 45.8005 4.25147C46.1241 4.65547 46.7141 4.72085 47.1183 4.39722C48.7693 3.07497 50.764 2.37622 52.8869 2.37622C57.9806 2.37622 62.1249 6.52072 62.1249 11.6148C62.1249 16.7111 57.9808 20.8571 52.8869 20.8571C48.144 20.8571 44.2261 17.2648 43.7059 12.6585C43.7049 12.6478 43.7031 12.6371 43.7018 12.6263C43.6654 12.294 43.6452 11.9567 43.6452 11.6148C43.6452 10.1678 43.9704 8.78409 44.6114 7.50184C44.8429 7.03872 44.6551 6.4756 44.1921 6.24397C43.7286 6.0126 43.1659 6.20022 42.9342 6.66322C42.1619 8.20809 41.7702 9.87409 41.7702 11.6147C41.7702 11.7722 41.7744 11.9287 41.7809 12.0847C39.4136 12.9308 37.204 14.3225 35.3522 16.1436L34.316 17.1623C34.311 17.1573 34.3073 17.1536 34.3022 17.1486L33.2835 16.1448C29.9873 12.8948 25.6723 11.0786 21.4435 11.1661C17.9248 11.2386 14.811 12.6173 12.4397 15.1523C12.086 15.5311 12.106 16.1248 12.4847 16.4786C12.8635 16.8311 13.456 16.8123 13.8097 16.4336C15.8272 14.2761 18.4797 13.1023 21.4823 13.0411C25.2073 12.9648 29.0285 14.5836 31.9673 17.4798L32.9873 18.4848C33.4798 18.9698 33.8997 19.2111 34.3185 19.2111C34.7335 19.2111 35.1473 18.9736 35.631 18.4986L36.6673 17.4798C38.2244 15.9493 40.061 14.7576 42.0272 13.9932C43.1194 18.9842 47.5732 22.732 52.8867 22.732C54.7059 22.732 56.4243 22.2925 57.9414 21.514C60.0187 27.1016 58.826 33.5297 54.8322 37.806L41.3737 51.5825L40.26 51.8C39.99 51.8525 39.7512 51.9 39.5337 51.9437C38.1213 52.23 37.7838 52.2975 36.13 52.0425L28.1112 50.5762C27.0187 50.1987 27.1287 49.3287 27.19 49.0675C27.2863 48.6612 27.6637 48.005 28.475 48.1275C28.4825 48.1287 28.49 48.13 28.4975 48.1312C28.8587 48.1775 29.2463 48.2275 29.6513 48.2787C31.17 48.475 32.89 48.6962 34.4175 48.8525C37.5425 49.1687 39.31 47.5287 39.6775 45.7612C40.0513 43.96 39.025 41.565 35.8875 40.5637C35.85 40.5525 35.8113 40.5425 35.7713 40.535L30.6075 39.5875C27.805 39.0737 25.625 39.47 22.325 40.07C21.4525 40.2287 20.4625 40.4075 19.36 40.5887L16.9125 40.9912L16.1588 40.22L13.8025 37.8075C9.39875 33.0862 8.4225 25.6912 11.4325 19.82C11.6687 19.36 11.4862 18.795 11.0262 18.5587C10.565 18.3225 10 18.5037 9.76375 18.965C6.39875 25.53 7.49875 33.8075 12.44 39.095C12.445 39.1 12.45 39.105 12.4537 39.11L14.6538 41.3625L10.5565 42.036V41.929C10.5565 41.2051 9.91788 40.6162 9.13288 40.6162H1.42C0.637 40.6162 0 41.2051 0 41.929V58.4246C0 59.1485 0.637 59.7373 1.42 59.7373H9.133C9.918 59.7373 10.5566 59.1485 10.5566 58.4246V58.311L18.9875 60.605L26.77 62.72C28.5463 63.2712 29.9775 63.4987 31.2838 63.4987C33.3512 63.4987 35.1075 62.9312 37.4275 62.1812C37.6338 62.115 37.845 62.0462 38.0625 61.9762L53.3988 57.0587C55.1763 56.4887 56.4412 55.2087 56.7812 53.635C57.045 52.415 56.6775 51.21 55.7975 50.4112C55.085 49.765 53.41 48.8375 50.1813 49.8587L44.6138 50.9475L56.1813 39.11C56.1863 39.105 56.19 39.1 56.195 39.095ZM1.875 57.8623V42.4911H8.6815V43.1352L8.68125 43.1411V57.0836L8.6815 57.0868V57.8623H1.875ZM50.7 51.6612C52.43 51.1062 53.8288 51.1562 54.5387 51.8C54.9212 52.1475 55.0713 52.6725 54.9487 53.2375C54.7513 54.1487 53.9575 54.91 52.8262 55.2725L37.4888 60.1912C37.27 60.2612 37.0575 60.33 36.85 60.3975C33.1812 61.5825 31.34 62.1787 27.31 60.925C27.3 60.9212 27.2887 60.9187 27.2775 60.915L10.5565 56.3676V43.9362L19.6637 42.44C20.7812 42.2562 21.78 42.0737 22.6612 41.9137C25.8675 41.3312 27.8037 40.98 30.2687 41.4325L35.3725 42.3687C37.3625 43.0225 38.0488 44.3837 37.8413 45.38C37.6025 46.5312 36.3325 47.1625 34.6075 46.9875C33.105 46.8337 31.3975 46.6137 29.8913 46.42C29.4888 46.3675 29.1025 46.3175 28.7437 46.2725C26.9513 46.0075 25.6875 47.2612 25.365 48.64C25.2962 48.9337 25.2687 49.2462 25.2887 49.5612C25.3575 50.7012 26.0387 51.8837 27.5938 52.38C27.6325 52.3925 28.15 52.4887 28.15 52.4887L35.8063 53.8887C35.8138 53.89 35.8225 53.8912 35.8312 53.8925C37.4113 54.1387 38.095 54.1175 39.0638 53.9462C39.3175 53.9012 40.3525 53.6912 40.6188 53.64L42.3063 53.31C42.3063 53.31 50.665 51.6725 50.7 51.6612Z" fill="#F8A51C"/>
</g>
<defs>
<clipPath id="clip0_607_366">
<rect width="64" height="64" fill="white"/>
</clipPath>
</defs>
</svg>
