<svg width="129" height="90" viewBox="0 0 129 90" fill="none" xmlns="http://www.w3.org/2000/svg">
<path d="M35.4066 52.7076C34.9254 52.7076 34.5347 52.3191 34.5347 51.8413V47.7244C34.5347 46.4136 33.4544 45.3477 32.126 45.3477C30.7975 45.3477 29.7172 46.4136 29.7172 47.7244V51.8413C29.7172 52.3191 29.3235 52.7076 28.8408 52.7076C28.3581 52.7076 27.9705 52.3191 27.9705 51.8413V47.7244C27.9705 46.4136 26.8887 45.3477 25.5587 45.3477C24.2287 45.3477 23.1469 46.4136 23.1469 47.7244V51.8413C23.1469 52.3191 22.7546 52.7076 22.272 52.7076C21.7893 52.7076 21.3955 52.3191 21.3955 51.8413V47.7244C21.3955 45.4626 23.2633 43.6227 25.5587 43.6227C26.8504 43.6227 28.0563 44.2123 28.8408 45.2132C29.6268 44.2123 30.8343 43.6227 32.126 43.6227C34.4213 43.6227 36.2876 45.4626 36.2876 47.7244V51.8413C36.2876 52.3191 35.8923 52.7076 35.405 52.7076H35.4066Z" fill="url(#paint0_linear_606_212)"/>
<path d="M48.4384 52.7076C47.9527 52.7076 47.5589 52.3191 47.5589 51.8413V47.7244C47.5589 46.4136 46.4787 45.3477 45.1502 45.3477C43.8217 45.3477 42.7461 46.4136 42.7461 47.7244V51.8413C42.7461 52.3191 42.3523 52.7076 41.8696 52.7076C41.387 52.7076 40.9932 52.3191 40.9932 51.8413V47.7244C40.9932 45.4626 42.8579 43.6227 45.1517 43.6227C47.4455 43.6227 49.3118 45.4626 49.3118 47.7244V51.8413C49.3118 52.3191 48.9211 52.7076 48.44 52.7076H48.4384Z" fill="url(#paint1_linear_606_212)"/>
<path d="M70.2061 52.7076C67.9108 52.7076 66.043 50.8661 66.043 48.6013V44.4859C66.043 44.0097 66.4368 43.6227 66.9194 43.6227C67.4021 43.6227 67.7959 44.0097 67.7959 44.4859V48.6013C67.7959 49.9121 68.8777 50.9795 70.2061 50.9795C71.5346 50.9795 72.6133 49.9121 72.6133 48.6013V44.4859C72.6133 44.0097 73.0056 43.6227 73.4883 43.6227C73.9709 43.6227 74.3647 44.0097 74.3647 44.4859V48.6013C74.3647 50.8661 72.4999 52.7076 70.2061 52.7076Z" fill="url(#paint2_linear_606_212)"/>
<path d="M76.7381 52.7076C76.2569 52.7076 75.8662 52.3191 75.8662 51.8413V41.1794C75.8662 40.7002 76.2569 40.3116 76.7381 40.3116C77.2192 40.3116 77.6176 40.7017 77.6176 41.1794V51.8413C77.6176 52.3191 77.2223 52.7076 76.7381 52.7076Z" fill="url(#paint3_linear_606_212)"/>
<path d="M54.6872 52.7076C52.3964 52.7076 50.5332 50.8661 50.5332 48.6013V47.7244C50.5332 45.4626 52.3964 43.6227 54.6872 43.6227C55.5575 43.6227 56.3987 43.8903 57.099 44.3846V41.2369C57.099 40.7622 57.4928 40.3766 57.977 40.3766C58.4611 40.3766 58.8488 40.7622 58.8488 41.2369V48.6028C58.8488 50.8676 56.981 52.7091 54.6856 52.7091L54.6872 52.7076ZM54.6872 45.3477C53.3618 45.3477 52.2815 46.4136 52.2815 47.7244V48.6013C52.2815 49.9121 53.3602 50.9795 54.6872 50.9795C56.0141 50.9795 57.099 49.9121 57.099 48.6013V47.7244C57.099 46.4136 56.0172 45.3477 54.6872 45.3477Z" fill="url(#paint4_linear_606_212)"/>
<path d="M38.6412 42.3723C38.0575 42.3723 37.584 41.9067 37.584 41.3352C37.584 40.7637 38.059 40.2904 38.6412 40.2904C39.2235 40.2904 39.6985 40.7591 39.6985 41.3352C39.6985 41.9112 39.2235 42.3723 38.6412 42.3723Z" fill="url(#paint5_linear_606_212)"/>
<path d="M38.6411 52.7076C38.1584 52.7076 37.7646 52.319 37.7646 51.8413V44.4814C37.7646 44.0067 38.1584 43.6211 38.6411 43.6211C39.1238 43.6211 39.5176 44.0067 39.5176 44.4814V51.8413C39.5176 52.319 39.1238 52.7076 38.6411 52.7076Z" fill="url(#paint6_linear_606_212)"/>
<path d="M62.0495 52.7076C61.5637 52.7076 61.1684 52.3191 61.1684 51.8413V45.3492H61.0489C60.5647 45.3492 60.1709 44.9622 60.1709 44.4859C60.1709 44.0097 60.5647 43.6227 61.0489 43.6227H61.1684V42.8138C61.1684 41.2263 62.0632 40.3146 63.6246 40.3146C63.7901 40.3146 63.9602 40.3252 64.1333 40.3464C64.6252 40.4053 64.9837 40.7682 64.9837 41.2082C64.9837 41.6481 64.6972 42.0896 64.2176 42.0896C64.1671 42.0896 64.1165 42.0851 64.0644 42.0745C63.9694 42.0533 63.83 42.0291 63.6752 42.0291C63.5005 42.0291 63.2584 42.0624 63.1037 42.2181C62.978 42.3451 62.9167 42.5432 62.9228 42.8108V43.6227H64.1073C64.59 43.6227 64.9837 44.0097 64.9837 44.4859C64.9837 44.9622 64.59 45.3492 64.1073 45.3492H62.9228V51.8413C62.9228 52.3191 62.5321 52.7076 62.051 52.7076H62.0495Z" fill="url(#paint7_linear_606_212)"/>
<path d="M83.3283 52.694C83.1 52.694 82.9008 52.6093 82.7338 52.4445C82.5729 52.2843 82.4901 52.0877 82.4901 51.861V42.1395H79.9634C79.7244 42.1395 79.5206 42.0533 79.3566 41.8825C79.2034 41.7403 79.1191 41.5393 79.1191 41.3095C79.1191 41.0796 79.2004 40.8846 79.3597 40.7243C79.5344 40.558 79.7366 40.4749 79.965 40.4749H86.7039C86.9291 40.4749 87.1344 40.5611 87.3014 40.7228C87.4654 40.8891 87.5466 41.0857 87.5466 41.3095C87.5466 41.5332 87.4608 41.7358 87.2984 41.8885C87.1421 42.0518 86.9398 42.138 86.7039 42.138H84.1695V51.8594C84.1695 52.0908 84.0868 52.2873 83.9213 52.4461C83.7558 52.6093 83.5566 52.6925 83.3283 52.6925V52.694Z" fill="url(#paint8_linear_606_212)"/>
<path d="M97.8651 52.694C97.6399 52.694 97.4407 52.6109 97.2721 52.4461C97.1128 52.2858 97.0377 52.0953 97.0377 51.861V45.3538L94.3057 52.1407C94.154 52.4854 93.8904 52.6562 93.5227 52.6562C93.1549 52.6562 92.8852 52.4808 92.7443 52.1361L90.0138 45.4037V51.8625C90.0138 52.0877 89.9326 52.2843 89.7732 52.4445C89.6062 52.6109 89.4055 52.6955 89.1787 52.6955C88.9519 52.6955 88.7466 52.6124 88.578 52.4476C88.4172 52.2843 88.3359 52.0877 88.3359 51.8625V41.2686C88.3359 41.0675 88.3972 40.8952 88.5229 40.7425L88.5321 40.7334C88.6715 40.5822 88.837 40.49 89.0239 40.4567C89.0745 40.4462 89.1281 40.4386 89.1787 40.4386C89.3151 40.4386 89.4453 40.4734 89.5771 40.5444C89.7517 40.6351 89.8743 40.7712 89.9525 40.9572C91.7299 45.2782 92.9006 48.2143 93.5257 49.9151C94.1677 48.1614 95.369 45.1512 97.099 40.9617C97.1618 40.7833 97.289 40.6382 97.4713 40.5429C97.6016 40.4734 97.7318 40.4386 97.8666 40.4386C97.9249 40.4386 97.9754 40.4477 98.026 40.4567C98.2068 40.4885 98.3677 40.5777 98.5163 40.7319L98.5224 40.738L98.5286 40.7455C98.6466 40.8891 98.7094 41.0706 98.7094 41.2701V51.864C98.7094 52.0953 98.6266 52.2918 98.4612 52.4506C98.3003 52.6139 98.0995 52.697 97.8666 52.697L97.8651 52.694Z" fill="url(#paint9_linear_606_212)"/>
<path d="M103.828 52.694C103.015 52.694 102.242 52.4567 101.533 51.991C100.828 51.5268 100.318 50.916 100.019 50.1737C99.9348 49.9696 99.9332 49.7685 100.018 49.5629C100.105 49.3618 100.253 49.2197 100.462 49.1335C100.574 49.0927 100.672 49.0745 100.761 49.0745C100.862 49.0745 100.966 49.0972 101.076 49.1426C101.28 49.2318 101.426 49.3754 101.515 49.5735C101.695 50.0301 102.002 50.3975 102.428 50.6741C102.861 50.9569 103.332 51.099 103.83 51.099C104.412 51.099 104.918 50.9145 105.331 50.5517C105.739 50.1903 105.946 49.7489 105.946 49.2409C105.946 48.6875 105.774 48.2929 105.423 48.0298C105.134 47.8151 104.541 47.5853 103.611 47.3313C102.549 47.0456 101.777 46.7311 101.317 46.3955C100.5 45.821 100.1 45.0136 100.1 43.9266C100.1 42.9877 100.466 42.1667 101.188 41.4848C101.925 40.8121 102.812 40.4734 103.83 40.4734C104.697 40.4734 105.465 40.7228 106.113 41.2127C106.769 41.695 107.225 42.3542 107.469 43.1676C107.532 43.3838 107.509 43.5879 107.402 43.7754C107.297 43.9704 107.133 44.1004 106.919 44.1548C106.838 44.176 106.766 44.1866 106.691 44.1866C106.554 44.1866 106.427 44.1548 106.301 44.0868C106.114 43.987 105.986 43.8283 105.92 43.6106C105.777 43.1283 105.518 42.7503 105.151 42.4842C104.783 42.2075 104.34 42.0684 103.831 42.0684C103.254 42.0684 102.75 42.2514 102.331 42.6127C101.921 42.9816 101.712 43.4246 101.712 43.925C101.712 44.4587 101.885 44.8443 102.241 45.1058C102.518 45.3099 103.104 45.5352 104.031 45.7937C105.097 46.084 105.875 46.3985 106.346 46.7296C107.164 47.3147 107.562 48.1357 107.562 49.2393C107.562 50.1933 107.195 51.0128 106.468 51.678C105.75 52.3508 104.863 52.6925 103.833 52.6925L103.828 52.694Z" fill="url(#paint10_linear_606_212)"/>
<path d="M42.0312 63.2032C41.6527 63.2032 41.4443 63.0066 41.4443 62.6483C41.4443 62.2522 41.4459 61.3451 41.452 59.9254C41.452 59.6094 41.4505 59.2118 41.4459 58.725C41.4459 58.4619 41.4459 58.223 41.4459 58.0083V57.526V56.4314C41.4459 56.2621 41.5118 56.1185 41.642 56.0081C41.7799 55.9053 41.9377 55.8569 42.1185 55.8569C42.2457 55.8569 42.3545 55.8917 42.4602 55.9642C42.5491 56.0247 42.618 56.0822 42.6671 56.1381L42.6717 56.1442L42.7054 56.1895C42.7437 56.2424 42.8004 56.3195 42.8678 56.4148L45.4129 60.0025L46.2419 61.1636C46.2296 60.639 46.225 59.9889 46.225 59.1936L46.2036 56.6416C46.2036 56.4072 46.2357 56.2334 46.3001 56.1049C46.3614 55.993 46.4932 55.8629 46.7828 55.8629C47.0724 55.8629 47.1811 55.9869 47.2348 56.0912C47.2991 56.2046 47.3298 56.3785 47.3298 56.6174V60.0524C47.3436 60.4485 47.3512 61.2589 47.3512 62.5984C47.3512 62.7784 47.2869 62.925 47.1582 63.0369C47.0448 63.1412 46.8808 63.1971 46.6878 63.1971C46.5284 63.1971 46.392 63.1488 46.294 63.058C46.2189 62.99 46.1162 62.8645 45.9676 62.665L42.543 57.8012C42.543 58.2608 42.5476 58.9971 42.5629 60.0161L42.569 60.7403C42.5767 61.7049 42.5813 62.2961 42.5813 62.5168C42.5813 62.7375 42.5414 62.8948 42.4602 63.0142C42.3989 63.1019 42.2764 63.2062 42.0297 63.2062L42.0312 63.2032Z" fill="#58595B"/>
<path d="M50.647 63.2032C49.9958 63.2032 49.4319 62.9673 48.9692 62.5032C48.508 62.039 48.2659 61.4751 48.249 60.8295C48.249 60.0842 48.4896 59.434 48.9631 58.8928C49.4365 58.3455 50.0295 58.0673 50.7236 58.0673C51.3227 58.0673 51.8437 58.2729 52.2682 58.6796C52.6865 59.0924 52.8979 59.558 52.8979 60.066C52.8979 60.3956 52.8443 60.6133 52.7309 60.7509C52.6007 60.9051 52.3524 60.9807 51.9709 60.9852C51.7441 60.9928 51.4974 60.9973 51.2415 60.9973C50.9887 60.9973 50.6654 60.9973 50.29 61.0019C49.9713 61.0049 49.6832 61.0064 49.4227 61.0064C49.4641 61.2922 49.5898 61.5386 49.8043 61.7563C50.0479 62.0058 50.3651 62.1328 50.7481 62.1328C51.1312 62.1328 51.4729 62.03 51.7993 61.8183L51.8069 61.8138L51.8146 61.8107C52.0751 61.6837 52.167 61.6671 52.2237 61.6671C52.3586 61.6671 52.4888 61.7291 52.593 61.844C52.6987 61.9574 52.7508 62.0783 52.7508 62.2129C52.7508 62.3535 52.6895 62.5591 52.3984 62.736C51.9632 63.0444 51.3718 63.2032 50.6516 63.2032H50.647ZM50.7665 59.0772C50.4034 59.0772 50.1077 59.1952 49.8594 59.4371C49.6556 59.6366 49.5208 59.8664 49.458 60.122C50.906 60.0978 51.6736 60.0811 51.7932 60.0781C51.7932 60.0781 51.7962 60.0781 51.7977 60.0781C51.7901 59.7893 51.689 59.5489 51.4959 59.3675C51.2844 59.1725 51.0469 59.0772 50.7681 59.0772H50.7665Z" fill="#58595B"/>
<path d="M55.7493 63.2032C55.092 63.2032 54.5879 62.984 54.2492 62.5531C53.9213 62.1297 53.7559 61.5613 53.7559 60.8613C53.7559 60.6693 53.7574 60.3185 53.762 59.7939C53.7651 59.2708 53.7651 58.9155 53.7651 58.7386C53.7651 58.3394 53.9934 58.1111 54.3902 58.1111C54.7181 58.1111 54.9066 58.3198 54.9066 58.6826C54.9066 58.8973 54.9066 59.2209 54.8959 59.6593C54.8867 60.1038 54.8867 60.4591 54.8867 60.7449C54.8867 61.1652 54.9694 61.5159 55.1318 61.785C55.2835 62.039 55.5134 62.1585 55.8581 62.1585C56.3454 62.1585 56.681 61.9997 56.8848 61.6747C57.0962 61.3254 57.2035 60.825 57.2035 60.1885L57.2096 58.7068C57.2096 58.5239 57.2694 58.3651 57.3751 58.2608C57.4885 58.1535 57.6294 58.1006 57.7965 58.1006C58.1596 58.1006 58.368 58.3168 58.368 58.6932V58.7371C58.3649 58.8006 58.3619 58.9397 58.3588 59.1543L58.3542 59.3811C58.3496 59.6019 58.345 59.8241 58.3419 60.0494C58.3389 60.4001 58.3404 60.7449 58.3465 61.1032C58.3465 61.6233 58.368 62.1313 58.4109 62.6181C58.4109 62.9568 58.2086 63.1442 57.8562 63.1442C57.5605 63.1442 57.3659 62.9825 57.3077 62.6876V62.6801L57.3061 62.6725C57.3015 62.6166 57.2985 62.541 57.2939 62.4518C57.2939 62.4518 57.2939 62.4518 57.2939 62.4488C56.9292 62.9507 56.4113 63.2032 55.7524 63.2032H55.7493Z" fill="#58595B"/>
<path d="M60.1122 63.2032C59.9084 63.2032 59.7582 63.1427 59.6663 63.0218C59.5851 62.9144 59.5483 62.7496 59.5499 62.5032C59.5499 62.3822 59.556 62.0995 59.5636 61.6308L59.5698 61.3012C59.5851 60.6768 59.5928 60.1839 59.5928 59.8755C59.5928 59.7591 59.5882 59.5761 59.5805 59.3161C59.5805 59.3161 59.5759 59.0908 59.5744 59.0016C59.5713 58.8792 59.5698 58.7809 59.5698 58.7053C59.5652 58.5314 59.6127 58.3908 59.7107 58.291C59.8103 58.1897 59.9559 58.1398 60.1428 58.1398C60.4294 58.1398 60.6086 58.3122 60.6347 58.6131V58.6766C61.0637 58.2291 61.7119 58.099 62.052 58.099C62.596 58.099 62.6757 58.4407 62.6757 58.6448C62.6757 58.7809 62.6328 58.9064 62.5485 59.0198C62.4428 59.1422 62.3095 59.2012 62.1424 59.2012H61.9478C61.5678 59.2012 60.6853 59.3902 60.6853 61.1379V62.668C60.6853 63.0081 60.4753 63.2032 60.1091 63.2032H60.1122Z" fill="#58595B"/>
<path d="M79.9882 63.2032C79.7829 63.2032 79.6327 63.1412 79.5423 63.0202C79.4581 62.9129 79.4197 62.736 79.4305 62.4986C79.4305 62.3641 79.432 61.9634 79.4519 61.3012C79.4657 60.6148 79.4734 60.1613 79.4734 59.877C79.4734 59.7636 79.4688 59.5882 79.4611 59.3418V59.3055C79.4535 59.0379 79.4519 58.8383 79.4519 58.7083C79.4458 58.5345 79.4918 58.3938 79.5898 58.2941C79.6879 58.1928 79.8335 58.1429 80.0189 58.1429C80.31 58.1429 80.4847 58.3107 80.5123 58.6161V58.6826C80.9428 58.2321 81.591 58.1021 81.9296 58.1021C82.472 58.1021 82.5532 58.4437 82.5532 58.6478C82.5532 58.79 82.5088 58.917 82.423 59.0258C82.3617 59.106 82.2422 59.2027 82.0215 59.2027H81.8285C81.6185 59.2027 80.5689 59.2965 80.5689 61.1394V62.6695C80.5689 63.0097 80.3575 63.2047 79.9897 63.2047L79.9882 63.2032Z" fill="#58595B"/>
<path d="M65.1499 63.2032C64.4925 63.2032 63.9149 62.9749 63.4337 62.5228C62.9526 62.0738 62.709 61.4857 62.709 60.7736C62.709 60.001 62.9511 59.3539 63.4491 58.796C64.0237 58.1822 64.7607 58.0537 65.2786 58.0537C65.4349 58.0537 65.5942 58.0658 65.7398 58.0885C66.4017 58.1988 66.9105 58.4997 67.2522 58.9805C67.5923 59.4749 67.7639 60.0282 67.7639 60.6284C67.7639 61.3587 67.5126 61.9755 67.0147 62.4624C66.5121 62.9522 65.8854 63.2017 65.1499 63.2017V63.2032ZM65.2234 59.0787C64.8159 59.1029 64.4803 59.2632 64.2259 59.558C63.9746 59.8589 63.8475 60.2746 63.8475 60.7917C63.8475 61.1878 63.9762 61.5068 64.2413 61.7639C64.5048 62.0209 64.7944 62.1449 65.1284 62.1449C65.5406 62.1449 65.8838 62.0058 66.178 61.7185C66.4738 61.4358 66.6178 61.0714 66.6178 60.5997C66.6178 60.1688 66.4937 59.809 66.2501 59.5263C66.011 59.2526 65.6663 59.1029 65.225 59.0787H65.2234Z" fill="#58595B"/>
<path d="M70.8136 63.2032C70.0521 63.2032 69.4407 62.9462 68.9964 62.4397C68.5612 61.9377 68.3436 61.3738 68.3497 60.763C68.3574 60.066 68.5949 59.434 69.0576 58.8852C69.5311 58.3303 70.1486 58.0491 70.8933 58.0491C71.3836 58.0491 71.8249 58.164 72.2064 58.3893C72.3811 58.5103 72.4654 58.663 72.4654 58.8504C72.4654 58.9805 72.4194 59.1059 72.3336 59.2133C72.2356 59.3327 72.113 59.3932 71.9659 59.3932C71.9199 59.3932 71.8448 59.3811 71.497 59.239C71.2886 59.1498 71.0756 59.1059 70.8412 59.1059C70.4535 59.1059 70.141 59.2662 69.8851 59.5943C69.6215 59.9299 69.4882 60.2913 69.4882 60.6692C69.4882 61.0805 69.6108 61.4297 69.8498 61.7064C70.0873 61.9831 70.3892 62.1176 70.7707 62.1176C71.1032 62.1176 71.3775 62.0511 71.5874 61.9181C71.8969 61.7533 72.0042 61.7306 72.0701 61.7306C72.2156 61.7306 72.3474 61.8032 72.4394 61.9332C72.5298 62.0451 72.5773 62.1706 72.5773 62.2991C72.5773 62.4518 72.5037 62.5893 72.3643 62.6967C71.9613 63.0323 71.4388 63.2032 70.8152 63.2032H70.8136Z" fill="#58595B"/>
<path d="M75.5353 63.2032C74.8474 63.2032 74.2743 62.9658 73.8345 62.4971C73.3994 62.0284 73.1787 61.4554 73.1787 60.7902C73.1787 60.0237 73.4208 59.3811 73.8989 58.8777C74.3785 58.3621 74.9822 58.099 75.6932 58.099C76.2724 58.099 76.7458 58.2895 77.1059 58.6645C77.109 58.6403 77.1136 58.6176 77.1182 58.5964C77.1825 58.1928 77.4691 58.1323 77.633 58.1323C77.8506 58.1323 78.0008 58.2033 78.0804 58.344C78.1479 58.4528 78.1816 58.6161 78.1816 58.8383L78.1739 59.6487L78.1494 61.2135C78.1494 61.6338 78.1662 62.1101 78.2015 62.6695C78.2015 62.8267 78.1448 63.1745 77.6116 63.1745C77.3434 63.1745 77.23 63.0218 77.1825 62.8932C77.1534 62.8116 77.1289 62.6997 77.109 62.5546C76.7351 62.9855 76.208 63.2032 75.5353 63.2032ZM75.7008 59.1271C75.3101 59.1271 74.9944 59.2768 74.734 59.5837C74.4704 59.8921 74.3356 60.2898 74.3356 60.763C74.3356 61.1803 74.4612 61.5129 74.7217 61.779C74.9745 62.0466 75.2749 62.1751 75.6395 62.1751C76.0594 62.1751 76.3965 62.039 76.6707 61.7578C76.942 61.4796 77.0737 61.1213 77.0737 60.6632C77.0737 60.1809 76.9358 59.8029 76.6662 59.5368C76.3965 59.2632 76.0716 59.1256 75.7024 59.1256L75.7008 59.1271Z" fill="#58595B"/>
<path d="M85.2593 63.2032C84.6096 63.2032 84.0442 62.9673 83.5784 62.5047C83.1172 62.039 82.8767 61.4751 82.8613 60.831C82.8613 60.0826 83.1004 59.4325 83.5723 58.8943C84.0473 58.347 84.6403 58.0688 85.3329 58.0688C85.935 58.0688 86.4545 58.2744 86.8774 58.6826C87.2972 59.0969 87.5102 59.5625 87.5102 60.069C87.5102 60.3956 87.4566 60.6133 87.3432 60.7524C87.213 60.9051 86.9586 60.9837 86.5847 60.9883C86.358 60.9958 86.1113 61.0004 85.8538 61.0004C85.598 61.0004 85.2792 61.0003 84.9023 61.0049C84.5867 61.0079 84.2955 61.0094 84.0335 61.0094C84.0718 61.2876 84.1975 61.534 84.4166 61.7608C84.6648 62.0133 84.9728 62.1358 85.3574 62.1358C85.742 62.1358 86.0929 62.0299 86.4085 61.8228L86.4162 61.8183L86.4238 61.8137C86.6705 61.6943 86.764 61.6701 86.8299 61.6701C86.9693 61.6701 87.0965 61.7291 87.2038 61.8455C87.308 61.9695 87.357 62.0889 87.357 62.2159C87.357 62.358 87.2972 62.5652 87.0092 62.739C86.5709 63.0475 85.981 63.2062 85.2624 63.2062L85.2593 63.2032ZM85.3742 59.0772C85.0142 59.0772 84.7184 59.1952 84.4717 59.4371C84.2679 59.6351 84.1331 59.8664 84.0703 60.1235C85.4907 60.0993 86.2752 60.0826 86.4039 60.0796H86.407C86.3993 59.7848 86.2982 59.5474 86.1036 59.3705C85.8937 59.174 85.6562 59.0787 85.3742 59.0787V59.0772Z" fill="#58595B"/>
<path d="M89.5959 58.7442C89.5408 58.7442 89.5024 58.7231 89.4611 58.6868C89.4289 58.6505 89.409 58.6067 89.409 58.5568V56.3827H88.7409C88.6873 56.3827 88.6398 56.3675 88.603 56.3267C88.5693 56.2935 88.5479 56.2466 88.5479 56.1952C88.5479 56.1438 88.5693 56.0984 88.603 56.0591C88.6398 56.0228 88.6873 56.0002 88.7409 56.0002H90.4525C90.5076 56.0002 90.5505 56.0228 90.5904 56.0591C90.6271 56.0984 90.6455 56.1438 90.6455 56.1952C90.6455 56.2466 90.6271 56.2935 90.5904 56.3267C90.5505 56.3675 90.5076 56.3827 90.4525 56.3827H89.789V58.5568C89.789 58.6067 89.7706 58.649 89.7323 58.6868C89.6955 58.7231 89.648 58.7442 89.5975 58.7442H89.5959Z" fill="#58595B"/>
<path d="M93.2903 58.7446C93.2397 58.7446 93.1907 58.7235 93.1555 58.6872C93.1217 58.6509 93.1003 58.607 93.1003 58.5571V57.0861L92.3617 58.6191C92.3326 58.6932 92.2729 58.7325 92.1886 58.7325C92.1043 58.7325 92.0415 58.6932 92.0093 58.6191L91.2723 57.0967V58.5571C91.2723 58.607 91.2539 58.6494 91.2156 58.6872C91.1819 58.7235 91.1329 58.7446 91.0854 58.7446C91.0287 58.7446 90.9842 58.7235 90.9475 58.6872C90.9091 58.6509 90.8877 58.607 90.8877 58.5571V56.1865C90.8877 56.1366 90.9061 56.1018 90.9321 56.0655C90.9658 56.0247 91.0026 56.0081 91.0471 56.0005C91.0593 55.999 91.07 55.999 91.0869 55.999C91.1191 55.999 91.1436 56.0051 91.1727 56.0202C91.2325 56.0489 91.2616 56.117 91.2616 56.117L92.1886 58.1474C92.3526 57.7967 93.1018 56.1457 93.1156 56.117C93.1309 56.0761 93.1555 56.0429 93.1984 56.0202C93.2305 56.0036 93.2596 55.999 93.2918 55.999C93.3025 55.999 93.3179 55.999 93.3286 56.0005C93.3761 56.0081 93.4098 56.0247 93.4405 56.0655C93.4665 56.1003 93.488 56.1442 93.488 56.1865V58.5571C93.488 58.607 93.465 58.6494 93.4282 58.6872C93.3899 58.7235 93.3485 58.7446 93.2934 58.7446H93.2903Z" fill="#58595B"/>
<path d="M90.2468 28.6428C90.0951 29.4396 89.9465 30.2061 89.8086 30.9167C89.8913 30.9681 90.4476 31.2962 91.7576 32.0748L92.2188 29.8145L90.2468 28.6413V28.6428Z" fill="#3878BC"/>
<path d="M90.2468 28.6428C90.0951 29.4396 89.9465 30.2061 89.8086 30.9167C89.8913 30.9681 90.4476 31.2962 91.7576 32.0748L92.2188 29.8145L90.2468 28.6413V28.6428Z" fill="#3777BB"/>
<path d="M95.7849 31.9191C95.7849 31.9191 94.4717 31.145 92.6361 30.058L86.628 26.4959C85.557 25.8473 84.6407 25.2819 83.9895 24.8797C83.4517 24.5486 83.0747 24.3143 82.8908 24.2085C82.6411 24.0648 82.258 23.8698 81.734 23.8577C81.3647 23.8622 81.0383 23.9318 80.738 24.0648C80.4239 24.2085 80.1389 24.4307 79.8769 24.7467C79.2364 25.5979 79.2226 26.6139 79.4953 27.4243C79.6348 27.1083 80.427 25.5178 82.3408 26.499V26.505C82.3408 26.505 82.3484 26.505 82.3561 26.5065C82.3898 26.5247 82.4174 26.5368 82.445 26.5579C82.4511 26.5579 82.4526 26.564 82.4603 26.5655C82.5062 26.5927 82.5614 26.6184 82.612 26.6532C83.2172 27.0039 85.0238 28.0774 87.077 29.296L87.1 29.3035C87.981 29.8342 88.9111 30.38 89.8106 30.9167V30.8986H89.8152C89.8152 30.8986 89.8106 30.9061 89.8106 30.9107C90.5062 31.328 91.1743 31.6938 91.7887 32.0627L94.8073 33.815L94.8287 33.8256C94.8563 33.8468 95.4891 34.2323 96.4054 33.9874C97.2022 33.7757 97.7324 32.6478 97.7416 32.6085C97.7416 32.604 97.9346 32.2699 98.0005 31.9433C97.5148 32.6282 95.9289 31.9887 95.7879 31.9191H95.7849Z" fill="url(#paint11_linear_606_212)"/>
<path d="M95.949 26.2102C95.8785 24.9568 95.3544 23.0806 94.9315 21.738C94.9162 21.679 94.8932 21.6125 94.8764 21.5611C94.7783 21.2572 94.6435 20.7674 94.4152 20.2518C94.4152 20.2518 94.4106 20.2397 94.4014 20.2186C95.1215 19.322 96.2324 19.6214 96.4898 19.7075C96.7335 20.1263 97.8765 21.9497 98.3607 26.375C98.7714 30.0882 98.0175 31.8873 97.9976 31.9448C97.6222 32.4498 96.5496 32.3016 95.785 31.9206C95.785 31.9206 95.7666 31.9161 95.7436 31.8994C95.7988 31.6092 95.854 31.2539 95.8953 30.8366C96.0271 29.6936 96.1114 28.1167 95.949 26.2102Z" fill="url(#paint12_linear_606_212)"/>
<path d="M84.67 31.3385C83.7813 30.4495 82.7455 28.8076 82.033 27.5966C81.9993 27.5392 81.9686 27.4877 81.9364 27.4318C81.7801 27.1612 81.5028 26.7288 81.273 26.2178C81.273 26.2178 81.2714 26.2057 81.2622 26.1845C80.1176 26.1376 79.6105 27.1733 79.4971 27.4212C79.6488 27.8854 80.2356 29.9582 83.1852 33.2662C85.6614 36.0405 87.4955 36.6619 87.5461 36.6876C88.1789 36.7405 88.7734 35.8304 89.0063 34.9988C89.0063 34.9988 89.0063 34.9882 89.0124 34.958C88.7612 34.8023 88.4639 34.6088 88.1268 34.3669C87.1952 33.7077 85.9648 32.7189 84.6715 31.3385H84.67Z" fill="url(#paint13_linear_606_212)"/>
<path d="M90.5062 27.4076C90.9949 24.9251 91.3887 22.7268 91.617 21.4099C91.7289 20.79 91.8132 20.344 91.8561 20.1354C91.9082 19.8542 92.0231 19.4324 92.3602 19.0257C92.6115 18.749 92.8766 18.5464 93.1708 18.4149C93.4895 18.2682 93.8419 18.2047 94.2556 18.2123C95.3022 18.3 96.0668 18.9607 96.4881 19.706C96.1556 19.5926 94.4548 19.1436 93.9154 21.2451C93.9154 21.2451 93.9109 21.2557 93.9078 21.2587C93.9001 21.298 93.8894 21.3268 93.8848 21.3555C93.8848 21.36 93.8802 21.3661 93.8802 21.3736C93.8695 21.4296 93.8557 21.4901 93.8434 21.552C93.6458 22.5408 92.8904 26.3841 92.2223 29.813C91.3826 29.3141 90.7145 28.9165 90.2441 28.6398L90.5031 27.4046L90.5062 27.4076Z" fill="url(#paint14_linear_606_212)"/>
<path d="M89.0042 34.9988C88.9536 35.1515 88.376 36.7738 87.5439 36.6876C87.832 36.8584 88.2074 36.928 88.2135 36.934C88.2473 36.9567 89.4302 37.3014 90.1182 36.8403C90.9057 36.3096 91.0421 35.5764 91.0452 35.5446L91.0482 35.5234L91.7577 32.0763C91.1448 31.7165 90.4905 31.3219 89.8086 30.9182C89.3382 33.2707 89.0042 35.0003 89.0042 35.0003V34.9988Z" fill="url(#paint15_linear_606_212)"/>
<defs>
<linearGradient id="paint0_linear_606_212" x1="21.705" y1="48.1644" x2="78.6272" y2="48.1644" gradientUnits="userSpaceOnUse">
<stop stop-color="#3677BB"/>
<stop offset="0.52" stop-color="#309696"/>
<stop offset="1" stop-color="#00B161"/>
</linearGradient>
<linearGradient id="paint1_linear_606_212" x1="20.6584" y1="4.77908" x2="78.9152" y2="4.77908" gradientUnits="userSpaceOnUse">
<stop stop-color="#3677BB"/>
<stop offset="0.52" stop-color="#309696"/>
<stop offset="1" stop-color="#00B161"/>
</linearGradient>
<linearGradient id="paint2_linear_606_212" x1="19.2904" y1="4.77908" x2="77.5671" y2="4.77908" gradientUnits="userSpaceOnUse">
<stop stop-color="#3677BB"/>
<stop offset="0.52" stop-color="#309696"/>
<stop offset="1" stop-color="#00B161"/>
</linearGradient>
<linearGradient id="paint3_linear_606_212" x1="4.26803" y1="46.5104" x2="77.3372" y2="46.5104" gradientUnits="userSpaceOnUse">
<stop stop-color="#3677BB"/>
<stop offset="0.52" stop-color="#309696"/>
<stop offset="1" stop-color="#00B161"/>
</linearGradient>
<linearGradient id="paint4_linear_606_212" x1="20.153" y1="46.5421" x2="78.399" y2="46.5421" gradientUnits="userSpaceOnUse">
<stop stop-color="#3677BB"/>
<stop offset="0.52" stop-color="#309696"/>
<stop offset="1" stop-color="#00B161"/>
</linearGradient>
<linearGradient id="paint5_linear_606_212" x1="17.6339" y1="41.3321" x2="87.0532" y2="41.3321" gradientUnits="userSpaceOnUse">
<stop stop-color="#3677BB"/>
<stop offset="0.52" stop-color="#309696"/>
<stop offset="1" stop-color="#00B161"/>
</linearGradient>
<linearGradient id="paint6_linear_606_212" x1="16.4953" y1="4.77907" x2="89.6747" y2="4.77907" gradientUnits="userSpaceOnUse">
<stop stop-color="#3677BB"/>
<stop offset="0.52" stop-color="#309696"/>
<stop offset="1" stop-color="#00B161"/>
</linearGradient>
<linearGradient id="paint7_linear_606_212" x1="17.9324" y1="46.5104" x2="78.6194" y2="46.5104" gradientUnits="userSpaceOnUse">
<stop stop-color="#3677BB"/>
<stop offset="0.52" stop-color="#309696"/>
<stop offset="1" stop-color="#00B161"/>
</linearGradient>
<linearGradient id="paint8_linear_606_212" x1="78.9215" y1="43.8872" x2="104.501" y2="55.52" gradientUnits="userSpaceOnUse">
<stop stop-color="#F9A51C"/>
<stop offset="1" stop-color="#F26F21"/>
</linearGradient>
<linearGradient id="paint9_linear_606_212" x1="80.1751" y1="40.6578" x2="105.592" y2="52.2164" gradientUnits="userSpaceOnUse">
<stop stop-color="#F9A51C"/>
<stop offset="1" stop-color="#F26F21"/>
</linearGradient>
<linearGradient id="paint10_linear_606_212" x1="81.6395" y1="36.7647" x2="107.187" y2="48.382" gradientUnits="userSpaceOnUse">
<stop stop-color="#F9A51C"/>
<stop offset="1" stop-color="#F26F21"/>
</linearGradient>
<linearGradient id="paint11_linear_606_212" x1="77.0105" y1="24.0846" x2="101.715" y2="34.6267" gradientUnits="userSpaceOnUse">
<stop stop-color="#FFCE01"/>
<stop offset="0.24" stop-color="#F9A51D"/>
<stop offset="0.61" stop-color="#F26F21"/>
<stop offset="1" stop-color="#ED2526"/>
</linearGradient>
<linearGradient id="paint12_linear_606_212" x1="95.7344" y1="19.706" x2="97.4419" y2="32.1793" gradientUnits="userSpaceOnUse">
<stop stop-color="#3677BB"/>
<stop offset="0.72" stop-color="#309696"/>
<stop offset="1" stop-color="#00B161"/>
</linearGradient>
<linearGradient id="paint13_linear_606_212" x1="79.7882" y1="26.0469" x2="87.47" y2="36.2018" gradientUnits="userSpaceOnUse">
<stop stop-color="#FFD900"/>
<stop offset="0.08" stop-color="#E7D508"/>
<stop offset="0.25" stop-color="#ABCB1F"/>
<stop offset="0.49" stop-color="#4BBC44"/>
<stop offset="0.67" stop-color="#00B161"/>
<stop offset="0.83" stop-color="#1AA35D"/>
<stop offset="1" stop-color="#3C925A"/>
</linearGradient>
<linearGradient id="paint14_linear_606_212" x1="92.1886" y1="29.3988" x2="94.8961" y2="16.116" gradientUnits="userSpaceOnUse">
<stop stop-color="#3677BB"/>
<stop offset="0.52" stop-color="#309696"/>
<stop offset="1" stop-color="#00B161"/>
</linearGradient>
<linearGradient id="paint15_linear_606_212" x1="90.276" y1="31.1132" x2="89.1054" y2="37.4039" gradientUnits="userSpaceOnUse">
<stop stop-color="#3677BB"/>
<stop offset="0.38" stop-color="#309696"/>
<stop offset="0.55" stop-color="#1AA27E"/>
<stop offset="0.74" stop-color="#07AC68"/>
<stop offset="0.87" stop-color="#00B161"/>
</linearGradient>
</defs>
</svg>
