<svg width="64" height="64" viewBox="0 0 64 64" fill="none" xmlns="http://www.w3.org/2000/svg">
<path d="M53.3104 17.97C53.2004 17.94 50.9004 17.19 47.8504 17.03C48.6004 11.61 47.0204 6.66 46.9404 6.44C46.7804 5.96 46.2904 5.67001 45.7804 5.77C45.6804 5.79 43.3404 6.29 40.4904 7.64C39.5404 8.09 38.6704 8.58 37.8604 9.09C35.7604 5.09 32.8404 2.43 32.6504 2.26C32.2704 1.92 31.7004 1.92 31.3204 2.26C31.1304 2.43 28.2104 5.09 26.1104 9.09C25.3004 8.58 24.4204 8.09 23.4704 7.64C20.6304 6.3 18.2904 5.80001 18.1904 5.78001C17.6904 5.67001 17.1904 5.96 17.0304 6.45C16.9604 6.67 15.3704 11.63 16.1204 17.04C13.0704 17.2 10.7704 17.94 10.6604 17.98C10.1804 18.14 9.89038 18.64 9.99038 19.13C10.0604 19.47 11.8204 27.6 17.9404 31.13C20.0704 32.36 22.7204 33 25.6904 33C26.2504 33 26.8304 32.98 27.4204 32.93C27.9704 32.89 28.3804 32.4 28.3404 31.85C28.3004 31.3 27.8204 30.89 27.2604 30.93C24.9904 31.11 21.7004 30.99 18.9504 29.39C14.7304 26.95 12.8204 21.72 12.2004 19.62C13.1304 19.39 14.7004 19.08 16.5204 19.01C16.8704 20.41 17.3804 21.71 18.0604 22.87C19.3304 25.06 21.2404 26.99 23.7504 28.59C23.9204 28.7 24.1004 28.75 24.2904 28.75C24.6204 28.75 24.9404 28.59 25.1304 28.29C25.4304 27.83 25.2904 27.21 24.8304 26.91C22.5904 25.48 20.9004 23.78 19.8004 21.87C19.1004 20.67 18.6004 19.3 18.2904 17.79C17.4704 13.76 18.2604 9.71 18.6904 7.95C19.5804 8.2 21.0204 8.67 22.6204 9.43001C23.5804 9.89001 24.4704 10.38 25.2704 10.9C24.5204 12.75 23.9904 14.8 23.9904 16.98C23.9904 25.07 31.0204 31.46 31.3204 31.73C31.5104 31.9 31.7504 31.98 31.9904 31.98C32.2304 31.98 32.4704 31.9 32.6604 31.73C32.9604 31.46 39.9904 25.07 39.9904 16.98C39.9904 14.8 39.4704 12.74 38.7104 10.9C39.5104 10.38 40.3904 9.89001 41.3504 9.43001C42.9504 8.67 44.4004 8.2 45.2804 7.95C45.7204 9.71 46.5004 13.76 45.6804 17.79C45.3804 19.29 44.8704 20.66 44.1704 21.87C43.0704 23.78 41.3704 25.48 39.1404 26.91C38.6704 27.21 38.5404 27.83 38.8404 28.29C39.0304 28.59 39.3504 28.75 39.6804 28.75C39.8604 28.75 40.0504 28.7 40.2204 28.59C42.7304 26.98 44.6404 25.06 45.9104 22.87C46.5804 21.71 47.0904 20.41 47.4504 19.01C49.2404 19.1 50.8404 19.38 51.7704 19.61C51.1504 21.72 49.2404 26.94 45.0204 29.38C42.2704 30.98 38.9804 31.1 36.7104 30.92C36.1604 30.88 35.6804 31.29 35.6304 31.84C35.5804 32.39 36.0004 32.87 36.5504 32.92C37.1404 32.97 37.7104 32.99 38.2804 32.99C41.2504 32.99 43.9004 32.35 46.0204 31.12C52.1404 27.59 53.9004 19.46 53.9704 19.12C54.0704 18.62 53.7904 18.13 53.3004 17.97H53.3104ZM32.0004 29.6C30.3104 27.85 26.0004 22.81 26.0004 17C26.0004 11.19 30.3104 6.16001 32.0004 4.40001C33.6904 6.15001 38.0004 11.19 38.0004 17C38.0004 22.81 33.6904 27.84 32.0004 29.6Z" fill="#EF6623"/>
<path d="M48.3098 47.23C48.0498 47.23 47.7998 47.13 47.5998 46.94C47.2098 46.55 47.2098 45.92 47.5998 45.53L52.5598 40.57C53.1398 39.99 53.1398 39.03 52.5598 38.45C51.9898 37.88 50.9998 37.88 50.4398 38.45L45.4798 43.41C45.0898 43.8 44.4598 43.8 44.0698 43.41C43.6798 43.02 43.6798 42.39 44.0698 42L49.0298 37.04C50.3498 35.72 52.6598 35.72 53.9798 37.04C55.2998 38.36 55.3398 40.62 53.9798 41.99L49.0198 46.95C48.8198 47.15 48.5698 47.24 48.3098 47.24V47.23Z" fill="#F8A51C"/>
<path d="M50 62.0001C49.45 62.0001 49 61.5501 49 61.0001V54.5301C49 53.7801 49.28 53.0601 49.79 52.5001L51.86 50.2501C52.23 49.8401 52.87 49.82 53.27 50.1901C53.68 50.5601 53.7 51.2001 53.33 51.6L51.26 53.85C51.09 54.0401 50.99 54.2801 50.99 54.5201V60.9901C50.99 61.5401 50.54 61.9901 49.99 61.9901L50 62.0001ZM39 62.0001C38.45 62.0001 38 61.5501 38 61.0001V51.7701C38 49.3701 38.94 47.1101 40.63 45.4101L49.02 37.0201C50.09 35.9501 51.7 35.7301 53 36.3401V27.6401C53 25.7801 54.38 24.1901 56.14 24.0201C57.14 23.9201 58.12 24.2401 58.85 24.9101C59.58 25.5701 60 26.5201 60 27.5101V41.2701C60 43.3001 59.24 45.2301 57.87 46.7001L56.05 48.6801C55.68 49.0901 55.04 49.1101 54.64 48.7401C54.23 48.3701 54.21 47.7301 54.58 47.3301L56.4 45.35C57.43 44.24 58 42.8001 58 41.2801V27.5201C58 27.0901 57.82 26.6901 57.51 26.4001C57.19 26.1101 56.78 25.9801 56.34 26.0201C55.59 26.1001 55 26.8101 55 27.6501V39.01C55 39.14 54.98 39.2601 54.93 39.3801L54.89 39.4801C54.72 39.9001 54.3 40.15 53.85 40.1C53.4 40.0501 53.04 39.71 52.97 39.26C52.92 38.93 52.78 38.6601 52.56 38.4401C51.98 37.8601 51.02 37.8601 50.43 38.4401L42.04 46.8301C40.72 48.1501 39.99 49.9101 39.99 51.7701V61.0001C39.99 61.5501 39.54 62.0001 38.99 62.0001H39Z" fill="#F8A51C"/>
<path d="M15.69 47.23C15.43 47.23 15.18 47.13 14.98 46.94L10.02 41.98C8.66 40.62 8.66 38.4 10.02 37.03C11.34 35.71 13.65 35.71 14.97 37.03L19.93 41.99C20.32 42.38 20.32 43.01 19.93 43.4C19.54 43.79 18.91 43.79 18.52 43.4L13.56 38.44C12.99 37.87 12 37.87 11.44 38.44C10.86 39.02 10.86 39.98 11.44 40.56L16.4 45.52C16.79 45.91 16.79 46.54 16.4 46.93C16.2 47.13 15.95 47.22 15.69 47.22V47.23Z" fill="#F8A51C"/>
<path d="M25.0002 62C24.4502 62 24.0002 61.55 24.0002 61V51.77C24.0002 49.9 23.2702 48.15 21.9502 46.83L13.5602 38.44C12.9702 37.86 12.0202 37.86 11.4302 38.44C11.2102 38.66 11.0802 38.93 11.0202 39.26C10.9502 39.7 10.5902 40.05 10.1402 40.1C9.70023 40.15 9.27024 39.9 9.10023 39.48L9.06024 39.38C9.01023 39.26 8.99023 39.13 8.99023 39.01V27.65C8.99023 26.81 8.40023 26.09 7.65023 26.02C7.22023 25.98 6.80023 26.11 6.48023 26.4C6.16023 26.69 5.99023 27.08 5.99023 27.52V33.02C5.99023 33.57 5.54023 34.02 4.99023 34.02C4.44023 34.02 3.99023 33.57 3.99023 33.02V27.52C3.99023 26.53 4.41023 25.58 5.14023 24.92C5.87023 24.26 6.86023 23.94 7.85023 24.03C9.61023 24.21 10.9902 25.8 10.9902 27.65V36.35C12.2902 35.74 13.8902 35.97 14.9602 37.03L23.3502 45.42C25.0502 47.12 25.9802 49.38 25.9802 51.78V61.01C25.9802 61.56 25.5302 62.01 24.9802 62.01L25.0002 62ZM14.0002 62C13.4502 62 13.0002 61.55 13.0002 61V54.53C13.0002 54.28 12.9102 54.04 12.7302 53.86L6.12023 46.69C4.75023 45.22 4.00023 43.29 4.00023 41.26V37C4.00023 36.45 4.45023 36 5.00023 36C5.55023 36 6.00023 36.45 6.00023 37V41.26C6.00023 42.78 6.57023 44.22 7.59023 45.33L14.2002 52.5C14.7102 53.06 14.9902 53.78 14.9902 54.53V61C14.9902 61.55 14.5402 62 13.9902 62H14.0002Z" fill="#F8A51C"/>
</svg>
