<?xml version="1.0" encoding="utf-8"?>
<!-- Generator: Adobe Illustrator 27.5.0, SVG Export Plug-In . SVG Version: 6.00 Build 0)  -->
<svg version="1.1" xmlns="http://www.w3.org/2000/svg" xmlns:xlink="http://www.w3.org/1999/xlink" x="0px" y="0px"
	 viewBox="0 0 500 500" style="enable-background:new 0 0 500 500;" xml:space="preserve">
<g id="BACKGROUND">
	<rect style="fill:#F7EBE9;" width="500" height="500"/>
</g>
<g id="OBJECTS">
	<path style="fill:#F6E047;" d="M194.735,57.42c-10.262,0.708-10.837,1.283-11.545,11.545c-0.708-10.262-1.283-10.837-11.545-11.545
		c10.262-0.708,10.837-1.283,11.545-11.545C183.898,56.137,184.473,56.711,194.735,57.42z"/>
	<path style="fill:#F6E047;" d="M183.336,91.054c-12.3,0.849-12.989,1.537-13.838,13.838c-0.849-12.3-1.538-12.989-13.838-13.838
		c12.3-0.849,12.989-1.538,13.838-13.838C170.347,89.516,171.036,90.205,183.336,91.054z"/>
	<path style="fill:#F6E047;" d="M336.312,77.216c-13.157,0.908-13.893,1.645-14.802,14.801
		c-0.908-13.157-1.645-13.893-14.801-14.801c13.157-0.908,13.893-1.645,14.801-14.802C322.419,75.572,323.155,76.308,336.312,77.216
		z"/>
	<path style="fill:#F6E047;" d="M342.883,105.98c-10.262,0.708-10.837,1.283-11.545,11.545
		c-0.708-10.262-1.283-10.837-11.545-11.545c10.262-0.708,10.837-1.283,11.545-11.545
		C332.046,104.698,332.62,105.272,342.883,105.98z"/>
	<path style="fill:#F6E047;" d="M161.24,47.907c-7.531,0.52-7.952,0.941-8.472,8.472c-0.52-7.531-0.941-7.953-8.472-8.472
		c7.531-0.52,7.952-0.941,8.472-8.472C153.288,46.965,153.709,47.387,161.24,47.907z"/>
	<path style="fill:#F6E047;" d="M184.787,137.869c-7.531,0.52-7.952,0.941-8.472,8.473c-0.52-7.531-0.941-7.952-8.473-8.473
		c7.531-0.52,7.953-0.941,8.473-8.472C176.834,136.928,177.256,137.349,184.787,137.869z"/>
	<path style="fill:#F6E047;" d="M328.265,132.729c-7.531,0.52-7.953,0.941-8.472,8.473c-0.52-7.531-0.941-7.953-8.472-8.473
		c7.531-0.52,7.953-0.941,8.472-8.472C320.312,131.788,320.734,132.209,328.265,132.729z"/>
	<path style="fill:#F6E047;" d="M351.355,51.524c-7.531,0.52-7.953,0.941-8.473,8.472c-0.52-7.531-0.941-7.952-8.472-8.472
		c7.531-0.52,7.953-0.941,8.472-8.472C343.403,50.583,343.824,51.005,351.355,51.524z"/>
	<g>
		<defs>
			<rect id="SVGID_1_" y="-1.116" width="500" height="501.116"/>
		</defs>
		<clipPath id="SVGID_00000160911839464081293800000014164907100029824935_">
			<use xlink:href="#SVGID_1_"  style="overflow:visible;"/>
		</clipPath>
		<g style="clip-path:url(#SVGID_00000160911839464081293800000014164907100029824935_);">
			<g>
				<path style="fill:#C9855D;" d="M519.347,439.46c-13.091-8.161-18.916-13.536-30.037-24.227
					c-10.551-10.143-8.722-26.776-10.922-41.245c-1.54-10.136,6.096-20.084,10.728-29.23c-0.203-1.628-2.079-2.901-3.695-3.185
					c-1.616-0.284-3.271,0.189-4.783,0.826c-5.764,2.43-10.267,7.243-13.445,12.632c-3.178,5.389-5.167,11.379-7.134,17.318
					c-0.369,1.113-1.531,2.291-2.221,3.238c-7.068-3.302-13.815-5.89-20.882-9.192c-3.059-1.429-6.435-2.892-9.702-2.039
					c-3.108,0.812-5.447,3.798-5.724,6.998c-0.277,3.2,1.394,6.436,4.031,8.269c-3.525-1.403-8.644,0.779-10.236,4.223
					s-0.054,8.005,3.298,9.781c-1.867-1.079-5.738-0.012-7.217,1.557c-1.479,1.569-1.899,3.97-1.309,6.043
					c0.591,2.073,2.094,3.814,3.914,4.969c-1.982-0.313-4.766,0.847-5.336,2.77c-0.57,1.923,0.119,4.075,1.443,5.582
					c1.324,1.507,3.475,1.846,5.137,2.971c17.03,11.534,32.475,17.488,49.753,22.566c2.475,0.728,4.711,2.09,6.504,3.946
					c12.116,12.54,33.522,31.571,44.87,43.675"/>
				
					<path style="fill:none;stroke:#B56B45;stroke-width:0.946;stroke-linecap:round;stroke-linejoin:round;stroke-miterlimit:10;" d="
					M425.127,379.73c7.093,4.207,14.186,8.415,21.278,12.622c1.82,1.08,3.728,2.188,5.84,2.325c2.112,0.137,4.47-1.034,4.94-3.097
					c0.535-2.354-1.459-4.456-3.276-6.045c-6.787-5.931-13.629-11.8-20.524-17.605"/>
				
					<path style="fill:none;stroke:#B56B45;stroke-width:0.946;stroke-linecap:round;stroke-linejoin:round;stroke-miterlimit:10;" d="
					M418.411,393.073c8.894,4.888,17.813,9.787,27.209,13.621c1.357,0.554,2.747,1.091,4.208,1.208
					c1.461,0.117,3.024-0.241,4.069-1.268c1.534-1.508,1.538-4.098,0.517-5.993s-2.842-3.216-4.695-4.309
					c-1.852-1.094-14.341-10.45-17.38-12.323"/>
				
					<path style="fill:none;stroke:#B56B45;stroke-width:0.946;stroke-linecap:round;stroke-linejoin:round;stroke-miterlimit:10;" d="
					M414.617,406.439c8.919,3.842,18.297,6.617,27.871,8.248c1.267,0.216,2.536,0.095,3.715-0.417
					c1.179-0.512,2.175-1.508,2.528-2.744c0.353-1.236-0.35-3.419-1.835-4.333"/>
				
					<path style="fill:none;stroke:#B56B45;stroke-width:0.946;stroke-linecap:round;stroke-linejoin:round;stroke-miterlimit:10;" d="
					M416.405,417.59c7.712,1.676,13.16,2.65,21.049,2.467c3.179-0.442,3.683-0.996,4.265-1.623c0.582-0.627,1.007-1.446,0.982-2.301
					c-0.025-0.855-0.96-1.517-1.79-1.725"/>
				
					<path style="fill:none;stroke:#B56B45;stroke-width:0.946;stroke-linecap:round;stroke-linejoin:round;stroke-miterlimit:10;" d="
					M485.234,351.65c-0.844-0.13-1.389-1.043-1.386-1.897c0.003-0.854,0.419-1.647,0.861-2.377c0.754-1.246,1.617-2.429,2.613-3.492
					c0.665,0.101,1.369,0.482,1.889,0.909C487.907,347.05,486.536,349.393,485.234,351.65z"/>
				
					<path style="fill:none;stroke:#B56B45;stroke-width:0.845;stroke-linecap:round;stroke-linejoin:round;stroke-miterlimit:10;" d="
					M454.625,401.642c-1.238-0.398-2.297-1.115-3.469-1.641c-1.83-0.822-3.956-0.958-5.254,0.825
					c-0.737,1.013-0.984,2.368-0.22,3.422c0.659,0.908,1.746,1.465,2.756,1.89c1.262,0.532,2.536,1.066,3.846,1.472"/>
				
					<path style="fill:none;stroke:#B56B45;stroke-width:0.946;stroke-linecap:round;stroke-linejoin:round;stroke-miterlimit:10;" d="
					M456.973,389.8c-1.199-1.394-2.798-2.441-4.556-2.982c-1.188-0.047-2.241,0.605-2.933,1.571
					c-0.692,0.966-0.861,2.285-0.435,3.395c0.545,1.418,2.306,1.982,3.645,2.699"/>
				
					<path style="fill:none;stroke:#B56B45;stroke-width:0.946;stroke-linecap:round;stroke-linejoin:round;stroke-miterlimit:10;" d="
					M448.402,409.003c-0.972-0.587-2.643-1.294-3.764-1.474c-1.121-0.18-2.403,0.155-3.025,1.105
					c-0.719,1.097-0.31,2.643,0.585,3.601c0.895,0.959,2.781,1.563,4.004,2.035"/>
				
					<path style="fill:none;stroke:#B56B45;stroke-width:0.946;stroke-linecap:round;stroke-linejoin:round;stroke-miterlimit:10;" d="
					M438.96,414.033c-1.15-0.153-2.619-0.241-3.44,0.229c-0.821,0.469-1.324,1.566-0.897,2.41c0.324,0.642,1.049,0.962,1.731,1.193
					c1.58,0.536,3.23,0.862,4.895,0.968"/>
				
					<path style="fill:none;stroke:#B56B45;stroke-width:0.946;stroke-linecap:round;stroke-linejoin:round;stroke-miterlimit:10;" d="
					M456.146,379.113c2.805-4.571,4.629-9.66,6.583-14.655c1.954-4.995,4.095-9.999,7.42-14.208
					c3.325-4.208,8.002-7.591,13.317-8.303c2.122-0.284,4.292,0.755,5.682,2.382"/>
			</g>
			<g>
				<g>
					<path style="fill:#BE764B;" d="M15.591,427.785c1.496-2.857,4.274-4.819,7.14-6.296c2.866-1.477,5.93-2.587,8.642-4.33
						c4.774-3.069,8.137-7.887,10.959-12.811c2.822-4.924,5.255-10.113,8.763-14.574c2.045-2.6-0.665-6.313-1.647-9.471
						c-0.905-2.914-1.81-5.828-2.716-8.742c-0.813-2.616,0.028-4.834,0.754-7.355c1.903-6.604,4.962-12.251,7.851-18.017
						c1.644-0.495,3.648,0.486,4.297,2.076c1.224,2.999,0.391,6.409-0.605,9.49c-0.863,2.669-0.986,5.311-2.073,7.898
						c-1.52,3.616,0.054,7.032,2.235,10.866c2.768-6.626,4.208-13.176,5.887-20.158c2.314-9.625,8.639-17.545,13.123-26.371
						c1.976,0.239,3.463,2.106,4.034,4.013c0.571,1.907,0.305,3.966-0.201,5.892c-0.807,3.073-2.611,7.171-5.187,11.952
						c5.313-8.174,10.59-16.295,15.904-24.469c2.536,0.834,3.708,3.688,3.775,6.357c0.067,2.669-0.986,5.229-2.115,7.648
						c-2.954,6.328-6.564,12.349-10.755,17.935c-3.975,5.3-4.233,12.608-5.577,19.095c5.172-1.906,9.689-2.668,15.19-3.016
						c2.543-0.161,4.187,2.32,5.683,4.383c2.533,3.493,5.715,6.83,6.716,11.028c1.302,5.458,1.623,7.317,0.85,12.637
						c-1.733,1.276-4.602,0.757-6.259-0.617c-1.656-1.374-2.555-3.455-3.154-5.522c-0.6-2.067-0.965-4.214-1.837-6.182
						c-0.872-1.967-2.373-3.798-4.436-4.409c-3.167,1.282-7.025,2.386-10.435,2.186c-1.531,1.738-3.046,4.289-3.412,6.576
						c-0.777,4.845,2.425,9.669,5.051,13.814c4.441,1.209,8.86-0.162,12.359-3.152c4.475-3.824,10.437-3.685,15.531-0.735
						c2.68,0.683,2.225,5.188,0.15,6.283c-8.672,4.577-22.601,10.03-32.396,14.892c-5.228,2.595-10.002,6.231-15.614,7.833
						c-6.335,1.808-13.505,0.955-19.148,4.353"/>
					<path style="fill:#BE764B;" d="M22.731,421.489c-13.311,8.445-28.374,20.144-42.215,26.524
						c-13.841,6.38-28.15,12.118-40.471,21.088c-12.321,8.97-22.693,21.834-24.841,36.922c-1.004,7.052,0.262,15.138,5.876,19.524
						c5.958,4.655,14.543,3.542,21.719,1.16c22.636-7.513,40.593-24.752,56.552-42.477c15.959-17.725,31.093-36.757,51.073-49.781"
						/>
					<path style="fill:none;stroke:#9F582D;stroke-width:1.0168;stroke-linecap:round;stroke-miterlimit:10;" d="M69.295,376.757
						c2.803-8.762,4.429-14.384,7.554-24.911c0.562-1.894,10.41-14.885,11.717-17.491"/>
					<path style="fill:none;stroke:#9F582D;stroke-width:1.0168;stroke-linecap:round;stroke-miterlimit:10;" d="M9.832,471.918
						c-17.774,17.089-28.151,29.611-47.214,45.249"/>
				</g>
				<path style="fill:none;stroke:#9F582D;stroke-width:1.0168;stroke-linecap:round;stroke-miterlimit:10;" d="M74.478,337.828
					c0.509,0.408,1.109,0.84,1.75,0.721c0.644-0.119,1.049-0.742,1.373-1.311c1.011-1.774,1.974-3.576,2.889-5.401"/>
				<path style="fill:none;stroke:#9F582D;stroke-width:1.0168;stroke-linecap:round;stroke-miterlimit:10;" d="M88.565,334.355
					c0.067,0.535,0.595,0.935,1.133,0.972c0.538,0.036,1.061-0.23,1.453-0.601c0.391-0.371,0.672-0.841,0.948-1.305
					c0.883-1.485,1.702-2.73,2.585-4.215"/>
				<path style="fill:none;stroke:#9F582D;stroke-width:1.0168;stroke-linecap:round;stroke-miterlimit:10;" d="M52.254,352.453
					c0.392,0.777,1.497,0.958,2.283,0.586c0.787-0.372,1.31-1.134,1.73-1.896c0.812-1.47,1.234-2.492,1.802-4.073"/>
				<path style="fill:none;stroke:#9F582D;stroke-width:1.0168;stroke-linecap:round;stroke-miterlimit:10;" d="M106.51,396.056
					c-0.762-0.333-1.688,0.126-2.137,0.826c-0.449,0.7-0.528,1.57-0.545,2.401c-0.035,1.633,0.117,3.271,0.453,4.869"/>
			</g>
			<g>
				<g>
					<path style="fill:#B16A3E;" d="M-9.827,78.156c19.083,2.977,53.898,6.718,59.267,7.339c5.369,0.622,10.786,1.412,16.155,0.786
						c5.368-0.625,10.799-2.872,14.011-7.218c5.265-7.126,15.856-5.063,24.629-3.822c8.772,1.242,17.741,3.394,26.367,1.375
						c0.946-0.221,2.221,0.024,2.604,0.917c0.384,0.893,0.152,1.932-0.233,2.824c-1.313,3.043-4.265,5.135-7.408,6.185
						c-3.144,1.051-6.506,1.2-9.817,1.34c12.147,3.445,24.452,7.246,36.599,10.69c1.82,0.516,3.683,1.053,5.208,2.173
						c1.525,1.12,2.664,2.964,2.411,4.838c-0.253,1.875-2.288,3.469-4.066,2.822c1.909,0.355,3.455,1.455,4.91,2.741
						c1.455,1.286,2.209,3.556,1.227,5.231c-0.586,0.999-1.677,1.619-2.802,1.892c-1.126,0.272-2.3,0.239-3.457,0.203
						c1.341,0.325,1.892,2.597,1.498,3.92c-0.394,1.323-1.623,2.263-2.938,2.681c-1.315,0.419-2.723,0.4-4.103,0.378
						c-3.77-0.061-7.541-0.123-11.311-0.184c1.097-0.791,3.154,0.98,3.317,2.323c0.164,1.343-0.837,2.609-2.056,3.195
						c-1.219,0.585-2.616,0.64-3.968,0.685c-7.418,0.244-14.835,0.487-22.253,0.731c-10.281,0.338-20.979,0.597-30.358-3.625
						c-6.452-2.904-12.104-7.863-19.072-9.09c-2.13-0.375-4.147,1.043-6.296,1.283c-3.195,0.356-6.418-0.071-9.62-0.361
						c-10.952-0.993-43.835,6.512-54.61,8.713"/>
					
						<line style="fill:none;stroke:#834F2F;stroke-width:0.4892;stroke-linecap:round;stroke-linejoin:round;stroke-miterlimit:10;" x1="156.687" y1="108.601" x2="126.631" y2="101.204"/>
					
						<line style="fill:none;stroke:#834F2F;stroke-width:0.4892;stroke-linecap:round;stroke-linejoin:round;stroke-miterlimit:10;" x1="155.775" y1="118.474" x2="122.38" y2="112.978"/>
					
						<line style="fill:none;stroke:#834F2F;stroke-width:0.4892;stroke-linecap:round;stroke-linejoin:round;stroke-miterlimit:10;" x1="140.388" y1="125.292" x2="117.241" y2="121.593"/>
				</g>
				<path style="fill:#B16A3E;" d="M-22.766,158.72c16.896-9.357,38.656-17.388,43.277-20.191c4.621-2.803,9.384-5.503,13.239-9.291
					s6.766-8.894,6.635-14.297c-0.214-8.857,9.414-13.727,17.104-18.128c7.689-4.401,16.091-8.205,21.665-15.092
					c0.611-0.755,1.768-1.344,2.619-0.874c0.851,0.47,1.305,1.433,1.549,2.373c0.83,3.209-0.217,6.671-2.055,9.43
					c-1.838,2.758-4.401,4.939-6.93,7.082c11.705-4.732,23.754-9.28,35.46-14.013c1.754-0.709,3.555-1.428,5.446-1.48
					c1.891-0.051,3.922,0.706,4.872,2.341c0.95,1.636,0.321,4.143-1.479,4.723c1.725-0.891,3.621-0.971,5.559-0.848
					c1.938,0.123,3.926,1.453,4.178,3.378c0.15,1.148-0.33,2.307-1.052,3.213c-0.722,0.906-1.67,1.599-2.605,2.282
					c1.259-0.566,3.087,0.89,3.588,2.176c0.501,1.286,0.107,2.783-0.674,3.92s-1.905,1.987-3.008,2.816
					c-3.015,2.265-6.03,4.53-9.045,6.795c0.381-1.298,3.092-1.161,4.045-0.201c0.953,0.96,0.94,2.574,0.336,3.784
					c-0.604,1.21-1.673,2.111-2.713,2.975c-5.708,4.743-11.416,9.487-17.124,14.23c-7.911,6.574-16.2,13.343-26.197,15.764
					c-6.877,1.665-14.382,1.217-20.638,4.524c-1.912,1.011-2.635,3.368-4.185,4.876c-2.304,2.242-5.111,3.882-7.818,5.617
					c-9.258,5.936-43.85,40.934-51.008,49.282"/>
				
					<path style="fill:none;stroke:#834F2F;stroke-width:0.4892;stroke-linecap:round;stroke-linejoin:round;stroke-miterlimit:10;" d="
					M58.4,106.114c5.632-1.798,11.107-4.085,16.344-6.827c11.337-5.936,23.747-9.508,35.785-13.85
					c1.295-0.467,2.603-0.932,3.967-1.114s2.806-0.062,4.019,0.588c1.213,0.65,2.156,1.892,2.215,3.267
					c0.059,1.375-0.599,2.287-2.144,3.515"/>
				
					<path style="fill:none;stroke:#834F2F;stroke-width:0.4892;stroke-linecap:round;stroke-linejoin:round;stroke-miterlimit:10;" d="
					M86.908,108.86c10.626-5.599,21.186-11.321,31.678-17.167"/>
				
					<path style="fill:none;stroke:#834F2F;stroke-width:0.4892;stroke-linecap:round;stroke-linejoin:round;stroke-miterlimit:10;" d="
					M125.156,99.026c-10.648,5.97-20.974,12.514-30.92,19.594"/>
				
					<path style="fill:none;stroke:#834F2F;stroke-width:0.4892;stroke-linecap:round;stroke-linejoin:round;stroke-miterlimit:10;" d="
					M116.648,113.978c-8.688,5.092-16.9,10.995-24.495,17.607"/>
				
					<path style="fill:none;stroke:#834F2F;stroke-width:0.4892;stroke-linecap:round;stroke-linejoin:round;stroke-miterlimit:10;" d="
					M119.068,91.336c1.903-1.19,4.395-1.379,6.455-0.489c1.179,0.509,2.265,1.435,2.577,2.68c0.278,1.111-0.106,2.305-0.764,3.243
					c-0.658,0.938-1.567,1.665-2.462,2.379"/>
				
					<path style="fill:none;stroke:#834F2F;stroke-width:0.4892;stroke-linecap:round;stroke-linejoin:round;stroke-miterlimit:10;" d="
					M124.764,99.286c1.136-0.407,2.482,0.106,3.209,1.07c0.726,0.964,0.874,2.286,0.563,3.452c-0.311,1.166-1.039,2.187-1.909,3.023
					c-0.87,0.837-1.882,1.508-2.889,2.174c-2.49,1.648-4.646,3.572-7.178,5.155c0.725,0.069,1.351-0.002,2.036,0.248
					c0.685,0.25,1.325,0.704,1.644,1.359c0.617,1.265-0.122,2.761-0.971,3.883c-1.95,2.577-12.972,11.184-15.527,13.161"/>
				
					<path style="fill:none;stroke:#834F2F;stroke-width:0.4892;stroke-linecap:round;stroke-linejoin:round;stroke-miterlimit:10;" d="
					M39.282,120.508c1.089-2.634,0.824-5.626,1.511-8.392c0.903-3.635,3.419-6.696,6.365-9.009c2.946-2.313,6.334-3.98,9.639-5.743
					c5.357-2.858,10.558-6.009,15.571-9.434c2.583-1.764,4.687-4.057,6.994-6.17c0.351-0.321,0.717-0.651,1.171-0.793
					c0.907-0.282,1.909,0.31,2.375,1.137c0.466,0.827,0.51,1.823,0.465,2.772c-0.257,5.413-3.17,10.638-7.64,13.701"/>
				
					<path style="fill:none;stroke:#834F2F;stroke-width:0.4892;stroke-linecap:round;stroke-linejoin:round;stroke-miterlimit:10;" d="
					M74.649,85.988c0.318,0.931,1.176,1.655,2.148,1.811c2.233-1.64,4.162-3.869,5.533-6.277"/>
				
					<path style="fill:none;stroke:#834F2F;stroke-width:0.4892;stroke-linecap:round;stroke-linejoin:round;stroke-miterlimit:10;" d="
					M117.303,84.462c-1.204,0.432-2.429,0.875-3.443,1.655c-1.014,0.78-1.799,1.965-1.775,3.244
					c0.025,1.279,1.063,2.554,2.342,2.547c0.607-0.003,1.178-0.273,1.72-0.549c1.521-0.776,2.992-1.65,4.401-2.614"/>
				
					<path style="fill:none;stroke:#834F2F;stroke-width:0.4892;stroke-linecap:round;stroke-linejoin:round;stroke-miterlimit:10;" d="
					M124.2,90.512c-1.649,1.002-3.25,2.084-4.794,3.241c-1.06,0.794-1.143,2.313-0.5,3.472c0.642,1.159,2.194,1.715,3.426,1.228
					c2.31-0.914,3.98-2.675,5.852-4.308"/>
				
					<path style="fill:none;stroke:#834F2F;stroke-width:0.4892;stroke-linecap:round;stroke-linejoin:round;stroke-miterlimit:10;" d="
					M126.461,99.398c-1.762,0.994-3.45,2.118-5.047,3.36c-0.854,0.665-0.244,2.227,0.53,2.984c0.773,0.758,2.053,0.936,3.004,0.418
					c1.322-0.72,2.424-1.418,3.559-2.408"/>
				
					<path style="fill:none;stroke:#834F2F;stroke-width:0.4892;stroke-linecap:round;stroke-linejoin:round;stroke-miterlimit:10;" d="
					M117.83,114.275c-1.383,1.031-2.766,2.062-4.15,3.092c-0.258,0.866,0.021,2.018,0.737,2.568c0.717,0.55,1.776,0.604,2.546,0.131
					c1.278-0.786,2.34-1.922,3.357-3.025"/>
			</g>
			<g>
				<g>
					<path style="fill:#E5905B;" d="M511.623,105.819c-19.106-2.824-39.811-10.693-45.122-11.694
						c-5.311-1-10.719-1.855-15.659-4.046c-4.94-2.191-9.459-5.949-11.236-11.053c-2.912-8.368-13.637-9.544-22.383-10.963
						c-8.745-1.419-17.948-2.028-25.586-6.517c-0.838-0.492-2.128-0.637-2.759,0.102c-0.632,0.739-0.719,1.8-0.616,2.766
						c0.35,3.296,2.548,6.169,5.237,8.106c2.69,1.937,5.856,3.078,8.977,4.195c-12.622-0.318-25.501-0.342-38.122-0.66
						c-1.891-0.048-3.83-0.088-5.618,0.528c-1.788,0.617-3.424,2.039-3.739,3.904c-0.315,1.865,1.155,3.992,3.044,3.902
						c-1.928-0.228-3.732,0.363-5.503,1.159c-1.771,0.796-3.165,2.74-2.725,4.631c0.263,1.128,1.12,2.044,2.114,2.638
						c0.994,0.594,2.125,0.911,3.241,1.221c-1.377-0.088-2.578,1.918-2.595,3.298c-0.017,1.38,0.877,2.643,2.009,3.433
						c1.131,0.79,2.482,1.191,3.806,1.579c3.619,1.061,7.237,2.122,10.856,3.183c-0.813-1.081-3.302,0-3.857,1.233
						c-0.555,1.233,0.025,2.74,1.015,3.661c0.99,0.921,2.308,1.388,3.586,1.832c7.011,2.435,14.022,4.87,21.032,7.306
						c9.716,3.375,19.855,6.8,30.065,5.553c7.024-0.857,13.893-3.915,20.911-3.017c2.146,0.274,3.65,2.228,5.632,3.095
						c2.945,1.289,6.149,1.838,9.293,2.512c10.753,2.304,32.315,12.389,41.95,17.69"/>
					
						<line style="fill:none;stroke:#B9744A;stroke-width:0.4892;stroke-linecap:round;stroke-linejoin:round;stroke-miterlimit:10;" x1="357.229" y1="84.342" x2="388.126" y2="86.204"/>
					
						<line style="fill:none;stroke:#B9744A;stroke-width:0.4892;stroke-linecap:round;stroke-linejoin:round;stroke-miterlimit:10;" x1="355.168" y1="94.04" x2="388.689" y2="98.708"/>
					
						<line style="fill:none;stroke:#B9744A;stroke-width:0.4892;stroke-linecap:round;stroke-linejoin:round;stroke-miterlimit:10;" x1="367.836" y1="105.12" x2="391.038" y2="108.461"/>
				</g>
				<path style="fill:#E5905B;" d="M513.705,185.488c-13.355-13.952-31.749-28.083-35.329-32.131
					c-3.58-4.049-7.326-8.041-9.883-12.803c-2.557-4.762-3.82-10.501-2.091-15.622c2.835-8.394-4.914-15.903-10.949-22.39
					c-6.035-6.486-12.929-12.613-16.206-20.844c-0.359-0.903-1.289-1.808-2.241-1.612c-0.952,0.196-1.672,0.98-2.183,1.807
					c-1.745,2.818-1.773,6.435-0.838,9.614c0.936,3.18,2.736,6.023,4.515,8.82c-9.772-7.995-19.927-15.916-29.699-23.911
					c-1.464-1.198-2.97-2.42-4.761-3.03c-1.79-0.61-3.955-0.491-5.348,0.789c-1.393,1.28-1.537,3.861,0.01,4.949
					c-1.383-1.363-3.169-2.003-5.056-2.46c-1.887-0.458-4.181,0.222-4.993,1.985c-0.485,1.052-0.37,2.301,0.051,3.38
					c0.42,1.079,1.119,2.023,1.81,2.952c-1.034-0.914-3.212-0.067-4.072,1.012c-0.86,1.079-0.928,2.625-0.52,3.943
					c0.409,1.318,1.229,2.463,2.037,3.582c2.207,3.058,4.413,6.116,6.619,9.174c0.021-1.352-2.607-2.027-3.802-1.393
					s-1.662,2.179-1.445,3.514c0.217,1.335,0.971,2.512,1.707,3.647c4.042,6.224,8.084,12.449,12.126,18.673
					c5.602,8.627,11.507,17.552,20.334,22.832c6.072,3.632,13.372,5.433,18.364,10.448c1.526,1.533,1.516,3.998,2.548,5.899
					c1.535,2.825,3.728,5.225,5.797,7.685c7.078,8.417,47.9,69.936,56.578,84.664"/>
				
					<path style="fill:none;stroke:#B9744A;stroke-width:0.4892;stroke-linecap:round;stroke-linejoin:round;stroke-miterlimit:10;" d="
					M451.822,111.153c-4.844-3.389-9.393-7.199-13.579-11.372c-9.063-9.035-19.853-16.13-30.058-23.852
					c-1.098-0.83-2.209-1.663-3.458-2.242c-1.249-0.579-2.661-0.893-4.013-0.632c-1.351,0.261-2.62,1.166-3.085,2.461
					c-0.465,1.296-0.107,2.362,1.004,3.993"/>
				
					<path style="fill:none;stroke:#B9744A;stroke-width:0.4892;stroke-linecap:round;stroke-linejoin:round;stroke-miterlimit:10;" d="
					M423.784,105.31c-8.484-8.501-16.869-17.102-25.151-25.799"/>
				
					<path style="fill:none;stroke:#B9744A;stroke-width:0.4892;stroke-linecap:round;stroke-linejoin:round;stroke-miterlimit:10;" d="
					M390.181,84.561c8.395,8.863,16.312,18.178,23.707,27.891"/>
				
					<path style="fill:none;stroke:#B9744A;stroke-width:0.4892;stroke-linecap:round;stroke-linejoin:round;stroke-miterlimit:10;" d="
					M393.866,101.366c6.784,7.442,12.873,15.517,18.161,24.087"/>
				
					<path style="fill:none;stroke:#B9744A;stroke-width:0.4892;stroke-linecap:round;stroke-linejoin:round;stroke-miterlimit:10;" d="
					M398.279,79.026c-1.463-1.702-3.787-2.622-6.019-2.384c-1.277,0.136-2.589,0.697-3.257,1.794
					c-0.596,0.978-0.583,2.232-0.233,3.323c0.35,1.091,1.001,2.055,1.645,3.003"/>
				
					<path style="fill:none;stroke:#B9744A;stroke-width:0.4892;stroke-linecap:round;stroke-linejoin:round;stroke-miterlimit:10;" d="
					M390.478,84.926c-0.964-0.726-2.402-0.636-3.381,0.068c-0.98,0.705-1.514,1.923-1.563,3.129
					c-0.049,1.206,0.343,2.397,0.925,3.454c0.582,1.057,1.35,1.999,2.113,2.933c1.888,2.313,3.376,4.791,5.323,7.054
					c-0.713-0.15-1.29-0.403-2.018-0.367c-0.728,0.036-1.474,0.278-1.974,0.809c-0.965,1.024-0.703,2.673-0.225,3.997
					c1.097,3.04,9.066,14.531,10.919,17.179"/>
				
					<path style="fill:none;stroke:#B9744A;stroke-width:0.4892;stroke-linecap:round;stroke-linejoin:round;stroke-miterlimit:10;" d="
					M465.804,130.575c-0.258-2.839,0.884-5.617,1.049-8.462c0.217-3.739-1.277-7.409-3.403-10.493
					c-2.126-3.084-4.867-5.682-7.499-8.346c-4.267-4.32-8.297-8.873-12.068-13.632c-1.942-2.452-3.271-5.266-4.847-7.968
					c-0.239-0.411-0.491-0.835-0.883-1.105c-0.782-0.539-1.915-0.271-2.606,0.381s-1.028,1.59-1.267,2.509
					c-1.363,5.245-0.132,11.099,3.227,15.352"/>
				
					<path style="fill:none;stroke:#B9744A;stroke-width:0.4892;stroke-linecap:round;stroke-linejoin:round;stroke-miterlimit:10;" d="
					M442.282,87.11c-0.58,0.795-1.615,1.231-2.588,1.091c-1.645-2.229-2.825-4.931-3.419-7.637"/>
				
					<path style="fill:none;stroke:#B9744A;stroke-width:0.4892;stroke-linecap:round;stroke-linejoin:round;stroke-miterlimit:10;" d="
					M402.004,72.987c1.021,0.77,2.06,1.557,2.796,2.603c0.736,1.046,1.134,2.411,0.731,3.625c-0.403,1.214-1.773,2.123-2.993,1.737
					c-0.579-0.183-1.044-0.61-1.479-1.035c-1.222-1.193-2.367-2.464-3.426-3.803"/>
				
					<path style="fill:none;stroke:#B9744A;stroke-width:0.4892;stroke-linecap:round;stroke-linejoin:round;stroke-miterlimit:10;" d="
					M393.623,76.716c1.277,1.446,2.484,2.955,3.616,4.518c0.777,1.073,0.404,2.548-0.553,3.464
					c-0.957,0.916-2.604,0.986-3.636,0.155c-1.935-1.558-3.006-3.736-4.309-5.852"/>
				
					<path style="fill:none;stroke:#B9744A;stroke-width:0.4892;stroke-linecap:round;stroke-linejoin:round;stroke-miterlimit:10;" d="
					M388.825,84.529c1.388,1.472,2.666,3.047,3.821,4.707c0.618,0.889-0.428,2.198-1.392,2.692
					c-0.963,0.494-2.238,0.284-2.993-0.493c-1.049-1.08-1.894-2.074-2.683-3.356"/>
				
					<path style="fill:none;stroke:#B9744A;stroke-width:0.4892;stroke-linecap:round;stroke-linejoin:round;stroke-miterlimit:10;" d="
					M392.649,101.298c1.015,1.395,2.029,2.79,3.044,4.185c-0.011,0.903-0.619,1.921-1.467,2.233c-0.848,0.312-1.876,0.05-2.47-0.631
					c-0.987-1.131-1.664-2.53-2.307-3.886"/>
			</g>
		</g>
	</g>
	<g>
		<path style="fill:#F7F7F7;" d="M217.173,190.053c20.712,12.087,47.643,12.735,68.912,1.658
			c25.808,49.696,27.547,110.785,35.018,166.282c3.742,27.798,9.732,55.294,17.891,82.13c-47.39,13.625-98.211,16.453-146.04,4.458"
			/>
		<path style="fill:#DCC19D;" d="M146.661,440.903c0,0-2.324,45.79-2.107,58.237L352.068,500c2.007-13.735,1.343-42.802,0-54.696"/>
		<path style="fill:none;stroke:#000000;stroke-width:0.9297;stroke-linecap:round;stroke-miterlimit:10;" d="M193.587,445.43
			c-2.587,10.539-9.159,20.049-18.103,26.194c-8.944,6.145-20.178,8.87-30.944,7.505"/>
		<path style="fill:none;stroke:#000000;stroke-width:0.9297;stroke-linecap:round;stroke-miterlimit:10;" d="M304.498,445.598
			c2.819,9.667,8.853,18.367,16.919,24.395c8.066,6.028,18.119,9.349,28.189,9.313"/>
		<path style="fill:none;stroke:#000000;stroke-width:0.9297;stroke-linecap:round;stroke-miterlimit:10;" d="M255.361,442.493
			c0.066,9.05,0.131,34.156,0.197,43.206c0.015,2.084,0,7.138-10.96,5.665"/>
		<path style="fill:#E09B7A;" d="M220.846,139.98l0.94,17.972c0.58,8.033-4.611,15.352-12.384,17.462l-26.212,9.783
			c0,0,37.245,35.188,82.561,23.715s50.722-25.52,50.722-25.52l-27.622-11.707c-5.574-1.97-11.484-12.183-12.665-17.976
			l-6.592-32.342L220.846,139.98z"/>
		<path style="fill:none;stroke:#658390;stroke-width:0.8358;stroke-miterlimit:10;" d="M171.801,319.924
			c0.969-6.526,3.544-23.88,4.513-30.406"/>
		<path style="fill:#E09B7A;" d="M293.156,105.038c-0.909,23.147-22.192,51.53-47.383,50.541
			c-25.191-0.989-44.751-30.976-43.841-54.124c0.909-23.147,15.431-54.565,47.412-53.524
			C280.595,48.949,294.066,81.891,293.156,105.038z"/>
		<path style="fill:#49311A;" d="M264.595,81.618c-1.871-0.076-3.867,0.077-5.386,1.171c-1.52,1.094-2.283,3.409-1.158,4.906
			c1.143,1.52,3.395,1.446,5.292,1.327c3.081-0.192,6.179-0.108,9.246,0.245c3.074,0.355,6.213,1.705,9.234,1.919
			c2.551,0.181,0.428-2.326-0.698-3.306c-2.077-1.808-4.648-3.2-7.188-4.229C270.968,82.45,267.796,81.747,264.595,81.618z"/>
		<path style="fill:#49311A;" d="M232.683,81.618c1.871-0.076,3.867,0.077,5.386,1.171c1.52,1.094,2.283,3.409,1.158,4.906
			c-1.143,1.52-3.395,1.446-5.292,1.327c-3.081-0.192-6.179-0.108-9.246,0.245c-3.074,0.355-6.212,1.705-9.234,1.919
			c-2.551,0.181-0.428-2.326,0.698-3.306c2.077-1.808,4.648-3.2,7.188-4.229C226.309,82.45,229.482,81.747,232.683,81.618z"/>
		
			<path style="fill:none;stroke:#CB7E55;stroke-width:0.9757;stroke-linecap:round;stroke-linejoin:round;stroke-miterlimit:10;" d="
			M246.823,98.591c0,0,0,8.412-3.877,18.13c3.671,1.876,8.41,1.425,11.661-1.11"/>
		<path style="fill:#C87C60;" d="M231.792,118.84c-0.928,3.807-4.766,6.141-8.574,5.214c-3.807-0.928-6.141-4.766-5.214-8.573
			c0.928-3.807,4.766-6.142,8.574-5.214C230.386,111.194,232.72,115.033,231.792,118.84z"/>
		<path style="fill:#C87C60;" d="M278.767,116.503c-0.928,3.807-4.766,6.141-8.573,5.214c-3.807-0.928-6.142-4.766-5.214-8.574
			s4.766-6.142,8.574-5.214C277.361,108.857,279.695,112.695,278.767,116.503z"/>
		<path style="fill:none;stroke:#000000;stroke-width:1.7681;stroke-linecap:round;stroke-miterlimit:10;" d="M234.748,102.267
			c-2.199-2.872-5.775-4.637-9.392-4.636c-3.617,0-7.193,1.767-9.391,4.639"/>
		<path style="fill:none;stroke:#000000;stroke-width:1.7681;stroke-linecap:round;stroke-miterlimit:10;" d="M260.878,102.267
			c2.199-2.872,5.775-4.637,9.392-4.636c3.617,0,7.193,1.767,9.391,4.639"/>
		<path style="fill:#49311A;" d="M200.815,100.505c-2.377-7.76-4.755-15.636-4.984-23.746c-0.231-8.184,1.992-16.78,7.745-22.606
			l-0.857-0.139c-1.724-0.279-2.672-2.164-1.87-3.716c4.735-9.167,13.599-16.163,23.673-18.472l-2.536-0.517
			c-2.019-0.411-2.769-2.935-1.275-4.355c7.263-6.899,17.854-10.087,27.966-9.589c6.688,0.33,13.457,2.193,18.747,6.299
			c5.289,4.106,8.895,10.663,8.465,17.346c-0.43,6.683-5.429,13.095-12.032,14.211c-1.839,2.394-5.345,3.575-8.363,3.662
			c-3.018,0.087-5.999-0.592-9.003-0.897c-10.401-1.056-21.191,2.628-28.774,9.826c-7.583,7.197-11.824,17.78-11.312,28.222
			c0.09,1.843,0.269,3.873-0.825,5.354C204.266,103.164,201.462,102.616,200.815,100.505z"/>
		<path style="fill:#49311A;" d="M293.455,103.966c6.856-14.007,7.148-31.063,0.775-45.296c1.156-0.045,2.313-0.089,3.469-0.134
			c0.71-6.263-2.504-12.802-7.896-16.066c-5.391-3.264-12.676-3.081-17.896,0.451c-5.226,3.535-10.437,12.047-7.226,17.478
			c1.973,3.336,5.538,5.322,8.629,7.661c10.869,8.227,16.679,22.654,14.544,36.118C289.214,104.812,292.194,104.779,293.455,103.966
			z"/>
		<g>
			<path style="fill:#E09B7A;" d="M206.639,107.504c-0.252,6.419-4.996,11.444-10.597,11.224c-5.6-0.22-9.936-5.602-9.684-12.02
				c0.252-6.419,4.996-11.444,10.597-11.224C202.555,95.704,206.891,101.085,206.639,107.504z"/>
			<path style="fill:none;stroke:#000000;stroke-width:1.7681;stroke-linecap:round;stroke-miterlimit:10;" d="M199.527,106.603
				c-2.394-1.18-4.723-2.491-6.973-3.927"/>
			<path style="fill:none;stroke:#000000;stroke-width:1.7681;stroke-linecap:round;stroke-miterlimit:10;" d="M195.048,111.265
				c0.149-2.216,0.299-4.431,0.448-6.647"/>
		</g>
		<g>
			<path style="fill:#E09B7A;" d="M285.893,109.689c-0.252,6.419,4.083,11.8,9.684,12.02c5.6,0.22,10.345-4.805,10.597-11.224
				c0.252-6.419-4.084-11.8-9.684-12.02C290.89,98.245,286.146,103.27,285.893,109.689z"/>
			<path style="fill:none;stroke:#000000;stroke-width:1.7681;stroke-linecap:round;stroke-miterlimit:10;" d="M293.054,109.349
				c2.479-0.988,4.904-2.113,7.259-3.368"/>
			<path style="fill:none;stroke:#000000;stroke-width:1.7681;stroke-linecap:round;stroke-miterlimit:10;" d="M297.154,114.347
				c0.025-2.22,0.05-4.441,0.075-6.661"/>
		</g>
		<path style="fill:#FBF3E7;" d="M258.45,122.515c0.885-0.319,1.775-0.679,2.714-0.732c0.939-0.053,1.961,0.263,2.486,1.044
			c0.571,0.849,0.415,1.982,0.144,2.969c-1.727,6.292-7.53,11.252-14.013,11.979c-6.484,0.727-13.241-2.824-16.319-8.577
			c-0.592-1.106-1.064-2.32-1.04-3.574c0.113-5.863,7.16-1.845,10.199-1.44C247.929,124.891,253.409,124.331,258.45,122.515z"/>
		<path style="fill:#D2D2D2;" d="M272.599,147.423c-1.576,4.193-3.881,7.37-6.933,10.254c-5.205,4.918-11.576,7.499-17.787,7.208
			c-6.211-0.291-12.223-3.454-16.784-8.83c-1.868-2.202-2.838-4.991-4.181-7.674c6.762,4.797,14.782,7.246,22.779,7.037
			C257.69,155.209,265.801,152.575,272.599,147.423z"/>
		
			<path style="fill:none;stroke:#CB7E55;stroke-width:0.9757;stroke-linecap:round;stroke-linejoin:round;stroke-miterlimit:10;" d="
			M225.127,147.423c6.527,5.199,14.827,8.13,23.171,8.183c8.345,0.053,16.68-2.772,23.273-7.888"/>
		<path style="fill:#A8C2D0;" d="M114.395,468.152c6.593-74.111,13.183-109.308,19.777-187.444
			c-18.03,4.624-35.547,10.573-51.401,20.34c-15.03,9.259-31.867,15.26-49.33,17.841c-4.424,0.654-9.127,1.028-13.181-0.851
			c-4.907-2.274-7.87-7.431-9.395-12.62c-4.053-13.785,0.187-29.116,8.765-40.644c8.578-11.527,21.037-19.642,34.124-25.572
			c13.33-6.041,27.478-10.037,41.262-14.949c12.942-4.613,24.859-11.592,35.722-20.004c23.009-17.816,57.456-15.726,79.271-35
			c1.964,17.25,26.463,20.936,33.312,36.889c4.179,9.734,1.198,20.883-1.618,31.096c-20.743,75.245-29.946,107.418-27.188,185.421
			c0.573,16.219,1.428,33.466-6.624,47.557c-8.539,14.944-25.923,23.277-43.086,24.563c-13.622,1.02-27.88-5.359-41.206-11.145
			C117.519,480.991,113.808,474.755,114.395,468.152z"/>
		<path style="fill:#A8C2D0;" d="M221.476,159.633c-4.618-0.846-9.36,1.687-12.3,5.347c-2.94,3.66-4.38,8.285-5.459,12.854
			c-2.9,12.281-3.641,25.069-2.177,37.603c7.975,0.347,16.001-3.738,20.415-10.39c1.852-2.791,3.175-6.066,5.825-8.114
			c2.65-2.048,7.343-1.981,8.599,1.124c2.125-2.14,2.241-5.382,0.695-7.971c-1.547-2.589-4.057-4.421-6.321-6.413
			c-3.392-2.984-6.38-6.514-8.247-10.627C220.637,168.932,220.304,163.996,221.476,159.633z"/>
		
			<path style="fill:none;stroke:#658390;stroke-width:0.8358;stroke-linecap:round;stroke-linejoin:round;stroke-miterlimit:10;" d="
			M236.623,198.292c-0.815-2.201-3.5-3.299-5.809-2.876s-4.236,2.043-5.681,3.893c-1.445,1.85-2.514,3.963-3.854,5.891
			c-4.518,6.501-12.248,10.649-20.164,10.817c-2.506-14.175-0.911-28.872,3.791-42.477c1.303-3.77,2.938-7.55,5.757-10.372
			c2.819-2.823,7.058-4.522,10.882-3.388"/>
		<path style="fill:#A8C2D0;" d="M382.76,467.543c-6.351-74.076-10.337-108.688-16.932-186.834
			c18.03,4.624,35.547,10.573,51.401,20.34c15.03,9.259,31.867,15.26,49.33,17.841c4.424,0.654,9.127,1.028,13.181-0.851
			c4.907-2.274,7.87-7.431,9.395-12.62c4.053-13.785-0.187-29.116-8.765-40.644c-8.578-11.527-21.037-19.642-34.124-25.572
			c-13.33-6.041-27.478-10.037-41.262-14.949c-12.942-4.613-24.859-11.592-35.722-20.004c-23.009-17.816-57.456-15.726-79.271-35
			c-1.964,17.25-26.463,20.936-33.312,36.889c-4.179,9.734-1.198,20.883,1.617,31.096c20.743,75.245,27.081,106.776,24.323,184.779
			c-0.573,16.219-1.428,33.466,6.624,47.557c8.539,14.944,25.922,23.277,43.086,24.563c13.628,1.021,27.892-5.365,41.224-11.153
			C379.619,480.346,383.325,474.132,382.76,467.543z"/>
		<path style="fill:#A8C2D0;" d="M278.524,159.633c4.618-0.846,9.36,1.687,12.3,5.347c2.94,3.66,4.38,8.285,5.459,12.854
			c2.901,12.281,3.641,25.069,2.177,37.603c-7.975,0.347-16.001-3.738-20.415-10.39c-1.852-2.791-3.175-6.066-5.825-8.114
			c-2.651-2.048-7.343-1.981-8.599,1.124c-2.125-2.14-2.241-5.382-0.695-7.971c1.547-2.589,4.057-4.421,6.321-6.413
			c3.392-2.984,6.379-6.514,8.247-10.627C279.363,168.932,279.696,163.996,278.524,159.633z"/>
		
			<path style="fill:none;stroke:#658390;stroke-width:0.8358;stroke-linecap:round;stroke-linejoin:round;stroke-miterlimit:10;" d="
			M263.376,198.292c0.815-2.201,3.5-3.299,5.809-2.876s4.236,2.043,5.681,3.893c1.445,1.85,2.514,3.963,3.854,5.891
			c4.517,6.501,12.248,10.649,20.164,10.817c2.506-14.175,0.911-28.872-3.791-42.477c-1.303-3.77-2.938-7.55-5.757-10.372
			c-2.819-2.823-7.058-4.522-10.882-3.388"/>
		
			<path style="fill:none;stroke:#658390;stroke-width:0.8358;stroke-linecap:round;stroke-linejoin:round;stroke-miterlimit:10;" d="
			M69.895,243.513c-11.547-1.267-23.545,2.251-32.58,9.552c-9.035,7.301-14.994,18.293-16.179,29.849
			c-0.596,5.811-0.01,11.799,2.182,17.213c2.192,5.415,6.049,10.224,11.121,13.122c-2.54,1.747-6.306,2.752-9.04,1.33
			c-2.735-1.422-4.786-3.885-6.431-6.492c-5.403-8.567-7.032-19.424-4.38-29.2"/>
		
			<path style="fill:none;stroke:#658390;stroke-width:0.8358;stroke-linecap:round;stroke-linejoin:round;stroke-miterlimit:10;" d="
			M464.816,254.32c12.52,8.172,19.147,24.455,15.892,39.047c-1.091,4.892-3.241,9.633-6.716,13.245
			c-3.475,3.612-8.361,6.002-13.372,5.89"/>
		
			<path style="fill:none;stroke:#658390;stroke-width:0.8358;stroke-linecap:round;stroke-linejoin:round;stroke-miterlimit:10;" d="
			M467.125,316.516c6.512-1.933,12.172-6.579,15.338-12.589c3.166-6.01,3.796-13.305,1.707-19.769"/>
		<circle style="fill:#658390;" cx="226.28" cy="263.39" r="3.309"/>
		<circle style="fill:#658390;" cx="216.155" cy="317.793" r="3.309"/>
		<path style="fill:#658390;" d="M211.944,384.575c0,1.828-1.482,3.309-3.309,3.309c-1.828,0-3.309-1.482-3.309-3.309
			s1.482-3.309,3.309-3.309C210.462,381.266,211.944,382.747,211.944,384.575z"/>
		<circle style="fill:#658390;" cx="205.325" cy="439.406" r="3.309"/>
		
			<path style="fill:none;stroke:#658390;stroke-width:0.8358;stroke-linecap:round;stroke-linejoin:round;stroke-miterlimit:10;" d="
			M271.507,260.799c1.875-0.388,3.751-0.777,5.626-1.165"/>
		
			<path style="fill:none;stroke:#658390;stroke-width:0.8358;stroke-linecap:round;stroke-linejoin:round;stroke-miterlimit:10;" d="
			M282.765,313.34c2.028-0.33,4.057-0.66,6.085-0.99"/>
		
			<path style="fill:none;stroke:#658390;stroke-width:0.8358;stroke-linecap:round;stroke-linejoin:round;stroke-miterlimit:10;" d="
			M291.425,378.412c2.188-0.307,4.376-0.615,6.564-0.922"/>
		
			<path style="fill:none;stroke:#658390;stroke-width:0.8358;stroke-linecap:round;stroke-linejoin:round;stroke-miterlimit:10;" d="
			M291.425,442.938c2.188-0.148,4.376-0.297,6.564-0.445"/>
		<path style="fill:none;stroke:#5A3D25;stroke-width:0.9297;stroke-miterlimit:10;" d="M266.917,47.859
			c-3.719,4.051-9.586,5.378-15.085,5.429c-5.499,0.051-10.985-0.956-16.475-0.634c-10.208,0.598-20.023,6.062-25.91,14.422
			c-5.887,8.361-7.722,19.443-4.845,29.255"/>
		<path style="fill:none;stroke:#5A3D25;stroke-width:0.9297;stroke-miterlimit:10;" d="M268.62,40.303
			c-7.503,2.939-15.846,2.295-23.897,2.635c-10.156,0.43-20.431,2.585-29.151,7.81s-15.739,13.795-17.594,23.789"/>
		<path style="fill:none;stroke:#5A3D25;stroke-width:0.9297;stroke-miterlimit:10;" d="M270.854,35.189
			c-4.528-6.772-11.828-11.628-19.823-13.188c-7.995-1.559-16.585,0.198-23.326,4.771"/>
		<path style="fill:none;stroke:#5A3D25;stroke-width:0.9297;stroke-miterlimit:10;" d="M265.826,36.652
			c-20.41-6.193-43.764-1.619-60.33,11.816"/>
		<path style="fill:none;stroke:#5A3D25;stroke-width:0.9297;stroke-miterlimit:10;" d="M270.231,53.514
			c-0.624,2.328,0.447,4.825,2.046,6.629c1.599,1.804,3.681,3.093,5.589,4.566c9.06,6.999,14.186,18.787,13.126,30.187"/>
		<path style="fill:none;stroke:#5A3D25;stroke-width:0.9297;stroke-miterlimit:10;" d="M274.39,46.291
			c5.297,6.338,11.689,11.767,16.384,18.564c4.695,6.797,7.551,15.634,4.638,23.364"/>
		<path style="fill:none;stroke:#5A3D25;stroke-width:0.9297;stroke-miterlimit:10;" d="M293.98,54.401
			c-1.709-5.505-7.406-9.492-13.164-9.213"/>
		
			<path style="fill:none;stroke:#658390;stroke-width:0.8358;stroke-linecap:round;stroke-linejoin:round;stroke-miterlimit:10;" d="
			M136.633,275.007c-2.95,10.806-4.579,21.971-4.84,33.169"/>
		
			<path style="fill:none;stroke:#658390;stroke-width:0.8358;stroke-linecap:round;stroke-linejoin:round;stroke-miterlimit:10;" d="
			M130.596,350.519c1.366,7.025,5.104,13.404,9.649,18.931c4.545,5.528,9.91,10.313,15.096,15.246
			c2.193,2.086,4.552,4.906,3.613,7.783c-0.738,2.26-3.387,3.458-5.754,3.237c-2.367-0.221-4.482-1.54-6.385-2.966
			c-7.869-5.893-13.828-14.296-16.787-23.672"/>
		
			<path style="fill:none;stroke:#658390;stroke-width:0.8358;stroke-linecap:round;stroke-linejoin:round;stroke-miterlimit:10;" d="
			M128.762,392.255c3.866,6.579,10.808,11.262,18.357,12.382"/>
		
			<path style="fill:none;stroke:#658390;stroke-width:0.8358;stroke-linecap:round;stroke-linejoin:round;stroke-miterlimit:10;" d="
			M363.854,344.887c-8.17,9.38-19.505,15.955-31.704,18.389c-1.715,0.342-3.479,0.617-5.022,1.438
			c-1.543,0.821-2.856,2.33-2.894,4.078c-0.074,3.39,4.345,5.053,7.676,4.421c3.332-0.632,6.474-2.528,9.856-2.274"/>
		
			<path style="fill:none;stroke:#658390;stroke-width:0.8358;stroke-linecap:round;stroke-linejoin:round;stroke-miterlimit:10;" d="
			M361.997,332.109c-7.247,6.484-16.24,10.997-25.77,12.93"/>
		
			<path style="fill:none;stroke:#658390;stroke-width:0.8358;stroke-linecap:round;stroke-linejoin:round;stroke-miterlimit:10;" d="
			M358.937,286.074c-2.046,1.228-4.093,2.456-6.139,3.684"/>
		
			<path style="fill:none;stroke:#658390;stroke-width:0.8358;stroke-linecap:round;stroke-linejoin:round;stroke-miterlimit:10;" d="
			M377.389,440.788c-0.553,8.195-4.172,16.148-9.988,21.948c-5.816,5.801-13.778,9.398-21.974,9.93"/>
		
			<path style="fill:none;stroke:#658390;stroke-width:0.8358;stroke-linecap:round;stroke-linejoin:round;stroke-miterlimit:10;" d="
			M122.69,457.591c3.191,6.899,9.663,12.191,17.059,13.946"/>
		
			<path style="fill:none;stroke:#658390;stroke-width:0.8358;stroke-linecap:round;stroke-linejoin:round;stroke-miterlimit:10;" d="
			M125.739,439.543c0.829,5.345,5.021,10.017,10.246,11.416"/>
		
			<path style="fill:none;stroke:#658390;stroke-width:0.8358;stroke-linecap:round;stroke-linejoin:round;stroke-miterlimit:10;" d="
			M209.135,338.438c-13.414-0.14-26.584-7.065-34.303-18.036"/>
		<g>
			<path style="fill:#E09B7A;" d="M52.536,314.026c-10.98-0.368-21.195-7.874-25.558-17.956c-4.363-10.083-3.04-22.231,2.708-31.594
				c5.748-9.363,15.599-15.914,26.292-18.432c27.964-6.585,57.681-2.676,85.242-10.783c5.406-1.59,8.421-6.789,10.692-11.946
				c2.271-5.156,3.604-10.79,6.792-15.436c3.224-4.7,6.91-9.029,8.216-14.577c0.679-2.886,0.706-5.88,0.73-8.844
				c0.014-1.77,0.028-3.54,0.043-5.31c1.021-1.212,2.483-1.978,4.045-1.711c1.562,0.266,2.956,1.185,4.05,2.331
				c2.815,2.95,3.74,7.282,3.568,11.356s-1.307,8.037-2.073,12.043c-0.766,4.005-1.15,8.229,0.142,12.097
				c0.371,1.112,1.158,1.162,2.247,1.594c1.089,0.432,2.278,0.528,3.447,0.619c2.408,0.188,4.815,0.376,7.222,0.565
				c2.949,0.23,5.95,0.473,8.695,1.575c2.745,1.102,5.243,3.217,6.055,6.061c0.812,2.844-0.544,6.356-3.342,7.315
				c2.222,0.884,3.611,3.586,3.383,5.966c-0.228,2.38-2.157,4.496-4.506,4.942c2.912,1.449,4.74,4.791,4.37,8.022
				c-0.37,3.231-3.324,4.282-6.488,5.036c1.582,0.184,3.525,4.273,3.365,5.857c-0.161,1.584-1.292,2.934-2.637,3.787
				c-1.344,0.853-2.899,1.298-4.415,1.788c-4.479,1.449-8.802,3.384-12.867,5.759c-10.892,6.364-24.757-5.127-37.246-3.349
				c-19.331,2.752-36.231,13.444-53.411,22.722C78.202,300.599,67.413,314.525,52.536,314.026z"/>
			
				<path style="fill:none;stroke:#CB7E55;stroke-width:0.9757;stroke-linecap:round;stroke-linejoin:round;stroke-miterlimit:10;" d="
				M167.78,187.822c0.849,0.682,2.213,0.216,2.822-0.687c0.609-0.903,0.651-2.064,0.597-3.152c-0.098-2.007-0.453-4.012-1.194-5.88"
				/>
			
				<path style="fill:none;stroke:#CB7E55;stroke-width:0.9757;stroke-linecap:round;stroke-linejoin:round;stroke-miterlimit:10;" d="
				M186.315,244.006c3.877,0.014,7.753,0.028,11.63,0.042c1.414,0.005,2.864,0.004,4.191-0.485c1.327-0.489,2.527-1.578,2.734-2.977
				c0.226-1.527,0.433-3.052,0.02-4.539c-0.413-1.487-1.544-2.859-3.057-3.163"/>
			
				<path style="fill:none;stroke:#CB7E55;stroke-width:0.9757;stroke-linecap:round;stroke-linejoin:round;stroke-miterlimit:10;" d="
				M190.036,256.391c2.047,0.384,4.11,0.771,6.193,0.742c2.083-0.029,4.211-0.502,5.915-1.7c1.704-1.198,2.918-3.197,2.835-5.278
				c-0.1-2.516-1.964-4.592-3.896-6.206"/>
			
				<path style="fill:none;stroke:#CB7E55;stroke-width:0.9757;stroke-linecap:round;stroke-linejoin:round;stroke-miterlimit:10;" d="
				M171.822,215.038c8.56,1.939,17.252,3.291,25.996,4.044c0,0,4.699,0.604,6.743,5.263c0.532,1.334,0.288,6.787-1.107,7.732
				c-1.145,0.775-2.6,0.912-3.983,0.914c-4.08,0.007-8.158-0.945-12.214-0.501"/>
		</g>
		<g>
			<path style="fill:#E09B7A;" d="M450.779,314.026c10.98-0.368,21.195-7.874,25.558-17.956c4.363-10.083,3.04-22.231-2.708-31.594
				c-5.748-9.363-15.599-15.914-26.292-18.432c-27.964-6.585-57.681-2.676-85.243-10.783c-5.405-1.59-8.421-6.789-10.692-11.946
				c-2.271-5.156-3.604-10.79-6.792-15.436c-3.224-4.7-6.91-9.029-8.216-14.577c-0.679-2.886-0.706-5.88-0.73-8.844
				c-0.014-1.77-0.029-3.54-0.043-5.31c-1.021-1.212-2.483-1.978-4.045-1.711c-1.562,0.266-2.956,1.185-4.05,2.331
				c-2.815,2.95-3.74,7.282-3.568,11.356s1.307,8.037,2.073,12.043c0.766,4.005,1.15,8.229-0.142,12.097
				c-0.371,1.112-1.158,1.162-2.247,1.594c-1.089,0.432-2.278,0.528-3.447,0.619c-2.408,0.188-4.815,0.376-7.222,0.565
				c-2.949,0.23-5.95,0.473-8.695,1.575c-2.745,1.102-5.243,3.217-6.055,6.061c-0.812,2.844,0.544,6.356,3.342,7.315
				c-2.222,0.884-3.611,3.586-3.383,5.966c0.228,2.38,2.157,4.496,4.506,4.942c-2.912,1.449-4.74,4.791-4.37,8.022
				c0.37,3.231,3.324,4.282,6.488,5.036c-1.582,0.184-3.525,4.273-3.365,5.857c0.16,1.584,1.292,2.934,2.637,3.787
				c1.344,0.853,2.899,1.298,4.414,1.788c4.479,1.449,8.802,3.384,12.867,5.759c10.892,6.364,24.757-5.127,37.246-3.349
				c19.331,2.752,36.231,13.444,53.411,22.722C425.112,300.599,435.901,314.525,450.779,314.026z"/>
			
				<path style="fill:none;stroke:#CB7E55;stroke-width:0.9757;stroke-linecap:round;stroke-linejoin:round;stroke-miterlimit:10;" d="
				M335.534,187.822c-0.849,0.682-2.213,0.216-2.822-0.687s-0.651-2.064-0.598-3.152c0.098-2.007,0.453-4.012,1.194-5.88"/>
			
				<path style="fill:none;stroke:#CB7E55;stroke-width:0.9757;stroke-linecap:round;stroke-linejoin:round;stroke-miterlimit:10;" d="
				M316.999,244.006c-3.877,0.014-7.753,0.028-11.63,0.042c-1.414,0.005-2.864,0.004-4.191-0.485
				c-1.327-0.489-2.527-1.578-2.734-2.977c-0.226-1.527-0.433-3.052-0.02-4.539c0.413-1.487,1.544-2.859,3.057-3.163"/>
			
				<path style="fill:none;stroke:#CB7E55;stroke-width:0.9757;stroke-linecap:round;stroke-linejoin:round;stroke-miterlimit:10;" d="
				M313.278,256.391c-2.047,0.384-4.11,0.771-6.193,0.742c-2.083-0.029-4.211-0.502-5.915-1.7c-1.704-1.198-2.918-3.197-2.836-5.278
				c0.1-2.516,1.964-4.592,3.896-6.206"/>
			
				<path style="fill:none;stroke:#CB7E55;stroke-width:0.9757;stroke-linecap:round;stroke-linejoin:round;stroke-miterlimit:10;" d="
				M331.492,215.038c-8.56,1.939-17.252,3.291-25.996,4.044c0,0-4.699,0.604-6.743,5.263c-0.532,1.334-0.288,6.787,1.107,7.732
				c1.145,0.775,2.6,0.912,3.983,0.914c4.081,0.007,8.158-0.945,12.214-0.501"/>
		</g>
		
			<path style="fill:none;stroke:#CB7E55;stroke-width:0.9757;stroke-linecap:round;stroke-linejoin:round;stroke-miterlimit:10;" d="
			M198.867,256.966c1.718,1.87,3.566,4.304,2.718,6.698c-0.635,1.791-2.54,2.743-4.275,3.517c-3.521,1.572-7.043,3.143-10.564,4.715
			c-4.059,1.812-8.234,3.652-12.673,3.891c-9.786,0.526-19.033-6.784-28.688-5.103"/>
	</g>
</g>
</svg>
