<?xml version="1.0" encoding="utf-8"?>
<!-- Generator: Adobe Illustrator 27.5.0, SVG Export Plug-In . SVG Version: 6.00 Build 0)  -->
<svg version="1.1" xmlns="http://www.w3.org/2000/svg" xmlns:xlink="http://www.w3.org/1999/xlink" x="0px" y="0px"
	 viewBox="0 0 500 500" style="enable-background:new 0 0 500 500;" xml:space="preserve">
<g id="BACKGROUND">
	<g>
		<rect style="fill:#F5F2EE;" width="500" height="500"/>
	</g>
</g>
<g id="OBJECTS">
	<g>
		<g>
			<g>
				<path style="fill:#E6D7D4;" d="M82.754,204.689c5.574-23.11,18.869-43.832,38.106-58.412
					c13.432-10.18,31.17-18.541,51.363-15.431c45.082,6.942,92.978,68.949,143.242,59.251c50.264-9.698,90.693,29.871,84.047,92.342
					c-6.646,62.471-117.046,111.156-214.977,84.117C100.39,343.324,67.236,269.026,82.754,204.689z"/>
			</g>
		</g>
		<g>
			<g>
				<g>
					<path style="fill:#E6D7D4;" d="M404.952,158.81c0,0-4.597-15.707-14.557-14.557c-9.961,1.149-11.493,5.746-19.921,2.299
						c-8.428-3.448-11.493-14.558-25.284-11.876c-13.791,2.682-15.324,18.005-31.031,16.856c-15.707-1.149-21.07-1.532-26.816,7.279
						H404.952L404.952,158.81z"/>
				</g>
			</g>
			<g>
				<g>
					<path style="fill:#E6D7D4;" d="M216.106,97.538c0,0-6.301-13.932-23.506-9.779c-17.01,4.106-24.338-20.256-39.484-18.689
						c-15.147,1.567-13.779,11.064-33.104,14.198c-19.325,3.134-20.856,0-28.996,14.27H216.106z"/>
				</g>
			</g>
		</g>
		<g>
			<g>
				<path style="fill:#E6D7D4;" d="M402.145,304.89c0.59,0,1.133-0.391,1.298-0.988c5.146-18.516,6.719-35.967,4.674-51.869
					c-1.641-12.76-5.6-24.552-11.767-35.05c-10.52-17.906-23.647-25.723-24.201-26.047c-0.643-0.376-1.469-0.16-1.845,0.483
					c-0.376,0.642-0.16,1.468,0.482,1.844l0,0c0.13,0.077,13.159,7.86,23.313,25.213c9.368,16.009,18.142,43.7,6.745,84.703
					c-0.199,0.717,0.221,1.461,0.938,1.66C401.903,304.874,402.025,304.89,402.145,304.89z"/>
			</g>
		</g>
		<g>
			<g>
				<path style="fill:#E6D7D4;" d="M93.457,166.146c0.418,0,0.83-0.193,1.094-0.558c20.683-28.575,43.019-37.57,58.114-40.083
					c16.284-2.712,27.777,1.302,27.891,1.343c0.7,0.251,1.473-0.114,1.724-0.815c0.251-0.701-0.114-1.473-0.815-1.724
					c-0.493-0.177-12.275-4.29-29.243-1.464c-9.94,1.655-19.592,5.37-28.687,11.041c-11.329,7.064-21.815,17.198-31.17,30.122
					c-0.437,0.603-0.302,1.446,0.302,1.883C92.907,166.063,93.183,166.146,93.457,166.146z"/>
			</g>
		</g>
		<g>
			<g>
				<path style="fill:#E6D7D4;" d="M140.987,363.086c0.484,0,0.952-0.261,1.194-0.719c0.348-0.659,0.096-1.474-0.563-1.822
					c-20.255-10.689-34.829-28.001-43.489-40.642c-9.395-13.713-14.028-24.999-14.073-25.112c-0.28-0.69-1.067-1.022-1.757-0.741
					c-0.69,0.281-1.022,1.067-0.741,1.757c0.047,0.115,4.79,11.67,14.347,25.62c8.831,12.892,23.713,30.556,44.455,41.503
					C140.559,363.035,140.774,363.086,140.987,363.086z"/>
			</g>
		</g>
	</g>
	<g>
		<g>
			<g>
				<g>
					<g>
						<g>
							<g>
								<path style="fill:#FF9F87;" d="M78.276,177.203c-3.384,0.08-18.339-7.339-23.602-12.119
									c-2.543-2.309-1.067-8.83,1.136-14.958c2.612-7.253,9.971-11.655,17.612-10.624c0.835,0.113,1.614,0.206,2.295,0.27
									c2.471,0.234,6.582-1.788,10.259-3.684c0.357-0.186,0.711-0.37,1.058-0.548c2.952-1.533,5.469-2.824,6.379-2.531
									c2.117,0.679,1.483,3.688-1.687,6.886c-3.171,3.197-9.112,6.233-9.112,6.233s11.713,4.493,14.368,9.037
									c2.149,3.677-1.114,5.526-2.445,6.1c-0.314,0.136-0.521,0.202-0.521,0.202s0.253,0.355,0.507,0.916c0,0,0,0,0.001,0.003
									c0.467,1.038,0.935,2.778-0.181,4.297c-1.115,1.52-2.374,2.045-3.123,2.227c-0.402,0.099-0.656,0.096-0.656,0.096
									s0.043,0.224-0.011,0.596c-0.104,0.705-0.564,1.94-2.348,3.162c-1.634,1.119-3.229,1.195-4.245,1.075
									c-0.677-0.079-1.094-0.243-1.094-0.243s-0.062,0.188-0.203,0.478C82.194,175.036,80.881,177.14,78.276,177.203z"/>
							</g>
						</g>
					</g>
					<g>
						<g>
							<g>
								<path style="fill:#FF7E6A;" d="M85.975,136.088c0.357-0.186,0.711-0.37,1.058-0.548c0.927,0.333,2.166,0.493,3.533-0.1
									c0.504-0.218,1.024-0.54,1.553-0.992c0.196-0.171,0.494-0.146,0.662,0.051c0.171,0.196,0.146,0.494-0.051,0.662
									C90.023,137.475,87.442,136.823,85.975,136.088z"/>
							</g>
						</g>
					</g>
					<g>
						<g>
							<g>
								<path style="fill:#FF7E6A;" d="M87.896,156.726c-0.096-0.221-0.008-0.483,0.208-0.6c2.278-1.235,1.742-3.869,1.718-3.981
									c-0.054-0.254,0.107-0.504,0.36-0.559c0.253-0.055,0.504,0.103,0.559,0.358c0.26,1.181,0.137,3.748-2.189,5.009
									c-0.228,0.124-0.514,0.039-0.638-0.189C87.908,156.751,87.901,156.738,87.896,156.726z"/>
							</g>
						</g>
					</g>
					<g>
						<g>
							<g>
								<path style="fill:#FF7E6A;" d="M84.397,163.692c-0.104-0.238,0.006-0.516,0.244-0.619c1.978-0.858,1.589-3.339,1.585-3.364
									c-0.043-0.256,0.13-0.499,0.387-0.542c0.256-0.043,0.499,0.13,0.541,0.387c0.186,1.114-0.022,3.464-2.138,4.382
									C84.777,164.04,84.5,163.93,84.397,163.692z"/>
							</g>
						</g>
					</g>
					<g>
						<g>
							<g>
								<path style="fill:#FF7E6A;" d="M79.397,169.356c-0.002-0.006-0.005-0.011-0.007-0.017c-0.094-0.242,0.026-0.515,0.268-0.609
									c2.571-1,2.548-2.69,2.546-2.761c-0.008-0.258,0.193-0.477,0.45-0.487c0.257-0.011,0.476,0.184,0.489,0.443
									c0.005,0.098,0.09,2.424-3.145,3.683C79.762,169.699,79.497,169.587,79.397,169.356z"/>
							</g>
						</g>
					</g>
					<g>
						<g>
							<g>
								<path style="fill:#FF7E6A;" d="M73.474,174.36c-0.017-0.039-0.029-0.081-0.035-0.125c-0.035-0.258,0.146-0.494,0.404-0.529
									c2.167-0.291,2.613-2.429,2.617-2.451c0.05-0.255,0.298-0.421,0.552-0.371c0.255,0.05,0.421,0.298,0.371,0.553
									c-0.192,0.975-1.153,2.898-3.415,3.202C73.755,174.667,73.556,174.548,73.474,174.36z"/>
							</g>
						</g>
					</g>
					<g>
						<g>
							<g>
								<path style="fill:#FF7E6A;" d="M94.522,162.383c-1.698-1.141-3.619-2.212-3.646-2.227c-0.094-0.051-0.163-0.131-0.203-0.223
									c-0.056-0.13-0.055-0.284,0.021-0.416c0.126-0.229,0.413-0.309,0.638-0.184c0.099,0.056,1.647,0.92,3.204,1.933
									c-0.314,0.136-0.521,0.202-0.521,0.202S94.268,161.822,94.522,162.383z"/>
							</g>
						</g>
					</g>
					<g>
						<g>
							<g>
								<path style="fill:#FF7E6A;" d="M90.552,169.602c-1.478-0.949-2.899-1.741-2.921-1.752c-0.094-0.051-0.164-0.134-0.203-0.223
									c-0.056-0.13-0.055-0.284,0.02-0.419c0.127-0.226,0.414-0.306,0.639-0.182c0.098,0.053,1.599,0.889,3.131,1.883
									c-0.402,0.099-0.656,0.096-0.656,0.096S90.606,169.23,90.552,169.602z"/>
							</g>
						</g>
					</g>
					<g>
						<g>
							<g>
								<path style="fill:#FF7E6A;" d="M82.662,174.074c-0.986-0.721-1.697-1.312-1.757-1.364c-0.058-0.047-0.101-0.107-0.128-0.17
									c-0.069-0.158-0.047-0.352,0.073-0.493c0.167-0.199,0.463-0.225,0.663-0.055c0.017,0.016,1.095,0.916,2.446,1.848
									c-0.677-0.079-1.094-0.243-1.094-0.243S82.803,173.783,82.662,174.074z"/>
							</g>
						</g>
					</g>
				</g>
				<g>
					<g>
						<path style="fill:#FF9F87;" d="M40.983,131.744c2.601,1.536,6.044,3.234,9.546,4.844c1.386,0.637,2.784,1.259,4.14,1.852
							c6.14,2.684,11.471,4.755,11.471,4.755L54.768,162.81l-9.993-3.869l-7.731-2.991L0,142.375v-34.51
							C0,107.865,32.689,126.842,40.983,131.744z"/>
					</g>
				</g>
				<g>
					<g>
						<path style="fill:#FF7E6A;" d="M37.044,155.95l13.485-19.362c1.386,0.637,2.784,1.259,4.14,1.852l-9.895,20.5L37.044,155.95z"
							/>
					</g>
				</g>
			</g>
			<g>
				<g>
					<path style="fill:#7393FF;" d="M59.643,139.75l-10.358,22.453c-0.237,0.514-0.847,0.739-1.361,0.502l-5.706-2.632
						c-0.514-0.237-0.739-0.846-0.502-1.36l10.323-22.469c0.237-0.515,0.847-0.741,1.362-0.503l5.74,2.648
						C59.656,138.626,59.88,139.236,59.643,139.75z"/>
				</g>
				<g>
					<path style="fill:#7393FF;" d="M58.46,153.597l0.591-1.281c1.151-2.495,0.883-5.414-0.702-7.658l-0.814-1.152
						c-1.585-2.244-4.247-3.472-6.983-3.221l-1.405,0.129c-2.736,0.251-5.131,1.942-6.281,4.437l-0.591,1.281
						c-1.151,2.495-0.883,5.414,0.702,7.658l0.814,1.152c1.585,2.244,4.247,3.472,6.983,3.221l1.405-0.129
						C54.914,157.783,57.309,156.092,58.46,153.597z"/>
				</g>
				<g>
					<path style="fill:#5D74D9;" d="M49.572,142.884l1.011-0.093c1.968-0.18,3.884,0.703,5.024,2.318l0.586,0.829
						c1.141,1.615,1.333,3.715,0.505,5.51l-0.425,0.922c-0.828,1.795-2.551,3.012-4.519,3.192l-1.011,0.093
						c-1.968,0.18-3.884-0.703-5.024-2.318l-0.586-0.829c-1.14-1.615-1.333-3.715-0.505-5.51l0.425-0.922
						C45.88,144.281,47.603,143.064,49.572,142.884z"/>
				</g>
			</g>
		</g>
		<g>
			<g>
				<g>
					<g>
						<g>
							<path style="fill:#FF9F87;" d="M95.847,275.759c-2.95,1.66-19.637,2.134-26.529,0.386c-3.33-0.844-5.089-7.294-6.022-13.74
								c-1.101-7.63,3.329-14.972,10.559-17.65c0.79-0.293,1.522-0.576,2.153-0.84c2.292-0.954,4.971-4.67,7.327-8.071
								c0.228-0.332,0.454-0.661,0.677-0.981c1.886-2.74,3.503-5.062,4.443-5.231c2.187-0.395,3.042,2.559,1.745,6.871
								c-1.297,4.312-5.118,9.782-5.118,9.782s12.451-1.535,16.929,1.23c3.624,2.237,1.612,5.402,0.706,6.534
								c-0.213,0.267-0.365,0.423-0.365,0.423s0.39,0.195,0.877,0.57c0,0,0,0,0.002,0.002c0.9,0.697,2.13,2.013,1.859,3.879
								c-0.271,1.865-1.136,2.921-1.712,3.433c-0.308,0.276-0.534,0.393-0.534,0.393s0.143,0.178,0.27,0.532
								c0.239,0.672,0.414,1.978-0.588,3.895c-0.917,1.756-2.289,2.572-3.243,2.943c-0.635,0.248-1.08,0.299-1.08,0.299
								s0.033,0.195,0.045,0.517C98.288,272.005,98.117,274.48,95.847,275.759z"/>
						</g>
					</g>
					<g>
						<g>
							<path style="fill:#FF7E6A;" d="M83.334,235.845c0.228-0.332,0.454-0.661,0.677-0.981c0.975-0.142,2.144-0.582,3.072-1.747
								c0.342-0.429,0.65-0.958,0.905-1.605c0.093-0.243,0.368-0.361,0.608-0.265c0.243,0.093,0.361,0.368,0.265,0.608
								C87.559,235.168,84.975,235.804,83.334,235.845z"/>
						</g>
					</g>
					<g>
						<g>
							<path style="fill:#FF7E6A;" d="M94.723,253.162c-0.189-0.15-0.234-0.423-0.099-0.628c1.431-2.16-0.279-4.234-0.353-4.321
								c-0.167-0.198-0.143-0.495,0.055-0.663c0.198-0.168,0.493-0.145,0.662,0.053c0.784,0.921,1.882,3.244,0.42,5.451
								c-0.143,0.217-0.435,0.276-0.652,0.132C94.745,253.179,94.734,253.171,94.723,253.162z"/>
						</g>
					</g>
					<g>
						<g>
							<path style="fill:#FF7E6A;" d="M94.905,260.955c-0.203-0.162-0.237-0.458-0.075-0.661c1.343-1.686-0.165-3.694-0.181-3.714
								c-0.158-0.206-0.119-0.502,0.087-0.66c0.206-0.158,0.501-0.12,0.66,0.087c0.687,0.897,1.607,3.069,0.17,4.873
								C95.404,261.084,95.108,261.117,94.905,260.955z"/>
						</g>
					</g>
					<g>
						<g>
							<path style="fill:#FF7E6A;" d="M93.151,268.305c-0.005-0.004-0.009-0.008-0.014-0.012c-0.197-0.17-0.219-0.467-0.05-0.664
								c1.8-2.09,0.987-3.572,0.951-3.634c-0.128-0.224-0.054-0.511,0.169-0.642c0.222-0.131,0.507-0.061,0.64,0.161
								c0.051,0.084,1.218,2.098-1.047,4.729C93.635,268.436,93.348,268.461,93.151,268.305z"/>
						</g>
					</g>
					<g>
						<g>
							<path style="fill:#FF7E6A;" d="M90.273,275.504c-0.033-0.026-0.063-0.058-0.089-0.094c-0.152-0.211-0.103-0.505,0.108-0.656
								c1.776-1.275,1.166-3.372,1.159-3.393c-0.075-0.249,0.065-0.511,0.314-0.587c0.248-0.075,0.511,0.065,0.587,0.314
								c0.288,0.951,0.343,3.1-1.511,4.431C90.665,275.643,90.433,275.632,90.273,275.504z"/>
						</g>
					</g>
					<g>
						<g>
							<path style="fill:#FF7E6A;" d="M103.229,255.044c-2.035-0.209-4.234-0.253-4.265-0.254c-0.107-0.001-0.205-0.039-0.284-0.102
								c-0.11-0.088-0.182-0.225-0.177-0.377c0.004-0.262,0.219-0.467,0.477-0.463c0.114,0.003,1.886,0.039,3.737,0.202
								c-0.213,0.267-0.365,0.423-0.365,0.423S102.742,254.669,103.229,255.044z"/>
						</g>
					</g>
					<g>
						<g>
							<path style="fill:#FF7E6A;" d="M103.115,263.283c-1.751-0.143-3.377-0.176-3.401-0.175c-0.107-0.001-0.208-0.041-0.284-0.102
								c-0.11-0.088-0.182-0.225-0.179-0.379c0.006-0.26,0.222-0.465,0.479-0.461c0.112,0.001,1.83,0.034,3.649,0.192
								c-0.308,0.276-0.534,0.393-0.534,0.393S102.988,262.929,103.115,263.283z"/>
						</g>
					</g>
					<g>
						<g>
							<path style="fill:#FF7E6A;" d="M98.249,270.936c-1.209-0.173-2.114-0.361-2.192-0.379c-0.073-0.014-0.139-0.047-0.193-0.09
								c-0.135-0.107-0.207-0.289-0.167-0.47c0.054-0.254,0.303-0.416,0.56-0.36c0.023,0.006,1.397,0.295,3.028,0.483
								c-0.635,0.248-1.08,0.299-1.08,0.299S98.238,270.613,98.249,270.936z"/>
						</g>
					</g>
				</g>
				<g>
					<path style="fill:#FF9F87;" d="M69.16,251.435l-0.828,22.658l-10.64,1.277l-8.227,0.99l-0.37,0.045l-7.375,0.888l-9.243,1.11
						l-7.545,0.905L0,282.305V253.21c0,0,17.89-0.283,30.927-0.243c1.048,0.005,2.065,0.01,3.04,0.018
						c2.238,0.018,4.248,0.048,5.885,0.095l0.6,0.018c0.4,0.012,0.775,0.027,1.12,0.042c0.728,0.033,1.505,0.05,2.315,0.055
						c2.555,0.017,5.468-0.09,8.388-0.26c1.522-0.09,3.05-0.197,4.525-0.31C63.482,252.11,69.16,251.435,69.16,251.435z"/>
				</g>
				<g>
					<path style="fill:#FF7E6A;" d="M49.095,276.405l-7.375,0.888c-2.535-7.49-2.15-19.43-1.868-24.213l0.6,0.018l3.435,0.098
						L49.095,276.405z"/>
				</g>
				<g>
					<path style="fill:#FF7E6A;" d="M33.967,252.985l-1.49,25.417l-7.545,0.905l5.995-26.34
						C31.975,252.973,32.992,252.977,33.967,252.985z"/>
				</g>
				<g>
					<path style="fill:#5D74D9;" d="M32.083,252.191c0,0-3.25,15.892-2.75,26.975c0,0,3.5,1.667,6.75-0.083
						c0,0,0.917-22.25,2.75-26.417C38.833,252.667,35.5,250.659,32.083,252.191z"/>
				</g>
				<g>
					<path style="fill:#FF495C;" d="M40.75,252.191c0,0,1.273,14.945,5.833,25.059c0,0,3.788,1.285,5.917-0.834
						c0,0-6.167-20-5.085-24.225C47.415,252.191,43.359,249.505,40.75,252.191z"/>
				</g>
			</g>
		</g>
		<g>
			<g>
				<g>
					<g>
						<g>
							<path style="fill:#FF9F87;" d="M401.083,189.459c3.384,0.07,18.318-7.392,23.567-12.188c2.537-2.316,1.042-8.833-1.18-14.955
								c-2.633-7.245-10.005-11.626-17.643-10.572c-0.835,0.115-1.614,0.211-2.294,0.276c-2.47,0.242-6.587-1.769-10.27-3.654
								c-0.358-0.185-0.712-0.368-1.06-0.545c-2.957-1.525-5.478-2.808-6.387-2.512c-2.115,0.685-1.473,3.693,1.707,6.881
								c3.18,3.188,9.13,6.206,9.13,6.206s-11.7,4.527-14.341,9.079c-2.138,3.683,1.13,5.523,2.463,6.093
								c0.314,0.135,0.522,0.2,0.522,0.2s-0.252,0.356-0.504,0.917c0,0,0,0-0.001,0.003c-0.464,1.04-0.927,2.78,0.193,4.297
								c1.12,1.517,2.38,2.039,3.13,2.217c0.402,0.098,0.656,0.094,0.656,0.094s-0.042,0.224,0.013,0.596
								c0.106,0.705,0.569,1.938,2.357,3.155c1.638,1.114,3.232,1.186,4.248,1.063c0.677-0.081,1.093-0.247,1.093-0.247
								s0.063,0.188,0.204,0.477C397.159,187.303,398.478,189.403,401.083,189.459z"/>
						</g>
					</g>
					<g>
						<g>
							<path style="fill:#FF7E6A;" d="M393.264,148.367c-0.358-0.185-0.712-0.368-1.06-0.545c-0.926,0.336-2.165,0.499-3.533-0.09
								c-0.504-0.217-1.026-0.537-1.556-0.987c-0.197-0.17-0.494-0.144-0.661,0.053c-0.17,0.197-0.145,0.494,0.053,0.661
								C389.22,149.765,391.799,149.105,393.264,148.367z"/>
						</g>
					</g>
					<g>
						<g>
							<path style="fill:#FF7E6A;" d="M391.403,169.009c0.095-0.222,0.007-0.483-0.209-0.6c-2.282-1.228-1.754-3.864-1.73-3.976
								c0.054-0.254-0.108-0.504-0.362-0.558c-0.254-0.054-0.503,0.105-0.558,0.36c-0.257,1.182-0.126,3.748,2.204,5.003
								c0.229,0.123,0.514,0.038,0.637-0.191C391.392,169.035,391.398,169.022,391.403,169.009z"/>
						</g>
					</g>
					<g>
						<g>
							<path style="fill:#FF7E6A;" d="M394.923,175.965c0.103-0.239-0.008-0.515-0.246-0.618c-1.98-0.852-1.598-3.334-1.594-3.359
								c0.042-0.257-0.132-0.498-0.388-0.54c-0.256-0.042-0.499,0.131-0.54,0.388c-0.183,1.115,0.032,3.464,2.151,4.376
								C394.543,176.314,394.82,176.204,394.923,175.965z"/>
						</g>
					</g>
					<g>
						<g>
							<path style="fill:#FF7E6A;" d="M399.939,181.615c0.002-0.006,0.005-0.011,0.007-0.017c0.093-0.243-0.027-0.515-0.27-0.608
								c-2.574-0.993-2.556-2.682-2.554-2.754c0.007-0.258-0.194-0.476-0.452-0.486c-0.258-0.01-0.475,0.186-0.488,0.444
								c-0.005,0.098-0.083,2.425,3.156,3.674C399.575,181.959,399.84,181.846,399.939,181.615z"/>
						</g>
					</g>
					<g>
						<g>
							<path style="fill:#FF7E6A;" d="M405.876,186.601c0.017-0.039,0.029-0.081,0.034-0.125c0.034-0.258-0.148-0.494-0.405-0.528
								c-2.168-0.285-2.62-2.422-2.624-2.443c-0.051-0.255-0.299-0.42-0.554-0.369c-0.255,0.051-0.42,0.299-0.369,0.554
								c0.195,0.974,1.162,2.895,3.424,3.192C405.596,186.91,405.795,186.79,405.876,186.601z"/>
						</g>
					</g>
					<g>
						<g>
							<path style="fill:#FF7E6A;" d="M384.794,174.685c1.695-1.145,3.613-2.222,3.64-2.238c0.094-0.052,0.163-0.132,0.202-0.224
								c0.056-0.13,0.054-0.284-0.022-0.416c-0.127-0.229-0.414-0.308-0.639-0.183c-0.099,0.056-1.644,0.925-3.199,1.943
								c0.314,0.135,0.522,0.2,0.522,0.2S385.046,174.124,384.794,174.685z"/>
						</g>
					</g>
					<g>
						<g>
							<path style="fill:#FF7E6A;" d="M388.785,181.893c1.475-0.953,2.894-1.749,2.916-1.761c0.094-0.052,0.164-0.135,0.202-0.224
								c0.056-0.13,0.054-0.284-0.021-0.419c-0.128-0.226-0.415-0.305-0.64-0.18c-0.098,0.053-1.597,0.894-3.126,1.892
								c0.402,0.098,0.656,0.094,0.656,0.094S388.73,181.521,388.785,181.893z"/>
						</g>
					</g>
					<g>
						<g>
							<path style="fill:#FF7E6A;" d="M396.688,186.342c0.984-0.724,1.693-1.317,1.754-1.369c0.058-0.047,0.101-0.107,0.128-0.17
								c0.068-0.158,0.046-0.352-0.075-0.493c-0.167-0.198-0.464-0.223-0.663-0.053c-0.017,0.016-1.092,0.92-2.441,1.856
								c0.677-0.081,1.093-0.247,1.093-0.247S396.546,186.052,396.688,186.342z"/>
						</g>
					</g>
				</g>
				<g>
					<path style="fill:#FF9F87;" d="M500,112.25v32.22l-34.275,14.018l-9.24,3.777l-14.233,5.82l-7.722,3.015l-9.98,3.897
						l-11.43-19.583c0,0,5.325-2.085,11.457-4.787c1.355-0.598,2.75-1.223,4.135-1.865c3.497-1.62,6.865-3.452,9.53-4.87
						c2.703-1.438,7.005-3.675,12.117-6.31c1.335-0.688,2.725-1.403,4.155-2.137C473.612,125.63,500,112.25,500,112.25z"/>
				</g>
				<g>
					<path style="fill:#FF7E6A;" d="M465.725,158.488l-9.24,3.777l-6.125-24.682c1.335-0.688,2.725-1.403,4.155-2.137
						L465.725,158.488z"/>
				</g>
				<polygon style="fill:#21191B;" points="450.36,131.625 462.044,163.739 500,148.419 500,108.335 				"/>
			</g>
		</g>
		<g>
			<g>
				<g>
					<g>
						<g>
							<g>
								<path style="fill:#FF9F87;" d="M118.416,399.415c-1.296,3.127-14.131,13.802-20.633,16.681
									c-3.141,1.392-8.506-2.596-13.219-7.091c-5.576-5.323-6.624-13.834-2.589-20.404c0.441-0.718,0.841-1.393,1.175-1.99
									c1.214-2.165,1.028-6.743,0.782-10.872c-0.025-0.402-0.051-0.8-0.073-1.189c-0.208-3.32-0.369-6.144,0.267-6.858
									c1.477-1.661,3.973,0.136,5.614,4.329c1.641,4.193,2.013,10.855,2.013,10.855s8.848-8.894,14.078-9.483
									c4.232-0.477,4.603,3.255,4.589,4.704c-0.003,0.342-0.026,0.558-0.026,0.558s0.427-0.088,1.042-0.093c0,0,0,0,0.003,0
									c1.139-0.007,2.918,0.269,3.857,1.904c0.938,1.635,0.91,2.999,0.772,3.757c-0.072,0.407-0.177,0.639-0.177,0.639
									s0.222,0.052,0.541,0.252c0.603,0.381,1.546,1.301,1.942,3.427c0.362,1.947-0.213,3.436-0.734,4.317
									c-0.346,0.587-0.665,0.902-0.665,0.902s0.146,0.133,0.355,0.379C118.019,394.955,119.412,397.007,118.416,399.415z"/>
							</g>
						</g>
					</g>
					<g>
						<g>
							<g>
								<path style="fill:#FF7E6A;" d="M83.932,375.739c-0.025-0.402-0.051-0.8-0.073-1.189c0.68-0.713,1.327-1.781,1.338-3.271
									c0.004-0.549-0.079-1.155-0.278-1.821c-0.077-0.248,0.067-0.511,0.315-0.584c0.248-0.077,0.511,0.066,0.584,0.315
									C86.837,372.598,85.197,374.694,83.932,375.739z"/>
							</g>
						</g>
					</g>
					<g>
						<g>
							<g>
								<path style="fill:#FF7E6A;" d="M103.582,382.332c-0.241-0.002-0.445-0.188-0.465-0.433
									c-0.208-2.583-2.833-3.159-2.945-3.182c-0.254-0.053-0.418-0.301-0.366-0.555c0.052-0.254,0.298-0.419,0.554-0.367
									c1.185,0.24,3.483,1.391,3.695,4.029c0.021,0.259-0.172,0.486-0.431,0.507C103.609,382.332,103.596,382.332,103.582,382.332
									z"/>
							</g>
						</g>
					</g>
					<g>
						<g>
							<g>
								<path style="fill:#FF7E6A;" d="M108.536,388.35c-0.26-0.002-0.469-0.214-0.467-0.474c0.016-2.156-2.41-2.804-2.435-2.81
									c-0.252-0.065-0.403-0.321-0.339-0.573c0.065-0.251,0.32-0.404,0.573-0.339c1.094,0.281,3.159,1.422,3.142,3.729
									C109.008,388.143,108.796,388.352,108.536,388.35z"/>
							</g>
						</g>
					</g>
					<g>
						<g>
							<g>
								<path style="fill:#FF7E6A;" d="M111.693,395.215c-0.006,0-0.012,0-0.018,0c-0.26-0.012-0.461-0.232-0.449-0.491
									c0.126-2.756-1.429-3.419-1.495-3.446c-0.239-0.097-0.358-0.369-0.263-0.609c0.094-0.24,0.361-0.361,0.603-0.269
									c0.092,0.035,2.254,0.898,2.096,4.366C112.155,395.019,111.945,395.217,111.693,395.215z"/>
							</g>
						</g>
					</g>
					<g>
						<g>
							<g>
								<path style="fill:#FF7E6A;" d="M113.873,402.655c-0.042,0-0.086-0.006-0.128-0.019c-0.25-0.073-0.393-0.334-0.32-0.583
									c0.61-2.099-1.164-3.372-1.183-3.385c-0.213-0.149-0.264-0.443-0.115-0.655c0.149-0.213,0.443-0.264,0.655-0.116
									c0.813,0.57,2.184,2.227,1.546,4.418C114.268,402.523,114.078,402.657,113.873,402.655z"/>
							</g>
						</g>
					</g>
					<g>
						<g>
							<g>
								<path style="fill:#FF7E6A;" d="M111.436,378.562c-1.73,1.091-3.487,2.415-3.512,2.434c-0.085,0.065-0.186,0.096-0.286,0.095
									c-0.141-0.001-0.282-0.065-0.372-0.188c-0.159-0.208-0.116-0.503,0.089-0.658c0.091-0.068,1.508-1.134,3.065-2.148
									c-0.003,0.342-0.026,0.558-0.026,0.558S110.821,378.567,111.436,378.562z"/>
							</g>
						</g>
					</g>
					<g>
						<g>
							<g>
								<path style="fill:#FF7E6A;" d="M116.431,385.113c-1.466,0.968-2.765,1.947-2.784,1.962
									c-0.085,0.065-0.189,0.096-0.286,0.095c-0.141-0.001-0.282-0.065-0.375-0.188c-0.155-0.208-0.112-0.503,0.093-0.658
									c0.088-0.068,1.46-1.103,2.989-2.102c-0.072,0.407-0.177,0.639-0.177,0.639S116.113,384.913,116.431,385.113z"/>
							</g>
						</g>
					</g>
					<g>
						<g>
							<g>
								<path style="fill:#FF7E6A;" d="M117.328,394.138c-1.058,0.61-1.886,1.021-1.959,1.055c-0.066,0.034-0.138,0.049-0.207,0.049
									c-0.173-0.001-0.341-0.1-0.422-0.267c-0.114-0.233-0.018-0.514,0.218-0.629c0.022-0.009,1.281-0.63,2.68-1.489
									c-0.346,0.587-0.665,0.902-0.665,0.902S117.12,393.891,117.328,394.138z"/>
							</g>
						</g>
					</g>
				</g>
				<g>
					<g>
						<path style="fill:#FF9F87;" d="M61.755,415.126c2.457-1.757,5.403-4.218,8.292-6.77c1.143-1.01,2.278-2.036,3.369-3.037
							c4.939-4.529,8.989-8.566,8.989-8.566l13.337,18.336l-7.582,7.573l-5.863,5.859l-43.309,43.267L19.558,446.6
							C19.558,446.6,53.916,420.727,61.755,415.126z"/>
					</g>
				</g>
			</g>
			<g>
				<g>
					<polygon style="fill:#FFFFFF;" points="68.218,407.981 74.682,402.142 91.114,420.801 85.787,426.008 					"/>
				</g>
			</g>
			<g>
				<g>
					<polygon style="fill:#FF495C;" points="14.798,500 87.193,426.31 68.387,405.964 0,460.012 0,500 					"/>
				</g>
			</g>
			<g>
				<g>
					<path style="fill:#E13139;" d="M45.626,462.917c-0.054-0.062-0.094-0.138-0.113-0.224c-2.006-9.228,0.334-19.495,2.651-26.483
						c2.504-7.552,5.523-13.014,5.553-13.068c0.134-0.241,0.439-0.328,0.68-0.194c0.241,0.134,0.328,0.439,0.194,0.68
						c-0.119,0.214-11.854,21.595-8.101,38.853c0.059,0.27-0.112,0.536-0.382,0.595C45.924,463.115,45.742,463.049,45.626,462.917z"
						/>
				</g>
			</g>
			<g>
				<g>
					<path style="fill:#E13139;" d="M70.516,438.454c-0.961,0.847-2.427,0.754-3.274-0.208c-0.847-0.961-0.754-2.427,0.208-3.274
						c0.961-0.847,2.427-0.754,3.274,0.208C71.571,436.142,71.478,437.607,70.516,438.454z"/>
				</g>
			</g>
			<g>
				<g>
					<path style="fill:#E13139;" d="M77.944,431.19c-0.961,0.847-2.427,0.754-3.274-0.208c-0.847-0.961-0.754-2.427,0.208-3.274
						c0.961-0.847,2.427-0.754,3.274,0.208C78.998,428.877,78.905,430.343,77.944,431.19z"/>
				</g>
			</g>
		</g>
		<g>
			<g>
				<g>
					<g>
						<g>
							<g>
								<path style="fill:#FF9F87;" d="M377.985,288.864c2.841,1.841,19.465,3.357,26.453,2.042
									c3.376-0.634,5.535-6.962,6.869-13.337c1.575-7.546-2.387-15.151-9.436-18.275c-0.771-0.341-1.483-0.67-2.096-0.973
									c-2.227-1.095-4.67-4.971-6.808-8.512c-0.207-0.345-0.412-0.688-0.614-1.021c-1.711-2.853-3.18-5.271-4.108-5.498
									c-2.158-0.531-3.196,2.365-2.17,6.749c1.025,4.384,4.497,10.083,4.497,10.083s-12.331-2.31-16.973,0.17
									c-3.756,2.006-1.946,5.291-1.113,6.477c0.196,0.28,0.338,0.445,0.338,0.445s-0.402,0.17-0.911,0.514c0,0,0,0-0.003,0.002
									c-0.942,0.639-2.251,1.876-2.097,3.755c0.154,1.879,0.951,2.986,1.494,3.533c0.29,0.295,0.508,0.426,0.508,0.426
									s-0.154,0.169-0.303,0.514c-0.28,0.655-0.536,1.948,0.344,3.924c0.806,1.81,2.124,2.71,3.052,3.14
									c0.618,0.287,1.059,0.365,1.059,0.365s-0.045,0.192-0.077,0.513C375.783,284.965,375.799,287.446,377.985,288.864z"/>
							</g>
						</g>
					</g>
					<g>
						<g>
							<g>
								<path style="fill:#FF7E6A;" d="M392.966,249.809c-0.207-0.345-0.412-0.688-0.614-1.021
									c-0.964-0.202-2.103-0.715-2.957-1.936c-0.315-0.45-0.589-0.996-0.803-1.658c-0.078-0.248-0.344-0.383-0.59-0.303
									c-0.248,0.078-0.383,0.344-0.303,0.591C388.792,248.87,391.331,249.666,392.966,249.809z"/>
							</g>
						</g>
					</g>
					<g>
						<g>
							<g>
								<path style="fill:#FF7E6A;" d="M380.518,266.382c0.198-0.138,0.26-0.407,0.138-0.62c-1.294-2.245,0.543-4.208,0.622-4.291
									c0.179-0.188,0.173-0.485-0.014-0.665c-0.187-0.18-0.483-0.176-0.664,0.012c-0.84,0.87-2.081,3.121-0.76,5.414
									c0.13,0.225,0.417,0.303,0.642,0.173C380.495,266.397,380.507,266.39,380.518,266.382z"/>
							</g>
						</g>
					</g>
					<g>
						<g>
							<g>
								<path style="fill:#FF7E6A;" d="M379.849,274.148c0.213-0.149,0.265-0.442,0.116-0.655c-1.235-1.767,0.396-3.676,0.413-3.695
									c0.171-0.196,0.15-0.493-0.046-0.664c-0.196-0.171-0.493-0.151-0.664,0.046c-0.742,0.852-1.796,2.962-0.474,4.853
									C379.343,274.245,379.636,274.297,379.849,274.148z"/>
							</g>
						</g>
					</g>
					<g>
						<g>
							<g>
								<path style="fill:#FF7E6A;" d="M381.141,281.593c0.005-0.004,0.01-0.007,0.015-0.011c0.207-0.157,0.248-0.452,0.091-0.659
									c-1.666-2.199-0.762-3.626-0.722-3.686c0.142-0.215,0.085-0.507-0.128-0.651c-0.214-0.144-0.502-0.092-0.649,0.121
									c-0.056,0.081-1.347,2.018,0.749,4.785C380.65,281.693,380.935,281.737,381.141,281.593z"/>
							</g>
						</g>
					</g>
					<g>
						<g>
							<g>
								<path style="fill:#FF7E6A;" d="M383.564,288.958c0.035-0.024,0.067-0.054,0.095-0.088c0.164-0.201,0.134-0.498-0.067-0.662
									c-1.693-1.383-0.953-3.438-0.945-3.459c0.091-0.244-0.033-0.514-0.276-0.605s-0.515,0.033-0.605,0.276
									c-0.347,0.931-0.536,3.073,1.232,4.516C383.164,289.072,383.396,289.075,383.564,288.958z"/>
							</g>
						</g>
					</g>
					<g>
						<g>
							<g>
								<path style="fill:#FF7E6A;" d="M371.911,267.729c2.044-0.082,4.241,0.012,4.273,0.013c0.107,0.005,0.207-0.026,0.29-0.084
									c0.116-0.081,0.195-0.213,0.2-0.365c0.013-0.261-0.19-0.48-0.447-0.491c-0.114-0.005-1.885-0.079-3.742-0.032
									c0.196,0.28,0.338,0.445,0.338,0.445S372.42,267.384,371.911,267.729z"/>
							</g>
						</g>
					</g>
					<g>
						<g>
							<g>
								<path style="fill:#FF7E6A;" d="M371.51,275.958c1.756-0.034,3.381,0.036,3.406,0.038c0.107,0.006,0.21-0.028,0.29-0.084
									c0.116-0.081,0.195-0.213,0.202-0.367c0.01-0.259-0.192-0.478-0.449-0.489c-0.111-0.006-1.828-0.08-3.654-0.037
									c0.29,0.295,0.508,0.426,0.508,0.426S371.659,275.613,371.51,275.958z"/>
							</g>
						</g>
					</g>
					<g>
						<g>
							<g>
								<path style="fill:#FF7E6A;" d="M375.888,283.9c1.218-0.097,2.133-0.228,2.212-0.241c0.074-0.01,0.142-0.038,0.198-0.078
									c0.141-0.099,0.225-0.276,0.196-0.459c-0.038-0.257-0.277-0.434-0.536-0.395c-0.023,0.005-1.413,0.207-3.052,0.293
									c0.618,0.287,1.059,0.365,1.059,0.365S375.92,283.579,375.888,283.9z"/>
							</g>
						</g>
					</g>
				</g>
				<g>
					<g>
						<path style="fill:#FF9F87;" d="M433.565,269.68c-3.02-0.055-6.842-0.411-10.669-0.875c-1.514-0.184-3.031-0.386-4.497-0.591
							c-6.636-0.931-12.262-1.959-12.262-1.959l-0.589,22.666l10.539,1.939l8.152,1.503l60.207,11.085l3.961-31.747
							C488.407,271.701,443.199,269.849,433.565,269.68z"/>
					</g>
				</g>
			</g>
			<g>
				<g>
					<polygon style="fill:#FFFFFF;" points="424.191,267.459 415.556,266.314 412.599,291 419.94,292.269 					"/>
				</g>
			</g>
			<g>
				<g>
					<polygon style="fill:#7393FF;" points="500,271.182 500,309.25 498.602,308.975 495.05,308.275 495.047,308.275 
						492.532,307.783 492.53,307.783 484.622,306.228 482.845,305.878 478.6,305.043 476.085,304.547 468.87,303.13 468.867,303.13 
						467.09,302.78 462.152,301.81 462.15,301.81 459.64,301.315 453.112,300.033 451.332,299.682 445.71,298.575 443.195,298.08 
						443.192,298.08 437.355,296.932 435.575,296.582 429.262,295.342 429.26,295.342 426.75,294.848 418.952,293.315 
						419.575,288.997 419.83,287.23 421.242,277.432 421.497,275.665 422.817,266.515 422.907,265.892 424.222,265.983 
						437.417,266.888 439.097,267.003 440.165,267.078 440.167,267.078 443.29,267.29 443.292,267.29 452.292,267.91 
						453.972,268.025 460.595,268.478 463.717,268.693 467.167,268.93 468.845,269.045 481.025,269.88 482.042,269.95 
						483.717,270.065 483.72,270.065 484.145,270.095 496.915,270.97 496.917,270.97 498.592,271.085 					"/>
				</g>
			</g>
			<g>
				<g>
					<g>
						<polygon style="fill:#5D74D9;" points="437.355,296.932 435.575,296.582 434.105,293.115 433.517,291.735 430.27,284.078 
							429.682,282.698 426.438,275.045 426.438,275.043 425.85,273.663 422.817,266.515 422.907,265.892 424.222,265.983 
							427.215,273.035 427.8,274.415 427.8,274.418 431.047,282.07 431.635,283.45 434.882,291.105 435.47,292.487 						"/>
					</g>
				</g>
				<g>
					<g>
						<polygon style="fill:#5D74D9;" points="453.112,300.033 451.332,299.682 450.022,296.592 449.435,295.21 446.188,287.555 
							445.602,286.175 442.352,278.52 441.767,277.14 438.52,269.485 437.932,268.105 437.417,266.888 439.097,267.003 
							439.297,267.475 439.885,268.858 443.132,276.51 443.717,277.892 446.967,285.547 447.552,286.927 450.8,294.582 
							451.387,295.965 						"/>
					</g>
				</g>
				<g>
					<g>
						<polygon style="fill:#5D74D9;" points="468.867,303.13 467.09,302.78 465.937,300.068 465.352,298.688 462.105,291.033 
							461.517,289.65 458.27,281.997 457.685,280.617 454.435,272.962 453.85,271.58 452.292,267.91 453.972,268.025 
							455.215,270.953 455.8,272.335 455.802,272.335 459.05,279.99 459.635,281.37 462.882,289.022 463.47,290.405 466.717,298.06 
							467.302,299.44 						"/>
					</g>
				</g>
				<g>
					<g>
						<polygon style="fill:#5D74D9;" points="484.622,306.228 482.845,305.878 481.855,303.545 481.27,302.163 478.022,294.51 
							478.02,294.51 477.435,293.128 474.187,285.475 473.6,284.092 470.352,276.44 469.767,275.06 467.167,268.93 468.845,269.045 
							471.13,274.432 471.715,275.813 474.962,283.465 475.55,284.848 478.797,292.5 479.385,293.883 482.632,301.538 
							483.217,302.918 						"/>
					</g>
				</g>
				<g>
					<g>
						<polygon style="fill:#5D74D9;" points="500,308.435 500,309.25 498.602,308.975 497.772,307.022 497.187,305.64 
							493.94,297.987 493.937,297.987 493.352,296.605 490.105,288.95 489.517,287.57 486.27,279.918 485.685,278.535 
							482.437,270.88 482.042,269.95 483.717,270.065 483.72,270.065 483.8,270.255 487.047,277.908 487.632,279.29 490.88,286.943 
							491.467,288.325 494.715,295.978 495.3,297.36 498.55,305.015 499.135,306.395 						"/>
					</g>
				</g>
				<g>
					<g>
						<polygon style="fill:#5D74D9;" points="500,274.4 500,278.237 498.355,274.358 498.352,274.358 497.767,272.975 
							496.917,270.97 498.592,271.085 499.13,272.35 499.715,273.733 						"/>
					</g>
				</g>
			</g>
			<g>
				<g>
					<g>
						<polygon style="fill:#5D74D9;" points="440.167,267.078 443.29,267.29 439.885,268.858 438.52,269.485 427.8,274.415 
							427.8,274.418 426.438,275.043 426.438,275.045 421.242,277.432 421.497,275.665 425.85,273.663 427.215,273.035 
							437.932,268.105 439.297,267.475 440.165,267.078 						"/>
					</g>
				</g>
				<g>
					<g>
						<polygon style="fill:#5D74D9;" points="460.595,268.478 463.717,268.693 455.802,272.335 455.8,272.335 454.435,272.962 
							443.717,277.892 442.352,278.52 431.635,283.45 430.27,284.078 419.575,288.997 419.83,287.23 429.682,282.698 
							431.047,282.07 441.767,277.14 443.132,276.51 453.85,271.58 455.215,270.953 						"/>
					</g>
				</g>
				<g>
					<g>
						<polygon style="fill:#5D74D9;" points="484.145,270.095 483.8,270.255 482.437,270.88 471.715,275.813 470.352,276.44 
							459.635,281.37 458.27,281.997 447.552,286.927 446.188,287.555 435.47,292.487 434.105,293.115 429.262,295.342 
							429.26,295.342 426.75,294.848 433.517,291.735 434.882,291.105 445.602,286.175 446.967,285.547 457.685,280.617 
							459.05,279.99 469.767,275.06 471.13,274.432 481.025,269.88 482.042,269.95 483.717,270.065 483.72,270.065 						"/>
					</g>
				</g>
				<g>
					<g>
						<polygon style="fill:#5D74D9;" points="500,271.95 500,273.603 499.715,273.733 498.355,274.358 498.352,274.358 
							487.632,279.29 486.27,279.918 475.55,284.848 474.187,285.475 463.47,290.405 462.105,291.033 451.387,295.965 
							450.022,296.592 445.71,298.575 443.195,298.08 449.435,295.21 450.8,294.582 461.517,289.65 462.882,289.022 473.6,284.092 
							474.962,283.465 485.685,278.535 487.047,277.908 497.767,272.975 499.13,272.35 						"/>
					</g>
				</g>
				<g>
					<g>
						<polygon style="fill:#5D74D9;" points="500,282.747 500,284.397 491.467,288.325 490.105,288.95 479.385,293.883 
							478.022,294.51 478.02,294.51 467.302,299.44 465.937,300.068 462.152,301.81 462.15,301.81 459.64,301.315 465.352,298.688 
							466.717,298.06 477.435,293.128 478.797,292.5 489.517,287.57 490.88,286.943 						"/>
					</g>
				</g>
				<g>
					<g>
						<polygon style="fill:#5D74D9;" points="494.715,295.978 500,293.547 500,295.198 495.3,297.36 493.94,297.987 
							493.937,297.987 483.217,302.918 481.855,303.545 478.6,305.043 476.085,304.547 481.27,302.163 482.632,301.538 
							493.352,296.605 						"/>
					</g>
				</g>
				<g>
					<g>
						<polygon style="fill:#5D74D9;" points="498.55,305.015 500,304.348 500,305.997 499.135,306.395 497.772,307.022 
							495.05,308.275 495.047,308.275 492.532,307.783 497.187,305.64 						"/>
					</g>
				</g>
			</g>
		</g>
		<g>
			<g>
				<g>
					<g>
						<g>
							<g>
								<path style="fill:#FF9F87;" d="M379.58,397.231c0.837,3.28,12.02,15.675,18.045,19.451c2.91,1.825,8.79-1.358,14.095-5.135
									c6.278-4.474,8.528-12.749,5.471-19.827c-0.334-0.774-0.634-1.499-0.88-2.137c-0.893-2.316-0.057-6.82,0.775-10.873
									c0.082-0.394,0.164-0.785,0.242-1.167c0.679-3.257,1.241-6.029,0.714-6.826c-1.225-1.855-3.952-0.432-6.174,3.484
									c-2.222,3.917-3.539,10.457-3.539,10.457s-7.49-10.064-12.583-11.392c-4.12-1.076-5.02,2.566-5.213,4.002
									c-0.046,0.339-0.054,0.556-0.054,0.556s-0.41-0.148-1.018-0.24c0,0,0,0-0.003,0c-1.126-0.169-2.927-0.15-4.089,1.335
									c-1.162,1.484-1.328,2.839-1.3,3.609c0.013,0.413,0.084,0.657,0.084,0.657s-0.227,0.02-0.571,0.172
									c-0.651,0.291-1.716,1.067-2.41,3.115c-0.636,1.876-0.279,3.432,0.111,4.378c0.259,0.63,0.53,0.987,0.53,0.987
									s-0.164,0.111-0.405,0.325C380.609,392.873,378.937,394.705,379.58,397.231z"/>
							</g>
						</g>
					</g>
					<g>
						<g>
							<g>
								<path style="fill:#FF7E6A;" d="M417.086,378.71c0.082-0.394,0.164-0.785,0.242-1.167c-0.571-0.803-1.06-1.952-0.858-3.428
									c0.074-0.544,0.243-1.132,0.535-1.763c0.111-0.235,0.007-0.515-0.228-0.623c-0.235-0.111-0.515-0.007-0.623,0.228
									C414.658,375.188,415.983,377.496,417.086,378.71z"/>
							</g>
						</g>
					</g>
					<g>
						<g>
							<g>
								<path style="fill:#FF7E6A;" d="M396.697,382.436c0.239,0.033,0.468-0.122,0.522-0.362c0.574-2.527,3.255-2.723,3.369-2.73
									c0.259-0.016,0.456-0.239,0.441-0.498c-0.016-0.259-0.236-0.457-0.496-0.442c-1.207,0.069-3.646,0.88-4.232,3.461
									c-0.058,0.253,0.101,0.505,0.355,0.563C396.67,382.432,396.684,382.434,396.697,382.436z"/>
							</g>
						</g>
					</g>
					<g>
						<g>
							<g>
								<path style="fill:#FF7E6A;" d="M390.936,387.687c0.257,0.035,0.495-0.145,0.53-0.403c0.292-2.136,2.786-2.432,2.811-2.434
									c0.258-0.028,0.445-0.26,0.417-0.518c-0.028-0.258-0.26-0.445-0.519-0.417c-1.123,0.122-3.329,0.957-3.641,3.243
									C390.498,387.415,390.678,387.652,390.936,387.687z"/>
							</g>
						</g>
					</g>
					<g>
						<g>
							<g>
								<path style="fill:#FF7E6A;" d="M386.832,394.031c0.006,0.001,0.012,0.001,0.018,0.002c0.259,0.025,0.489-0.164,0.514-0.422
									c0.268-2.745,1.901-3.18,1.971-3.197c0.25-0.062,0.407-0.314,0.348-0.565c-0.059-0.251-0.306-0.408-0.558-0.352
									c-0.096,0.022-2.359,0.568-2.697,4.023C386.404,393.772,386.583,393.997,386.832,394.031z"/>
							</g>
						</g>
					</g>
					<g>
						<g>
							<g>
								<path style="fill:#FF7E6A;" d="M383.615,401.085c0.042,0.006,0.086,0.006,0.129,0c0.257-0.036,0.437-0.274,0.4-0.531
									c-0.305-2.165,1.633-3.172,1.653-3.182c0.232-0.117,0.325-0.4,0.208-0.632s-0.401-0.325-0.632-0.208
									c-0.886,0.448-2.479,1.893-2.16,4.153C383.243,400.898,383.412,401.058,383.615,401.085z"/>
							</g>
						</g>
					</g>
					<g>
						<g>
							<g>
								<path style="fill:#FF7E6A;" d="M389.461,377.585c1.557,1.327,3.107,2.887,3.129,2.909c0.075,0.077,0.17,0.121,0.27,0.135
									c0.14,0.019,0.288-0.024,0.395-0.133c0.186-0.183,0.186-0.481,0.005-0.664c-0.081-0.081-1.331-1.337-2.727-2.563
									c-0.046,0.339-0.054,0.556-0.054,0.556S390.069,377.677,389.461,377.585z"/>
							</g>
						</g>
					</g>
					<g>
						<g>
							<g>
								<path style="fill:#FF7E6A;" d="M383.582,383.357c1.313,1.167,2.46,2.321,2.476,2.339c0.075,0.077,0.173,0.122,0.27,0.135
									c0.14,0.019,0.288-0.024,0.398-0.133c0.183-0.184,0.183-0.482,0.002-0.664c-0.078-0.08-1.288-1.3-2.659-2.506
									c0.013,0.413,0.084,0.657,0.084,0.657S383.926,383.205,383.582,383.357z"/>
							</g>
						</g>
					</g>
					<g>
						<g>
							<g>
								<path style="fill:#FF7E6A;" d="M381.408,392.162c0.961,0.755,1.721,1.28,1.788,1.324c0.061,0.043,0.13,0.068,0.198,0.078
									c0.171,0.023,0.352-0.05,0.455-0.204c0.146-0.214,0.091-0.507-0.126-0.654c-0.021-0.012-1.178-0.807-2.441-1.856
									c0.259,0.63,0.53,0.987,0.53,0.987S381.65,391.948,381.408,392.162z"/>
							</g>
						</g>
					</g>
				</g>
				<g>
					<g>
						<path style="fill:#FF9F87;" d="M500,486.9V500h-34.735l-54.084-68.812l-3.241-4.329l-1.728-2.307l-3.281-4.379l-2.274-3.036
							l-0.87-1.16l15.816-16.247c0,0,0.885,1.178,2.31,3.019c0.634,0.812,1.373,1.759,2.19,2.79
							c0.966,1.222,2.042,2.562,3.175,3.947c0.687,0.839,1.392,1.694,2.11,2.548c0.263,0.312,0.526,0.626,0.792,0.938
							c2.497,2.937,5.061,5.792,7.242,7.884C438.694,425.9,477.362,464.368,500,486.9z"/>
					</g>
				</g>
				<g>
					<g>
						<path style="fill:#FF7E6A;" d="M411.181,431.188l14.999-18.214c-0.987-1.162-1.964-2.34-2.902-3.486l-17.065,15.065
							L411.181,431.188z"/>
					</g>
				</g>
			</g>
			<g>
				<g>
					<g>
						<path style="fill:#7393FF;" d="M420.674,405.053l-18.82,16.038c-0.431,0.367-0.483,1.015-0.115,1.446l4.075,4.782
							c0.367,0.431,1.014,0.483,1.445,0.116l18.845-16.009c0.432-0.367,0.484-1.016,0.117-1.447l-4.1-4.812
							C421.753,404.737,421.105,404.685,420.674,405.053z"/>
					</g>
				</g>
				<g>
					<g>
						<path style="fill:#7393FF;" d="M406.329,411.069l3.74-3.187c1.266-1.079,3.012-1.401,4.579-0.844l4.63,1.645
							c1.568,0.557,2.719,1.908,3.02,3.544l0.89,4.833c0.301,1.636-0.293,3.309-1.559,4.388l-3.74,3.187
							c-1.266,1.079-3.012,1.401-4.579,0.844l-4.63-1.645c-1.568-0.557-2.719-1.908-3.02-3.544l-0.89-4.833
							C404.468,413.82,405.063,412.148,406.329,411.069z"/>
					</g>
				</g>
				<g>
					<g>
						<path style="fill:#5D74D9;" d="M420.378,415.596l-0.184-0.999c-0.358-1.944-1.726-3.549-3.589-4.211l-0.957-0.34
							c-1.863-0.662-3.937-0.28-5.442,1.002l-0.773,0.659c-1.504,1.282-2.211,3.269-1.853,5.213l0.184,0.999
							c0.358,1.944,1.726,3.549,3.589,4.211l0.957,0.34c1.863,0.662,3.937,0.28,5.442-1.002l0.772-0.658
							C420.03,419.527,420.736,417.54,420.378,415.596z"/>
					</g>
				</g>
			</g>
		</g>
	</g>
	<g>
		<g>
			<path style="fill:#FF9F87;" d="M319.862,455c0,0-1.126,14.006-5.251,26.761c-4.125,12.755-5.716,15.15-5.716,15.15
				S289,447.401,319.862,455z"/>
		</g>
		<g>
			<g>
				<polygon style="fill:#21191B;" points="308.313,500 315.998,459.188 244.202,461.623 240.828,500 				"/>
			</g>
		</g>
		<g>
			<g>
				<g>
					<path style="fill:#21191B;" d="M254.412,500c5.752-20.167,9.814-34.368,9.814-34.368l-77.125-20.613L178.902,500H254.412z"/>
				</g>
			</g>
			<g>
				<g>
					<g>
						<g>
							<g>
								<g>
									<g>
										<g>
											<path style="fill:#3F3538;" d="M191.878,500l6.748-45.375c0.118-0.795-0.43-1.536-1.225-1.654
												c-0.798-0.119-1.536,0.43-1.654,1.225L188.935,500H191.878z"/>
										</g>
									</g>
								</g>
							</g>
						</g>
					</g>
				</g>
			</g>
		</g>
		<g>
			<g>
				<g>
					<path style="fill:#E13139;" d="M318.049,460.269c3.562-0.748,6.277-3.652,6.829-7.25c3.775-24.645,0.901-72.085-3.628-104.106
						c-8.563-60.545-19.935-148.326-19.935-148.326c-7.542,40.801-12.164,208.192-0.565,257.531
						C306.804,460.475,312.608,461.412,318.049,460.269z"/>
				</g>
				<g>
					<g>
						<path style="fill:#FF495C;" d="M313.882,407.475c-0.222-2.328-0.445-4.673-0.667-7.035c-0.085-0.832-0.16-1.665-0.238-2.497
							c-0.217-2.225-0.435-4.462-0.645-6.693c-0.11-1.147-0.217-2.293-0.325-3.435c-0.11-1.203-0.23-2.4-0.332-3.592
							c-0.063-0.663-0.12-1.335-0.182-1.997c-0.057-0.61-0.112-1.22-0.16-1.837c-0.135-1.448-0.262-2.893-0.375-4.33
							c-0.04-0.375-0.07-0.758-0.102-1.13c-0.03-0.382-0.058-0.765-0.093-1.14c-0.165-1.985-0.32-3.948-0.462-5.893
							c-0.073-0.965-0.142-1.93-0.205-2.882c-0.058-0.775-0.108-1.545-0.155-2.31c-0.015-0.24-0.028-0.48-0.045-0.72
							c-0.027-0.478-0.057-0.953-0.085-1.425c-0.05-0.775-0.098-1.557-0.138-2.327c-0.032-0.663-0.067-1.325-0.095-1.975
							c-0.04-0.788-0.08-1.563-0.115-2.333c-0.07-1.62-0.125-3.205-0.165-4.762c-0.063-2.478-0.092-4.867-0.075-7.155
							c0.013-1.25,0.035-2.465,0.075-3.652c0.01-0.375,0.023-0.763,0.033-1.152c0.017-0.815,0.035-1.653,0.04-2.515
							c0.03-3.12-0.005-6.52-0.085-10.155c-0.018-0.867-0.04-1.758-0.068-2.652c0-0.045,0-0.098-0.008-0.143
							c-0.015-0.81-0.04-1.632-0.068-2.465c-0.027-0.895-0.057-1.807-0.085-2.732c-0.005-0.035-0.005-0.063-0.005-0.103
							c-0.012-0.342-0.025-0.685-0.035-1.033c-0.017-0.4-0.03-0.797-0.045-1.198c-0.013-0.382-0.035-0.76-0.048-1.135
							c-0.04-1.113-0.085-2.238-0.125-3.372c-0.045-1.113-0.098-2.235-0.142-3.365c-0.027-0.742-0.057-1.495-0.09-2.242
							c-0.075-1.975-0.16-3.982-0.247-6.008c-0.015-0.41-0.028-0.815-0.045-1.227c-0.01-0.335-0.027-0.678-0.04-1.015
							c-0.103-2.465-0.2-4.957-0.295-7.473c-0.025-0.792-0.053-1.58-0.08-2.38c-0.025-0.73-0.057-1.455-0.08-2.19
							c-0.023-0.792-0.053-1.587-0.075-2.375c0-0.067-0.005-0.13-0.005-0.192c-0.03-0.97-0.058-1.945-0.08-2.915
							c-0.022-0.6-0.035-1.205-0.053-1.802c-0.12-4.605-0.2-9.22-0.222-13.79c-0.01-1.603-0.01-3.2,0.007-4.785
							c0-0.297,0.005-0.595,0.005-0.885c0.063-9.247-0.327-20.192-0.337-28.347c-0.033-25.55-10.142-43.027-32.405-50.245
							l-16.955-5.5c-5.943-1.923-12.39-1.488-18.033,1.2c-9.77,4.65-25.475,12.857-37.14,22.505
							c-1.455,1.205-2.847,2.43-4.157,3.678c-5.703,5.413-9.848,11.173-10.84,16.94c-0.245,1.415-0.525,3.497-0.833,6.185
							c-0.165,1.455-0.347,3.098-0.53,4.895c-1.222,11.86-2.745,30.782-4.125,52.903c-0.035,0.597-0.075,1.202-0.11,1.82
							c-0.112,1.803-0.222,3.628-0.335,5.475c-0.04,0.725-0.08,1.46-0.125,2.203c-0.04,0.783-0.087,1.57-0.137,2.362
							c-0.058,1.01-0.115,2.02-0.173,3.04c-0.04,0.788-0.085,1.575-0.13,2.372c-0.035,0.732-0.075,1.455-0.115,2.185
							c-0.035,0.64-0.062,1.285-0.097,1.925c-0.055,1.055-0.113,2.115-0.165,3.182c-0.035,0.605-0.063,1.21-0.09,1.82
							c-0.133,2.585-0.258,5.19-0.383,7.815c-0.182,3.97-0.36,7.975-0.525,11.997c-0.022,0.633-0.052,1.268-0.075,1.9
							c-0.05,1.415-0.102,2.83-0.152,4.25c-0.088,2.243-0.168,4.49-0.248,6.738c-0.152,4.775-0.295,9.555-0.415,14.307
							c-0.045,2.05-0.097,4.092-0.137,6.128c-0.013,0.515-0.018,1.022-0.028,1.535c-0.03,1.49-0.052,2.967-0.087,4.445
							c-0.005,0.285-0.005,0.565-0.01,0.845c-0.018,0.985-0.035,1.968-0.045,2.955c-0.013,1.087-0.03,2.168-0.04,3.245
							c-0.013,1.147-0.018,2.288-0.03,3.423c-0.018,1.985-0.028,3.96-0.028,5.917c-0.005,0.708-0.005,1.408-0.005,2.11v1.825
							c0,1.05,0.005,2.083,0.01,3.12c0.013,3.14,0.04,6.225,0.085,9.255c0.023,1.688,0.058,3.36,0.098,5.015
							c0.012,0.69,0.03,1.375,0.045,2.057c0.018,0.707,0.035,1.422,0.057,2.117c0.863,30.453,3.703,53.188,9.87,56.712
							c19.967,11.405,109.227,12.758,122.725,5.678C318.8,467.057,316.827,438.865,313.882,407.475z M188.662,378.953l-6.917-27.203
							c3.621-11.857,7.742-23.349,12.36-34.475L188.662,378.953z"/>
					</g>
				</g>
				<g>
					<g>
						<path style="fill:#E13139;" d="M212.966,396.59c-0.694,0-1.29-0.524-1.366-1.229c-0.081-0.755,0.466-1.432,1.221-1.513l0,0
							c0.149-0.016,15.134-1.714,31.813-10.92c15.333-8.463,35.299-25.211,43.345-56.936c0.187-0.736,0.935-1.181,1.671-0.995
							c0.736,0.186,1.182,0.935,0.995,1.671c-3.663,14.444-10.018,27.111-18.889,37.65c-7.098,8.433-15.809,15.522-25.89,21.072
							c-17.152,9.442-32.123,11.126-32.752,11.193C213.064,396.587,213.014,396.59,212.966,396.59z"/>
					</g>
				</g>
				<g>
					<g>
						<g>
							<path style="fill:#E13139;" d="M276.056,201.804c0.136,1.579-1.033,2.969-2.612,3.106c-1.579,0.137-2.969-1.033-3.106-2.611
								c-0.136-1.579,1.033-2.969,2.612-3.106C274.529,199.055,275.92,200.225,276.056,201.804z"/>
						</g>
					</g>
				</g>
				<g>
					<g>
						<g>
							<path style="fill:#E13139;" d="M277.18,214.808c0.136,1.579-1.033,2.969-2.612,3.106c-1.579,0.137-2.969-1.033-3.106-2.612
								c-0.136-1.579,1.033-2.969,2.612-3.105C275.653,212.06,277.043,213.229,277.18,214.808z"/>
						</g>
					</g>
				</g>
				<g>
					<g>
						<g>
							<path style="fill:#E13139;" d="M278.612,231.388c0.136,1.579-1.033,2.969-2.612,3.106c-1.579,0.136-2.969-1.033-3.106-2.612
								c-0.136-1.579,1.033-2.969,2.612-3.106C277.085,228.64,278.476,229.809,278.612,231.388z"/>
						</g>
					</g>
				</g>
				<g>
					<g>
						<g>
							<path style="fill:#E13139;" d="M274.849,195.356c-0.017,0.001-0.035,0.002-0.052,0.003
								c-20.611,0.796-36.586-10.913-37.255-11.411c-0.505-0.376-0.61-1.09-0.234-1.596c0.376-0.506,1.091-0.611,1.596-0.235
								c0.158,0.117,16.021,11.726,35.805,10.962c0.63-0.024,1.16,0.466,1.184,1.096
								C275.917,194.787,275.454,195.305,274.849,195.356z"/>
						</g>
					</g>
				</g>
				<g>
					<g>
						<g>
							<g>
								<g>
									<path style="fill:#E13139;" d="M207.872,443.198c0.123,0,0.248-0.02,0.371-0.062c0.596-0.205,0.913-0.854,0.708-1.45
										c-10.693-31.103-21.598-63.659-27.206-89.935c7.936-27.3,25.77-66.264,43.018-103.948c0.262-0.573,0.011-1.25-0.563-1.512
										c-0.573-0.262-1.25-0.01-1.512,0.562c-17.342,37.887-35.273,77.064-43.215,104.539c-0.053,0.18-0.059,0.37-0.02,0.554
										c5.616,26.45,16.585,59.202,27.339,90.483C206.956,442.901,207.399,443.198,207.872,443.198z"/>
								</g>
							</g>
						</g>
					</g>
				</g>
				<g>
					<g>
						<g>
							<g>
								<g>
									<g>
										<path style="fill:#E13139;" d="M216.348,265.039c0.221,0,0.445-0.064,0.642-0.198l12.552-8.557
											c0.52-0.355,0.654-1.064,0.3-1.585c-0.354-0.521-1.065-0.656-1.586-0.3l-12.552,8.557
											c-0.52,0.355-0.654,1.065-0.299,1.585C215.625,264.864,215.983,265.039,216.348,265.039z"/>
									</g>
								</g>
							</g>
						</g>
					</g>
				</g>
				<g>
					<g>
						<g>
							<g>
								<g>
									<g>
										<path style="fill:#E13139;" d="M240.058,438.501c12.481,0,24.312-2.307,33.549-4.843
											c16.847-4.626,28.946-11.003,29.066-11.066c0.711-0.378,0.981-1.26,0.604-1.971c-0.377-0.711-1.26-0.98-1.971-0.604
											c-0.47,0.249-47.448,24.794-86.417,11.751c-0.767-0.255-1.59,0.156-1.846,0.919c-0.255,0.763,0.157,1.59,0.92,1.845
											C222.543,437.405,231.456,438.501,240.058,438.501z"/>
									</g>
								</g>
							</g>
						</g>
					</g>
				</g>
				<g>
					<g>
						<g>
							<g>
								<g>
									<g>
										<path style="fill:#E13139;" d="M251.289,452.167c6.774,0,13.707-0.701,19.242-2.815c0.752-0.288,1.129-1.13,0.842-1.882
											c-0.288-0.752-1.133-1.127-1.882-0.842c-15.348,5.86-43.495-0.004-43.776-0.064c-0.786-0.169-1.561,0.336-1.728,1.124
											c-0.167,0.787,0.336,1.561,1.123,1.728C225.89,449.582,238.294,452.167,251.289,452.167z"/>
									</g>
								</g>
							</g>
						</g>
					</g>
				</g>
			</g>
			<g>
				<g>
					<g>
						<g>
							<g>
								<g>
									<g>
										<path style="fill:#FF495C;" d="M228.357,231.653l-0.015,0.026c-2.336,4.962-4.708,10.073-7.039,15.128l-6.956,15.241
											c-4.6,10.171-9.132,20.363-13.541,30.565c-4.403,10.197-8.703,20.42-12.688,30.57c-1.98,5.065-3.892,10.125-5.577,15.024
											c-0.837,2.439-1.613,4.842-2.248,7.044c-0.305,1.08-0.6,2.15-0.785,2.972c-0.057,0.232-0.093,0.403-0.129,0.574
											l-0.057,0.258c-0.005,0.015-0.005,0.021-0.005,0.026v-0.016c0-0.01-0.005-0.021-0.01-0.031
											c-0.005-0.005-0.01-0.016-0.016-0.016v0.052c-0.01,0.072-0.026,0.14-0.046,0.212c0,0.289-0.047,0.501-0.036,0.915
											c0.005,0.191-0.01,0.357,0,0.574l0.021,0.656c0.01,0.429,0.067,0.961,0.088,1.442l0.155,1.587
											c0.248,2.186,0.636,4.584,1.096,7.034c0.925,4.92,2.16,10.073,3.504,15.246c2.724,10.368,5.949,20.89,9.36,31.382
											c3.421,10.502,7.06,21.004,10.827,31.47c1.881,5.236,3.804,10.466,5.752,15.681l2.946,7.809l2.972,7.721l0.104,0.258
											c2.977,7.768-0.625,16.59-8.316,20.006c-7.944,3.525-17.247-0.057-20.771-8.001l-3.499-7.882l-3.416-7.84
											c-2.258-5.23-4.486-10.476-6.682-15.737c-4.388-10.528-8.662-21.118-12.766-31.852
											c-4.093-10.745-8.031-21.588-11.597-32.85c-1.385-4.408-2.719-8.863-3.938-13.5c-0.346-1.307-0.677-2.625-1.003-3.964
											c-0.734-3.055-1.416-6.192-1.979-9.572l-0.398-2.605c-0.109-0.92-0.238-1.783-0.321-2.76l-0.134-1.447
											c-0.041-0.486-0.067-1.029-0.093-1.54c-0.072-0.992-0.072-2.186-0.077-3.308l0.072-1.897l0.026-0.47l0.047-0.543
											l0.108-1.08l0.062-0.543l0.067-0.491l0.119-0.786c0.077-0.527,0.16-1.049,0.248-1.504
											c0.341-1.949,0.718-3.608,1.106-5.261c0.775-3.251,1.608-6.243,2.465-9.174c0.01-0.042,0.026-0.088,0.041-0.129
											c1.7-5.794,3.52-11.318,5.38-16.792c3.757-11.008,7.721-21.743,11.768-32.426c4.052-10.673,8.202-21.262,12.419-31.821
											l6.373-15.81c2.15-5.277,4.29-10.486,6.517-15.82c0.119-0.279,0.274-0.636,0.403-0.91
											c5.22-11.075,18.425-15.815,29.501-10.6C228.832,207.372,233.577,220.582,228.357,231.653z"/>
									</g>
									<g>
										<g>
											<path style="fill:#E13139;" d="M231.015,218.855c-0.073,0.028-0.145,0.048-0.218,0.063
												c-0.65,0.125-1.312-0.232-1.55-0.872c-3.462-9.333-8.665-15.277-15.462-17.67c-5.46-1.92-11.095-1.245-15.455-0.033
												c1.31-1.247,2.702-2.473,4.157-3.678c3.778-0.49,8.008-0.362,12.21,1.118c7.607,2.675,13.37,9.173,17.128,19.305
												C232.09,217.8,231.727,218.592,231.015,218.855z"/>
										</g>
									</g>
								</g>
							</g>
						</g>
					</g>
				</g>
				<g>
					<path style="fill:#E13139;" d="M145.045,373.403c-0.346-1.307-0.677-2.625-1.003-3.964c-0.734-3.055-1.416-6.192-1.979-9.572
						l-0.398-2.605c-0.109-0.92-0.238-1.783-0.321-2.76l-0.134-1.447c-0.041-0.486-0.067-1.029-0.093-1.54
						c-0.072-0.992-0.072-2.186-0.077-3.308l0.072-1.897l0.026-0.47l0.047-0.543l0.108-1.08l0.062-0.543l0.067-0.491l0.119-0.786
						c0.077-0.527,0.16-1.049,0.248-1.504c0.341-1.949,0.718-3.608,1.106-5.261c0.775-3.251,1.608-6.243,2.465-9.174
						c0.01-0.042,0.026-0.088,0.041-0.129C150.228,336.579,161.242,364.157,145.045,373.403z"/>
				</g>
				<g>
					<g>
						<g>
							<g>
								<g>
									<path style="fill:#FF9F87;" d="M212.712,500l9.692-5.235c0.047-0.026,0.094-0.051,0.141-0.077
										c3.019-1.675,3.789-5.677,1.661-8.396c-3.531-4.509-9.586-12.138-9.586-12.138c-10.183-1.283-17.667,2.827-23.83,9.578
										c0,0,0.02,9.016,2.664,16.268H212.712z"/>
								</g>
							</g>
						</g>
					</g>
				</g>
				<g>
					<g>
						<path style="fill:#3F3538;" d="M217.944,500c9.149-6.356,12.941-13.569,13.191-14.059c0.398-0.781,0.089-1.736-0.691-2.136
							c-0.78-0.4-1.737-0.091-2.139,0.688c-0.066,0.128-4.801,9.054-16.529,15.507H217.944z"/>
					</g>
				</g>
				<g>
					<g>
						<g>
							<g>
								<g>
									<g>
										<path style="fill:#E13139;" d="M179.513,356.078c0.664,0,1.264-0.456,1.42-1.131c0.18-0.785-0.309-1.567-1.094-1.748
											l-18.464-4.25c-0.783-0.178-1.566,0.309-1.747,1.093c-0.181,0.785,0.309,1.567,1.094,1.748l18.464,4.251
											C179.295,356.066,179.405,356.078,179.513,356.078z"/>
									</g>
								</g>
							</g>
						</g>
					</g>
				</g>
				<g>
					<g>
						<g>
							<g>
								<g>
									<g>
										<path style="fill:#E13139;" d="M162.02,359.193c0.182,0,0.367-0.034,0.546-0.107l11.247-4.552
											c0.747-0.302,1.106-1.152,0.805-1.898c-0.302-0.747-1.154-1.106-1.898-0.804l-11.247,4.552
											c-0.747,0.302-1.106,1.152-0.805,1.898C160.898,358.849,161.444,359.193,162.02,359.193z"/>
									</g>
								</g>
							</g>
						</g>
					</g>
				</g>
			</g>
		</g>
		<g>
			<g>
				<path style="fill:#21191B;" d="M234.747,109.103c0,0-7.04-9.019-4.268-17.353c2.772-8.333,13.354-9,13.354-9
					s-1.916-9.167,4.584-12.167s30.69,2.244,43.958-0.708c12.545-2.792,15.542-9.292,15.542-9.292s9.652,29.832-10.174,33.083
					C277.917,96.917,242.243,95.122,234.747,109.103z"/>
			</g>
			<g>
				<path style="fill:#21191B;" d="M235.551,110.72c-0.415-0.3-10.133-7.456-7.954-16.428c1.964-8.088,9.087-9.718,14.81-11.027
					c0.715-0.164,1.39-0.318,2.046-0.482l0.242,0.97c-0.665,0.166-1.345,0.322-2.065,0.486c-5.739,1.313-12.243,2.8-14.061,10.288
					c-2.02,8.318,7.473,15.313,7.569,15.383L235.551,110.72z"/>
			</g>
			<g>
				<path style="fill:#21191B;" d="M298.859,94.107c-1.276,0-2.147-0.142-2.249-0.16l0.169-0.986
					c0.069,0.011,6.964,1.123,10.884-3.328c3.431-3.895,3.678-10.789,0.734-20.488l0.957-0.291
					c3.054,10.059,2.735,17.274-0.945,21.446C305.549,93.542,301.401,94.107,298.859,94.107z"/>
			</g>
			<g>
				<g>
					<g>
						<g>
							<g>
								<path style="fill:#FF9F87;" d="M275.581,185.209c0,0-0.033,0.013-0.105,0.033c-0.633,0.145-4.154,0.956-9.073,1.312h-0.053
									c-6.547,0.158-15.891-1.088-25.735-7.233l0.369-18.766l0.396-20.143l4.622,1.411l28.768,8.783l0.547,23.434L275.581,185.209
									z"/>
							</g>
						</g>
					</g>
				</g>
				<g>
					<g>
						<g>
							<g>
								<path style="fill:#21191B;" d="M251.326,145.94c0,0,1.96,26.647,24.037,30.053l-0.596-25.388L251.326,145.94z"/>
							</g>
						</g>
					</g>
				</g>
			</g>
			<g>
				<g>
					<g>
						<g>
							<g>
								<path style="fill:#FF7E6A;" d="M291.912,111.38c0,0,8.601-5.306,12.723,5.185c4.122,10.492-5.4,23.87-15.186,21.691
									C289.449,138.257,288.036,116.774,291.912,111.38z"/>
							</g>
						</g>
					</g>
				</g>
			</g>
			<g>
				<g>
					<g>
						<path style="fill:#21191B;" d="M294.382,163.276c0,0,9.806-14.184,7.487-37.999c0,0-2.466,18.575-5.314,21.65L294.382,163.276
							z"/>
					</g>
				</g>
			</g>
			<g>
				<g>
					<path style="fill:#FF9F87;" d="M301.867,127.497c-0.188,3.465-0.515,6.975-1.03,10.432c-0.332,2.255-0.747,4.488-1.255,6.67
						c-1.805,7.775-4.783,14.915-9.503,20.192c-9.202,10.285-22.272,5.803-33.432-4.242c-7.25-6.52-13.697-15.405-17.745-24.11
						v-0.008c-0.587-1.268-1.132-2.522-1.615-3.777c-1.77-4.585-2.785-9.012-2.827-12.912c-0.013-1.387-0.013-2.717,0.005-3.997
						c0.017-1.45,0.06-2.827,0.122-4.145c0.043-0.857,0.098-1.695,0.16-2.497c0.232-3.08,0.6-5.772,1.125-8.155
						c2.113-9.55,6.785-14.125,15.228-17.945c6.147-2.793,16.517-3.728,26.167-2.645c9.255,1.035,17.055,6.65,21.145,14.518
						c0.368,0.685,0.693,1.382,0.993,2.1c0.005,0.005,0.005,0.018,0.012,0.025c1.078,2.57,1.763,5.338,2.015,8.24
						C301.962,111.582,302.3,119.415,301.867,127.497z"/>
				</g>
			</g>
			<g>
				<path style="fill:#FF7E6A;" d="M301.867,127.497c-0.188,3.465-0.515,6.975-1.03,10.432c-0.022,0.003-0.045,0.003-0.068,0.003
					c-2.913,0-5.275-2.362-5.275-5.275c0-2.915,2.362-5.275,5.275-5.275C301.145,127.382,301.512,127.423,301.867,127.497z"/>
			</g>
			<g>
				<path style="fill:#FF7E6A;" d="M271.592,131.833c0,2.914-2.362,5.275-5.275,5.275c-2.913,0-5.275-2.362-5.275-5.275
					c0-2.913,2.362-5.275,5.275-5.275C269.23,126.558,271.592,128.919,271.592,131.833z"/>
			</g>
			<g>
				<path style="fill:#21191B;" d="M264.113,117c0,0,9.022-2.539,16.25-1.083c0,0,0.979-6.479-7.228-5.89
					C267.18,110.454,263.196,111.333,264.113,117z"/>
			</g>
			<g>
				<path style="fill:#21191B;" d="M303.695,117.743c0,0-8.354-2.709-15.176-1.612c0,0-0.679-6.103,6.984-5.249
					C301.064,111.501,304.762,112.47,303.695,117.743z"/>
			</g>
			<g>
				<g>
					<g>
						<g>
							<path style="fill:#FF7E6A;" d="M237.286,132.657c0.485,1.251,1.025,2.509,1.613,3.773v0.007
								c4.416,2.734,8.654,2.98,10.049,2.98c0.26,0,0.424-0.007,0.471-0.014c0.561-0.034,0.991-0.52,0.957-1.087
								c-0.034-0.561-0.533-0.991-1.087-0.957c-0.034,0-0.164,0.007-0.362,0.007C247.478,137.367,242.119,137.052,237.286,132.657z"
								/>
						</g>
					</g>
				</g>
			</g>
			<g>
				<g>
					<g>
						<path style="fill:#21191B;" d="M294.048,163.904c-3.643,6.716-7.831,8.62-20.596,7.635
							c-6.612-0.508-13.633-5.044-17.771-10.573c-3.159-4.212-4.239-9.178-4.582-12.362c-0.79-7.243-4.255-29.89-4.371-30.685
							c-3.722-0.208-8.131-1.371-12.263-2.174c0.006-0.71,0.025-1.402,0.043-2.081c0.024-0.704,0.049-1.39,0.079-2.063
							c0.043-0.857,0.098-1.696,0.159-2.498c0.232-3.079,0.6-5.774,1.126-8.155c2.112-9.551,6.783-14.124,15.226-17.945
							c6.147-2.792,16.518-3.729,26.167-2.645c9.043,1.01,16.702,6.392,20.859,13.984c0.098,0.178,0.196,0.355,0.288,0.533
							c-0.122-0.147-0.257-0.294-0.404-0.435c-5.216-5.057-23.057-3.11-29.265-2.131c-2.449,0.392-4.169,2.498-4.169,4.867
							c0,0.349,0.037,0.704,0.116,1.059c0.318,1.451,0.22,2.97-0.318,4.353c-0.557,1.439-1.506,2.981-3.031,3.208
							c-2.394,0.361-4.029,1.212-5.143,2.284c-3.141,2.988-2.118,7.665-2.118,7.665s6.361,23.878,10.347,25.377
							c3.986,1.494,7.635-0.686,22.99,0.68c0,0,8.455,1.121,11.528,2.271c0.263,0.098,0.471,0.276,0.637,0.527
							C301.285,147.239,297.385,157.763,294.048,163.904z"/>
					</g>
				</g>
			</g>
			<g>
				<g>
					<g>
						<path style="fill:#3F3538;" d="M282.052,159.517c-1.904-0.353-3.181-1.094-3.282-1.155c-0.464-0.276-0.617-0.876-0.341-1.341
							c0.275-0.464,0.875-0.618,1.339-0.343c0.174,0.102,4.003,2.283,8.107,0.1c0.476-0.253,1.07-0.072,1.323,0.405
							c0.254,0.477,0.073,1.069-0.404,1.323C286.291,159.836,283.882,159.857,282.052,159.517z"/>
					</g>
				</g>
			</g>
			<g>
				<g>
					<g>
						<path style="fill:#FFFFFF;" d="M274.9,146.501c0,0,11.344,2.447,20.595,0.714c0,0-4.126,8.085-12.697,6.768
							C276.11,152.956,274.9,146.501,274.9,146.501z"/>
					</g>
				</g>
			</g>
			<g>
				<path style="fill:#21191B;" d="M298.126,94.341c-0.037,0.037-0.08,0.067-0.117,0.098c-5.216-5.057-23.057-3.11-29.265-2.131
					c-2.449,0.392-4.169,2.498-4.169,4.867c0,0.349,0.037,0.704,0.116,1.059c0.318,1.451,0.22,2.97-0.318,4.353
					c-0.557,1.439-1.506,2.981-3.031,3.208c-2.394,0.361-4.029,1.212-5.143,2.284c-10.157,1.237-20.798,5.241-21.692,5.584
					c0.024-0.704,0.049-1.39,0.079-2.063c0.043-0.857,0.098-1.696,0.159-2.498c0.232-3.079,0.6-5.774,1.126-8.155
					c2.112-9.551,6.783-14.124,15.226-17.945c6.147-2.792,16.518-3.729,26.167-2.645C286.309,81.368,293.968,86.75,298.126,94.341z"
					/>
			</g>
			<g>
				<path style="fill:#21191B;" d="M270.529,92.048c0,0,7.376-1.465,11.923,2.202s5.616,4.431,8.298,4.313
					c2.83-0.125,1.759-5.393,5.441-5.386C299.874,93.184,277.808,84.846,270.529,92.048z"/>
			</g>
			<g>
				<g>
					<g>
						<g>
							<g>
								<path style="fill:#FF9F87;" d="M243.518,110.978c0,0-9.452-4.601-11.775,6.43c-2.322,11.031,8.415,20.721,18.026,20.046
									C249.769,137.454,248.237,115.653,243.518,110.978z"/>
							</g>
						</g>
					</g>
				</g>
				<g>
					<g>
						<g>
							<g>
								<g>
									<g>
										<g>
											<g>
												<path style="fill:#FF7E6A;" d="M244.699,129.453c-0.475-0.011-0.892-0.355-0.978-0.84
													c-1.205-6.776-6.365-10.325-6.417-10.36c-0.466-0.314-0.59-0.946-0.277-1.413c0.313-0.466,0.944-0.591,1.41-0.28
													c0.241,0.161,5.927,4.039,7.288,11.695c0.099,0.554-0.27,1.083-0.824,1.181
													C244.834,129.45,244.766,129.455,244.699,129.453z"/>
											</g>
										</g>
									</g>
								</g>
							</g>
						</g>
					</g>
					<g>
						<g>
							<g>
								<g>
									<g>
										<g>
											<g>
												<path style="fill:#FF7E6A;" d="M236.868,124.498c-0.358-0.009-0.702-0.206-0.879-0.546
													c-0.261-0.498-0.068-1.113,0.429-1.374c0.139-0.073,3.437-1.778,6.117-1.284c0.553,0.102,0.919,0.633,0.816,1.186
													c-0.102,0.553-0.633,0.919-1.187,0.817c-1.647-0.304-4.025,0.68-4.802,1.086
													C237.205,124.465,237.035,124.502,236.868,124.498z"/>
											</g>
										</g>
									</g>
								</g>
							</g>
						</g>
					</g>
				</g>
			</g>
			<g>
				<g>
					<g>
						<g>
							<path style="fill:#FF7E6A;" d="M288.105,140.394c-1.294,0-2.709-0.296-3.464-0.481c-0.591-0.144-0.953-0.74-0.809-1.332
								c0.145-0.591,0.74-0.953,1.332-0.809c1.422,0.346,3.028,0.502,3.661,0.377c-0.077-1.811-1.301-10.081-2.493-17.433
								c-0.097-0.602,0.311-1.167,0.911-1.264c0.602-0.101,1.167,0.31,1.264,0.911c0.636,3.918,2.693,16.818,2.505,18.327
								c-0.061,0.492-0.329,0.924-0.753,1.216C289.734,140.269,288.945,140.394,288.105,140.394z"/>
						</g>
					</g>
				</g>
			</g>
			<g>
				<g>
					<g>
						<g>
							<g>
								<path style="fill:#21191B;" d="M274.104,122.614c0.034,1.914-0.795,3.48-1.852,3.499c-1.057,0.019-1.941-1.517-1.975-3.431
									c-0.034-1.913,0.795-3.48,1.852-3.499C273.187,119.165,274.071,120.701,274.104,122.614z"/>
							</g>
						</g>
					</g>
				</g>
			</g>
			<g>
				<g>
					<g>
						<g>
							<g>
								<path style="fill:#21191B;" d="M297.408,122.614c0.034,1.914-0.796,3.48-1.852,3.499c-1.057,0.019-1.941-1.517-1.975-3.431
									c-0.034-1.913,0.796-3.48,1.853-3.499C296.491,119.165,297.375,120.701,297.408,122.614z"/>
							</g>
						</g>
					</g>
				</g>
			</g>
			<g>
				<g>
					<g>
						<g>
							<path style="fill:#FFFFFF;" d="M288.595,124.265c0-6.177,4.558-11.202,10.163-11.202c5.604,0,10.162,5.025,10.162,11.202
								c0,6.177-4.558,11.202-10.162,11.202C293.154,135.467,288.595,130.442,288.595,124.265z M289.9,124.265
								c0,5.458,3.974,9.897,8.858,9.897c4.884,0,8.858-4.439,8.858-9.897c0-5.457-3.974-9.897-8.858-9.897
								C293.874,114.368,289.9,118.808,289.9,124.265z"/>
						</g>
					</g>
				</g>
				<g>
					<g>
						<g>
							<path style="fill:#FFFFFF;" d="M263.432,124.265c0-6.177,4.559-11.202,10.163-11.202c5.604,0,10.163,5.025,10.163,11.202
								c0,6.177-4.558,11.202-10.163,11.202C267.99,135.467,263.432,130.442,263.432,124.265z M264.736,124.265
								c0,5.458,3.974,9.897,8.858,9.897s8.858-4.439,8.858-9.897c0-5.457-3.974-9.897-8.858-9.897S264.736,118.808,264.736,124.265
								z"/>
						</g>
					</g>
				</g>
				<g>
					<g>
						<g>
							<g>
								<path style="fill:#FFFFFF;" d="M253.927,113.53c5.37,1.16,9.18,3.842,10.835,5.198c0.543,0.442,0.855,0.743,0.913,0.8
									l-0.913,0.933c-0.012-0.012-0.202-0.195-0.552-0.49c-1.332-1.115-5.003-3.848-10.247-5.075L253.927,113.53z"/>
							</g>
						</g>
					</g>
				</g>
				<g>
					<g>
						<g>
							<path style="fill:#FFFFFF;" d="M282.223,119.421c3.615-3.118,7.926-0.322,8.108-0.202l0.724-1.085
								c-0.052-0.035-5.312-3.473-9.685,0.3L282.223,119.421z"/>
						</g>
					</g>
				</g>
			</g>
		</g>
		<g>
			<g>
				<g>
					<path style="fill:#FFFFFF;" d="M288.475,306.914c-0.333,0-0.628-0.22-0.72-0.542c-0.073-0.253-7.425-25.677-18.258-54.056
						c-14.309-37.486-28.16-63.079-40.057-74.014c-0.305-0.28-0.325-0.755-0.045-1.06c0.28-0.305,0.755-0.325,1.06-0.045
						c6.75,6.204,14.04,16.848,21.668,31.637c6.083,11.793,12.401,26.246,18.779,42.956c8.733,22.878,15.207,43.838,17.443,51.291
						c6.934-34.89,3.919-66.557,0.089-87.208c-4.268-23.013-10.44-37.685-10.502-37.831c-0.162-0.381,0.016-0.822,0.397-0.984
						c0.381-0.162,0.822,0.016,0.984,0.397c0.063,0.147,6.288,14.938,10.588,38.099c2.524,13.598,3.904,27.387,4.101,40.986
						c0.246,17.001-1.367,33.75-4.793,49.78c-0.072,0.336-0.364,0.581-0.707,0.593C288.493,306.914,288.484,306.914,288.475,306.914
						z"/>
				</g>
			</g>
			<g>
				<g>
					<path style="fill:#F5F2EE;" d="M270.764,351.256h32.21c0.849,0,1.538-0.689,1.538-1.538v-46.186
						c0-0.849-0.689-1.538-1.538-1.538h-32.21c-0.849,0-1.538,0.688-1.538,1.538v46.186
						C269.226,350.567,269.915,351.256,270.764,351.256z"/>
				</g>
			</g>
			<g>
				<g>
					<g>
						<path style="fill:#E6D7D4;" d="M276.767,310.817h19.615c0.238,0,0.431-0.193,0.431-0.431s-0.193-0.431-0.431-0.431h-19.615
							c-0.238,0-0.431,0.193-0.431,0.431S276.529,310.817,276.767,310.817z"/>
					</g>
				</g>
			</g>
			<g>
				<g>
					<g>
						<path style="fill:#E6D7D4;" d="M276.767,317.706h19.615c0.238,0,0.431-0.193,0.431-0.431s-0.193-0.431-0.431-0.431h-19.615
							c-0.238,0-0.431,0.193-0.431,0.431S276.529,317.706,276.767,317.706z"/>
					</g>
				</g>
			</g>
			<g>
				<g>
					<g>
						<path style="fill:#E6D7D4;" d="M276.767,324.499h19.615c0.238,0,0.431-0.193,0.431-0.431c0-0.238-0.193-0.431-0.431-0.431
							h-19.615c-0.238,0-0.431,0.193-0.431,0.431C276.336,324.306,276.529,324.499,276.767,324.499z"/>
					</g>
				</g>
			</g>
			<g>
				<g>
					<path style="fill:#E6D7D4;" d="M301.642,348.76h-29.545c-0.207,0-0.375-0.168-0.375-0.375v-43.521
						c0-0.207,0.168-0.375,0.375-0.375h29.545c0.207,0,0.375,0.168,0.375,0.375v43.521
						C302.017,348.592,301.849,348.76,301.642,348.76z M272.472,348.01h28.795V305.24h-28.795V348.01z"/>
				</g>
			</g>
		</g>
	</g>
</g>
</svg>
