<?xml version="1.0" encoding="utf-8"?>
<!-- Generator: Adobe Illustrator 27.5.0, SVG Export Plug-In . SVG Version: 6.00 Build 0)  -->
<svg version="1.1" xmlns="http://www.w3.org/2000/svg" xmlns:xlink="http://www.w3.org/1999/xlink" x="0px" y="0px"
	 viewBox="0 0 500 500" style="enable-background:new 0 0 500 500;" xml:space="preserve">
<g id="BACKGROUND">
	<rect style="fill:#FFFFFF;" width="500" height="500"/>
</g>
<g id="OBJECTS">
	<g>
		<g>
			<rect x="50.757" y="49.445" style="fill:#FFC8EC;" width="398.486" height="400.804"/>
			<path style="fill:#350025;" d="M449.243,450.749H50.757c-0.276,0-0.5-0.224-0.5-0.5V49.445c0-0.276,0.224-0.5,0.5-0.5h398.486
				c0.276,0,0.5,0.224,0.5,0.5v400.804C449.743,450.525,449.52,450.749,449.243,450.749z M51.257,449.749h397.486V49.945H51.257
				V449.749z"/>
		</g>
		<path style="fill:#EF8FF6;" d="M449.243,450.249V310.48c-48.814-54.958-120-89.598-199.289-89.598
			c-79.239,0-150.386,34.598-199.198,89.496v139.87H449.243z"/>
		<path style="fill:#350025;" d="M449.743,310.48c0-0.123-0.045-0.241-0.126-0.332c-50.67-57.048-123.445-89.766-199.663-89.766
			c-76.166,0-148.907,32.681-199.571,89.664c-0.082,0.091-0.126,0.21-0.126,0.332l-0.091,145.676
			c-0.002,0.134,0.05,0.263,0.144,0.358c0.094,0.096,0.223,0.149,0.356,0.149h398.487c0.273,0,0.496-0.219,0.5-0.492L449.743,310.48
			z M51.257,310.568c50.469-56.68,122.882-89.187,198.698-89.187c75.867,0,148.314,32.544,198.789,89.288v139.079H51.257V310.568z"
			/>
	</g>
	<g>
		<g>
			<polygon style="fill:#FFAD26;" points="389.721,450.402 380.449,408.082 293.065,408.082 283.793,450.402 			"/>
			<path style="fill:#350025;" d="M389.721,450.902H283.793c-0.151,0-0.294-0.068-0.39-0.187c-0.095-0.118-0.131-0.272-0.099-0.42
				l9.272-42.32c0.05-0.23,0.254-0.393,0.488-0.393h87.383c0.235,0,0.438,0.164,0.488,0.393l9.272,42.32
				c0.033,0.148-0.004,0.302-0.099,0.42C390.016,450.833,389.873,450.902,389.721,450.902z M284.415,449.902H389.1l-9.053-41.32
				h-86.579L284.415,449.902z"/>
		</g>
		<g>
			<path d="M334.961,408.572c-0.251,0-0.455-0.204-0.455-0.455v-98.665c0-0.251,0.204-0.455,0.455-0.455s0.455,0.204,0.455,0.455
				v98.665C335.416,408.369,335.212,408.572,334.961,408.572z"/>
		</g>
		<g>
			<path style="fill:#00A970;" d="M425.94,418.405c-5.526-5.977-7.218-13.4-3.779-16.579c3.439-3.179,10.706-0.911,16.232,5.067
				c0.255,0.275,0.492,0.557,0.73,0.838c3.108-7.974,4.085-16.17,1.384-22.658c-7.512-18.048-25.333-21.672-40.336-7.949
				c-18.772-7.809-34.303,1.655-35.235,21.181c-0.046,0.961,0.004,1.93,0.104,2.901c5.568-5.138,12.339-6.821,15.505-3.7
				c3.335,3.288,1.406,10.653-4.309,16.45c-1.25,1.268-2.578,2.343-3.924,3.235c9.831,12.452,27.257,22.044,38.393,20.094
				c6.703-1.174,14.132-7.055,20.079-14.833C429.116,421.403,427.462,420.051,425.94,418.405z"/>
			<path style="fill:#350025;" d="M407.64,438.037c-11.021,0-26.298-8.603-35.72-20.537c-0.086-0.11-0.123-0.251-0.101-0.389
				c0.022-0.138,0.101-0.26,0.217-0.338c1.378-0.913,2.672-1.979,3.845-3.169c5.512-5.591,7.447-12.653,4.314-15.743
				c-2.926-2.883-9.434-1.254-14.814,3.711c-0.14,0.129-0.34,0.167-0.516,0.101c-0.177-0.067-0.301-0.229-0.321-0.417
				c-0.114-1.111-0.148-2.084-0.106-2.976c0.45-9.429,4.283-16.892,10.793-21.013c6.727-4.261,15.538-4.515,24.839-0.727
				c7.46-6.723,15.832-9.477,23.608-7.756c7.523,1.665,13.664,7.381,17.291,16.097c3.243,7.79,1.04,16.824-1.38,23.031
				c-0.064,0.164-0.21,0.282-0.383,0.312c-0.173,0.029-0.35-0.036-0.464-0.169c-0.268-0.316-0.484-0.571-0.716-0.821
				c-2.615-2.828-5.697-4.898-8.681-5.83c-2.887-0.901-5.319-0.622-6.845,0.79c-1.526,1.411-1.997,3.813-1.324,6.762
				c0.695,3.047,2.517,6.283,5.131,9.11l0,0c1.439,1.557,3.035,2.89,4.744,3.962c0.119,0.075,0.201,0.196,0.227,0.334
				c0.025,0.138-0.01,0.281-0.095,0.393c-6.424,8.402-13.855,13.877-20.389,15.022C409.791,437.952,408.736,438.037,407.64,438.037z
				 M373.041,417.3c10.032,12.425,27.13,21.323,37.579,19.491c6.087-1.066,13.324-6.366,19.437-14.215
				c-1.609-1.065-3.116-2.352-4.484-3.832c-2.731-2.954-4.639-6.352-5.372-9.567c-0.755-3.313-0.18-6.055,1.62-7.719
				c1.801-1.663,4.579-2.023,7.822-1.01c3.148,0.982,6.386,3.151,9.117,6.105c0.066,0.071,0.13,0.143,0.194,0.214
				c3.056-8.233,3.447-15.843,1.092-21.503c-3.499-8.406-9.388-13.912-16.584-15.504c-7.531-1.669-15.681,1.079-22.953,7.731
				c-0.144,0.131-0.35,0.166-0.529,0.092c-9.1-3.784-17.699-3.597-24.215,0.528c-6.227,3.942-9.895,11.122-10.329,20.216
				c-0.027,0.569-0.021,1.177,0.02,1.839c5.701-4.872,12.221-6.191,15.44-3.018c3.526,3.476,1.595,11.173-4.304,17.157
				C375.501,415.414,374.308,416.419,373.041,417.3z"/>
		</g>
		<g>
			<path d="M407.998,417.266c-0.213,0-0.403-0.15-0.445-0.367l-7.814-39.629c-6.579-13.351-16.294-20.054-26.668-18.388
				c-12.88,2.066-27.824,18.111-32.176,49.299c-0.035,0.249-0.259,0.423-0.513,0.387c-0.249-0.035-0.422-0.265-0.387-0.513
				c3.824-27.402,17.058-47.524,32.933-50.071c10.813-1.733,20.887,5.17,27.654,18.939c0.018,0.036,0.03,0.073,0.038,0.112
				l7.826,39.688c0.048,0.246-0.112,0.485-0.358,0.534C408.056,417.263,408.027,417.266,407.998,417.266z"/>
		</g>
		<g>
			<g>
				<path style="fill:#00A970;" d="M357.355,363.169c-5.421-8.405-5.896-17.748-1.061-20.867c4.836-3.119,13.151,1.167,18.572,9.572
					c0.25,0.387,0.478,0.778,0.706,1.168c5.452-8.992,8.37-18.705,6.477-27.129c-5.266-23.435-26.068-31.598-47.133-18.169
					c-21.065-13.429-41.867-5.266-47.134,18.169c-0.259,1.153-0.403,2.337-0.488,3.533c7.828-5.039,16.379-5.641,19.549-1.192
					c3.34,4.686-0.556,13.191-8.701,18.996c-1.781,1.27-3.617,2.29-5.435,3.084c9.259,17.154,28.317,32.456,42.209,32.456
					c8.362,0,18.599-5.544,27.445-13.698C360.564,367.471,358.848,365.483,357.355,363.169z"/>
				<path style="fill:#350025;" d="M334.918,383.29c-13.778,0-32.911-14.677-42.649-32.718c-0.066-0.123-0.078-0.268-0.033-0.4
					c0.045-0.132,0.145-0.239,0.272-0.295c1.869-0.816,3.667-1.837,5.345-3.033c7.908-5.635,11.759-13.844,8.585-18.298
					c-2.966-4.163-11.257-3.58-18.872,1.322c-0.159,0.103-0.363,0.106-0.525,0.01c-0.163-0.097-0.257-0.277-0.244-0.466
					c0.097-1.362,0.26-2.542,0.5-3.607c2.535-11.278,8.731-19.47,17.447-23.064c9.028-3.724,19.732-2.155,30.174,4.413
					c10.441-6.568,21.145-8.136,30.173-4.413c8.717,3.594,14.913,11.785,17.448,23.064c1.767,7.865-0.554,17.63-6.537,27.498
					c-0.091,0.149-0.253,0.241-0.428,0.241c-0.001,0-0.002,0-0.003,0c-0.176-0.002-0.339-0.095-0.428-0.247l-0.052-0.089
					c-0.208-0.354-0.416-0.709-0.643-1.062c-5.263-8.161-13.287-12.388-17.881-9.423c-2.182,1.407-3.279,4.25-3.088,8.005
					c0.196,3.855,1.722,8.178,4.298,12.17l0,0c1.418,2.199,3.074,4.158,4.921,5.823c0.104,0.094,0.164,0.228,0.165,0.369
					c0.001,0.141-0.058,0.275-0.161,0.371C353.166,378.249,343.04,383.29,334.918,383.29z M293.406,350.57
					c9.508,17.243,28.41,31.72,41.512,31.72c7.645,0,17.598-4.925,26.705-13.199c-1.75-1.641-3.326-3.54-4.688-5.651
					c-2.668-4.138-4.251-8.634-4.456-12.662c-0.21-4.127,1.049-7.287,3.544-8.897c5.058-3.26,13.702,1.098,19.264,9.722
					c0.099,0.153,0.194,0.307,0.288,0.462c5.529-9.398,7.655-18.62,5.987-26.041c-2.461-10.952-8.446-18.893-16.853-22.359
					c-8.797-3.628-19.281-2.027-29.524,4.502c-0.163,0.105-0.374,0.105-0.537,0c-10.244-6.53-20.729-8.128-29.524-4.502
					c-8.407,3.467-14.392,11.407-16.853,22.359c-0.169,0.751-0.298,1.566-0.392,2.471c7.943-4.772,16.156-5.042,19.373-0.529
					c3.494,4.903-0.462,13.737-8.819,19.693C296.849,348.788,295.16,349.766,293.406,350.57z"/>
			</g>
			<g>
				<path d="M334.918,366.393c-0.251,0-0.455-0.204-0.455-0.455v-58.193c0-0.251,0.204-0.455,0.455-0.455
					c0.251,0,0.455,0.204,0.455,0.455v58.193C335.372,366.189,335.168,366.393,334.918,366.393z"/>
			</g>
		</g>
		<g style="opacity:0.13;">
			<polygon style="fill:#350025;" points="331.655,408.082 331.655,450.249 283.793,450.402 293.065,408.082 			"/>
		</g>
	</g>
	<g>
		<g>
			<path style="fill:#753399;" d="M199.919,68.591c-11.671-0.047-28.558,3.512-37.482,15.695
				c-8.379,3.744-11.958,8.499-14.515,15.774c-5.178,14.731-3.271,31.964-4.906,49.246c-2.995,31.662-48.731,70.516-3.377,83.13
				c45.354,12.614,112.246-4.014,115.952-25.894c6.218-36.711-16.011-35.548-15.155-67.21c0.333-12.302,4.031-28.647,2.381-39.876
				C240.219,81.784,226.681,68.699,199.919,68.591z"/>
			<path style="fill:#350025;" d="M174.857,237.35c-12.15,0.001-24.294-1.356-35.353-4.431c-10.107-2.811-16.286-7.051-18.89-12.963
				c-4.482-10.174,2.364-23.661,9.611-37.94c5.555-10.944,11.299-22.26,12.292-32.756c0.54-5.706,0.693-11.462,0.842-17.028
				c0.309-11.524,0.6-22.41,4.089-32.337c2.357-6.705,5.758-11.997,14.662-16.01c8.667-11.717,25.214-15.891,37.809-15.793
				c24.667,0.099,40.482,11.505,43.39,31.293c1.036,7.043-0.013,16.068-1.027,24.794c-0.629,5.417-1.224,10.533-1.349,15.168
				c-0.386,14.271,4.006,21.879,8.253,29.237c5.07,8.783,10.312,17.864,6.895,38.043c-0.848,5.007-5.008,10.011-12.03,14.471
				C229.116,230.584,201.987,237.348,174.857,237.35z M199.69,69.091c-12.373,0-28.479,4.063-36.851,15.491
				c-0.051,0.07-0.12,0.125-0.199,0.161c-8.698,3.887-11.9,8.806-14.248,15.483c-3.438,9.779-3.727,20.588-4.033,32.031
				c-0.149,5.583-0.304,11.357-0.847,17.096c-1.011,10.686-6.798,22.088-12.395,33.115c-7.138,14.061-13.879,27.343-9.588,37.084
				c2.475,5.62,8.442,9.677,18.242,12.402c35.493,9.871,82.299,1.919,103.745-11.702c6.776-4.304,10.78-9.074,11.58-13.793
				c3.358-19.824-1.563-28.35-6.774-37.376c-4.316-7.478-8.78-15.21-8.387-29.764c0.126-4.679,0.724-9.816,1.355-15.256
				c1.006-8.663,2.047-17.62,1.031-24.534c-2.829-19.247-18.285-30.341-42.405-30.438C199.841,69.091,199.766,69.091,199.69,69.091z
				"/>
		</g>
		<g>
			<g>
				<path style="fill:#FF6392;" d="M292.077,223.086c0.995,4.649,2.469,10.672,2.469,10.672"/>
			</g>
			<g>
				<g>
					<g>
						<path style="fill:#FF6392;" d="M312.715,283.382c-23.037,5.553-60.63-43.539-60.63-43.539
							c-10.61-12.638-11.077-49.638-3.693-63.554c1.952,0.014,52.348,53.84,52.348,53.84s28.457-67.446,27.454-70.274
							c-1.004-2.828-3.887-9.163-4.714-15.533c-0.971-7.484,1.223-12.498-2.609-19.465c-3.756-6.828-6-9.438-4.469-11.881
							c1.531-2.443,9.502-0.817,13.023,4.641c4.803,7.446,7.912,14.71,7.912,14.71c3.683-0.563,9.238-7.554,14.297-9.278
							c5.311-1.81,9.291,0.553,10.169,9.237c3.759-1.295,10.4,4.612,7.163,11.522c5.867,0.173,6.123,9.035,3.798,11.268
							c5.591,0.484,4.933,8.024,0.648,10.577c-3.552,2.116-14.098,8.942-21.771,9.719
							C350.017,184.155,341.398,276.469,312.715,283.382z"/>
						<path style="fill:#350025;" d="M308.87,284.324c-23.074,0-55.725-42.274-57.183-44.177
							c-10.715-12.763-11.394-49.663-3.738-64.093c0.087-0.165,0.283-0.298,0.445-0.266c1.934,0.014,36.709,36.913,52.183,53.436
							c11.272-26.737,27.591-66.73,27.139-69.223c-0.191-0.535-0.461-1.226-0.774-2.026c-1.309-3.353-3.288-8.419-3.959-13.589
							c-0.341-2.628-0.298-4.924-0.256-7.143c0.078-4.136,0.146-7.708-2.295-12.146c-0.751-1.365-1.441-2.562-2.053-3.621
							c-2.521-4.366-3.785-6.558-2.401-8.767c0.536-0.854,1.685-1.331,3.234-1.341c0.017,0,0.033,0,0.049,0
							c3.272,0,8.074,2.085,10.584,5.976c4.153,6.44,7.078,12.818,7.786,14.409c1.665-0.448,3.797-2.196,6.046-4.038
							c2.551-2.09,5.189-4.252,7.795-5.14c2.645-0.903,4.886-0.782,6.658,0.356c2.197,1.411,3.578,4.346,4.107,8.73
							c1.836-0.311,4.088,0.662,5.79,2.556c2.307,2.566,2.91,5.944,1.668,9.154c1.973,0.3,3.488,1.605,4.31,3.735
							c0.972,2.522,0.785,5.789-0.327,7.609c1.8,0.426,3.043,1.666,3.463,3.498c0.656,2.861-0.87,6.317-3.474,7.868
							c-0.339,0.202-0.743,0.448-1.202,0.727c-4.376,2.661-13.397,8.147-20.397,9.018c-0.182,1.097-0.44,3.05-0.783,5.644
							c-3.145,23.793-12.716,96.195-38.454,102.398C311.551,284.177,310.226,284.324,308.87,284.324z M312.598,282.897l0.117,0.486
							L312.598,282.897c10.629-2.562,19.737-17.502,27.072-44.404c5.958-21.855,9.11-45.696,10.625-57.153
							c0.387-2.927,0.667-5.042,0.854-6.059c0.041-0.219,0.22-0.384,0.441-0.407c6.824-0.691,15.963-6.249,20.355-8.92
							c0.462-0.281,0.868-0.528,1.21-0.732c2.253-1.342,3.575-4.322,3.01-6.785c-0.387-1.688-1.61-2.705-3.445-2.864
							c-0.196-0.017-0.363-0.146-0.429-0.332c-0.065-0.185-0.016-0.391,0.126-0.527c1.164-1.118,1.703-4.528,0.654-7.25
							c-0.54-1.401-1.694-3.087-4.121-3.159c-0.169-0.005-0.323-0.095-0.411-0.238c-0.088-0.144-0.099-0.322-0.027-0.474
							c1.416-3.022,0.956-6.278-1.23-8.709c-1.602-1.78-3.79-2.655-5.317-2.128c-0.143,0.051-0.304,0.031-0.433-0.051
							c-0.128-0.083-0.212-0.219-0.228-0.371c-0.443-4.383-1.693-7.264-3.716-8.563c-1.501-0.964-3.452-1.049-5.795-0.252
							c-2.435,0.83-5.001,2.933-7.483,4.967c-2.528,2.072-4.916,4.029-6.899,4.332c-0.224,0.033-0.445-0.087-0.535-0.297
							c-0.031-0.072-3.15-7.314-7.873-14.636c-2.329-3.611-6.767-5.506-9.786-5.518c-1.178,0.008-2.051,0.326-2.393,0.872
							c-1.065,1.699,0.027,3.59,2.42,7.735c0.614,1.065,1.308,2.268,2.063,3.639c2.57,4.672,2.497,8.546,2.419,12.647
							c-0.042,2.183-0.084,4.441,0.248,6.996c0.655,5.05,2.607,10.047,3.899,13.354c0.317,0.811,0.591,1.513,0.79,2.075
							c1.017,2.866-22.7,59.343-27.465,70.636c-0.065,0.156-0.206,0.268-0.373,0.298c-0.167,0.032-0.337-0.026-0.453-0.15
							c-19.102-20.402-47.916-50.697-51.77-53.503c-7.114,14.195-6.338,50.403,3.863,62.555
							C252.856,240.027,290.153,288.31,312.598,282.897z"/>
					</g>
					<g>
						<path style="fill:#350025;" d="M346.576,150.488c-1.31,0-2.85-0.787-3.844-2.559c-1.813-3.233,2-9.095,5.364-14.266
							c1.297-1.993,2.522-3.876,3.109-5.189c0.113-0.252,0.406-0.364,0.661-0.252c0.252,0.113,0.365,0.409,0.252,0.661
							c-0.62,1.385-1.809,3.212-3.184,5.326c-2.89,4.442-6.848,10.526-5.331,13.232c1.093,1.948,2.743,2.236,3.585,1.954
							c0.264-0.087,0.546,0.054,0.633,0.316c0.088,0.262-0.054,0.545-0.315,0.633C347.219,150.439,346.904,150.488,346.576,150.488z
							"/>
					</g>
					<g>
						<path style="fill:#350025;" d="M350.224,156.999c-1.605,0-3.043-0.773-3.813-2.163c-0.967-1.745-0.874-4.718,2.572-7.355
							c6.285-4.811,12.74-11.751,12.324-15.135c-0.034-0.274,0.161-0.523,0.435-0.557c0.271-0.042,0.524,0.161,0.557,0.435
							c0.563,4.571-8.067,12.498-12.708,16.051c-2.939,2.25-3.079,4.68-2.305,6.076c0.694,1.253,2.354,2.159,4.495,1.355
							c3.294-1.236,13.442-6.119,16.746-12.141c0.133-0.242,0.435-0.33,0.679-0.198c0.242,0.133,0.331,0.437,0.198,0.679
							c-3.451,6.287-13.888,11.326-17.272,12.596C351.491,156.883,350.845,156.999,350.224,156.999z"/>
					</g>
					<g>
						<path style="fill:#350025;" d="M354.563,163.02c-2.157,0-3.87-0.653-4.904-1.893c-1.039-1.246-1.295-2.966-0.721-4.845
							c0.08-0.264,0.358-0.414,0.624-0.332c0.264,0.081,0.413,0.36,0.332,0.624c-0.471,1.545-0.282,2.935,0.533,3.912
							c1.023,1.226,2.939,1.742,5.402,1.458c5.34-0.622,13.558-3.834,16.561-7.202c0.184-0.206,0.5-0.223,0.706-0.04
							c0.206,0.184,0.224,0.499,0.04,0.706c-3.242,3.635-11.663,6.886-17.192,7.529C355.467,162.993,355.005,163.02,354.563,163.02z
							"/>
					</g>
					<g>
						<path style="fill:#350025;" d="M361.398,169.375c-0.227,0-0.451-0.001-0.671-0.002l-0.609-0.002
							c-1.571-0.001-4.284-0.709-5.322-2.658c-0.48-0.902-0.753-2.423,0.677-4.551c0.155-0.229,0.464-0.291,0.694-0.136
							c0.229,0.154,0.29,0.465,0.136,0.694c-0.926,1.378-1.136,2.564-0.624,3.524c0.781,1.466,3.066,2.127,4.439,2.127l0.615,0.002
							c2.333,0.007,4.98,0.026,9.6-1.466c0.266-0.085,0.545,0.06,0.629,0.322c0.085,0.263-0.059,0.545-0.322,0.629
							C366.305,169.259,363.653,169.375,361.398,169.375z"/>
					</g>
				</g>
				<g>
					<path style="fill:#FF6392;" d="M300.74,230.128c2.469,4.629,2.93,10.644,2.93,10.644"/>
					<path style="fill:#350025;" d="M303.669,241.272c-0.259,0-0.478-0.199-0.498-0.462c-0.004-0.059-0.483-5.968-2.873-10.447
						c-0.13-0.244-0.038-0.546,0.206-0.676c0.245-0.131,0.547-0.038,0.676,0.206c2.49,4.668,2.969,10.591,2.988,10.841
						c0.021,0.275-0.185,0.516-0.46,0.537C303.695,241.272,303.682,241.272,303.669,241.272z"/>
				</g>
			</g>
			<g>
				<path style="fill:#FFFFFF;" d="M281.15,202.936c-12.752-10.835-23.848-27.632-33.975-26.648l-4.359,51.858
					c0,0,26.162,41.425,37.198,46.023c5.628,2.345,13.139-44.314,13.247-55.955C293.293,214.78,288.88,209.505,281.15,202.936z"/>
				<path style="fill:#350025;" d="M280.43,274.755c-0.239,0-0.445-0.055-0.608-0.124c-11.055-4.606-36.356-44.52-37.428-46.217
					c-0.058-0.092-0.084-0.201-0.075-0.309l4.358-51.858c0.02-0.241,0.209-0.432,0.45-0.456c7.187-0.689,14.789,7.199,22.836,15.56
					c3.699,3.843,7.524,7.817,11.511,11.205c8.3,7.053,12.32,12.176,12.288,15.664c-0.095,10.223-6.481,52.353-12.316,56.203
					C281.069,274.67,280.725,274.755,280.43,274.755z M243.328,228.021c1.694,2.663,26.432,41.335,36.878,45.688
					c0.144,0.06,0.353,0.101,0.688-0.121c5.08-3.352,11.764-44.337,11.867-55.377c0.029-3.129-3.987-8.14-11.935-14.894l0,0
					c-4.024-3.419-7.868-7.412-11.584-11.273c-7.714-8.013-14.997-15.605-21.605-15.288L243.328,228.021z"/>
			</g>
		</g>
		<g style="opacity:0.13;">
			<path style="fill:#350025;" d="M285.955,263.184l0.723-2.729c0,0-18.395-16.591-37.883-42.792l-5.302,2.436l-0.676,8.047
				c0,0,26.162,41.424,37.198,46.023c0.934,0.389,1.92-0.577,2.915-2.503c10.119,8.012,21.008,13.831,29.785,11.716
				c7.663-1.847,13.892-9.791,18.94-20.607C309.583,285.283,285.955,263.184,285.955,263.184z"/>
		</g>
		<g>
			<g>
				<g>
					<path style="fill:#FF6392;" d="M120.627,364.806c-7.023-0.135-10.709,0.509-10.5,3.312c0.286,3.833,18.889,5.108,23.279,2.16
						C133.407,370.278,125.98,364.909,120.627,364.806z"/>
					<path style="fill:#350025;" d="M124.169,372.413c-4.75,0-9.866-0.747-12.489-2.021c-1.297-0.631-1.987-1.383-2.051-2.237
						c-0.063-0.836,0.174-1.544,0.704-2.104c1.282-1.354,4.271-1.863,10.304-1.745c5.447,0.104,12.754,5.343,13.063,5.566
						c0.132,0.096,0.21,0.25,0.207,0.414c-0.003,0.164-0.085,0.315-0.221,0.406C131.913,371.883,128.17,372.413,124.169,372.413z
						 M118.893,365.289c-3.421,0-6.701,0.253-7.833,1.45c-0.337,0.356-0.475,0.783-0.434,1.342c0.034,0.459,0.564,0.961,1.491,1.412
						c4.509,2.19,16.244,2.522,20.333,0.734c-1.92-1.284-7.606-4.839-11.832-4.92l0,0
						C120.045,365.295,119.467,365.289,118.893,365.289z"/>
				</g>
				<g>
					<path style="fill:#FF6392;" d="M143.44,332.706c-10.139,4.398-13.054,24.091-13.054,24.091s-6.463-0.022-9.111,0.599
						c3.448-3.757,9.549-9.418,6.935-12.152s-15.823,6.402-16.907,13.529c-1.084,7.127,20.021,14.446,26.14,10.366
						c6.119-4.08,20.011-28.635,21.871-34.092c2.31-6.775,1.912-11.001-4.447-16.428c-11.252-9.603-42.698-37.727-42.698-37.727
						l43.661-45.161c0,0,10.65-41.73,2.654-48.898c-7.997-7.168-71.795,60.129-85.955,78.337
						c-14.16,18.208,7.501,34.238,20.157,41.88C105.343,314.694,143.44,332.706,143.44,332.706z"/>
					<path style="fill:#350025;" d="M132.314,370.8c-5.196,0-12.053-2.111-16.529-4.96c-3.616-2.301-5.337-4.771-4.976-7.142
						c0.881-5.793,9.131-12.551,14.051-14.105c2.171-0.686,3.216-0.212,3.711,0.305c2.615,2.735-1.904,7.512-5.535,11.35
						c-0.131,0.138-0.261,0.275-0.389,0.411c2.518-0.312,6.082-0.356,7.312-0.362c0.482-2.889,3.505-18.77,12.329-23.585
						c-5.946-2.826-38.436-18.335-49.86-25.233c-14.755-8.91-23.075-17.951-24.728-26.87c-0.997-5.381,0.495-10.679,4.435-15.746
						c12.491-16.061,70.198-77.776,84.298-79.042c1.008-0.091,1.811,0.125,2.385,0.639c8.129,7.286-2.065,47.678-2.503,49.394
						c-0.021,0.084-0.064,0.162-0.125,0.224l-43.3,44.787c3.646,3.258,31.857,28.458,42.302,37.373
						c6.76,5.77,6.83,10.415,4.595,16.97c-1.781,5.223-15.643,30.063-22.067,34.346C136.423,370.42,134.517,370.8,132.314,370.8z
						 M126.791,345.247c-0.447,0-0.997,0.1-1.63,0.3c-4.705,1.486-12.563,8.037-13.364,13.302c-0.292,1.922,1.315,4.105,4.525,6.148
						c6.087,3.874,16.9,6.355,20.844,3.726c5.835-3.891,19.701-28.047,21.675-33.837c2.141-6.276,2.063-10.457-4.298-15.886
						c-11.128-9.498-42.392-37.453-42.707-37.734c-0.101-0.09-0.161-0.219-0.166-0.354c-0.005-0.136,0.045-0.268,0.14-0.366
						l43.569-45.065c0.638-2.553,10.239-41.582,2.772-48.274c-0.359-0.322-0.905-0.453-1.628-0.389
						c-12.988,1.165-69.455,60.474-83.599,78.66c-3.757,4.831-5.184,9.86-4.241,14.949c1.599,8.626,9.762,17.44,24.261,26.196
						c12.489,7.543,50.328,25.451,50.708,25.63c0.177,0.084,0.289,0.264,0.286,0.461c-0.003,0.196-0.121,0.372-0.301,0.45
						c-9.771,4.239-12.73,23.512-12.758,23.707c-0.036,0.245-0.247,0.427-0.495,0.427c-0.003,0-0.02,0-0.061,0
						c-0.656,0-6.509,0.017-8.936,0.586c-0.216,0.048-0.435-0.045-0.546-0.234c-0.111-0.189-0.085-0.429,0.063-0.59
						c0.433-0.473,0.908-0.975,1.403-1.498c3.164-3.344,7.497-7.924,5.539-9.971C127.63,345.361,127.27,345.247,126.791,345.247z"/>
				</g>
			</g>
			<g>
				<path style="fill:#FFFFFF;" d="M125.733,205.592c12.71-10.885,16.13-23.702,37.11-26.314l-4.643,57.375
					c0,0-21.697,30.087-32.602,34.988c-7.932,3.565-15.208-47.811-10.128-56.692C116.275,213.544,123.096,207.85,125.733,205.592z"
					/>
				<path style="fill:#350025;" d="M124.809,272.317c-0.691,0-1.525-0.311-2.429-1.307c-6.575-7.247-11.928-48.294-7.343-56.309
					c0.687-1.201,4.908-4.842,9.173-8.469l1.198-1.021c3.698-3.167,6.601-6.496,9.407-9.714
					c6.658-7.635,12.947-14.847,27.967-16.716c0.15-0.017,0.299,0.031,0.407,0.135c0.109,0.104,0.165,0.252,0.153,0.402
					l-4.643,57.375c-0.007,0.091-0.04,0.178-0.093,0.252c-0.889,1.233-21.901,30.251-32.802,35.152
					C125.524,272.224,125.188,272.317,124.809,272.317z M162.295,179.854c-14.196,1.932-20.009,8.599-26.726,16.302
					c-2.831,3.246-5.757,6.602-9.511,9.816l0,0l-1.201,1.023c-2.899,2.465-8.295,7.054-8.953,8.204
					c-4.487,7.844,0.773,48.04,7.216,55.141c1.205,1.329,2.01,0.965,2.273,0.847c10.326-4.642,30.853-32.694,32.319-34.712
					L162.295,179.854z M125.733,205.592h0.01H125.733z"/>
			</g>
			<g>
				<path style="fill:#350025;" d="M112.17,281.393c-0.133,0-0.267-0.053-0.365-0.158c-2.659-2.838-9.269-2.881-9.335-2.881
					c-0.276-0.001-0.5-0.225-0.5-0.501c0.001-0.276,0.224-0.499,0.5-0.499h0.001c0.289,0,7.109,0.043,10.064,3.197
					c0.189,0.202,0.179,0.518-0.023,0.707C112.415,281.348,112.293,281.393,112.17,281.393z"/>
			</g>
			<g style="opacity:0.13;">
				<path style="fill:#350025;" d="M105.278,278.162c-0.86,7.56,44.855,41.342,54.016,45.523c-0.918-1.647-2.349-3.292-4.427-5.065
					c-11.252-9.603-42.698-37.727-42.698-37.727l10.257-10.609c1.026,1.304,2.092,1.843,3.172,1.358
					c10.905-4.902,32.602-34.988,32.602-34.988l1.405-17.362l-1.035-3.907c-10.125,13.037-25.112,32.592-40.975,42.149l1.295,4.592
					C111.566,268.992,105.631,275.063,105.278,278.162z"/>
			</g>
		</g>
		<g>
			<g>
				<path style="fill:#0063EA;" d="M259.028,300.862l1.191,13.878c0,0,52.504,22.383,55.766,84.773
					c0.913,17.451-1.384,50.888-1.384,50.888H132.961c0,0-11.382-91.819,41.13-127.39c-0.195-1.101-1.543-13.793-1.543-13.793
					L259.028,300.862z"/>
				<path style="fill:#350025;" d="M314.602,450.902H132.961c-0.252,0-0.465-0.188-0.496-0.438
					c-0.029-0.23-2.811-23.333,0.874-50.485c3.396-25.022,13.13-58.687,40.212-77.203c-0.303-2.237-1.448-13.016-1.499-13.503
					c-0.014-0.133,0.025-0.266,0.11-0.369c0.084-0.103,0.206-0.169,0.339-0.182l86.48-8.357c0.127-0.014,0.265,0.027,0.368,0.113
					c0.103,0.086,0.167,0.208,0.178,0.341l1.167,13.585c1.975,0.898,14.168,6.728,26.538,18.972
					c12.411,12.283,27.561,33.724,29.254,66.112c0.903,17.281-1.361,50.614-1.384,50.948
					C315.083,450.698,314.865,450.902,314.602,450.902z M133.407,449.902h180.727c0.271-4.11,2.194-34.256,1.352-50.362
					c-1.676-32.05-16.657-53.269-28.93-65.425c-13.313-13.186-26.402-18.859-26.533-18.914c-0.17-0.073-0.286-0.233-0.302-0.417
					l-1.148-13.375l-85.474,8.26c0.252,2.366,1.316,12.309,1.484,13.256c0.035,0.194-0.048,0.391-0.212,0.501
					c-26.967,18.267-36.658,51.773-40.039,76.664C130.94,425.064,133.045,446.593,133.407,449.902z"/>
			</g>
			<g>
				<path style="fill:#350025;" d="M203.241,325.554c-8.808,0-18.56-0.588-29.217-2.046c-0.273-0.038-0.465-0.29-0.428-0.564
					c0.038-0.273,0.287-0.466,0.563-0.428c54.759,7.492,85.525-8.062,85.83-8.22c0.245-0.126,0.547-0.032,0.674,0.213
					c0.127,0.245,0.032,0.547-0.213,0.674C260.203,315.313,239.97,325.554,203.241,325.554z"/>
			</g>
			<g>
				<path style="fill:#350025;" d="M227.377,394.051c-0.084,0-0.169-0.021-0.246-0.065l-16.474-9.285
					c-0.24-0.136-0.326-0.44-0.19-0.681c0.135-0.241,0.439-0.327,0.681-0.19l16.152,9.104l9.526-9.031
					c0.202-0.189,0.518-0.182,0.707,0.019c0.19,0.2,0.182,0.517-0.019,0.706l-9.794,9.285
					C227.626,394.004,227.502,394.051,227.377,394.051z"/>
			</g>
			<g>
				<line style="fill:#0063EA;" x1="227.377" y1="393.551" x2="231.965" y2="450.37"/>
				<path style="fill:#350025;" d="M231.965,450.87c-0.258,0-0.477-0.198-0.498-0.46l-4.588-56.819
					c-0.022-0.275,0.183-0.516,0.458-0.539c0.274-0.013,0.516,0.183,0.539,0.459l4.588,56.819c0.022,0.275-0.183,0.516-0.458,0.539
					C231.992,450.869,231.979,450.87,231.965,450.87z"/>
			</g>
			<g style="opacity:0.13;">
				<polygon style="fill:#350025;" points="212.653,385.252 231.605,445.912 227.377,393.551 				"/>
			</g>
			<g>
				<path style="fill:#FFAD26;" d="M214.531,316.952c0,2.308,1.871,4.18,4.18,4.18s4.18-1.871,4.18-4.18s-1.871-4.18-4.18-4.18
					S214.531,314.644,214.531,316.952z"/>
				<path style="fill:#350025;" d="M218.711,321.632c-2.581,0-4.68-2.099-4.68-4.68c0-2.58,2.099-4.68,4.68-4.68
					c2.581,0,4.68,2.099,4.68,4.68C223.391,319.533,221.292,321.632,218.711,321.632z M218.711,313.272
					c-2.029,0-3.68,1.651-3.68,3.68c0,2.029,1.651,3.68,3.68,3.68c2.029,0,3.68-1.651,3.68-3.68
					C222.391,314.923,220.74,313.272,218.711,313.272z"/>
			</g>
		</g>
		<g>
			<g>
				<polygon style="fill:#FF6392;" points="187.796,176.289 184.247,155.751 213.791,153.194 219.432,175.464 				"/>
				<path style="fill:#350025;" d="M187.795,176.789c-0.243,0-0.451-0.175-0.493-0.415l-3.549-20.538
					c-0.024-0.138,0.011-0.279,0.097-0.39c0.085-0.111,0.213-0.181,0.353-0.193l29.544-2.557c0.243-0.023,0.468,0.137,0.528,0.376
					l5.642,22.27c0.037,0.147,0.005,0.303-0.086,0.424c-0.092,0.121-0.233,0.194-0.385,0.198l-31.637,0.824
					C187.804,176.789,187.8,176.789,187.795,176.789z M184.832,156.202l3.382,19.575l30.58-0.796l-5.384-21.253L184.832,156.202z"/>
			</g>
			<g>
				<path style="fill:#FF6392;" d="M161.066,179.344"/>
			</g>
			<g>
				<path style="fill:#FFFFFF;" d="M261.367,255.696c6.132-8.859,4.76-25.56-2.189-47.895c-4.006-12.877-13.62-24.327-8.711-31.227
					c-5.787-0.594-13.023-0.809-28.182-1.063v0c1.616-4.852,2.855-12.671-3.135-10.751c-5.99,1.921-9.71,3.835-18.052,3.885
					c-8.341,0.049-12.044-3.555-17.295-2.163c-4.146,1.1,1.58,9.896,1.58,9.896l-1.58,0.059c-8.538,0.316-18.636,1.685-22.739,2.908
					c-9.654,9.199-9.927,19.834-10.152,28.152c-0.304,11.243-2.234,9.931-3.094,31.341c-0.397,9.879,3.332,16.598,7.463,20.976
					c8.093,15.019,7.448,29.668,9.265,41.254c1.817,11.586,27.634,12.301,51.263,9.493c23.502-2.793,40.257-5.991,47.358-12.344
					C269.513,292.541,260.842,277.924,261.367,255.696z"/>
			</g>
			<g>
				<path style="fill:#350025;" d="M161.066,179.844c-0.216,0-0.415-0.14-0.479-0.357c-0.079-0.265,0.071-0.544,0.336-0.622
					c4.395-1.311,14.651-2.624,22.863-2.928l0.719-0.027c-1.068-1.782-3.408-6.109-2.501-8.464c0.281-0.732,0.86-1.232,1.673-1.448
					c2.88-0.763,5.311-0.094,8.124,0.683c2.527,0.697,5.392,1.505,9.295,1.464c6.73-0.04,10.463-1.325,14.785-2.814
					c0.991-0.341,2.016-0.694,3.117-1.047c1.751-0.563,3.089-0.389,3.98,0.513c2.145,2.169,0.749,7.757-0.011,10.225
					c3.873,0.059,7.215,0.056,10.178,0.057c8.337-0.014,13.361-0.003,17.799,1.313c0.265,0.079,0.416,0.357,0.337,0.622
					c-0.078,0.265-0.354,0.416-0.622,0.337c-4.299-1.276-9.278-1.278-17.515-1.272c-3.14-0.003-6.699,0.002-10.868-0.068
					c-0.159-0.003-0.308-0.081-0.4-0.211c-0.092-0.13-0.117-0.296-0.066-0.447c1.186-3.559,2.016-8.275,0.456-9.852
					c-0.605-0.612-1.603-0.701-2.963-0.264c-1.094,0.351-2.113,0.702-3.097,1.041c-4.405,1.517-8.209,2.827-15.104,2.868
					c-4.003,0.024-6.977-0.786-9.566-1.5c-2.785-0.768-4.981-1.376-7.603-0.68c-0.511,0.135-0.827,0.402-0.996,0.84
					c-0.773,2.009,1.808,6.673,2.867,8.3c0.098,0.151,0.108,0.343,0.025,0.503c-0.083,0.16-0.245,0.263-0.425,0.27l-1.58,0.059
					c-8.832,0.328-18.824,1.757-22.614,2.887C161.161,179.837,161.113,179.844,161.066,179.844z"/>
			</g>
			<g>
				<path style="fill:#350025;" d="M194.204,312.451c-14.212,0-28.731-2.268-30.149-11.306c-0.44-2.81-0.735-5.774-1.046-8.912
					c-0.97-9.768-2.069-20.838-8.134-32.125c-4.977-5.303-7.519-12.458-7.554-21.269c-0.029-7.419,1.605-18.646,2.237-22.345
					c0.047-0.272,0.307-0.453,0.577-0.409c0.272,0.046,0.456,0.305,0.409,0.577c-0.628,3.676-2.251,14.825-2.223,22.173
					c0.034,8.575,2.499,15.518,7.327,20.635c0.03,0.032,0.056,0.067,0.076,0.106c6.188,11.483,7.3,22.68,8.28,32.558
					c0.31,3.124,0.603,6.074,1.04,8.855c2.157,13.754,39.36,10.423,50.71,9.074c23.136-2.749,39.997-5.879,47.083-12.219
					c3.318-2.969,2.202-8.887,0.657-17.078c-1.275-6.757-2.861-15.166-2.627-25.082c0.002-0.098,0.033-0.192,0.089-0.273
					c5.728-8.275,4.969-24.244-2.255-47.462c-0.082-0.264,0.065-0.544,0.329-0.626c0.264-0.079,0.544,0.066,0.626,0.329
					c7.284,23.414,8.027,39.629,2.208,48.204c-0.212,9.746,1.353,18.048,2.613,24.725c1.606,8.513,2.766,14.663-0.973,18.008
					c-7.282,6.515-24.309,9.696-47.632,12.467C210.454,311.7,202.379,312.451,194.204,312.451z"/>
			</g>
			<g>
				<path style="fill:#350025;" d="M203.886,177.551c-3.903,0-7.661-0.305-9.474-0.97c-0.259-0.095-0.392-0.382-0.297-0.641
					c0.095-0.259,0.381-0.392,0.642-0.297c4.107,1.506,19.22,0.898,20.72-0.455c0.204-0.186,0.521-0.17,0.706,0.036
					c0.185,0.205,0.169,0.521-0.036,0.706C215.002,176.962,209.305,177.551,203.886,177.551z"/>
			</g>
		</g>
		<g>
			<path style="fill:none;stroke:#350025;stroke-linecap:round;stroke-linejoin:round;stroke-miterlimit:10;" d="M183.805,158.788"
				/>
		</g>
		<g>
			<g>
				<g>
					<path style="fill:#FFAD26;" d="M228.983,159.458c-7.627,0-13.833-6.668-13.833-14.865c0-2.88,0.767-5.674,2.219-8.08
						c0.571-0.945,1.801-1.25,2.746-0.679c0.946,0.571,1.25,1.8,0.679,2.746c-1.075,1.782-1.644,3.861-1.644,6.014
						c0,5.991,4.411,10.865,9.833,10.865c5.422,0,9.833-4.874,9.833-10.865c0-5.991-4.411-10.865-9.833-10.865c-1.105,0-2-0.896-2-2
						c0-1.104,0.895-2,2-2c7.628,0,13.833,6.668,13.833,14.865C242.816,152.789,236.611,159.458,228.983,159.458z"/>
					<path style="fill:#350025;" d="M228.983,159.958c-7.903,0-14.332-6.893-14.332-15.365c0-2.972,0.792-5.855,2.29-8.338
						c0.345-0.572,0.893-0.975,1.54-1.135c0.648-0.162,1.32-0.059,1.892,0.287c1.18,0.712,1.561,2.251,0.849,3.432
						c-1.028,1.704-1.572,3.694-1.572,5.755c0,5.715,4.186,10.365,9.332,10.365c5.146,0,9.333-4.649,9.333-10.365
						c0-5.715-4.187-10.365-9.333-10.365c-1.378,0-2.5-1.122-2.5-2.5c0-1.378,1.122-2.5,2.5-2.5c7.903,0,14.333,6.893,14.333,15.365
						C243.316,153.065,236.886,159.958,228.983,159.958z M219.085,136.045c-0.121,0-0.243,0.015-0.363,0.044
						c-0.389,0.096-0.717,0.338-0.924,0.681c-1.405,2.328-2.147,5.032-2.147,7.822c0,7.921,5.981,14.365,13.332,14.365
						c7.352,0,13.333-6.444,13.333-14.365s-5.981-14.365-13.333-14.365c-0.827,0-1.5,0.673-1.5,1.5c0,0.827,0.673,1.5,1.5,1.5
						c5.698,0,10.333,5.099,10.333,11.365s-4.635,11.365-10.333,11.365c-5.697,0-10.332-5.098-10.332-11.365
						c0-2.243,0.593-4.412,1.715-6.272c0.427-0.708,0.199-1.632-0.509-2.059C219.62,136.119,219.355,136.045,219.085,136.045z"/>
				</g>
			</g>
			<g>
				<path style="fill:#FF6392;" d="M238.777,118.556c3.114,21.71-6.706,39.735-31.49,43.289
					c-24.784,3.555-39.274-10.983-42.388-32.693c-3.074-21.429,6.131-40.998,31.301-44.608
					C217.91,81.43,235.663,96.845,238.777,118.556z"/>
			</g>
			<g>
				<path style="fill:#FF8FB1;" d="M194.424,136.86c0.941,4.992-2.343,9.801-7.335,10.742c-4.992,0.941-9.801-2.343-10.742-7.335
					c-0.941-4.992,2.343-9.801,7.335-10.742C188.673,128.584,193.483,131.868,194.424,136.86z"/>
			</g>
			<g>
				<path style="fill:#FF8FB1;" d="M231.729,130.582c0.637,3.38,3.05,5.971,6.089,7.004c1.531-5.386,1.883-11.383,1.123-17.717
					C234.02,120.866,230.796,125.632,231.729,130.582z"/>
			</g>
			<g>
				<path style="fill:#350025;" d="M207.286,162.345c-0.245,0-0.458-0.18-0.495-0.429c-0.039-0.273,0.151-0.526,0.424-0.566
					c11.596-1.663,20.539-6.719,25.863-14.621c4.98-7.393,6.78-17.11,5.203-28.103c-1.511-10.535-6.531-19.769-14.137-25.999
					c-7.761-6.358-17.658-9.055-27.874-7.588c-26.87,3.854-33.568,25.278-30.876,44.042c1.974,13.761,9.329,24.88,19.675,29.744
					c0.25,0.118,0.357,0.416,0.24,0.666c-0.118,0.249-0.415,0.358-0.665,0.24c-10.651-5.007-18.218-16.412-20.24-30.507
					c-2.76-19.243,4.124-41.215,31.725-45.174c10.49-1.505,20.669,1.267,28.65,7.805c7.799,6.39,12.946,15.847,14.493,26.631
					c1.612,11.242-0.242,21.202-5.364,28.803c-5.486,8.143-14.667,13.348-26.55,15.052
					C207.333,162.344,207.31,162.345,207.286,162.345z"/>
			</g>
			<g>
				<path style="fill:#350025;" d="M202.376,125.209c0.668,2.017-0.425,4.194-2.443,4.863c-2.017,0.668-4.194-0.426-4.863-2.443
					c-0.668-2.017,0.425-4.195,2.443-4.863C199.531,122.098,201.708,123.192,202.376,125.209z"/>
			</g>
			<g>
				<path style="fill:#350025;" d="M232.088,119.88c0.668,2.018-0.425,4.195-2.443,4.863c-2.017,0.668-4.195-0.425-4.863-2.443
					c-0.668-2.018,0.425-4.194,2.443-4.863C229.243,116.768,231.42,117.862,232.088,119.88z"/>
			</g>
			<g>
				<path style="fill:#FF427C;" d="M222.201,132.321c0.333,2.583-0.276,4.054-2.459,4.336c-2.183,0.282-3.146-0.987-3.479-3.57
					c-0.333-2.583-1.195-15.452,0.988-15.734C219.434,117.072,221.867,129.738,222.201,132.321z"/>
				<path style="fill:#350025;" d="M219.169,137.196c-2.566,0-3.174-2.273-3.403-4.045c-0.02-0.159-1.675-15.894,1.42-16.293
					c3.1-0.389,5.489,15.241,5.51,15.399l0,0c0.246,1.91,0.214,4.496-2.891,4.896C219.581,137.183,219.369,137.196,219.169,137.196z
					 M217.348,117.848c-0.011,0-0.022,0.001-0.033,0.002c-1.302,0.168-1.171,10.409-0.556,15.173
					c0.371,2.87,1.436,3.335,2.919,3.138c1.484-0.191,2.397-0.907,2.027-3.776l0,0C221.095,127.661,218.659,117.848,217.348,117.848
					z"/>
			</g>
			<g>
				<path style="fill:#753399;" d="M231.11,110.03c0.732,2.283-1.274,3.738-4.079,4.637c-2.805,0.9-5.283,0.883-6.016-1.401
					c-0.732-2.283,1.274-3.738,4.079-4.637C227.899,107.73,230.378,107.747,231.11,110.03z"/>
				<path style="fill:#350025;" d="M224.027,115.721c-0.307,0-0.595-0.023-0.864-0.067c-1.319-0.22-2.226-0.993-2.624-2.234
					c-0.398-1.242-0.109-2.398,0.835-3.344c0.76-0.76,1.96-1.407,3.567-1.922c1.607-0.516,2.961-0.687,4.02-0.51
					c1.319,0.22,2.226,0.992,2.624,2.234c0.398,1.242,0.109,2.398-0.835,3.344c-0.759,0.76-1.96,1.407-3.567,1.922
					C225.984,115.528,224.926,115.721,224.027,115.721z M228.09,108.575c-0.789,0-1.742,0.178-2.843,0.531
					c-1.455,0.466-2.52,1.031-3.166,1.677c-0.682,0.683-0.875,1.445-0.591,2.332c0.284,0.887,0.885,1.395,1.836,1.554
					c0.903,0.149,2.096-0.01,3.55-0.477c1.455-0.466,2.52-1.031,3.165-1.677c0.682-0.683,0.875-1.445,0.591-2.332l0,0
					c-0.284-0.887-0.885-1.395-1.836-1.553C228.579,108.593,228.343,108.575,228.09,108.575z"/>
			</g>
			<g>
				<path style="fill:#753399;" d="M192.319,116.662c-0.061,2.397,2.274,3.229,5.219,3.304c2.945,0.075,5.318-0.638,5.379-3.035
					c0.061-2.397-2.273-3.229-5.218-3.304C194.753,113.552,192.38,114.265,192.319,116.662z"/>
				<path style="fill:#350025;" d="M197.94,120.471c-0.136,0-0.273-0.002-0.415-0.005c-4.792-0.122-5.748-2.143-5.706-3.816l0,0
					c0.043-1.674,1.103-3.629,5.892-3.522c4.792,0.122,5.748,2.143,5.706,3.816C203.376,118.567,202.378,120.471,197.94,120.471z
					 M192.819,116.674c-0.045,1.771,1.547,2.711,4.731,2.791c3.183,0.077,4.822-0.776,4.867-2.548
					c0.045-1.771-1.547-2.71-4.732-2.791C194.505,114.047,192.864,114.903,192.819,116.674L192.819,116.674z"/>
			</g>
			<g>
				<path style="fill:#FF389A;" d="M223.943,146.775c-0.565,2.656-2.715,4.538-5.558,4.511c-2.843-0.028-4.676-3.266-4.117-5.923
					c0.603-2.865,3.499-3.394,4.766-1.507C220.825,141.813,225.083,141.415,223.943,146.775z"/>
				<path style="fill:#350025;" d="M218.446,151.786c-0.022,0-0.044,0-0.065,0c-1.31-0.013-2.524-0.633-3.42-1.747
					c-1.069-1.331-1.522-3.162-1.182-4.779c0.33-1.568,1.361-2.702,2.69-2.961c0.963-0.188,1.918,0.121,2.602,0.815
					c1.114-0.974,2.809-1.532,4.107-0.881c0.756,0.379,1.924,1.487,1.253,4.646C223.807,149.821,221.406,151.786,218.446,151.786z
					 M217.03,143.245c-0.122,0-0.245,0.012-0.369,0.036c-0.942,0.183-1.653,0.999-1.903,2.184c-0.276,1.311,0.11,2.859,0.983,3.946
					c0.704,0.876,1.645,1.364,2.649,1.374c2.552,0.016,4.527-1.59,5.063-4.115l0,0c0.395-1.854,0.138-3.113-0.723-3.544
					c-0.9-0.453-2.421,0.033-3.321,1.059c-0.102,0.117-0.253,0.18-0.408,0.169c-0.155-0.01-0.296-0.091-0.383-0.221
					C218.234,143.562,217.658,143.245,217.03,143.245z"/>
			</g>
			<g>
				<path style="fill:#350025;" d="M218.1,147.785c-2.428,0-4.832-0.886-6.738-2.542c-0.208-0.181-0.231-0.497-0.05-0.705
					c0.181-0.21,0.498-0.232,0.705-0.05c2.284,1.983,5.358,2.746,8.214,2.038c2.312-0.571,4.136-2.053,4.879-3.962
					c0.1-0.257,0.389-0.386,0.647-0.285c0.257,0.1,0.385,0.39,0.285,0.647c-0.86,2.212-2.943,3.921-5.57,4.57
					C219.689,147.69,218.893,147.785,218.1,147.785z"/>
			</g>
			<g>
				<g>
					<path style="fill:#FF6392;" d="M174.984,132.596c2.281,8.166-2.615,15.753-10.937,16.947
						c-8.322,1.194-16.917-4.458-19.199-12.624c-2.281-8.166,2.615-15.753,10.937-16.947
						C164.107,118.778,172.702,124.43,174.984,132.596z"/>
				</g>
				<g style="opacity:0.13;">
					<path style="fill:#350025;" d="M164.306,132.946c0.861,3.08-0.987,5.943-4.126,6.393c-3.139,0.45-6.382-1.682-7.243-4.763
						c-0.861-3.081,0.987-5.943,4.126-6.393C160.202,127.733,163.445,129.866,164.306,132.946z"/>
				</g>
				<g>
					<g>
						<path style="fill:#350025;" d="M150.914,131.575c-0.094,0-0.189-0.026-0.273-0.081c-0.231-0.151-0.297-0.461-0.146-0.692
							c1.024-1.571,2.749-2.602,4.858-2.904c2.675-0.381,5.569,0.421,7.946,2.203c0.221,0.165,0.266,0.479,0.1,0.7
							c-0.165,0.222-0.479,0.266-0.7,0.1c-2.168-1.626-4.793-2.363-7.205-2.013c-1.819,0.26-3.297,1.134-4.162,2.46
							C151.237,131.495,151.077,131.575,150.914,131.575z"/>
					</g>
					<g>
						<path style="fill:#350025;" d="M158.751,138.641c-0.107,0-0.215-0.034-0.306-0.105c-1.635-1.267-2.826-3.007-3.355-4.898
							c-0.536-1.918-0.362-3.884,0.488-5.537c0.126-0.246,0.428-0.342,0.674-0.216c0.245,0.126,0.342,0.428,0.216,0.674
							c-0.735,1.428-0.882,3.136-0.415,4.81c0.472,1.686,1.539,3.241,3.004,4.377c0.218,0.169,0.258,0.483,0.089,0.701
							C159.049,138.575,158.901,138.641,158.751,138.641z"/>
					</g>
				</g>
				<g>
					<path style="fill:#350025;" d="M161.82,150.201c-7.784,0-15.32-5.512-17.453-13.147c-1.149-4.114-0.585-8.214,1.588-11.546
						c2.148-3.294,5.614-5.435,9.76-6.03c4.731-0.676,9.727,0.765,13.699,3.966c0.215,0.173,0.249,0.488,0.076,0.703
						c-0.172,0.216-0.487,0.251-0.703,0.076c-3.756-3.025-8.465-4.392-12.931-3.754c-3.856,0.553-7.075,2.537-9.064,5.586
						c-2.014,3.087-2.533,6.899-1.462,10.731c2.213,7.92,10.573,13.422,18.646,12.264c2.475-0.355,4.743-1.324,6.559-2.804
						c0.215-0.175,0.53-0.142,0.704,0.072c0.174,0.214,0.142,0.529-0.072,0.704c-1.958,1.595-4.395,2.639-7.049,3.019
						C163.353,150.147,162.585,150.201,161.82,150.201z"/>
				</g>
				<g>
					<path style="fill:none;stroke:#350025;stroke-linecap:round;stroke-linejoin:round;stroke-miterlimit:10;" d="M170.851,146.631
						"/>
				</g>
				<g>
					<path style="fill:none;stroke:#350025;stroke-linecap:round;stroke-linejoin:round;stroke-miterlimit:10;" d="M169.1,123.832"
						/>
				</g>
			</g>
			<g>
				<g>
					<path style="fill:#753399;" d="M170.851,124.861c18.09,0.078,31.168-29.249,32.26-37.401c0,0,16.33,19.117,30.44,15.63
						c2.513-0.621,5.785-6.521,0-16.67c-5.79-10.158-20.687-7.24-34.827-6.262c-23.895,1.653-39.786,27.017-35.88,39.813
						C163.668,122.672,167.646,124.847,170.851,124.861z"/>
				</g>
				<g>
					<g>
						<path style="fill:#350025;" d="M172.03,125.438c-2.668,0-9.687-1.681-9.687-5.468c0-0.276,0.224-0.5,0.5-0.5
							c0.276,0,0.5,0.224,0.5,0.5c0,2.902,6.166,4.468,8.687,4.468c16.294,0,29.522-29.114,30.585-37.045
							c0.026-0.195,0.165-0.357,0.354-0.413c0.19-0.056,0.394,0.005,0.522,0.155c0.162,0.188,16.297,18.837,29.939,15.47
							c0.86-0.197,1.559-0.743,2.085-1.624c1.147-1.92,1.294-5.169,0.383-8.48c-1.323-4.81-4.508-8.838-8.738-11.052
							c-0.245-0.128-0.339-0.43-0.211-0.675c0.128-0.244,0.429-0.34,0.675-0.211c4.475,2.342,7.842,6.596,9.238,11.672
							c0.996,3.619,0.813,7.081-0.488,9.259c-0.663,1.108-1.6,1.829-2.712,2.083c-12.754,3.15-26.933-11.377-30.238-15.012
							C201.455,97.911,188.226,125.438,172.03,125.438z"/>
					</g>
				</g>
			</g>
			<g>
				<g>
					<path style="fill:#FFAD26;" d="M164.942,172.537c-7.593,0.725-14.403-5.324-15.182-13.484
						c-0.274-2.867,0.225-5.721,1.441-8.254c0.478-0.995,1.674-1.415,2.669-0.937c0.996,0.478,1.415,1.673,0.937,2.669
						c-0.901,1.876-1.269,4-1.065,6.143c0.569,5.964,5.423,10.397,10.82,9.882s9.326-5.786,8.757-11.75
						c-0.569-5.964-5.423-10.397-10.821-9.882c-1.1,0.105-2.076-0.702-2.181-1.801c-0.105-1.099,0.702-2.076,1.801-2.181
						c7.593-0.725,14.404,5.324,15.182,13.484C178.079,164.584,172.535,171.812,164.942,172.537z"/>
					<path style="fill:#350025;" d="M163.698,173.096c-3.357,0-6.595-1.253-9.234-3.596c-2.966-2.634-4.813-6.327-5.201-10.399
						c-0.283-2.958,0.232-5.903,1.488-8.518c0.289-0.602,0.795-1.056,1.426-1.277c0.631-0.221,1.309-0.183,1.911,0.105
						c1.242,0.597,1.768,2.093,1.171,3.335c-0.862,1.794-1.214,3.827-1.018,5.879c0.264,2.761,1.485,5.264,3.439,7.049
						c1.94,1.772,4.368,2.618,6.836,2.383c2.468-0.235,4.692-1.525,6.262-3.633c1.581-2.122,2.307-4.811,2.044-7.572
						c-0.542-5.689-5.144-9.912-10.275-9.432c-0.661,0.066-1.314-0.135-1.829-0.561c-0.515-0.425-0.833-1.025-0.897-1.691
						c-0.13-1.372,0.879-2.595,2.251-2.726c7.867-0.748,14.923,5.5,15.727,13.934c0.389,4.072-0.727,8.048-3.141,11.195
						c-2.422,3.158-5.856,5.097-9.668,5.461C164.558,173.076,164.126,173.096,163.698,173.096z M153.006,150.164
						c-0.168,0-0.336,0.029-0.498,0.086c-0.378,0.133-0.682,0.405-0.856,0.766c-1.177,2.451-1.659,5.214-1.394,7.99
						c0.365,3.82,2.094,7.281,4.87,9.746c2.767,2.456,6.232,3.623,9.767,3.287c3.532-0.337,6.718-2.139,8.969-5.075
						c2.26-2.946,3.303-6.672,2.939-10.492c-0.752-7.885-7.318-13.727-14.637-13.034c-0.823,0.079-1.429,0.813-1.351,1.636
						c0.038,0.399,0.229,0.759,0.538,1.014c0.309,0.255,0.699,0.374,1.098,0.337c5.674-0.544,10.771,4.094,11.365,10.332
						c0.287,3.008-0.507,5.943-2.237,8.264c-1.741,2.336-4.216,3.768-6.969,4.03c-2.754,0.267-5.454-0.674-7.605-2.64
						c-2.138-1.952-3.473-4.684-3.76-7.692c-0.213-2.233,0.171-4.448,1.112-6.406c0.358-0.746,0.042-1.643-0.703-2.001
						C153.448,150.213,153.227,150.164,153.006,150.164z"/>
				</g>
			</g>
		</g>
		<g>
			<g>
				<path style="fill:#FFAD26;" d="M352.443,183.245c-0.272,0.02-0.552,0.001-0.833-0.057c-4.903-1.03-22.895-7.807-28.833-16.02
					c-0.971-1.342-0.67-3.217,0.673-4.189c1.343-0.972,3.219-0.669,4.189,0.674c4.366,6.037,19.841,12.536,25.205,13.662
					c1.621,0.341,2.66,1.932,2.319,3.553C354.881,182.209,353.745,183.151,352.443,183.245z"/>
				<path style="fill:#350025;" d="M352.232,183.752c-0.241,0-0.484-0.025-0.724-0.075c-4.949-1.04-23.119-7.894-29.136-16.216
					c-1.131-1.563-0.779-3.755,0.785-4.887c0.758-0.548,1.683-0.767,2.607-0.62c0.923,0.148,1.733,0.648,2.28,1.406
					c4.297,5.942,19.595,12.352,24.902,13.466c1.889,0.397,3.103,2.256,2.706,4.145c-0.32,1.521-1.625,2.661-3.173,2.772
					c-0.001,0-0.001,0-0.001,0C352.396,183.749,352.314,183.752,352.232,183.752z M352.443,183.245h0.01H352.443z M325.203,162.909
					c-0.521,0-1.028,0.163-1.459,0.475c-1.117,0.808-1.369,2.374-0.561,3.491c5.858,8.104,23.673,14.803,28.53,15.824
					c0.232,0.048,0.464,0.064,0.695,0.048c1.105-0.08,2.038-0.895,2.267-1.981c0.283-1.349-0.584-2.677-1.933-2.961
					c-5.419-1.138-21.071-7.725-25.507-13.859c-0.391-0.542-0.97-0.898-1.629-1.004C325.47,162.919,325.336,162.909,325.203,162.909
					z"/>
			</g>
		</g>
		<g>
			<g>
				<path style="fill:#FFAD26;" d="M348.877,192.989c-0.272,0.02-0.552,0.001-0.833-0.057c-4.903-1.03-22.895-7.807-28.833-16.02
					c-0.971-1.342-0.67-3.217,0.673-4.189c1.343-0.972,3.219-0.669,4.189,0.674c4.366,6.037,19.841,12.536,25.205,13.662
					c1.621,0.341,2.66,1.932,2.319,3.553C351.315,191.953,350.179,192.895,348.877,192.989z"/>
				<path style="fill:#350025;" d="M348.666,193.496c-0.241,0-0.484-0.025-0.724-0.075c-4.949-1.04-23.119-7.894-29.136-16.216
					c-1.13-1.564-0.778-3.756,0.785-4.887c0.759-0.548,1.684-0.767,2.607-0.62c0.923,0.148,1.733,0.648,2.28,1.406
					c4.298,5.942,19.595,12.352,24.902,13.466c1.889,0.397,3.103,2.257,2.706,4.146c-0.319,1.52-1.625,2.661-3.173,2.772
					c-0.001,0-0.001,0-0.001,0C348.831,193.493,348.749,193.496,348.666,193.496z M348.877,192.989h0.01H348.877z M321.637,172.653
					c-0.521,0-1.028,0.163-1.46,0.475c-1.117,0.808-1.368,2.374-0.56,3.491c5.859,8.104,23.673,14.803,28.53,15.824
					c0.231,0.048,0.466,0.065,0.694,0.048l0,0c1.107-0.08,2.038-0.894,2.267-1.981c0.284-1.349-0.584-2.677-1.933-2.961
					c-5.419-1.138-21.071-7.725-25.507-13.859c-0.391-0.542-0.97-0.898-1.629-1.004
					C321.905,172.664,321.771,172.653,321.637,172.653z"/>
			</g>
		</g>
		<g style="opacity:0.13;">
			<path style="fill:#350025;" d="M162.844,388.908c-1.236-37.556,22.541-64.635,22.541-64.635l-1.58-12.848
				c0,0-6.485-1.036-7.619-10.564c-1.134-9.527-7.416-33.423-20.902-41.049c8.093,15.019,7.448,29.668,9.265,41.254
				c0.591,3.769,3.734,6.382,8.504,8.103l-0.504,0.049c0,0,1.348,12.692,1.543,13.793c-52.513,35.57-41.13,127.39-41.13,127.39
				h35.362l0.021-0.032C168.344,450.37,164.08,426.464,162.844,388.908z"/>
		</g>
	</g>
	<g>
		<g>
			<path style="fill:#FFFFFF;" d="M398.071,265.681c-12.521,0-22.671-10.15-22.671-22.671s10.15-22.671,22.671-22.671
				c0.13,0,0.258,0.008,0.387,0.01c1.953-10.534,11.184-18.514,22.284-18.514c12.521,0,22.671,10.15,22.671,22.671
				c0,0.729-0.038,1.448-0.105,2.159c1.846-0.585,3.809-0.905,5.849-0.905c10.687,0,19.351,8.664,19.351,19.351
				c0,10.687-8.839,20.569-19.526,20.569H398.071z"/>
			<path style="fill:#350025;" d="M448.981,266.181h-50.911c-12.777,0-23.171-10.395-23.171-23.171
				c0-12.769,10.382-23.158,23.148-23.171c2.197-10.748,11.673-18.504,22.694-18.504c12.776,0,23.171,10.395,23.171,23.171
				c0,0.48-0.016,0.973-0.049,1.473c1.725-0.477,3.501-0.718,5.292-0.718c10.946,0,19.851,8.905,19.851,19.851
				C469.007,256.335,459.649,266.181,448.981,266.181z M398.071,220.839c-12.225,0-22.171,9.946-22.171,22.171
				c0,12.226,9.946,22.171,22.171,22.171h50.911c10.135,0,19.026-9.378,19.026-20.069c0-10.395-8.457-18.851-18.851-18.851
				c-1.934,0-3.851,0.296-5.698,0.881c-0.16,0.05-0.335,0.018-0.465-0.087c-0.131-0.105-0.2-0.27-0.184-0.436
				c0.068-0.719,0.103-1.43,0.103-2.112c0-12.225-9.946-22.171-22.171-22.171c-10.682,0-19.847,7.614-21.793,18.105
				c-0.044,0.24-0.215,0.423-0.499,0.409L398.071,220.839z"/>
		</g>
		<g>
			<path style="fill:#FFFFFF;" d="M101.929,139.998c12.521,0,22.671-10.15,22.671-22.671s-10.15-22.671-22.671-22.671
				c-0.13,0-0.258,0.008-0.387,0.01c-1.953-10.534-11.184-18.514-22.284-18.514c-12.521,0-22.671,10.15-22.671,22.671
				c0,0.729,0.038,1.448,0.105,2.159c-1.846-0.585-3.809-0.904-5.849-0.904c-10.687,0-19.351,8.664-19.351,19.351
				c0,10.687,8.839,20.569,19.526,20.569H101.929z"/>
			<path style="fill:#350025;" d="M101.929,140.498H51.019c-10.668,0-20.026-9.845-20.026-21.069
				c0-10.946,8.905-19.851,19.851-19.851c1.792,0,3.569,0.241,5.292,0.718c-0.033-0.499-0.049-0.993-0.049-1.473
				c0-12.776,10.395-23.171,23.171-23.171c11.021,0,20.498,7.756,22.694,18.504c12.766,0.013,23.148,10.402,23.148,23.171
				C125.101,130.103,114.706,140.498,101.929,140.498z M50.844,100.578c-10.395,0-18.851,8.457-18.851,18.851
				c0,10.691,8.891,20.069,19.026,20.069h50.911c12.225,0,22.171-9.946,22.171-22.171s-9.946-22.171-22.171-22.171l-0.377,0.01
				c-0.231-0.02-0.457-0.168-0.501-0.409c-1.945-10.491-11.11-18.105-21.792-18.105c-12.225,0-22.171,9.946-22.171,22.171
				c0,0.682,0.035,1.392,0.103,2.112c0.016,0.167-0.053,0.331-0.184,0.437c-0.131,0.105-0.306,0.138-0.465,0.087
				C54.696,100.874,52.779,100.578,50.844,100.578z"/>
		</g>
	</g>
</g>
</svg>
