<?xml version="1.0" encoding="utf-8"?>
<!-- Generator: Adobe Illustrator 27.5.0, SVG Export Plug-In . SVG Version: 6.00 Build 0)  -->
<svg version="1.1" xmlns="http://www.w3.org/2000/svg" xmlns:xlink="http://www.w3.org/1999/xlink" x="0px" y="0px"
	 viewBox="0 0 500 500" style="enable-background:new 0 0 500 500;" xml:space="preserve">
<g id="BACKGROUND">
	<rect style="fill:#D6EDF5;" width="500" height="500"/>
</g>
<g id="OBJECTS">
	<path style="fill:#EDFEFF;" d="M243.021,387.898c-53.396,0.213-107.394-18.958-146.15-56.061
		c-38.755-37.103-60.849-92.463-54.381-146.002S85.438,82.562,135.695,64.341c27.58-9.999,61.175-9.567,83.186,9.972
		c10.329,9.169,17.155,21.588,25.319,32.766c8.164,11.178,18.722,21.784,32.224,24.417c14.962,2.918,29.715-4.494,44.386-8.652
		c45.261-12.824,97.225,8.206,122.971,47.935c25.746,39.728,24.621,94.816-0.941,134.665
		c-19.608,30.565-51.363,51.591-85.132,64.358C323.939,382.568,287.912,387.719,243.021,387.898z"/>
	<g>
		<path style="fill:#FFC400;" d="M347.144,116.154c0.945-15.411,1.118-20.842,9.611-22.754c-7.192-1.85-9.441-2.208-10.441-16.246
			c-1.212,14.734-2.971,15.012-9.559,16.626C344.477,95.367,345.908,101.275,347.144,116.154z"/>
		<path style="fill:#FFC400;" d="M75.338,191.327c0.945-15.411,1.118-20.842,9.611-22.755c-7.192-1.85-9.441-2.208-10.441-16.245
			c-1.213,14.734-2.971,15.012-9.559,16.626C72.671,170.54,74.102,176.448,75.338,191.327z"/>
		<path style="fill:#FFC400;" d="M332.671,222.9c0.401-7.113,0.475-9.62,4.085-10.502c-3.057-0.854-4.013-1.019-4.438-7.498
			c-0.515,6.8-1.263,6.929-4.062,7.674C331.537,213.306,332.145,216.033,332.671,222.9z"/>
		<path style="fill:#FFC400;" d="M437.915,154.126c0.401-7.113,0.475-9.62,4.085-10.502c-3.057-0.854-4.013-1.019-4.438-7.498
			c-0.515,6.8-1.263,6.928-4.062,7.674C436.782,144.531,437.39,147.258,437.915,154.126z"/>
		<path style="fill:#FFC400;" d="M132.63,105.654c0.401-7.113,0.475-9.62,4.085-10.502c-3.057-0.854-4.013-1.019-4.438-7.498
			c-0.515,6.8-1.263,6.929-4.062,7.674C131.497,96.06,132.105,98.787,132.63,105.654z"/>
		<path style="fill:#FFC400;" d="M179.13,231.9c0.401-7.113,0.475-9.62,4.085-10.502c-3.057-0.854-4.013-1.019-4.438-7.498
			c-0.515,6.8-1.263,6.929-4.062,7.674C177.997,222.306,178.605,225.033,179.13,231.9z"/>
	</g>
	<g>
		<defs>
			<rect id="SVGID_1_" width="500" height="500"/>
		</defs>
		<clipPath id="SVGID_00000113329917053443591870000000698864771755329415_">
			<use xlink:href="#SVGID_1_"  style="overflow:visible;"/>
		</clipPath>
		<g style="clip-path:url(#SVGID_00000113329917053443591870000000698864771755329415_);">
			<g>
				<path style="fill:none;stroke:#B7DCED;stroke-miterlimit:10;" d="M167.14,483.779c-14.376-30.806-39.461-54.571-69.603-65.94"/>
				<path style="fill:#B7DCED;" d="M119.479,429.644c-15.154-20.254-40.913-30.057-66.124-25.164
					C71.598,415.612,91.94,423.062,119.479,429.644z"/>
				<path style="fill:#B7DCED;" d="M127.685,434.117c-12.789-15.092-21.027-34.832-23.403-56.071
					C118.883,392.001,128.244,412.249,127.685,434.117z"/>
				<path style="fill:#B7DCED;" d="M137.16,442.73c-6.638-19.119-4.862-42.36,4.732-61.905
					C147.614,400.523,146.361,423.275,137.16,442.73z"/>
				<path style="fill:#B7DCED;" d="M148.001,454.405c-2.118-10.566-0.319-22.156,3.334-32.905
					c3.653-10.749,9.086-20.827,14.485-30.827C167.159,411.499,161.324,433.624,148.001,454.405z"/>
				<path style="fill:#B7DCED;" d="M130.596,436.541c-17.992-7.039-38.912-6.72-58.157,0.886
					C89.552,446.517,111.1,446.613,130.596,436.541z"/>
				<path style="fill:#B7DCED;" d="M145.809,449.425c-15.983-7.106-36.735-2.404-50.774,11.505
					C111.233,460.839,127.785,456.846,145.809,449.425z"/>
				<path style="fill:#B7DCED;" d="M156.561,464.547c-14.776-4.433-31.817-1.852-46.216,6.999
					C123.798,477.785,140.82,475.8,156.561,464.547z"/>
				<path style="fill:#B7DCED;" d="M161.931,474.267c-3.146-21.112,2.19-44.541,14.394-63.195
					C178.238,432.048,173.57,454.44,161.931,474.267z"/>
				<path style="fill:#B7DCED;" d="M173.285,490.688c-12.641-11.901-32.721-13.814-49.06-4.674
					C138.01,492.478,153.894,494.388,173.285,490.688z"/>
			</g>
			<g>
				<path style="fill:none;stroke:#B7DCED;stroke-miterlimit:10;" d="M355.511,505.784c27.857-19.484,61.466-27.515,93.253-22.281"
					/>
				<path style="fill:#B7DCED;" d="M423.86,482.749c23.254-9.958,50.462-5.561,69.844,11.287
					C472.339,494.549,450.997,490.825,423.86,482.749z"/>
				<path style="fill:#B7DCED;" d="M414.516,482.517c18.623-6.672,35.631-19.643,48.312-36.846
					C443.205,450.452,424.971,463.303,414.516,482.517z"/>
				<path style="fill:#B7DCED;" d="M402.004,485.236c15.311-13.234,25.399-34.248,26.868-55.971
					C414.064,443.459,403.768,463.787,402.004,485.236z"/>
				<path style="fill:#B7DCED;" d="M386.776,489.923c7.119-8.09,11.359-19.025,13.573-30.16c2.214-11.135,2.55-22.579,2.877-33.939
					C391.65,443.187,385.635,465.264,386.776,489.923z"/>
				<path style="fill:#B7DCED;" d="M410.784,483.161c19.101,2.905,37.055,13.645,49.915,29.858
					C441.333,512.329,422.627,501.634,410.784,483.161z"/>
				<path style="fill:#B7DCED;" d="M391.165,486.707c17.394,1.842,33.011,16.294,38.211,35.359
					C415.396,513.885,403.06,502.148,391.165,486.707z"/>
				<path style="fill:#B7DCED;" d="M374.291,494.423c15.012,3.553,28.477,14.311,36.518,29.178
					C396.039,522.274,382.292,512.041,374.291,494.423z"/>
				<path style="fill:#B7DCED;" d="M364.779,500.154c13.284-16.707,20.383-39.664,19.147-61.921
					C371.778,455.439,364.619,477.163,364.779,500.154z"/>
				<path style="fill:#B7DCED;" d="M346.734,508.694c16.898-3.982,35.243,4.406,44.819,20.493
					C376.383,527.887,361.673,521.597,346.734,508.694z"/>
			</g>
			<g>
				<path style="fill:#B7DCED;" d="M172.852,515.68c-34.101-27.239-73.598-48.523-116.764-60.967
					c-7.953-2.293-18.27-3.604-24.031,3.056c-4.818,5.571-3.304,13.797,0.685,19.163c7.538,10.138,21.327,13.577,34.171,16.436
					C105.61,501.981,144.306,510.594,172.852,515.68z"/>
				<path style="fill:none;stroke:#E7FEFF;stroke-linecap:round;stroke-linejoin:round;stroke-miterlimit:10;" d="M55.175,470.805
					c39.385,12.388,77.663,27.411,114.498,44.937"/>
			</g>
			<g>
				<path style="fill:#B7DCED;" d="M324.931,486.81c15.59-40.765,38.85-79.132,69.753-111.737
					c5.694-6.007,13.923-12.367,22.265-9.545c6.977,2.36,9.841,10.219,9.122,16.866c-1.359,12.559-11.503,22.514-21.126,31.488
					C375.953,440.919,346.961,467.957,324.931,486.81z"/>
				<path style="fill:none;stroke:#E7FEFF;stroke-linecap:round;stroke-linejoin:round;stroke-miterlimit:10;" d="M403.627,388.481
					c-27.673,30.641-53.055,62.993-75.925,96.771"/>
			</g>
		</g>
	</g>
	<g>
		<defs>
			<rect id="SVGID_00000141417852802619519080000007473446201663892636_" width="500" height="500"/>
		</defs>
		<clipPath id="SVGID_00000003817606922038119640000016546060481749674943_">
			<use xlink:href="#SVGID_00000141417852802619519080000007473446201663892636_"  style="overflow:visible;"/>
		</clipPath>
		<g style="clip-path:url(#SVGID_00000003817606922038119640000016546060481749674943_);">
			<g>
				<path style="fill:#FFDFDB;" d="M320.11,506.97c-0.57,0.07-1.14,0.13-1.71,0.19c-42.19,4.84-84.33,5.23-125.99,0.9
					c3.56-57.82,9.05-122.98,16.52-184.63c3.17-26.18,6.7-51.73,10.59-75.82c4.14,0.28,10.11-0.33,18.16-1.23
					c16.52,0.48,33.07,0.12,50.22,0.64C300.97,327.96,312.38,425.34,320.11,506.97z"/>
				<path style="opacity:0.5882;fill:#EDC7C7;" d="M318.4,507.16c-42.19,4.84-84.33,5.23-125.99,0.9
					c3.56-57.82,9.05-122.98,16.52-184.63c2.51-2.67,5.49-4.38,9.02-3.8c-1.5,17.27-1.24,42.33,1.91,59.37s11.25,33.81,25.27,43.99
					c14.03,10.18,34.54,12.26,48.6,2.15c-14.24,16.23-38.75,22.54-59.06,15.21c22.04,17.18,54.98,18.78,78.58,3.8
					c-4.18,17.13-22.39,27.85-39.98,29.08c-17.59,1.24-34.77-4.9-51.33-10.95c11.05,12.46,27.78,18.95,44.4,19.98
					c16.63,1.03,33.21-2.95,48.83-8.74C315.73,484.78,316.81,496,318.4,507.16z"/>
				<g>
					<path style="fill:none;stroke:#DBB4B5;stroke-width:2;stroke-linecap:round;stroke-linejoin:round;stroke-miterlimit:10;" d="
						M230.242,292.769c7.934,14.003,21.397,24.773,36.801,29.439"/>
					<path style="fill:none;stroke:#DBB4B5;stroke-width:2;stroke-linecap:round;stroke-linejoin:round;stroke-miterlimit:10;" d="
						M218.948,458.334c21.213,13.414,47.837,17.976,72.305,12.389"/>
					<path style="fill:none;stroke:#DBB4B5;stroke-width:2;stroke-linecap:round;stroke-linejoin:round;stroke-miterlimit:10;" d="
						M235.32,439.639c19.135,8.014,42.367,5.307,59.146-6.893"/>
				</g>
			</g>
			<g>
				<path style="fill:#FF726E;" d="M278.46,251.57c-17.05,32.37-46.62,19.7-57.26,2.64c0.67-6.26,1.21-12.67,1.32-18
					c0.2-0.5,0.38-1,0.54-1.49c2.28-6.87,1.34-12.51,0.97-19.74c15.78,2.5,31.15,1.38,47.05-1.54c-0.14,3.76,0.06,8.08,0.76,12.07
					c0.52,3.01,1.33,5.83,2.5,8.07C275.48,240.21,276.92,244.83,278.46,251.57z"/>
				<path style="fill:#C94F5B;" d="M271.84,225.51c-6.65,5.37-13.44,9.81-21.13,12.26c-9.15,2.9-19.97,2.33-27.65-3.05
					c2.28-6.87,1.34-12.51,0.97-19.74c15.78,2.5,31.15,1.38,47.05-1.54C270.94,217.2,271.14,221.52,271.84,225.51z"/>
			</g>
			<g>
				<path style="fill:#0094A8;" d="M224.52,226.04c-0.19,16.63-1.26,32.94-3.02,48.65c-4.21,78.24-8,156.78-12.51,236.09
					c-18.2,3.89-37.08,4.51-55.04,1.98c-4.4-0.62-8.75-1.43-13.02-2.43l13.45-95.62c0.83-7.48,1.45-13.18,1.21-19.01
					c0-0.06-0.01-0.13-0.01-0.19c-13.66,3.86-30.42,10.4-44.14,14.61c-7.54,4.47-15.62,7.93-24,10.45
					c-3.57,1.08-7.39,1.07-10.99,0.07c-9.59-2.65-18.72-7.06-26.82-12.93c-0.18-0.12-0.35-0.24-0.52-0.37
					c-5.31-3.89-8.18-10.26-7.68-16.82c0.94-12.38,3.35-23.88,7.14-34.69c-1.71-2.47-3.12-5.15-4.13-8.02
					c8.98-11.95,16.34-23.02,23.7-34.09c3.21-0.8,6.18-1.54,9.14-2.29c0.07-0.01,0.14-0.03,0.21-0.05
					c4.83,2.25,9.41,4.29,13.85,6.21c3.93-3.69,8.26-6.87,13.32-9.21c0.26-0.26,0.51-0.51,0.77-0.76
					c14.37-14.33,28.56-27.1,43.03-40.91c5.11-4.89,11.08-8.8,17.56-11.64c9.5-4.15,19.27-8.11,29.3-12.07
					c1.94-2.64,3.98-5.21,6.12-7.71c2.24-2.61,5.14-4.59,8.4-5.8c4.36-1.63,9.25-3.06,13.95-3.4
					C224.04,226.07,224.28,226.05,224.52,226.04z"/>
				<g>
					<path style="fill:#11C2C2;" d="M223.79,226.09c-8.45,3.24-15.62,8.48-21.66,14.63c-8.76,8.9-15.39,19.67-21.37,30.64
						c1.02-7.67,4.11-15.04,8.93-21.16c-10.44,3.98-20.38,9.26-28.84,16.53c-0.15,13.9,0.5,27.81,1.96,41.63
						c-4.83-11.23-7.76-23.28-8.8-34.34c-16.23,14.32-32.46,28.64-48.69,42.95c0.25-3.11,0.29-6.23,0.11-9.35
						c14.37-14.33,28.56-27.1,43.03-40.91c5.11-4.89,11.08-8.8,17.56-11.64c9.5-4.15,19.27-8.11,29.3-12.07
						c1.94-2.64,3.98-5.21,6.12-7.71c2.24-2.61,5.14-4.59,8.4-5.8C214.2,227.86,219.09,226.43,223.79,226.09z"/>
					<path style="fill:#11C2C2;" d="M77.28,311.43c-0.56,2.98-0.87,6-0.91,9.03c-9.87,9.05-16.86,19.71-20.29,31.82
						c0.32,4.12,2.34,7.97,5,11.13c2.66,3.16,5.94,5.74,9.19,8.29c-6.21-1.56-11.91-5.12-15.99-9.79
						c-3.19,9.24-6.41,18.62-7.03,28.38c-0.37,5.86,0.32,11.95,2.38,17.42c-0.18-0.12-0.35-0.24-0.52-0.37
						c-5.31-3.89-8.18-10.26-7.68-16.82c0.94-12.38,3.35-23.88,7.14-34.69c-1.71-2.47-3.12-5.15-4.13-8.02
						c8.98-11.95,16.34-23.02,23.7-34.09C71.35,312.92,74.32,312.18,77.28,311.43z"/>
					<path style="fill:#11C2C2;" d="M159.18,376.39c-1.74,45.46-3.48,90.92-5.23,136.37c-4.4-0.62-8.75-1.43-13.02-2.43l13.45-95.62
						c0.83-7.48,1.45-13.18,1.21-19.01C156.79,389.26,157.98,382.82,159.18,376.39z"/>
				</g>
				<g>
					<path style="fill:none;stroke:#066D8F;stroke-width:2;stroke-linecap:round;stroke-linejoin:round;stroke-miterlimit:10;" d="
						M194.577,244.999c-8.415,9.993-14.849,21.648-16.278,33.604c6.79-2.512,13.731-5.055,20.968-5.264
						c7.237-0.209,14.955,2.327,19.18,8.207"/>
					<path style="fill:none;stroke:#066D8F;stroke-width:2;stroke-linecap:round;stroke-linejoin:round;stroke-miterlimit:10;" d="
						M160.481,265.836c-0.36,18.304,2.011,38.677,5.761,56.596"/>
					<path style="fill:none;stroke:#066D8F;stroke-width:2;stroke-linecap:round;stroke-linejoin:round;stroke-miterlimit:10;" d="
						M168.495,310.846c-5.961,29.386-8.67,53.217-12.718,82.956"/>
					<path style="fill:none;stroke:#066D8F;stroke-width:2;stroke-linecap:round;stroke-linejoin:round;stroke-miterlimit:10;" d="
						M114.069,330.18c1.084,0.858,2.168,1.717,3.312,3.117c-0.038,8.665,0.578,17.333,1.806,26.405
						c-8.812,9.316-21.624,14.714-34.446,14.515c-12.822-0.199-25.459-5.994-33.978-15.579"/>
					<path style="fill:none;stroke:#066D8F;stroke-width:2;stroke-linecap:round;stroke-linejoin:round;stroke-miterlimit:10;" d="
						M113.239,365.494c1.453,4.696,3.358,9.258,5.994,13.903c-0.094,5.565-1.368,11.169-3.731,16.419"/>
					<path style="fill:none;stroke:#066D8F;stroke-width:2;stroke-linecap:round;stroke-linejoin:round;stroke-miterlimit:10;" d="
						M117.854,336.918c10.253,6.446,18.941,15.362,25.119,25.779"/>
				</g>
			</g>
			<g>
				<g>
					<path style="fill:#FF726E;" d="M201.669,194.787c-7.934,0.218-15.901-3.024-21.173-8.616c-5.272-5.592-7.75-13.43-6.585-20.829
						c0.573-3.638,2.346-7.524,5.958-8.917c2.79-1.076,6.069-0.366,8.62,1.147c2.551,1.514,4.52,3.739,7.578,6.349
						C196.925,174.271,198.819,184.546,201.669,194.787z"/>
					<path style="fill:#C94F5B;" d="M198.06,173.865c-1.474-2.172-3.25-4.287-5.759-5.651c-2.509-1.364-5.887-1.844-8.526-0.663
						c-3.362,1.505-4.509,5.181-3.911,8.319c0.769,4.04,3.84,7.636,7.844,10.008c4.003,2.371,8.87,3.593,13.758,4.003
						C200.153,184.821,201.566,179.031,198.06,173.865z"/>
				</g>
				<g>
					<path style="fill:#FF726E;" d="M289.192,191.287c7.934,0.218,15.901-3.024,21.173-8.616c5.272-5.592,7.75-13.43,6.585-20.829
						c-0.572-3.638-2.346-7.524-5.958-8.917c-2.79-1.076-6.069-0.366-8.62,1.147c-2.551,1.514-4.52,3.739-7.578,6.349
						C293.937,170.771,292.043,181.046,289.192,191.287z"/>
					<path style="fill:#C94F5B;" d="M292.802,170.365c1.474-2.172,3.25-4.287,5.759-5.651c2.509-1.364,5.887-1.844,8.526-0.663
						c3.362,1.505,4.509,5.181,3.911,8.319c-0.769,4.04-3.84,7.636-7.844,10.008c-4.003,2.371-8.87,3.593-13.758,4.003
						C290.708,181.321,289.296,175.531,292.802,170.365z"/>
				</g>
				<path style="fill:#FF726E;" d="M290.309,201.024c5.184-11.553,7.058-25.257,9.782-37.624
					c1.996-12.316,3.937-28.354,3.432-40.001c-0.505-11.647-3.284-23.448-9.815-33.105c-4.738-7.005-11.316-12.666-18.655-16.867
					c-14.862-8.508-33.181-10.986-49.616-6.175c-16.435,4.811-30.678,16.992-37.461,32.716c-8.365,19.391-5.168,41.817,1.489,62.753
					c3.02,13.358,6.881,26.564,13.846,39.358c8.588,15.776,26.451,25.956,44.412,25.737
					C265.683,227.599,284.17,214.705,290.309,201.024z"/>
				<g>
					<g>
						<path style="fill:#630517;" d="M230.735,143.086c-2.915-2.293-6.366-3.901-9.524-4.684
							c-8.67-1.085-17.779,3.568-21.983,11.228C208.313,144.824,218.524,142.164,230.735,143.086z"/>
						<path style="fill:#630517;" d="M203.796,158.576c3.987,3.987,9.145,6.137,14.268,5.948s10.168-2.715,13.956-6.988
							C222.608,160.492,212.559,160.283,203.796,158.576z"/>
					</g>
					<g>
						<path style="fill:#630517;" d="M260.267,143.086c2.915-2.293,6.366-3.901,9.524-4.684c8.67-1.085,17.779,3.568,21.983,11.228
							C282.688,144.824,272.477,142.164,260.267,143.086z"/>
						<path style="fill:#630517;" d="M287.205,158.576c-3.987,3.987-9.145,6.137-14.268,5.948
							c-5.123-0.189-10.168-2.715-13.956-6.988C268.394,160.492,278.443,160.283,287.205,158.576z"/>
					</g>
					<g>
						<path style="fill:#FF9A8F;" d="M247.662,175.023c0.065,0.207,0.13,0.414,0.194,0.62c-0.743-6.729-0.689-13.546,0.523-20.238
							c2.758,4.727,5.137,9.674,7.108,14.78c0.893,2.314,1.907,5.044,0.611,7.018C253.585,177.647,250.697,177.256,247.662,175.023z
							"/>
						<path style="fill:#C94F5B;" d="M239.272,177.315c2.066-2.296,5.103-3.69,8.191-3.758s6.184,1.188,8.635,3.647
							C251.159,179.587,245.186,179.718,239.272,177.315z"/>
					</g>
					<g>
						<path style="fill:#FFF0F3;" d="M269.35,193.39c-0.85,1.1-1.83,2-2.92,2.76c-2.05,1.42-4.45,2.31-6.98,3.03
							c-3.86,1.09-7.92,1.31-11.94,1.39c-3.68,0.08-7.41,0.05-10.99-0.8c-2.19-0.52-4.34-1.36-6.21-2.59
							c-1.2-0.78-2.29-1.72-3.21-2.83c-0.5-0.61-0.99-1.42-0.71-2.16c0.19-0.5,1.03-0.56,1.88-0.61c0.49-0.03,0.99-0.06,1.37-0.18
							c8.84-2.73,24.66-2.62,38.1-0.68h0.01c0.69,0.1,1.9-0.04,2.32,0.32C270.53,191.42,269.76,192.86,269.35,193.39z"/>
						<path style="fill:#21161A;" d="M269.35,193.39c-0.85,1.1-1.83,2-2.92,2.76c-0.42-0.38-0.96-0.63-1.55-0.68
							c1.7-1.07,2.77-2.89,2.87-4.75c0.69,0.1,1.9-0.04,2.32,0.32C270.53,191.42,269.76,192.86,269.35,193.39z"/>
						<path style="fill:#21161A;" d="M231.4,195.98c-0.48,0.3-0.85,0.72-1.09,1.2c-1.2-0.78-2.29-1.72-3.21-2.83
							c-0.5-0.61-0.99-1.42-0.71-2.16c0.19-0.5,1.03-0.56,1.88-0.61C228.34,193.38,229.55,195.18,231.4,195.98z"/>
					</g>
					<path style="fill:#C94F5B;" d="M253.686,205.21c-4.062,0.935-8.347,1.033-12.5,0.606c1.056,2.421,3.86,4.088,6.677,3.971
						C250.681,209.67,253.312,207.777,253.686,205.21z"/>
				</g>
				<g>
					<path style="fill:#630517;" d="M313.2,114.71c-0.11,1.77-0.26,3.53-0.46,5.3c-1.69,15.17-6.6,30.34-13.24,44.54
						c3.47-25.56-5.46-40.43-5.46-61.34c-12.73,1.94-25.95,1.04-36.86-2.17c-13.93,2.92-27.99,3.67-41.86,2.35
						c-4.3,2.3-10.39,2.67-15.89,0.99c-5.09,26.7-11.11,41.01-8.72,60.91c-7.22-12.19-11.71-25.97-15.42-40.2
						c-1.66-3.47-2.29-7-2.25-10.53c0.05-4,0.98-8,2.25-11.92c-2.41-3.48-2.95-8.07-2.03-12.36c0.91-4.29,3.28-8.26,6.61-11.1
						c0.58-3.87,1.3-8.33,4.44-11.37c0.38-0.39,0.8-0.73,1.25-1.06c4.22-3.02,9.55-4.46,14.72-3.99c3.97-4.18,10.46-5.98,16-4.23
						c1.32-3.52,5.02-5.67,8.84-6.35c3.81-0.67,7.74-0.04,11.49,0.94c2.92-2.01,5.68-2.03,7.99-1.66c6.34,1,12.41,3.69,17.42,7.73
						c7.56-2.13,13.66-1.1,18.67,1.84c5,2.94,8.86,7.77,10.63,13.3c4.17,0.47,7.88,2.66,10.48,5.79c0.35,0.4,0.66,0.82,0.96,1.25
						c2.61,3.79,3.66,8.62,2.88,13.15C311.91,97.38,313.66,107.19,313.2,114.71z"/>
					<path style="fill:#913B34;" d="M313.2,114.71c-0.11,1.77-0.26,3.53-0.46,5.3c-1.05-2.75-2.5-5.35-4.26-7.67
						c-5.93-7.81-14.79-12.84-23.83-16.62c-28.87-12.11-63.13-13.07-90.93,1.34c-8.03,4.16-15.74,10.09-20.68,17.5
						c0.05-4,0.98-8,2.25-11.92c-2.41-3.48-2.95-8.07-2.03-12.36c0.91-4.29,3.28-8.26,6.61-11.1c0.58-3.87,1.3-8.33,4.44-11.37
						c-0.81,1.86-1.18,3.88-0.9,5.88c0.75,5.27,5.91,9.01,11.15,9.96c5.24,0.95,10.6-0.26,15.82-1.29
						c20.23-4.01,41.6-5.45,61.17,1.05c4.38,1.46,8.66,3.31,13.21,4.1c4.56,0.79,9.55,0.39,13.29-2.33
						c1.71-1.25,3.04-3.07,3.75-5.06c0.35,0.4,0.66,0.82,0.96,1.25c2.61,3.79,3.66,8.62,2.88,13.15
						C311.91,97.38,313.66,107.19,313.2,114.71z"/>
				</g>
				<path style="fill:#630517;" d="M219.677,219.523c7.596,6.86,17.544,11.032,27.777,10.858
					c10.234-0.173,20.346-4.362,27.113-11.555c-5.205,1.682-14.452,3.822-18.394,2.937c-3.06-0.687-5.004-3.857-4.153-6.721
					c-3.009,0.578-6.202,0.606-8.945,0.234c1.17,2.564-0.581,5.855-3.188,6.926C234.425,224.446,223.691,221.197,219.677,219.523z"
					/>
			</g>
			<g>
				<g>
					<g>
						<path style="fill:#FF726E;" d="M158.54,226.6c-1.32,4.78-3.35,9.39-5.78,13.71c-1.96,3.49-4.88,6.37-8.48,8.11
							c-3.57,1.72-6.84,4.16-10.02,6.57c-1.37,1.04-2.75,2.09-4.17,3.09c-3.18,2.24-6.53,4.21-10.25,5.25
							c-5.02,1.39-10.96,0.68-16.51-6.03c-0.4-0.49-0.8-1.01-1.2-1.56c-0.2-2.11-0.36-4.22-0.47-6.33
							c-0.61-10.67-0.18-21.48,1.56-32.67c0.86-5.57,3.09-10.87,6.56-15.32c1.05-1.35,2.15-2.66,3.29-3.95
							c1.53-1.74,3.14-3.43,4.85-5.05c1.07-1.02,2.78-1.2,3.94-0.28c0.1,0.08,0.18,0.16,0.26,0.25c1.41-2.43,3.55-4.42,6.94-5.83
							c2.46-2.3,4.92-4.6,7.38-6.9c1.26-7.55,2.52-15.09,3.79-22.64c0.37-2.19,1.3-4.91,3.51-5.01c2.11-0.1,3.33,2.32,3.85,4.36
							c0.95,3.77,1.35,7.64,1.43,11.53c0.03,1.51,0.02,3.02-0.04,4.53c-0.1,3.2-0.37,6.41-0.67,9.59c-0.13,1.33-0.26,2.65-0.4,3.98
							c-1.23,12.14-2.91,24.23-5.03,36.25c1.61,0.02,3.29-0.54,4.84-1.92c-0.49-2.67-0.98-5.35-0.96-8.06
							c0.02-2.71,0.6-5.48,2.08-7.75c0.76-1.16,2.01-2.27,3.37-2c0.89,0.18,1.59,0.92,1.95,1.76c0.37,0.83,0.46,1.75,0.57,2.66
							c0.54,4.45,1.54,8.86,3.26,12.98C158.88,222.04,159.16,224.38,158.54,226.6z"/>
						<g>
							<path style="fill:#FF726E;" d="M160.11,168.71c-2.1,6.86-6.84,12.36-12.2,17.29c0.14-1.33,0.27-2.65,0.4-3.98
								c0.44-4.68,0.81-9.42,0.71-14.12c1.48-1.38,2.96-2.77,4.44-4.15c1.23-1.15,2.72-2.38,4.38-2.1c1.38,0.23,2.4,1.53,2.69,2.91
								C160.83,165.93,160.52,167.36,160.11,168.71z"/>
							
								<path style="fill:none;stroke:#C94F5B;stroke-width:2;stroke-linecap:round;stroke-linejoin:round;stroke-miterlimit:10;" d="
								M123.118,193.389c3.477,3.96,6.547,8.278,9.439,13.979c-2.535,3.479-4.709,7.22-6.477,11.145
								c-0.461,1.023-0.91,2.082-1.68,2.897c-0.771,0.816-1.955,1.347-3.028,1.02c-1.292-0.394-1.95-1.822-2.248-3.139
								c-0.742-3.281-0.186-6.838,1.42-9.937c-1.362-1.561-2.427-3.381-3.12-5.334"/>
							
								<path style="fill:none;stroke:#C94F5B;stroke-width:2;stroke-linecap:round;stroke-linejoin:round;stroke-miterlimit:10;" d="
								M112.794,212.052c2.271-0.004,4.541-0.426,6.662-1.237"/>
							
								<path style="fill:none;stroke:#C94F5B;stroke-width:2;stroke-linecap:round;stroke-linejoin:round;stroke-miterlimit:10;" d="
								M119.959,226.144c4.037,4.959,5.98,11.569,5.27,17.924"/>
							
								<path style="fill:none;stroke:#C94F5B;stroke-width:2;stroke-linecap:round;stroke-linejoin:round;stroke-miterlimit:10;" d="
								M130.178,186.67c5.536,2.443,10.001,7.21,12.573,14.006c-2.758,4.17-5.043,8.653-6.797,13.336
								c-0.561,1.499-1.267,3.216-2.8,3.675c-1.619,0.485-3.238-0.726-4.358-1.991"/>
							
								<path style="fill:none;stroke:#C94F5B;stroke-width:2;stroke-linecap:round;stroke-linejoin:round;stroke-miterlimit:10;" d="
								M141.157,223.175c-2.894,1.048-5.302,3.367-6.459,6.219"/>
							
								<path style="fill:none;stroke:#C94F5B;stroke-width:2;stroke-linecap:round;stroke-linejoin:round;stroke-miterlimit:10;" d="
								M149.326,169.033c-0.537,5.32-1.074,10.64-1.611,15.96"/>
							
								<path style="fill:none;stroke:#C94F5B;stroke-width:2;stroke-linecap:round;stroke-linejoin:round;stroke-miterlimit:10;" d="
								M136.332,181.044c-0.393,2.477-0.786,4.954-1.179,7.432"/>
						</g>
					</g>
					<path style="fill:#FF726E;" d="M131.95,253.34c-0.64,1.57-1.26,3.15-1.86,4.74c-9.36,24.46-15.16,50.28-17.16,76.4
						c-7.51,5.53-13.47,8.91-19.97,10.1c-6.5,1.19-13.56,0.02-18.87-3.92c-5.31-3.93-8.55-10.79-7.43-17.31
						c1.1-2.1,2.19-4.22,3.28-6.35c11.05-21.56,21.86-44.32,31.72-67.59c1.25-2.95,2.48-5.91,3.7-8.88c0.17,0.17,0.33,0.34,0.5,0.5
						C113.41,248.46,122.52,252.26,131.95,253.34z"/>
				</g>
				<path style="fill:#FF9A8F;" d="M115.99,255.02c-3.48,0.86-7.27,0.33-11.1-1.35c-0.52,1.21-1.04,2.42-1.56,3.63
					c-9.08,21.06-18.71,42.32-33.39,59.7c11.05-21.56,21.86-44.32,31.72-67.59c-0.61-10.67-0.18-21.48,1.56-32.67
					c0.86-5.57,3.09-10.87,6.56-15.32c1.05-1.35,2.15-2.66,3.29-3.95c-5.77,12.76-8.39,26.95-7.45,40.92
					c0.06,0.88,0.13,1.76,0.24,2.64c0.31,2.66,0.88,5.28,2.09,7.66C109.56,251.85,112.47,254.53,115.99,255.02z"/>
			</g>
			<g>
				<g>
					<path style="fill:#0094A8;" d="M466.69,371.97c0.13,6.05-0.55,12.05-1.5,18.03c-1.33,8.31-7.44,14.97-15.42,17.04
						c-0.8,0.21-1.62,0.37-2.46,0.48c-11.82,1.6-23.66,1.32-35.19-0.66c-2.48-0.42-4.91-1.13-7.24-2.08
						c-18.39-7.48-36.05-14.08-53.61-20.58c-0.05-0.02-0.1-0.04-0.15-0.06c5.43,41.59,13.87,82.8,25.22,123.19
						c-3.55,0.22-7.11,0.44-10.7,0.65c-16.74,1-34.2,1.92-55.78,2.4c-6.25-76.68-16.68-153.02-31.22-228.57
						c0.99-7.97,0.39-16.89-0.88-26c-2.05-10.24-4.57-20.48-6.05-31.12c1.03,0,2.01,0.03,2.96,0.09h0.01
						c4.7,0.3,8.61,1.32,13.77,2.92c5.64,1.74,10.55,5.28,13.98,10.08c0.71,1,1.43,2.02,2.15,3.05c8.18,2.7,16.51,5.7,24.89,9.05
						c1.92,0.77,3.72,1.74,5.38,2.88c8.21,3.31,16.3,7.29,24.68,12.4c2.67,1.63,5.13,3.57,7.36,5.76l43.4,42.53l1.01,0.99
						c5.88-0.27,11.79-0.23,17.77,0.13c8.13,0.48,16.4,1.55,24.95,3.21c3.15,10.03,7.48,19.77,13.77,29.12
						c-0.86,2.95-2.29,5.79-4.16,8.37C465.61,360.56,466.57,366.32,466.69,371.97z"/>
				</g>
				<g>
					<path style="fill:#11C2C2;" d="M410.29,313.45c-3.35,2.88-6.71,5.76-10.07,8.64c-12.08-18.61-27.28-34.4-44.73-47.08
						c-2.56,7.92-5.34,16.58-9.08,24.8c1.63-10.31,1.53-20.9-0.29-31.18c-10.32-7.88-22.17-13.99-34.47-19
						c4.18,5.63,8.18,14.1,9.8,23.02c-10.94-19.75-27.31-36.45-46.77-47.87c4.7,0.3,8.61,1.32,13.77,2.92
						c5.64,1.74,10.55,5.28,13.98,10.08c0.71,1,1.43,2.02,2.15,3.05c8.18,2.7,16.51,5.7,24.89,9.05c1.92,0.77,3.72,1.74,5.38,2.88
						c8.21,3.31,16.3,7.29,24.68,12.4c2.67,1.63,5.13,3.57,7.36,5.76L410.29,313.45z"/>
					<path style="fill:#11C2C2;" d="M466.69,371.97c0.13,6.05-0.55,12.05-1.5,18.03c-1.33,8.31-7.44,14.97-15.42,17.04
						c4.26-4.66,6.83-11.14,7.92-17.48c1.64-9.52,0.75-19.32,2.14-28.88c-6.04,4.11-13.22,6.59-20.52,6.93
						c8.77-2.76,16.41-8.93,20.95-16.92c-2.21-7.58-5.26-14.22-9.02-20.43c-3.1,4-7.62,6.89-12.56,8.01
						c-7.77-3.42-9.91-6.96-11.05-10.87c-1.13-3.92-1.16-8.33,0.83-11.89c0.18-0.32,0.38-0.64,0.61-0.94
						c8.13,0.48,16.4,1.55,24.95,3.21c3.15,10.03,7.48,19.77,13.77,29.12c-0.86,2.95-2.29,5.79-4.16,8.37
						C465.61,360.56,466.57,366.32,466.69,371.97z"/>
					<path style="fill:#11C2C2;" d="M376.34,507.33c-3.55,0.22-7.11,0.44-10.7,0.65c-10.34-47.47-17.15-95.7-20.35-144.17
						c1.57,6.74,3.42,13.68,5.98,20.39c-0.05-0.02-0.1-0.04-0.15-0.06C356.55,425.73,364.99,466.94,376.34,507.33z"/>
				</g>
				<g>
					<path style="fill:none;stroke:#006D92;stroke-width:2;stroke-linecap:round;stroke-linejoin:round;stroke-miterlimit:10;" d="
						M281.681,284.959c1.595-6.129,5.603-11.595,11.438-15.306c10.443-0.092,20.9,2.381,29.667,6.709
						c-3.202-12.407-9.061-24.121-17.069-34.125"/>
					<path style="fill:none;stroke:#006D92;stroke-width:2;stroke-linecap:round;stroke-linejoin:round;stroke-miterlimit:10;" d="
						M336.562,303.809c4.621,26.564,9.242,53.127,13.863,79.691"/>
					<path style="fill:none;stroke:#006D92;stroke-width:2;stroke-linecap:round;stroke-linejoin:round;stroke-miterlimit:10;" d="
						M346.053,262.387c2.215,23.22,0.873,46.775-3.964,69.593"/>
					<path style="fill:none;stroke:#006D92;stroke-width:2;stroke-linecap:round;stroke-linejoin:round;stroke-miterlimit:10;" d="
						M401.004,320.641c-1.284,1.318-2.569,2.636-3.389,4.444c0.476,7.863,0.153,15.774-1.299,24.995
						c10.161,6.91,20.65,13.966,32.657,16.578c12.007,2.612,26.051-0.251,33.348-10.138"/>
					<path style="fill:none;stroke:#006D92;stroke-width:2;stroke-linecap:round;stroke-linejoin:round;stroke-miterlimit:10;" d="
						M401.799,353.961c-0.946,4.383-2.507,8.632-4.602,12.643c-2.416,4.626-2.737,10.125-0.478,14.83
						c0.62,1.291,1.321,2.544,2.1,3.747"/>
					<path style="fill:none;stroke:#006D92;stroke-width:2;stroke-linecap:round;stroke-linejoin:round;stroke-miterlimit:10;" d="
						M398.062,327.933c-10.961,5.828-20.918,13.539-29.303,22.694"/>
				</g>
			</g>
			<g>
				<g>
					<path style="fill:#FF726E;" d="M414.71,246.54c-0.12,2.12-0.28,4.24-0.48,6.35c-0.44,0.61-0.88,1.17-1.32,1.7
						c-5.51,6.58-11.4,7.27-16.39,5.89c-3.73-1.04-7.08-3.02-10.26-5.26c-1.41-1-2.79-2.04-4.16-3.08
						c-3.18-2.41-6.45-4.85-10.02-6.57c-3.6-1.74-6.52-4.62-8.48-8.11c-2.43-4.32-4.46-8.93-5.78-13.71
						c-0.62-2.22-0.34-4.56,0.55-6.68c1.72-4.12,2.72-8.53,3.26-12.98c0.11-0.91,0.2-1.83,0.57-2.66c0.36-0.84,1.06-1.58,1.95-1.76
						c1.36-0.27,2.61,0.84,3.37,2c1.48,2.27,2.06,5.04,2.08,7.75c0.02,2.71-0.47,5.39-0.96,8.06c1.55,1.38,3.23,1.94,4.84,1.92
						c-2.12-12.02-3.8-24.11-5.03-36.25c-0.14-1.33-0.27-2.65-0.4-3.98c-0.3-3.22-0.57-6.46-0.68-9.69
						c-0.05-1.48-0.06-2.96-0.03-4.43c0.08-3.89,0.48-7.76,1.43-11.53c0.52-2.04,1.74-4.46,3.85-4.36c2.21,0.1,3.14,2.82,3.51,5.01
						c1.27,7.55,2.53,15.09,3.79,22.64c2.46,2.3,4.92,4.6,7.38,6.9c3.39,1.41,5.53,3.4,6.94,5.83c0.08-0.09,0.16-0.17,0.26-0.25
						c1.16-0.92,2.87-0.74,3.94,0.28c0.25,0.23,0.49,0.47,0.73,0.71c2.69,2.62,5.14,5.39,7.41,8.29c3.47,4.45,5.7,9.75,6.56,15.32
						C414.87,225.07,415.31,235.88,414.71,246.54z"/>
					<g>
						<path style="fill:#FF726E;" d="M356.251,165.859c2.1,6.86,6.84,12.36,12.2,17.29c-0.14-1.33-0.27-2.65-0.4-3.98
							c-0.44-4.68-0.81-9.42-0.71-14.12c-1.48-1.38-2.96-2.77-4.44-4.15c-1.23-1.15-2.72-2.38-4.38-2.1
							c-1.38,0.23-2.4,1.53-2.69,2.91C355.531,163.079,355.841,164.508,356.251,165.859z"/>
						<path style="fill:none;stroke:#C94F5B;stroke-width:2;stroke-linecap:round;stroke-linejoin:round;stroke-miterlimit:10;" d="
							M393.243,190.537c-3.477,3.96-6.547,8.278-9.439,13.979c2.535,3.479,4.709,7.22,6.477,11.145
							c0.461,1.023,0.91,2.082,1.68,2.897c0.771,0.816,1.955,1.347,3.028,1.02c1.292-0.394,1.95-1.822,2.248-3.139
							c0.742-3.281,0.186-6.838-1.42-9.937c1.362-1.561,2.427-3.381,3.12-5.334"/>
						<path style="fill:none;stroke:#C94F5B;stroke-width:2;stroke-linecap:round;stroke-linejoin:round;stroke-miterlimit:10;" d="
							M403.567,209.201c-2.271-0.004-4.541-0.426-6.662-1.237"/>
						<path style="fill:none;stroke:#C94F5B;stroke-width:2;stroke-linecap:round;stroke-linejoin:round;stroke-miterlimit:10;" d="
							M396.402,223.293c-4.037,4.959-5.98,11.569-5.27,17.924"/>
						<path style="fill:none;stroke:#C94F5B;stroke-width:2;stroke-linecap:round;stroke-linejoin:round;stroke-miterlimit:10;" d="
							M386.183,183.818c-5.536,2.443-10.001,7.21-12.573,14.006c2.758,4.17,5.043,8.653,6.797,13.336
							c0.561,1.499,1.267,3.216,2.8,3.675c1.619,0.485,3.238-0.726,4.358-1.991"/>
						<path style="fill:none;stroke:#C94F5B;stroke-width:2;stroke-linecap:round;stroke-linejoin:round;stroke-miterlimit:10;" d="
							M375.204,220.323c2.894,1.048,5.302,3.367,6.459,6.219"/>
						<path style="fill:none;stroke:#C94F5B;stroke-width:2;stroke-linecap:round;stroke-linejoin:round;stroke-miterlimit:10;" d="
							M367.035,166.181c0.537,5.32,1.074,10.64,1.612,15.96"/>
						<path style="fill:none;stroke:#C94F5B;stroke-width:2;stroke-linecap:round;stroke-linejoin:round;stroke-miterlimit:10;" d="
							M380.029,178.192c0.393,2.477,0.786,4.954,1.179,7.431"/>
					</g>
				</g>
				<path style="fill:#FF726E;" d="M442.27,337.81c-5.3,3.94-12.37,5.11-18.87,3.92s-12.46-4.57-19.97-10.1
					c-2-26.12-7.8-51.94-17.17-76.41c-0.59-1.58-1.22-3.16-1.85-4.73c9.43-1.08,18.54-4.88,26.09-12.31c0.17-0.16,0.33-0.33,0.5-0.5
					c1.22,2.96,2.45,5.91,3.71,8.86c8.9,21.06,18.6,41.7,28.57,61.42c2.12,4.22,4.27,8.41,6.42,12.54
					C450.82,327.01,447.58,333.87,442.27,337.81z"/>
				<path style="fill:#FF9A8F;" d="M443.28,307.96c-11.67-16.85-21.84-34.73-30.37-53.37c-0.29-0.62-0.58-1.24-0.86-1.87
					c-5.1,0.98-9.76,0.2-12.62-2.61c3.67,0.96,7.54-1.59,9.31-4.94c1.13-2.16,1.59-4.55,1.76-6.99c0.09-1.37,0.1-2.75,0.08-4.11
					c-0.23-15.28-3.14-31.12-11.41-43.79c2.69,2.62,5.14,5.39,7.41,8.29c3.47,4.45,5.7,9.75,6.56,15.32
					c1.73,11.18,2.17,21.99,1.57,32.65C423.61,267.6,433.31,288.24,443.28,307.96z"/>
			</g>
		</g>
	</g>
</g>
</svg>
