<svg width="128" height="128" viewBox="0 0 128 128" fill="none" xmlns="http://www.w3.org/2000/svg">
<path d="M92.809 44.359H100.13C102.349 44.359 104.154 42.5535 104.154 40.3345V34.1172H110.372C112.591 34.1172 114.396 32.3117 114.396 30.0925V22.7717C114.396 20.5527 112.591 18.7472 110.372 18.7472H104.154V12.53C104.154 10.3107 102.349 8.50525 100.13 8.50525H92.809C90.59 8.50525 88.7845 10.3107 88.7845 12.53V18.7472H82.567C80.348 18.7472 78.5425 20.5527 78.5425 22.7717V30.0925C78.5425 32.3117 80.348 34.1172 82.567 34.1172H88.7845V40.3345C88.7845 42.5535 90.59 44.359 92.809 44.359ZM82.567 30.3672C82.4157 30.3672 82.2925 30.244 82.2925 30.0925V22.7717C82.2925 22.6205 82.4155 22.4972 82.567 22.4972H90.6595C91.6952 22.4972 92.5345 21.658 92.5345 20.6222V12.53C92.5345 12.3787 92.6575 12.2552 92.809 12.2552H100.13C100.281 12.2552 100.404 12.3785 100.404 12.53V20.6222C100.404 21.658 101.244 22.4972 102.279 22.4972H110.372C110.523 22.4972 110.646 22.6202 110.646 22.7717V30.0925C110.646 30.2437 110.523 30.3672 110.372 30.3672H102.279C101.244 30.3672 100.404 31.2065 100.404 32.2422V40.3345C100.404 40.4858 100.281 40.609 100.13 40.609H92.809C92.6577 40.609 92.5345 40.486 92.5345 40.3345V32.2422C92.5345 31.2065 91.6952 30.3672 90.6595 30.3672H82.567Z" fill="#F8A51C"/>
<path d="M120.964 29.0185C119.944 28.8355 118.969 29.5085 118.783 30.527C116.82 41.2972 107.436 49.1143 96.4692 49.1143C84.2735 49.2202 73.7037 38.9435 73.787 26.432C73.787 13.925 83.962 3.74975 96.4692 3.74975C107.49 3.74975 116.882 11.612 118.802 22.4443C118.983 23.464 119.957 24.1435 120.976 23.9632C121.995 23.7825 122.675 22.8095 122.495 21.79C120.257 9.164 109.312 0 96.4695 0C89.56 0 83.2625 2.66625 78.5482 7.022C72.7762 3.447 66.1602 1.5625 59.3157 1.5625H42.9257C35.1835 1.5625 27.5662 4.0625 21.3215 8.62575C20.074 7.91975 18.6347 7.5145 17.102 7.5145C12.362 7.5145 8.50571 11.3708 8.50571 16.1108C8.50571 18.1285 9.20621 19.9847 10.3747 21.453C5.39846 31.2673 4.17296 43.229 6.88371 54.0412L15.4637 88.431C17.1077 95.0267 17.3335 101.764 16.135 108.454L13.8902 120.963C13.5762 122.711 14.0492 124.494 15.1882 125.856C16.3275 127.219 17.9995 128 19.7757 128H56.5532C58.272 128 59.909 127.259 61.044 125.968C62.1787 124.677 62.7032 122.959 62.4827 121.255L61.6425 114.741C61.51 113.714 60.5717 112.987 59.543 113.121C58.516 113.254 57.7907 114.194 57.9232 115.22L58.7635 121.735C58.8467 122.38 58.6562 123.004 58.227 123.492C57.7977 123.981 57.203 124.25 56.553 124.25H19.7755C19.113 124.25 18.4895 123.959 18.0647 123.451C17.6402 122.943 17.4637 122.278 17.581 121.626L19.826 109.115C21.1185 101.9 20.875 94.636 19.102 87.5235L10.522 53.133C8.13721 43.6475 9.02121 32.9095 13.3667 23.8517C14.2085 24.2598 15.669 24.7055 17.1262 24.706C14.498 29.835 12.954 36.471 12.9755 42.522C12.9755 45.8062 13.3745 49.0707 14.161 52.225C15.1382 56.1505 18.6467 58.8923 22.693 58.8923H27.323C29.3325 58.8923 31.2967 58.1968 32.8522 56.935L42.7215 48.9533C44.2967 47.6805 46.2782 46.9795 48.3005 46.9795C48.924 46.9705 79.2342 46.9967 79.8522 46.9705C83.3347 49.7935 87.5457 51.7498 92.1555 52.5098V60.412C92.1555 60.8257 92.2925 61.2282 92.545 61.556L98.993 69.9287C99.4305 70.4965 99.503 71.2195 99.1865 71.8627C98.8695 72.507 98.2515 72.8917 97.533 72.8917H92.248C91.2122 72.8917 90.373 73.731 90.373 74.7667V82.3418C90.373 83.305 89.812 84.1933 88.9415 84.6068L83.9515 86.9843C83.4017 87.2463 83.0132 87.7588 82.91 88.359C82.8067 88.959 83.0015 89.5723 83.432 90.0027L87.163 93.7335V99.9893C87.163 102.147 86.224 104.192 84.5867 105.599C82.9492 107.006 80.788 107.625 78.6532 107.301L49.811 103.135C48.7822 103.004 47.8452 103.732 47.715 104.759C47.5847 105.787 48.312 106.725 49.3392 106.855L78.088 111.008C78.6492 111.094 79.2115 111.136 79.771 111.136C82.4167 111.136 84.9935 110.193 87.0302 108.443C89.4977 106.324 90.9127 103.242 90.9127 99.9895V92.957C90.9127 92.4597 90.7152 91.983 90.3637 91.631L87.9605 89.228L90.5517 87.9935C92.7212 86.9638 94.1227 84.7455 94.1227 82.3422V76.6423H97.5327C99.6805 76.6423 101.603 75.4453 102.551 73.5182C103.498 71.5922 103.273 69.34 101.963 67.6405L95.9052 59.774V52.8568C108.749 53.1652 120.208 43.9345 122.472 31.199C122.658 30.1807 121.983 29.2042 120.964 29.0185ZM54.5415 22.0995C54.5415 20.8938 55.5225 19.9125 56.7285 19.9125C57.9345 19.9125 58.9155 20.8938 58.9155 22.0995C58.9155 23.3053 57.9345 24.2865 56.7285 24.2865C55.5225 24.2865 54.5415 23.3055 54.5415 22.0995ZM56.7285 16.1625C53.4547 16.1625 50.7915 18.8258 50.7915 22.0995C50.7915 22.7025 50.8825 23.2845 51.0505 23.8335L40.2817 31.81C39.377 31.2517 38.3125 30.9287 37.1735 30.9287C36.163 30.9287 35.2112 31.183 34.3775 31.63L24.6765 20.548C29.3582 15.6945 35.9107 12.8125 42.9505 12.8125H59.3155C63.836 12.8125 68.2137 14.0025 72.0737 16.2607C70.7627 19.3932 70.0372 22.8295 70.0372 26.432C70.0372 27.2792 70.079 28.1168 70.1572 28.9438L62.4277 23.7588C62.5815 23.2318 62.6655 22.6755 62.6655 22.0995C62.6655 18.826 60.002 16.1625 56.7285 16.1625ZM37.1735 34.6787C38.3795 34.6787 39.3605 35.6598 39.3605 36.8655C39.3605 38.0713 38.3795 39.0525 37.1735 39.0525C35.9675 39.0525 34.9865 38.0713 34.9865 36.8655C34.9865 35.6598 35.9675 34.6787 37.1735 34.6787ZM59.3155 5.3125C65.2042 5.3125 70.9022 6.868 75.9252 9.8215C75.1362 10.7955 74.415 11.826 73.7687 12.9065C69.3832 10.387 64.428 9.0625 59.3155 9.0625H42.9505C36.552 9.0625 30.5042 11.1408 25.5935 14.7735C25.388 13.464 24.8847 12.2525 24.157 11.2083C29.642 7.39425 36.2317 5.31225 42.9252 5.31225L59.3155 5.3125ZM12.2557 16.1108C12.2557 13.4388 14.4297 11.2645 17.102 11.2645C19.7742 11.2645 21.9482 13.4385 21.9482 16.1108C21.9482 18.783 19.7742 20.957 17.102 20.957C14.4297 20.957 12.2557 18.783 12.2557 16.1108ZM40.364 46.0373L30.492 54.0213C29.6005 54.7445 28.475 55.1425 27.323 55.1425H22.693C20.3725 55.1425 18.3602 53.5705 17.7997 51.3187C15.906 43.9473 16.5595 35.161 19.7185 27.9802C20.4142 26.3737 21.269 24.869 22.2547 23.475L31.7895 34.3672C31.4355 35.1272 31.2362 35.9733 31.2362 36.8655C31.2362 40.1393 33.8995 42.8025 37.1732 42.8025C40.447 42.8025 43.1102 40.1393 43.1102 36.8655C43.1102 36.0973 42.962 35.3633 42.695 34.6888L53.225 26.889C54.2077 27.6098 55.4187 28.0368 56.7282 28.0368C58.0652 28.0368 59.3002 27.592 60.294 26.8435L71.188 34.151C72.2152 37.5085 73.893 40.5848 76.076 43.23H48.3005C45.4232 43.23 42.6047 44.2267 40.364 46.0373Z" fill="#EF6623"/>
<path d="M41.7457 69.706C41.4592 70.6035 41.539 71.5585 41.971 72.3957L43.6162 75.5855C44.048 76.4227 44.78 77.0415 45.6772 77.3282C46.575 77.6147 47.5302 77.5347 48.367 77.1032L49.5337 76.5015C49.8735 76.7357 50.2257 76.9505 50.589 77.1455V78.457C50.589 80.4015 52.171 81.9835 54.1155 81.9835H57.7045C59.649 81.9835 61.231 80.4015 61.231 78.457V77.1455C61.5942 76.9505 61.9465 76.7355 62.2865 76.5015L63.453 77.1032C65.1812 77.9937 67.3122 77.3137 68.204 75.5857L69.8492 72.3957C70.7402 70.6677 70.0597 68.5362 68.3317 67.645L67.5175 67.2247L68.3314 66.805C70.0597 65.914 70.7405 63.7827 69.8492 62.054L68.204 58.8642C67.3122 57.1362 65.1815 56.4555 63.453 57.3467L62.2865 57.9485C61.9465 57.7142 61.5942 57.4995 61.231 57.3045V55.993C61.231 54.0482 59.649 52.4662 57.7045 52.4662H54.1155C52.171 52.4662 50.589 54.0482 50.589 55.993V57.3045C50.2257 57.4995 49.8737 57.7145 49.5337 57.9485L48.3672 57.347C47.53 56.915 46.5747 56.8347 45.6775 57.1217C44.78 57.4082 44.048 58.0272 43.6162 58.8645L41.971 62.0542C41.539 62.8915 41.459 63.8465 41.7457 64.744C42.0325 65.6415 42.6515 66.3737 43.4885 66.805L44.3025 67.2252L43.4882 67.6452C42.6512 68.0767 42.0325 68.8085 41.7457 69.706ZM48.4397 67.978C48.4147 67.7257 48.402 67.4725 48.402 67.2247C48.402 66.977 48.4147 66.7237 48.4397 66.4717C48.5157 65.7065 48.1167 64.9725 47.4335 64.6202L45.4062 63.5742L46.8467 60.7817L48.8767 61.8287C49.561 62.1812 50.3915 62.0805 50.9707 61.5735C51.6202 61.0055 52.3545 60.5572 53.153 60.2415C53.8687 59.9587 54.339 59.2675 54.339 58.4977V56.2157H57.4812V58.4977C57.4812 59.2672 57.9515 59.9587 58.6672 60.2415C59.466 60.5575 60.2005 61.0055 60.8497 61.5735C61.4295 62.0805 62.2597 62.1815 62.9437 61.8287L64.9737 60.7817L66.4142 63.5742L64.3867 64.62C63.7032 64.9727 63.3042 65.7072 63.3805 66.4725C63.4055 66.723 63.418 66.976 63.418 67.2247C63.418 67.4732 63.4052 67.7262 63.3805 67.9767C63.3042 68.7422 63.7032 69.4765 64.3867 69.8292L66.4142 70.875L64.9737 73.6677L62.9437 72.6207C62.2597 72.2682 61.429 72.369 60.8497 72.876C60.2002 73.444 59.466 73.8922 58.6672 74.2077C57.9515 74.4907 57.4812 75.182 57.4812 75.9517V78.2335H54.339V75.9517C54.339 75.1822 53.8687 74.4907 53.153 74.208C52.3542 73.8922 51.62 73.444 50.9705 72.8757C50.391 72.3695 49.561 72.2685 48.8765 72.6205L46.8465 73.6675L45.406 70.8747L47.4332 69.8292C48.1167 69.477 48.5157 68.7432 48.4397 67.978Z" fill="#F8A51C"/>
<path d="M55.9102 69.0988C56.9457 69.0988 57.7852 68.2593 57.7852 67.2238C57.7852 66.1882 56.9457 65.3488 55.9102 65.3488C54.8746 65.3488 54.0352 66.1882 54.0352 67.2238C54.0352 68.2593 54.8746 69.0988 55.9102 69.0988Z" fill="#EF6623"/>
</svg>
