<svg width="128" height="128" viewBox="0 0 128 128" fill="none" xmlns="http://www.w3.org/2000/svg">
<path d="M128 43.9816C128 35.2771 123.32 27.3327 115.746 23.0979C114.379 14.5717 106.973 8.03625 98.0668 8.03625C93.1858 8.03625 88.5369 10.0252 85.1676 13.5232C82.9469 12.5585 80.5249 12.0445 78.0254 12.0445C72.6577 12.0445 67.7044 14.3857 64.3265 18.414C56.5057 9.60949 44.9823 5.06601 33.1518 6.20925C23.7199 7.122 15.0961 11.7015 8.86942 19.1045C2.68845 26.4532 -0.44354 35.7439 0.0507079 45.2651C0.856955 60.8 9.35742 77.0887 25.3159 93.6789C37.9243 106.787 51.858 116.579 59.0415 121.249C59.7727 121.725 60.6107 121.964 61.451 121.964C62.1732 121.964 62.897 121.787 63.5552 121.43C64.9839 120.655 65.8715 119.161 65.8715 117.533V79.5177C68.4099 82.2332 72.0197 83.9352 76.0214 83.9352C77.0569 83.9352 77.8964 83.0957 77.8964 82.0602C77.8964 81.0247 77.0569 80.1852 76.0214 80.1852C70.4247 80.1852 65.8715 75.632 65.8715 70.0352V37.9691C65.8715 36.9336 65.032 36.0941 63.9965 36.0941C62.961 36.0941 62.1215 36.9336 62.1215 37.9691V117.533C62.1215 117.888 61.8992 118.062 61.7667 118.134C61.637 118.204 61.3762 118.294 61.0855 118.105C48.0968 109.661 5.57919 79.4372 3.79544 45.0709C3.35069 36.5016 6.17193 28.1374 11.7392 21.5184C17.3306 14.871 25.0631 10.7597 33.5128 9.94224C44.4515 8.88449 55.0977 13.233 62.1262 21.5964L62.1217 29.9527C62.1212 30.9882 62.9602 31.8279 63.9957 31.8287H63.9967C65.0317 31.8287 65.8712 30.9899 65.8717 29.9547L65.8757 22.6602C65.9025 22.6229 65.9312 22.5874 65.9555 22.5477C68.5559 18.319 73.0682 15.7945 78.0254 15.7945C82.3404 15.7945 86.3669 17.7267 89.0721 21.0959C89.7204 21.9032 90.9004 22.0324 91.7081 21.3839C92.5154 20.7357 92.6446 19.5555 91.9961 18.748C90.9844 17.488 89.8254 16.3882 88.5549 15.4622C91.1466 13.1107 94.5288 11.786 98.0668 11.786C105.874 11.786 112.225 18.1372 112.225 25.9442C112.225 27.6247 111.934 29.2679 111.361 30.8289C111.003 31.8009 111.502 32.8784 112.474 33.2356C112.687 33.3141 112.905 33.3511 113.12 33.3511C113.884 33.3511 114.601 32.8811 114.88 32.1224C115.413 30.6724 115.752 29.1669 115.895 27.6297C121.108 31.3927 124.25 37.4324 124.25 43.9814C124.25 49.4516 122.089 54.5631 118.25 58.338C118.02 57.8531 117.768 57.3771 117.494 56.9133C116.966 56.0226 115.816 55.7278 114.925 56.2556C114.034 56.7831 113.74 57.9333 114.267 58.8243C115.554 60.9963 116.234 63.487 116.234 66.0273C116.234 71.6522 112.922 76.656 107.941 78.9185C107.952 78.6307 107.959 78.3422 107.959 78.052C107.959 76.3767 107.784 74.7032 107.44 73.078C107.226 72.065 106.232 71.417 105.218 71.6317C104.205 71.846 103.557 72.841 103.772 73.8542C104.062 75.2247 104.209 76.637 104.209 78.052C104.209 89.1742 95.1601 98.2226 84.0379 98.2226C83.1201 98.2226 82.1974 98.1604 81.2951 98.0379C80.2684 97.8966 79.3242 98.6171 79.1849 99.6434C79.0454 100.669 79.7641 101.614 80.7904 101.754C81.8594 101.899 82.9519 101.972 84.0379 101.972C84.0801 101.972 84.1219 101.971 84.1641 101.971C84.1644 102.014 84.1671 102.058 84.1671 102.102C84.1671 109.643 79.0477 116.114 71.7177 117.836C70.7097 118.073 70.0844 119.082 70.3212 120.09C70.5242 120.954 71.2944 121.537 72.1449 121.537C72.2869 121.537 72.4312 121.52 72.5754 121.487C76.8719 120.477 80.7674 118.015 83.5441 114.554C86.3644 111.039 87.9174 106.617 87.9174 102.102C87.9174 101.954 87.9109 101.806 87.9076 101.658C97.5998 100.075 105.352 92.6474 107.416 83.1234C114.858 80.8057 119.984 73.897 119.984 66.0273C119.984 64.7365 119.842 63.4563 119.57 62.2073C124.941 57.6486 128 51.0696 128 43.9816Z" fill="#EF6623"/>
<path d="M96.6889 52.9964C97.7244 52.9964 98.5639 52.1569 98.5639 51.1214C98.5639 50.0859 97.7244 49.2464 96.6889 49.2464C91.0922 49.2464 86.5389 44.6931 86.5389 39.0964C86.5389 38.0609 85.6994 37.2214 84.6639 37.2214C83.6284 37.2214 82.7889 38.0609 82.7889 39.0964C82.7889 42.8836 84.3132 46.3201 86.7782 48.8296C84.8264 52.0691 84.2764 55.9276 85.2839 59.6301C85.5109 60.4644 86.2669 61.0134 87.0919 61.0134C87.2549 61.0134 87.4204 60.9919 87.5854 60.9471C88.5847 60.6754 89.1742 59.6449 88.9024 58.6456C88.2067 56.0884 88.5304 53.4294 89.7739 51.1464C91.8122 52.3209 94.1724 52.9964 96.6889 52.9964Z" fill="#F8A51C"/>
</svg>
