<svg width="128" height="128" viewBox="0 0 128 128" fill="none" xmlns="http://www.w3.org/2000/svg">
<g clip-path="url(#clip0_1240_671)">
<path d="M80.1125 120.445H83.8625V128H80.1125V120.445Z" fill="#F8A51C"/>
<path d="M90.8546 65.333C90.8546 50.2287 78.5663 37.9405 63.4621 37.9405C27.1218 39.4452 27.1326 91.2267 63.4623 92.726C78.5666 92.7257 90.8546 80.4375 90.8546 65.333ZM39.8193 65.333C39.8193 52.2965 50.4253 41.6905 63.4621 41.6905C94.8273 42.9892 94.8178 87.682 63.4618 88.976C50.4256 88.9757 39.8193 78.3697 39.8193 65.333Z" fill="#F8A51C"/>
<path d="M100.288 90.381C106.921 76.2165 108.294 54.4495 99.8932 40.8023C111.965 41.5223 112.938 24.4115 100.948 23.863C96.2712 19.1158 87.9692 20.5125 85.1197 26.4838C82.307 24.8668 79.3202 23.569 76.2057 22.6198C77.2085 15.6318 70.1202 8.08026 61.503 10.8745C58.5357 6.57901 53.1062 4.24776 47.9232 5.09876C43.1192 0.00376368 34.907 -1.41499 28.688 1.93651L30.467 5.23776C38.7237 0.973013 48.8092 7.14376 48.7427 16.4495H52.4927C52.4927 13.725 51.808 11.0615 50.5312 8.69526C55.0397 8.96901 58.2415 11.714 59.914 15.7798C71.8497 8.21001 78.6622 27.5845 65.0287 29.025C65.0287 29.0248 21.985 29.0248 21.985 29.0248C15.3035 29.0418 11.9362 20.7483 16.8022 16.1295C18.73 14.2333 21.1432 13.8515 23.724 14.1138C24.4105 11.4695 25.6545 8.93526 27.7465 7.10901L25.2332 4.32576C23.3895 5.99076 21.953 8.04676 21.0292 10.3303C6.88248 11.8938 7.69998 32.394 21.9852 32.775C21.985 32.775 32.9645 32.775 32.9645 32.775C25.3952 40.106 21.093 49.864 20.98 60.256L11.329 80.9013C9.61698 84.3295 11.811 88.8063 15.5707 89.5515L22.4 91.0898L23.5952 104.111C24.3052 111.988 30.9455 117.882 38.8425 117.7V128H42.5925V117.7H57.811V113.95H40.7427C33.9155 114.55 28.1167 110.845 27.3297 103.769L25.885 88.0305L16.3952 85.8933C14.9165 85.5988 14.052 83.839 14.7262 82.489L24.7277 61.094C24.602 50.092 29.687 39.7778 38.6725 32.775C38.71 32.7735 65.108 32.7778 65.1422 32.7735C70.4582 32.5618 73.757 29.7193 75.2725 26.2583C77.3125 26.8895 79.2915 27.6843 81.1947 28.6325C76.5732 33.0368 79.8557 40.7988 86.228 40.8025H95.4135C104.557 53.3648 103.27 75.0598 96.9597 88.6475C92.0737 85.9048 85.496 88.0983 83.2642 93.1903C75.0005 94.6885 75.5445 106.345 83.8787 107.233L80.1127 111.946V116.696H83.8627V113.26L88.6562 107.262H99.3022C109.95 106.899 110.76 91.943 100.288 90.381ZM82.777 33.8473C82.6712 32.0123 84.2672 30.3568 86.103 30.396C86.1292 30.386 87.6017 30.4635 87.676 30.4608L88.1027 29.0803C89.042 25.8578 92.6422 23.9885 95.8232 25.0308C93.321 26.5043 91.6372 29.2248 91.6372 32.3328H95.3872C95.3872 29.7305 97.5045 27.6133 100.107 27.6133C103.043 27.2865 105.746 29.2708 105.752 32.3328C105.752 34.9353 103.635 37.0525 101.033 37.0525H86.2277C84.3877 37.0523 82.8397 35.6145 82.777 33.8473ZM99.302 103.511H84.4967C79.6 103.286 79.782 95.9125 85.9465 96.9143L86.3717 95.5385C87.311 92.316 90.9115 90.447 94.0922 91.4893C91.59 92.9628 89.9062 95.6833 89.9062 98.7913H93.6562C93.664 95.7288 96.364 93.7453 99.302 94.0718C105.563 94.3308 105.561 103.253 99.302 103.511Z" fill="#EF6623"/>
<path d="M13.3795 46.5298V42.7798H8.56475V37.965H4.81475V42.7798H0V46.5298H4.81475V51.3445H8.56475V46.5298H13.3795Z" fill="#F8A51C"/>
<path d="M88.2448 13.3795H91.9948V8.56475H96.8096V4.81475H91.9948V0H88.2448V4.81475H83.4301V8.56475H88.2448V13.3795Z" fill="#F8A51C"/>
<path d="M45.0655 105.481V100.666H49.8802V96.9163H45.0655V92.1015H41.3155V96.9163H36.5007V100.666H41.3155V105.481H45.0655Z" fill="#F8A51C"/>
<path d="M128 81.1095H123.185V76.2947H119.435V81.1095H114.621V84.8595H119.435V89.674H123.185V84.8595H128V81.1095Z" fill="#F8A51C"/>
<path d="M117.255 54.0098V49.195H122.069V45.445H117.255V40.6302H113.505V45.445H108.69V49.195H113.505V54.0098H117.255Z" fill="#F8A51C"/>
<path d="M69.3508 79.2495V71.222H77.3783V59.4445H69.3508V51.4167H57.573V59.4445H49.5455V71.222H57.573V79.2495H69.3508ZM53.2955 67.472V63.1945H61.323V55.1667H65.6008V63.1945H73.6283V67.472H65.6008V75.4995H61.323V67.472H53.2955Z" fill="#F8A51C"/>
<path d="M38.168 17.8005H41.918V21.5505H38.168V17.8005Z" fill="#F8A51C"/>
<path d="M30.418 17.8005H34.168V21.5505H30.418V17.8005Z" fill="#F8A51C"/>
</g>
<defs>
<clipPath id="clip0_1240_671">
<rect width="128" height="128" fill="white"/>
</clipPath>
</defs>
</svg>
