<svg width="35" height="35" viewBox="0 0 35 35" fill="none" xmlns="http://www.w3.org/2000/svg">
<g clip-path="url(#clip0_678_551)">
<path d="M27.1957 20.6945C27.1901 20.6889 27.1848 20.6833 27.1792 20.6776C27.1768 20.6752 27.1738 20.6723 27.1709 20.6696L25.2109 18.7096C24.66 18.1585 23.9276 17.8551 23.1484 17.8551C22.374 17.8551 21.6453 18.155 21.0955 18.6998C21.0914 18.7035 21.0877 18.7075 21.0837 18.7112L20.042 19.7532L15.2448 14.9557L16.2863 13.9141C16.2903 13.9103 16.294 13.9063 16.2977 13.9026C17.4254 12.7645 17.4225 10.9212 16.2881 9.78687L14.3311 7.82955C14.3273 7.82581 14.3239 7.82234 14.3204 7.81887C13.7695 7.26906 13.0376 6.96625 12.2595 6.96625C11.4837 6.96625 10.7542 7.26719 10.2041 7.81326C10.1967 7.82074 10.1892 7.82822 10.182 7.83596L9.28316 8.73451C8.81026 9.20742 8.44736 9.57031 8.43321 9.58473C7.0452 10.9725 6.72076 13.1848 7.51971 15.8142C8.25137 18.2226 9.86128 20.7559 12.0525 22.9474C15.1116 26.0065 18.858 27.9066 21.8292 27.9066C23.2987 27.9066 24.5391 27.4434 25.4112 26.571C25.4293 26.5531 25.9311 26.0513 26.5268 25.4556L27.1792 24.8032C27.1802 24.8022 27.1813 24.8011 27.1826 24.7998C28.3034 23.6753 28.314 21.8518 27.2131 20.7137C27.2075 20.707 27.2013 20.7003 27.1957 20.6945ZM25.7364 23.3455C25.7303 23.3517 25.7241 23.3578 25.718 23.3642L25.0769 24.0054C24.4913 24.591 23.9967 25.0855 23.9649 25.117C23.4747 25.6073 22.7561 25.8559 21.8292 25.8559C19.4188 25.8559 16.1506 24.145 13.5028 21.4974C11.5452 19.5398 10.1174 17.3099 9.48183 15.218C8.92161 13.3747 9.06794 11.8499 9.88398 11.0339L10.7331 10.1847L11.6461 9.27177C11.6496 9.2683 11.6528 9.2651 11.656 9.26163C11.8186 9.10381 12.0322 9.01703 12.2595 9.01703C12.4878 9.01703 12.7027 9.10488 12.8659 9.26456C12.868 9.26697 12.8704 9.26937 12.8731 9.27177L14.8379 11.2368C15.1757 11.5746 15.1757 12.1242 14.8379 12.462C14.8374 12.4625 14.8368 12.4633 14.836 12.4638V12.4641L13.0694 14.2308C12.6691 14.6313 12.6691 15.2805 13.0694 15.681L19.317 21.9284C19.5093 22.1209 19.7702 22.2288 20.042 22.2288C20.3141 22.2288 20.575 22.1207 20.7673 21.9284L22.5227 20.1724C22.5291 20.1665 22.5353 20.1601 22.5414 20.154C22.7046 19.994 22.9198 19.9059 23.1484 19.9059C23.3796 19.9059 23.597 19.9962 23.7607 20.1596L25.7204 22.1191L25.7247 22.1236C25.7268 22.1257 25.7289 22.1279 25.7308 22.13C26.0641 22.4651 26.0657 23.008 25.7364 23.3455Z" fill="white"/>
<path d="M29.8744 5.12562C26.5691 1.82034 22.1746 0 17.5 0C12.8254 0 8.4309 1.82034 5.12562 5.12562C1.82034 8.43117 0 12.8257 0 17.5C0 22.1743 1.82034 26.5691 5.12562 29.8744C8.4309 33.1797 12.8257 35 17.5 35C22.1743 35 26.5688 33.1797 29.8744 29.8744C33.1797 26.5691 35 22.1746 35 17.5C35 12.8257 33.1797 8.43117 29.8744 5.12562ZM17.5 32.9492C8.98125 32.9492 2.05078 26.0185 2.05078 17.5C2.05078 8.98151 8.98125 2.05105 17.5 2.05078C26.0188 2.05105 32.9492 8.98151 32.9492 17.5C32.949 26.0188 26.0185 32.9492 17.5 32.9492Z" fill="white"/>
</g>
<defs>
<clipPath id="clip0_678_551">
<rect width="35" height="35" fill="white"/>
</clipPath>
</defs>
</svg>
