<!DOCTYPE svg PUBLIC "-//W3C//DTD SVG 1.1//EN" "http://www.w3.org/Graphics/SVG/1.1/DTD/svg11.dtd">
<!-- Uploaded to: SVG Repo, www.svgrepo.com, Transformed by: SVG Repo Mixer Tools -->
<svg fill="#000000" width="800px" height="800px" viewBox="0 0 24 24" id="right-arrow-direction-square" xmlns="http://www.w3.org/2000/svg" class="icon line">
<g id="SVGRepo_bgCarrier" stroke-width="0"/>
<g id="SVGRepo_tracerCarrier" stroke-linecap="round" stroke-linejoin="round"/>
<g id="SVGRepo_iconCarrier">
<path id="primary" d="M3,20V4A1,1,0,0,1,4,3H20a1,1,0,0,1,1,1V20a1,1,0,0,1-1,1H4A1,1,0,0,1,3,20Zm4-8h5m4.63-.69L13.5,9.17a1,1,0,0,0-1.5.69v4.28a1,1,0,0,0,1.5.69l3.12-2.14A.82.82,0,0,0,16.63,11.31Z" style="fill: none; stroke: #000000; stroke-linecap: round; stroke-linejoin: round; stroke-width: 1.5;"/>
</g>
</svg>